<?xml version="1.0" encoding="iso-8859-1"?>
<!-- Generator: Adobe Illustrator 19.0.0, SVG Export Plug-In . SVG Version: 6.00 Build 0)  -->
<svg version="1.1" id="Layer_1" xmlns="http://www.w3.org/2000/svg" xmlns:xlink="http://www.w3.org/1999/xlink" x="0px" y="0px"
	 viewBox="0 0 346.708 346.708" style="enable-background:new 0 0 346.708 346.708;" xml:space="preserve">
<g id="XMLID_104_">
	<g id="XMLID_56_">
		<path id="XMLID_60_" style="fill:#A0756F;" d="M272.839,191.787c26.39-24.059,11.154-28.579,11.154-50.517
			C283.993,59.796,241.247,0,173.353,0S62.713,59.796,62.713,141.269c0,21.938-15.236,26.458,11.154,50.517
			C110.626,225.3,236.08,225.3,272.839,191.787z"/>
		<path id="XMLID_57_" style="fill:#8C6762;" d="M283.993,141.269C283.993,59.796,241.247,0,173.353,0v216.922
			c40.553,0,81.106-8.378,99.486-25.135C299.229,167.728,283.993,163.207,283.993,141.269z"/>
	</g>
	<g id="XMLID_53_">
		<path id="XMLID_55_" style="fill:#F3D8B6;" d="M216.542,263.333c0,0-14.458-18.417-14.458-81.376h-26.23h-5.002h-26.23
			c0,62.959-14.458,81.376-14.458,81.376c0,47.368,28.832,48.824,40.688,53.239v1.537c0,0,0.922-0.188,2.501-0.68
			c1.579,0.492,2.501,0.68,2.501,0.68v-1.537C187.71,312.157,216.542,310.7,216.542,263.333z"/>
		<path id="XMLID_54_" style="fill:#EEC8A2;" d="M202.084,181.957h-26.23h-2.501v135.471c1.579,0.492,2.501,0.68,2.501,0.68v-1.537
			c11.856-4.414,40.688-5.871,40.688-53.239C216.542,263.333,202.084,244.916,202.084,181.957z"/>
	</g>
	<g id="XMLID_46_">
		<path id="XMLID_50_" style="fill:#D16154;" d="M290.331,346.708H56.376V304.02c0-44.943,31.347-81.376,76.29-81.376l40.688,10
			l40.688-10c44.943,0,76.29,36.433,76.29,81.376v42.688H290.331z"/>
		<path id="XMLID_47_" style="fill:#B74848;" d="M214.041,222.645l-40.688,10v114.063h116.978V304.02
			C290.331,259.078,258.984,222.645,214.041,222.645z"/>
	</g>
	<g id="XMLID_43_">
		<polygon id="XMLID_45_" style="fill:#FFFFFF;" points="216.353,221.645 173.353,232.621 130.353,221.645 133.164,261.354 
			173.353,232.712 213.542,261.354 		"/>
		<polygon id="XMLID_44_" style="fill:#DEDDE0;" points="213.542,261.354 173.259,232.645 216.353,221.645 		"/>
	</g>
	<g id="XMLID_40_">
		<circle id="XMLID_42_" style="fill:#FFFFFF;" cx="173.353" cy="323.854" r="8.5"/>
		<path id="XMLID_41_" style="fill:#DEDDE0;" d="M173.353,315.354v17c4.694,0,8.5-3.806,8.5-8.5S178.048,315.354,173.353,315.354z"
			/>
	</g>
	<g id="XMLID_37_">
		<circle id="XMLID_39_" style="fill:#FFFFFF;" cx="173.353" cy="291.193" r="8.5"/>
		<path id="XMLID_38_" style="fill:#DEDDE0;" d="M173.353,282.693v17c4.694,0,8.5-3.806,8.5-8.5S178.048,282.693,173.353,282.693z"
			/>
	</g>
	<g id="XMLID_34_">
		<circle id="XMLID_36_" style="fill:#FFFFFF;" cx="173.353" cy="258.533" r="8.5"/>
		<path id="XMLID_35_" style="fill:#DEDDE0;" d="M173.353,250.033v17c4.694,0,8.5-3.806,8.5-8.5
			C181.853,253.838,178.048,250.033,173.353,250.033z"/>
	</g>
	<g id="XMLID_27_">
		<path id="XMLID_33_" style="fill:#F3DBC4;" d="M109.388,120.925c1.012,21.074,4.4,39.808,8.31,47.027
			c9.043,16.694,29.221,38.957,55.657,38.957c26.431,0,46.607-22.262,55.652-38.957c3.91-7.22,7.298-25.953,8.311-47.027
			C237.318,120.925,109.388,120.925,109.388,120.925z"/>
		<path id="XMLID_32_" style="fill:#EDCEAE;" d="M173.353,120.925v85.984c0,0,0.001,0,0.002,0c26.431,0,46.607-22.262,55.652-38.957
			c3.91-7.22,7.298-25.953,8.311-47.027C237.318,120.925,173.353,120.925,173.353,120.925z"/>
	</g>
</g>
<g>
</g>
<g>
</g>
<g>
</g>
<g>
</g>
<g>
</g>
<g>
</g>
<g>
</g>
<g>
</g>
<g>
</g>
<g>
</g>
<g>
</g>
<g>
</g>
<g>
</g>
<g>
</g>
<g>
</g>
</svg>
