<?xml version="1.0" encoding="iso-8859-1"?>
<!-- Generator: Adobe Illustrator 19.0.0, SVG Export Plug-In . SVG Version: 6.00 Build 0)  -->
<svg version="1.1" id="Layer_1" xmlns="http://www.w3.org/2000/svg" xmlns:xlink="http://www.w3.org/1999/xlink" x="0px" y="0px"
	 viewBox="0 0 353.13 353.13" style="enable-background:new 0 0 353.13 353.13;" xml:space="preserve">
<g id="XMLID_20_">
	<g id="XMLID_43_">
		<path id="XMLID_47_" style="fill:#E1A98C;" d="M207.95,218.28c43.802,0,77.304-35.54,77.256-79.342c0-0.227,0-0.45,0-0.669
			C285.205,56.796,244.459,0,176.565,0S67.925,56.796,67.925,138.269c0,0.219,0,0.442,0,0.669
			c-0.048,43.802,33.454,79.342,77.256,79.342H207.95z"/>
		<path id="XMLID_44_" style="fill:#D2987B;" d="M285.205,138.269C285.205,56.796,244.459,0,176.565,0v218.28h31.385
			c43.802,0,77.304-35.54,77.256-79.342C285.205,138.712,285.205,138.489,285.205,138.269z"/>
	</g>
	<g id="XMLID_40_">
		<path id="XMLID_42_" style="fill:#F3D8B6;" d="M204.894,175.281H178.01h-1.256h-0.379h-1.256h-26.884
			c0,74.552-36.43,67.808-36.43,67.808c0,47.368,51.162,62.392,63.313,66.806v1.537c0,0,0.533-0.11,1.446-0.359
			c0.912,0.249,1.446,0.359,1.446,0.359v-1.537c12.151-4.414,63.313-19.439,63.313-66.806
			C241.324,243.089,204.894,249.833,204.894,175.281z"/>
		<path id="XMLID_41_" style="fill:#EEC8A2;" d="M204.894,175.281H178.01h-1.256h-0.189v135.792
			c0.912,0.249,1.446,0.359,1.446,0.359v-1.537c12.151-4.414,63.313-19.439,63.313-66.806
			C241.324,243.089,204.894,249.833,204.894,175.281z"/>
	</g>
	<g id="XMLID_37_">
		<path id="XMLID_39_" style="fill:#F3DBC4;" d="M240.493,115.656c-0.091-0.006-0.187-0.013-0.286-0.021
			c-0.148-0.01-0.302-0.022-0.469-0.034c-0.102-0.007-0.206-0.015-0.315-0.023c-0.18-0.013-0.367-0.028-0.565-0.043
			c-0.129-0.01-0.258-0.02-0.394-0.031c-0.211-0.016-0.433-0.034-0.662-0.052c-0.134-0.011-0.265-0.021-0.405-0.032
			c-0.262-0.021-0.539-0.044-0.822-0.067c-0.132-0.011-0.258-0.021-0.395-0.033c-0.34-0.029-0.698-0.059-1.065-0.091
			c-0.091-0.008-0.177-0.015-0.27-0.023c-0.434-0.038-0.886-0.078-1.355-0.121c-0.048-0.004-0.092-0.008-0.14-0.012
			c-1.053-0.096-2.193-0.203-3.409-0.323c-0.036-0.003-0.074-0.007-0.11-0.011c-0.559-0.055-1.134-0.113-1.724-0.174
			c-0.122-0.012-0.249-0.026-0.372-0.039c-0.51-0.052-1.028-0.107-1.56-0.163c-0.173-0.019-0.35-0.038-0.525-0.057
			c-0.504-0.054-1.016-0.11-1.538-0.168c-0.186-0.021-0.374-0.042-0.562-0.063c-0.518-0.058-1.043-0.117-1.577-0.179
			c-0.214-0.025-0.428-0.05-0.644-0.075c-0.527-0.062-1.062-0.125-1.604-0.189c-0.221-0.027-0.442-0.053-0.665-0.08
			c-0.562-0.068-1.131-0.138-1.707-0.21c-0.212-0.027-0.422-0.052-0.636-0.079c-0.615-0.077-1.238-0.157-1.868-0.239
			c-0.182-0.023-0.361-0.046-0.544-0.07c-0.701-0.092-1.412-0.187-2.13-0.284c-0.121-0.016-0.24-0.032-0.361-0.049
			c-2.575-0.35-5.253-0.736-8.013-1.16c-0.072-0.011-0.145-0.023-0.217-0.034c-0.828-0.127-1.663-0.258-2.504-0.393
			c-0.187-0.03-0.376-0.061-0.564-0.091c-0.727-0.117-1.458-0.236-2.194-0.359c-0.253-0.042-0.507-0.085-0.761-0.128
			c-0.68-0.114-1.361-0.23-2.047-0.349c-0.285-0.049-0.571-0.1-0.857-0.15c-0.663-0.116-1.327-0.234-1.995-0.355
			c-0.302-0.054-0.603-0.109-0.906-0.165c-0.665-0.122-1.331-0.245-2-0.371c-0.3-0.056-0.599-0.113-0.9-0.17
			c-0.683-0.13-1.367-0.263-2.053-0.398c-0.289-0.057-0.577-0.113-0.867-0.171c-0.718-0.143-1.437-0.289-2.158-0.437
			c-0.256-0.052-0.511-0.104-0.767-0.157c-0.788-0.164-1.577-0.331-2.368-0.501c-0.192-0.041-0.384-0.081-0.577-0.123
			c-27.403-5.937-55.698-15.67-65.718-31.299c-5.057,33.582,0.023,77.854,6.563,89.929c9.042,16.694,29.221,38.956,55.657,38.956
			c26.431,0,46.607-22.262,55.652-38.956c4.098-7.566,7.624-27.774,8.442-50.072C240.606,115.664,240.555,115.66,240.493,115.656z"
			/>
		<path id="XMLID_38_" style="fill:#EDCEAE;" d="M240.493,115.656c-0.091-0.006-0.187-0.013-0.286-0.021
			c-0.148-0.01-0.302-0.022-0.469-0.034c-0.102-0.007-0.206-0.015-0.315-0.023c-0.18-0.013-0.367-0.028-0.565-0.043
			c-0.129-0.01-0.258-0.02-0.394-0.031c-0.211-0.016-0.433-0.034-0.662-0.052c-0.134-0.011-0.265-0.021-0.405-0.032
			c-0.262-0.021-0.539-0.044-0.822-0.067c-0.132-0.011-0.258-0.021-0.395-0.033c-0.34-0.029-0.698-0.059-1.065-0.091
			c-0.091-0.008-0.177-0.015-0.27-0.023c-0.434-0.038-0.886-0.078-1.355-0.121c-0.048-0.004-0.092-0.008-0.14-0.012
			c-1.053-0.096-2.193-0.203-3.409-0.323c-0.036-0.003-0.074-0.007-0.11-0.011c-0.559-0.055-1.134-0.113-1.724-0.174
			c-0.122-0.012-0.249-0.026-0.372-0.039c-0.51-0.052-1.028-0.107-1.56-0.163c-0.173-0.019-0.35-0.038-0.525-0.057
			c-0.504-0.054-1.016-0.11-1.538-0.168c-0.186-0.021-0.374-0.042-0.562-0.063c-0.518-0.058-1.043-0.117-1.577-0.179
			c-0.214-0.025-0.428-0.05-0.644-0.075c-0.527-0.062-1.062-0.125-1.604-0.189c-0.221-0.027-0.442-0.053-0.665-0.08
			c-0.562-0.068-1.131-0.138-1.707-0.21c-0.212-0.027-0.422-0.052-0.636-0.079c-0.615-0.077-1.238-0.157-1.868-0.239
			c-0.182-0.023-0.361-0.046-0.544-0.07c-0.701-0.092-1.412-0.187-2.13-0.284c-0.121-0.016-0.24-0.032-0.361-0.049
			c-2.575-0.35-5.253-0.736-8.013-1.16c-0.072-0.011-0.145-0.023-0.217-0.034c-0.828-0.127-1.663-0.258-2.504-0.393
			c-0.187-0.03-0.376-0.061-0.564-0.091c-0.727-0.117-1.458-0.236-2.194-0.359c-0.253-0.042-0.507-0.085-0.761-0.128
			c-0.68-0.114-1.361-0.23-2.047-0.349c-0.285-0.049-0.571-0.1-0.857-0.15c-0.663-0.116-1.327-0.234-1.995-0.355
			c-0.302-0.054-0.603-0.109-0.906-0.165c-0.665-0.122-1.331-0.245-2-0.371c-0.3-0.056-0.599-0.113-0.9-0.17
			c-0.683-0.13-1.367-0.263-2.053-0.398c-0.289-0.057-0.577-0.113-0.867-0.171c-0.718-0.143-1.437-0.289-2.158-0.437
			c-0.256-0.052-0.511-0.104-0.767-0.157c-0.788-0.164-1.577-0.331-2.368-0.501c-0.192-0.041-0.384-0.081-0.577-0.123
			c-1.166-0.253-2.333-0.515-3.5-0.781v98.368c0,0,0.001,0,0.002,0c26.431,0,46.607-22.262,55.652-38.956
			c4.098-7.566,7.624-27.774,8.442-50.072C240.606,115.664,240.555,115.66,240.493,115.656z"/>
	</g>
	<g id="XMLID_34_">
		<path id="XMLID_36_" style="fill:#682234;" d="M293.545,312.44v40.69H59.585v-40.69c0-38.32,22.79-70.45,57.36-79.08
			c5.98-1.5,12.31-2.29,18.93-2.29c0,0,1.4,55.77,23.81,74.97c4.66,3.99,10.23,6.4,16.88,6.4c44.25,0,40.69-81.37,40.69-81.37
			C262.195,231.07,293.545,267.5,293.545,312.44z"/>
		<path id="XMLID_35_" style="fill:#581A2B;" d="M217.255,231.07c0,0,3.56,81.37-40.69,81.37v40.69h116.98v-40.69
			C293.545,267.5,262.195,231.07,217.255,231.07z"/>
	</g>
	<g id="XMLID_21_">
		<path id="XMLID_33_" style="fill:#FFFFFF;" d="M211.785,266.133l-35.22,20.334l0,0l-35.22-20.334
			c-6.951-4.013-15.639,1.003-15.639,9.03v51.974c0,8.026,8.689,13.042,15.639,9.029l35.22-20.334l0,0l35.22,20.334
			c6.951,4.013,15.639-1.003,15.639-9.029v-51.974C227.425,267.137,218.736,262.12,211.785,266.133z"/>
		<path id="XMLID_32_" style="fill:#DEDDE0;" d="M211.785,266.133l-35.22,20.334v29.364l35.22,20.334
			c6.951,4.013,15.639-1.003,15.639-9.029v-51.974C227.425,267.137,218.736,262.12,211.785,266.133z"/>
	</g>
</g>
<g>
</g>
<g>
</g>
<g>
</g>
<g>
</g>
<g>
</g>
<g>
</g>
<g>
</g>
<g>
</g>
<g>
</g>
<g>
</g>
<g>
</g>
<g>
</g>
<g>
</g>
<g>
</g>
<g>
</g>
</svg>
