<?xml version="1.0" encoding="iso-8859-1"?>
<!-- Generator: Adobe Illustrator 19.0.0, SVG Export Plug-In . SVG Version: 6.00 Build 0)  -->
<svg version="1.1" id="Layer_1" xmlns="http://www.w3.org/2000/svg" xmlns:xlink="http://www.w3.org/1999/xlink" x="0px" y="0px"
	 viewBox="0 0 376.452 376.452" style="enable-background:new 0 0 376.452 376.452;" xml:space="preserve">
<g id="XMLID_23_">
	<g id="XMLID_52_">
		<path id="XMLID_525_" style="fill:#A0756F;" d="M219.611,241.521c43.802,0,77.304-35.54,77.256-79.342c0-0.227,0-0.45,0-0.669
			c0-81.473-40.746-138.269-108.64-138.269S79.586,80.037,79.586,161.51c0,0.219,0,0.442,0,0.669
			c-0.048,43.802,33.454,79.342,77.256,79.342H219.611z"/>
		<path id="XMLID_530_" style="fill:#8C6762;" d="M296.867,161.51c0-81.473-40.746-138.269-108.64-138.269v218.28h31.385
			c43.802,0,77.304-35.54,77.256-79.342C296.867,161.953,296.867,161.73,296.867,161.51z"/>
	</g>
	<g id="XMLID_49_">
		<path id="XMLID_531_" style="fill:#DFE0F2;" d="M305.206,335.681v40.69H71.246v-40.69c0-38.32,22.79-70.45,57.36-79.08
			c5.98-1.5,12.31-2.29,18.93-2.29c0,0,1.4,55.77,23.81,74.97c4.66,3.99,10.23,6.4,16.88,6.4c44.25,0,40.69-81.37,40.69-81.37
			C273.857,254.311,305.206,290.741,305.206,335.681z"/>
		<path id="XMLID_532_" style="fill:#C6C8D7;" d="M228.916,254.311c0,0,3.56,81.37-40.69,81.37v40.69h116.98v-40.69
			C305.206,290.741,273.857,254.311,228.916,254.311z"/>
	</g>
	<g id="XMLID_46_">
		<path id="XMLID_533_" style="fill:#F3D8B6;" d="M216.556,198.522h-26.884h-1.256h-0.379h-1.256h-26.884
			c0,74.552-36.43,67.808-36.43,67.808c0,47.368,51.162,62.392,63.313,66.806v1.537c0,0,0.533-0.11,1.446-0.359
			c0.912,0.249,1.446,0.359,1.446,0.359v-1.537c12.151-4.414,63.313-19.439,63.313-66.806
			C252.986,266.33,216.556,273.074,216.556,198.522z"/>
		<path id="XMLID_534_" style="fill:#EEC8A2;" d="M216.556,198.522h-26.884h-1.256h-0.189v135.792
			c0.913,0.249,1.446,0.359,1.446,0.359v-1.537c12.151-4.414,63.313-19.439,63.313-66.806
			C252.986,266.33,216.556,273.074,216.556,198.522z"/>
	</g>
	<g id="XMLID_43_">
		<path id="XMLID_535_" style="fill:#F3DBC4;" d="M126.009,99.048c-5.058,33.583,0.022,77.857,6.562,89.932
			c9.042,16.694,29.22,38.957,55.657,38.957c26.431,0,46.607-22.262,55.652-38.957c4.098-7.566,7.624-27.773,8.442-50.071
			C240.767,138.102,146.212,130.566,126.009,99.048z"/>
		<path id="XMLID_536_" style="fill:#EDCEAE;" d="M188.226,129.571v98.365c0,0,0.001,0,0.002,0
			c26.431,0,46.607-22.262,55.652-38.957c4.098-7.566,7.624-27.773,8.442-50.072C246.286,138.487,217.317,136.211,188.226,129.571z"
			/>
	</g>
	<g id="XMLID_34_">
		<g id="XMLID_782_">
			<polygon id="XMLID_783_" style="fill:#FFFFFF;" points="276.512,16.874 268.498,43.212 264.326,56.946 254.555,89.092 
				121.164,89.092 111.393,56.957 107.221,43.234 99.207,16.874 188.211,0 			"/>
			<polygon id="XMLID_784_" style="fill:#DEDDE0;" points="188.226,0.003 188.226,89.092 254.555,89.092 264.326,56.946 
				268.498,43.212 276.512,16.874 			"/>
		</g>
		<g id="XMLID_785_">
			<g id="XMLID_786_">
				<path id="XMLID_787_" style="fill:#BF0411;" d="M188.578,27.864l-80.99,15.37l4.172,13.723l76.807-14.569l76.126,14.558
					l4.172-13.734L188.578,27.864z"/>
			</g>
			<polygon id="XMLID_789_" style="fill:#921B1F;" points="188.578,27.864 188.226,27.931 188.226,42.453 188.567,42.389 
				264.693,56.946 268.865,43.212 			"/>
		</g>
	</g>
	<g id="XMLID_24_">
		<path id="XMLID_790_" style="fill:#FFFFFF;" d="M284.581,297.741l-36.399-41.14c-5.98-1.5-12.31-2.29-18.93-2.29
			c0,0-18.903,55.038-41.025,75.661c-22.122-20.623-41.404-75.661-41.404-75.661c-6.62,0-12.95,0.79-18.93,2.29l-36.02,41.14
			l76.57,78.63l18,0.067v0.013l1.785-0.007l1.785,0.007v-0.013l18-0.067L284.581,297.741z"/>
		<path id="XMLID_791_" style="fill:#DEDDE0;" d="M248.182,256.601c-5.98-1.5-12.31-2.29-18.93-2.29
			c0,0-18.903,55.038-41.025,75.661v46.473l1.785,0.007v-0.013l18-0.067l76.57-78.63L248.182,256.601z"/>
	</g>
</g>
<g>
</g>
<g>
</g>
<g>
</g>
<g>
</g>
<g>
</g>
<g>
</g>
<g>
</g>
<g>
</g>
<g>
</g>
<g>
</g>
<g>
</g>
<g>
</g>
<g>
</g>
<g>
</g>
<g>
</g>
</svg>
