<?xml version="1.0" encoding="iso-8859-1"?>
<!-- Generator: Adobe Illustrator 19.0.0, SVG Export Plug-In . SVG Version: 6.00 Build 0)  -->
<svg version="1.1" id="Layer_1" xmlns="http://www.w3.org/2000/svg" xmlns:xlink="http://www.w3.org/1999/xlink" x="0px" y="0px"
	 viewBox="0 0 360.969 360.969" style="enable-background:new 0 0 360.969 360.969;" xml:space="preserve">
<g id="XMLID_13_">
	<g id="XMLID_57_">
		<path id="XMLID_976_" style="fill:#A0756F;" d="M279.971,192.072c26.39-24.059,11.154-28.864,11.154-50.802
			C291.125,59.796,248.379,0,180.484,0S69.844,59.796,69.844,141.269c0,21.938-15.236,26.743,11.154,50.802
			C117.758,225.585,243.211,225.585,279.971,192.072z"/>
		<path id="XMLID_979_" style="fill:#8C6762;" d="M291.125,141.27C291.125,59.796,248.379,0,180.484,0v217.207
			c40.553,0,81.106-8.378,99.486-25.135C306.36,168.013,291.125,163.208,291.125,141.27z"/>
	</g>
	<g id="XMLID_53_">
		<g id="XMLID_55_">
			<path id="XMLID_981_" style="fill:#F3D8B6;" d="M208.814,183.041H181.93h-1.256h-0.379h-1.256h-26.884
				c0,74.552-36.43,67.808-36.43,67.808c0,47.368,51.162,62.392,63.313,66.806v1.537c0,0,0.533-0.11,1.446-0.359
				c0.912,0.249,1.446,0.359,1.446,0.359v-1.537c12.151-4.414,63.313-19.439,63.313-66.806
				C245.244,250.849,208.814,257.593,208.814,183.041z"/>
		</g>
		<path id="XMLID_54_" style="fill:#EEC8A2;" d="M208.814,183.041H181.93h-1.256h-0.189v135.792
			c0.913,0.249,1.446,0.359,1.446,0.359v-1.537c12.151-4.414,63.313-19.438,63.313-66.806
			C245.244,250.849,208.814,257.593,208.814,183.041z"/>
	</g>
	<g id="XMLID_46_">
		<path id="XMLID_50_" style="fill:#545465;" d="M297.466,320.288v40.681H63.503v-40.681c0-30.431,14.377-56.963,37.605-70.913
			c6.043-3.641,12.69-6.43,19.844-8.196c5.953-1.488,12.254-2.272,18.842-2.272l40.691,41.948l40.691-41.948
			c6.588,0,12.889,0.784,18.842,2.272c7.154,1.766,13.802,4.554,19.844,8.196C283.089,263.325,297.466,289.857,297.466,320.288z"/>
		<path id="XMLID_47_" style="fill:#545465;" d="M259.861,249.375c-6.042-3.642-12.69-6.43-19.844-8.196
			c-5.953-1.488-12.254-2.272-18.842-2.272l-40.691,41.948l0,0v80.114h116.982v-40.681
			C297.466,289.857,283.089,263.325,259.861,249.375z"/>
	</g>
	<g id="XMLID_42_">
		<g id="XMLID_44_">
			<circle id="XMLID_986_" style="fill:#FFFFFF;" cx="180.484" cy="346.355" r="8.5"/>
		</g>
		<path id="XMLID_43_" style="fill:#DEDDE0;" d="M180.484,337.855v17c4.694,0,8.5-3.806,8.5-8.5S185.179,337.855,180.484,337.855z"
			/>
	</g>
	<g id="XMLID_38_">
		<g id="XMLID_40_">
			<circle id="XMLID_987_" style="fill:#FFFFFF;" cx="180.484" cy="313.379" r="8.5"/>
		</g>
		<path id="XMLID_39_" style="fill:#DEDDE0;" d="M180.484,304.879v17c4.694,0,8.5-3.806,8.5-8.5S185.179,304.879,180.484,304.879z"
			/>
	</g>
	<g id="XMLID_34_">
		<g id="XMLID_36_">
			<path id="XMLID_988_" style="fill:#FFFFFF;" d="M234.966,243.517c-4.263-3.501-10.355-4.941-17.118-4.519l-37.363,31.472
				l-37.363-31.472c-6.764-0.422-12.856,1.018-17.118,4.519c-10.202,8.38-6.066,37.944,9.236,50.513
				c14.85,12.198,34.757-3.669,45.245-11.126c10.488,7.458,30.395,23.324,45.245,11.126
				C241.033,281.461,245.167,251.897,234.966,243.517z"/>
		</g>
		<path id="XMLID_35_" style="fill:#DEDDE0;" d="M234.966,243.517c-4.263-3.501-10.354-4.941-17.118-4.519l-37.363,31.472v12.434
			c10.488,7.458,30.396,23.324,45.245,11.126C241.032,281.461,245.167,251.897,234.966,243.517z"/>
	</g>
	<g id="XMLID_14_">
		<path id="XMLID_985_" style="fill:#F3DBC4;" d="M160.284,83.886c-1.621-2.782-3.113-5.444-4.497-8.014
			c-7.908,17.166-26.559,38.463-39.491,43.948c0.593,23.489,4.249,45.219,8.534,53.129c9.042,16.694,29.22,38.957,55.657,38.957
			c26.431,0,46.607-22.262,55.652-38.957c4.244-7.836,7.875-29.236,8.52-52.472C226.75,118.886,176.654,111.981,160.284,83.886z"/>
		<path id="XMLID_989_" style="fill:#EDCEAE;" d="M180.484,102.822v109.083c0,0,0.001,0,0.002,0
			c26.431,0,46.607-22.262,55.652-38.957c4.244-7.836,7.875-29.236,8.52-52.473C231.756,119.329,202.153,115.422,180.484,102.822z"
			/>
	</g>
</g>
<g>
</g>
<g>
</g>
<g>
</g>
<g>
</g>
<g>
</g>
<g>
</g>
<g>
</g>
<g>
</g>
<g>
</g>
<g>
</g>
<g>
</g>
<g>
</g>
<g>
</g>
<g>
</g>
<g>
</g>
</svg>
