<?xml version="1.0" encoding="iso-8859-1"?>
<!-- Generator: Adobe Illustrator 19.0.0, SVG Export Plug-In . SVG Version: 6.00 Build 0)  -->
<svg version="1.1" id="Layer_1" xmlns="http://www.w3.org/2000/svg" xmlns:xlink="http://www.w3.org/1999/xlink" x="0px" y="0px"
	 viewBox="0 0 367.128 367.128" style="enable-background:new 0 0 367.128 367.128;" xml:space="preserve">
<g id="XMLID_105_">
	<g id="XMLID_476_">
		<path id="XMLID_496_" style="fill:#F3D8B6;" d="M300.546,325.99v40.681H66.582V325.99c0-30.431,14.377-56.963,37.605-70.913
			c6.043-3.641,12.69-6.43,19.844-8.196c5.953-1.488,12.254-2.272,18.842-2.272l40.691,24.002l40.691-24.002
			c6.588,0,12.889,0.784,18.842,2.272c7.154,1.766,13.802,4.554,19.844,8.196C286.168,269.027,300.546,295.559,300.546,325.99z"/>
		<path id="XMLID_498_" style="fill:#EEC8A2;" d="M262.941,255.076c-6.042-3.641-12.69-6.429-19.844-8.196
			c-5.953-1.488-12.254-2.272-18.842-2.272l-40.691,24.002l-0.021-0.012v98.073h117.002V325.99
			C300.546,295.559,286.168,269.027,262.941,255.076z"/>
	</g>
	<g id="XMLID_500_">
		<path id="XMLID_503_" style="fill:#545465;" d="M254.494,28.81c-4.23-4.21-8.77-8.02-13.6-11.37C224.804,6.24,205.504,0,183.564,0
			c-21.93,0-41.24,6.24-57.33,17.44c-5.35,3.72-10.35,7.99-14.97,12.77c-24.48,25.3-38.34,64.66-38.34,111.06
			c0,54.503,43.92,89.12,43.92,89.12l66.72-56.72l66.73,56.72c0,0,43.91-32.95,43.91-89.12
			C294.204,94.02,279.824,54.05,254.494,28.81z"/>
		<path id="XMLID_506_" style="fill:#494857;" d="M254.494,28.81c-4.23-4.21-8.77-8.02-13.6-11.37C224.804,6.24,205.504,0,183.564,0
			v173.67l66.73,56.72c0,0,43.91-32.95,43.91-89.12C294.204,94.02,279.824,54.05,254.494,28.81z"/>
	</g>
	<g id="XMLID_507_">
		<path id="XMLID_508_" style="fill:#F3D8B6;" d="M226.752,249.088c0,0-14.458-18.417-14.458-81.376h-26.23h-5.002h-26.23
			c0,62.959-14.458,81.376-14.458,81.376c0,47.368,28.832,48.824,40.688,53.239v1.537c0,0,0.922-0.188,2.501-0.68
			c1.579,0.492,2.501,0.68,2.501,0.68v-1.537C197.92,297.912,226.752,296.455,226.752,249.088z"/>
		<path id="XMLID_509_" style="fill:#EEC8A2;" d="M212.295,167.712h-26.23h-2.501v135.471c1.579,0.492,2.501,0.68,2.501,0.68v-1.537
			c11.856-4.414,40.688-5.871,40.688-53.239C226.753,249.088,212.295,230.671,212.295,167.712z"/>
	</g>
	<g id="XMLID_510_">
		<path id="XMLID_511_" style="fill:#F3DBC4;" d="M119.454,124.445c0.789,22.463,4.331,42.877,8.455,50.49
			c9.042,16.694,29.221,38.956,55.657,38.956c26.431,0,46.607-22.262,55.652-38.956c4.123-7.613,7.667-28.027,8.456-50.49
			C247.674,124.445,119.454,124.445,119.454,124.445z"/>
		<path id="XMLID_512_" style="fill:#EDCEAE;" d="M183.564,124.445v89.446c0.001,0,0.001,0,0.002,0
			c26.431,0,46.607-22.262,55.652-38.956c4.123-7.613,7.667-28.027,8.456-50.49C247.674,124.445,183.564,124.445,183.564,124.445z"
			/>
	</g>
	<g id="XMLID_515_">
		<g id="XMLID_516_">
			<path id="XMLID_37_" style="fill:#FF628B;" d="M66.574,325.991v5.97h80.98l-4.69-87.35c-6.59,0-12.89,0.78-18.84,2.27
				c-7.16,1.77-13.8,4.55-19.85,8.2C80.954,269.031,66.574,295.561,66.574,325.991z"/>
			<polygon id="XMLID_517_" style="fill:#FF628B;" points="229.038,276.128 183.564,276.128 138.089,276.128 103.564,332.461 
				103.564,367.128 183.564,367.128 263.564,367.128 263.564,332.461 			"/>
		</g>
		<g id="XMLID_518_">
			<path id="XMLID_519_" style="fill:#C85279;" d="M300.554,325.991v5.97h-80.98l4.69-87.35c6.59,0,12.89,0.78,18.84,2.27
				c7.16,1.77,13.8,4.55,19.85,8.2C286.174,269.031,300.554,295.561,300.554,325.991z"/>
			<polygon id="XMLID_520_" style="fill:#C85279;" points="229.038,276.128 183.564,276.128 183.543,276.128 183.543,367.128 
				183.564,367.128 263.564,367.128 263.564,332.461 			"/>
		</g>
	</g>
</g>
<g>
</g>
<g>
</g>
<g>
</g>
<g>
</g>
<g>
</g>
<g>
</g>
<g>
</g>
<g>
</g>
<g>
</g>
<g>
</g>
<g>
</g>
<g>
</g>
<g>
</g>
<g>
</g>
<g>
</g>
</svg>
