<?xml version="1.0" encoding="iso-8859-1"?>
<!-- Generator: Adobe Illustrator 19.0.0, SVG Export Plug-In . SVG Version: 6.00 Build 0)  -->
<svg version="1.1" id="Layer_1" xmlns="http://www.w3.org/2000/svg" xmlns:xlink="http://www.w3.org/1999/xlink" x="0px" y="0px"
	 viewBox="0 0 354.879 354.879" style="enable-background:new 0 0 354.879 354.879;" xml:space="preserve">
<g id="XMLID_37_">
	<g id="XMLID_51_">
		<path id="XMLID_55_" style="fill:#545465;" d="M288.076,141.27c0,56.17-43.91,89.12-43.91,89.12l-66.73-56.72l-66.72,56.72
			c0,0-43.92-34.617-43.92-89.12c0-46.4,13.86-85.76,38.34-111.06c4.62-4.78,9.62-9.05,14.97-12.77
			C136.196,6.24,155.506,0,177.436,0c21.94,0,41.24,6.24,57.33,17.44c4.83,3.35,9.37,7.16,13.6,11.37
			C273.696,54.05,288.076,94.02,288.076,141.27z"/>
		<path id="XMLID_52_" style="fill:#494857;" d="M248.366,28.81c-4.23-4.21-8.77-8.02-13.6-11.37C218.677,6.24,199.378,0,177.439,0
			v173.672l66.727,56.718c0,0,43.91-32.95,43.91-89.12C288.076,94.02,273.696,54.05,248.366,28.81z"/>
	</g>
	<g id="XMLID_48_">
		<path id="XMLID_50_" style="fill:#F3D8B6;" d="M220.628,263.334c0,0-14.458-18.417-14.458-81.376h-26.23h-5.002h-26.23
			c0,62.959-14.458,81.376-14.458,81.376c0,47.368,28.832,48.824,40.688,53.239v1.537c0,0,0.922-0.188,2.501-0.68
			c1.579,0.492,2.501,0.68,2.501,0.68v-1.537C191.796,312.158,220.628,310.702,220.628,263.334z"/>
		<path id="XMLID_49_" style="fill:#EEC8A2;" d="M206.17,181.958h-26.23h-2.501V317.43c1.579,0.492,2.501,0.68,2.501,0.68v-1.537
			c11.856-4.414,40.688-5.871,40.688-53.239C220.628,263.334,206.17,244.917,206.17,181.958z"/>
	</g>
	<g id="XMLID_45_">
		<path id="XMLID_47_" style="fill:#682234;" d="M294.421,314.198v40.681H60.458v-40.681c0-30.431,14.377-56.963,37.605-70.913
			c6.043-3.641,12.69-6.43,19.844-8.196c5.953-1.488,12.254-2.272,18.842-2.272l40.691,24.002l40.691-24.002
			c6.588,0,12.889,0.784,18.842,2.272c7.154,1.766,13.802,4.554,19.844,8.196C280.044,257.235,294.421,283.767,294.421,314.198z"/>
		<path id="XMLID_46_" style="fill:#521627;" d="M256.816,243.285c-6.042-3.641-12.69-6.43-19.844-8.196
			c-5.953-1.488-12.254-2.272-18.842-2.272l-40.691,24.002l0,0v98.06h116.982v-40.681
			C294.421,283.767,280.044,257.235,256.816,243.285z"/>
	</g>
	<g id="XMLID_42_">
		<path id="XMLID_44_" style="fill:#F3DBC4;" d="M230.186,115.21l-22.73-22.72l-16,16l-16-16l-22.72,22.72h-39.477
			c0.623,23.341,4.264,44.877,8.525,52.744c9.042,16.694,29.221,38.957,55.657,38.957c26.431,0,46.607-22.262,55.652-38.957
			c4.261-7.867,7.903-29.403,8.526-52.744C241.619,115.21,230.186,115.21,230.186,115.21z"/>
		<path id="XMLID_43_" style="fill:#EDCEAE;" d="M230.186,115.21l-22.73-22.72l-16,16l-14.017-14.017V206.91c0,0,0.001,0,0.002,0
			c26.431,0,46.607-22.262,55.652-38.957c4.261-7.867,7.903-29.403,8.526-52.744L230.186,115.21L230.186,115.21z"/>
	</g>
	<path id="XMLID_41_" style="fill:#DEDDE0;" d="M233.204,335.879h-10.333c-9.205,0-16.667-7.462-16.667-16.667v-22h43.667v22
		C249.871,328.417,242.409,335.879,233.204,335.879z"/>
	<g id="XMLID_38_">
		<path id="XMLID_40_" style="fill:#FFFFFF;" d="M223.324,234.118c-3.59-2.949-8.721-4.162-14.417-3.806l-31.468,26.507
			l-31.468-26.507c-5.697-0.356-10.827,0.857-14.417,3.806c-8.592,7.058-5.109,31.957,7.779,42.543
			c12.507,10.273,29.273-3.09,38.106-9.371c8.833,6.281,25.6,19.644,38.106,9.371C228.434,266.075,231.916,241.175,223.324,234.118z
			"/>
		<path id="XMLID_39_" style="fill:#DEDDE0;" d="M223.324,234.118c-3.59-2.949-8.721-4.162-14.417-3.806l-31.468,26.507v10.472
			c8.833,6.281,25.6,19.644,38.106,9.371C228.434,266.075,231.916,241.175,223.324,234.118z"/>
	</g>
</g>
<g>
</g>
<g>
</g>
<g>
</g>
<g>
</g>
<g>
</g>
<g>
</g>
<g>
</g>
<g>
</g>
<g>
</g>
<g>
</g>
<g>
</g>
<g>
</g>
<g>
</g>
<g>
</g>
<g>
</g>
</svg>
