<?xml version="1.0" encoding="iso-8859-1"?>
<!-- Generator: Adobe Illustrator 19.0.0, SVG Export Plug-In . SVG Version: 6.00 Build 0)  -->
<svg version="1.1" id="Layer_1" xmlns="http://www.w3.org/2000/svg" xmlns:xlink="http://www.w3.org/1999/xlink" x="0px" y="0px"
	 viewBox="0 0 326.92 326.92" style="enable-background:new 0 0 326.92 326.92;" xml:space="preserve">
<g id="XMLID_36_">
	<g id="XMLID_42_">
		<g id="XMLID_50_">
			<path id="XMLID_54_" style="fill:#A0756F;" d="M284.19,159.45c0,22.9-19.66,41.46-41.46,41.46c-2.46,0-4.88,0.1-7.26,0.29
				c-0.37,0.03-0.73,0.06-1.1,0.09c-0.7,0.06-1.4,0.13-2.1,0.21c-0.39,0.04-0.78,0.09-1.16,0.14c-2.3,0.28-4.56,0.63-6.79,1.05
				c-0.42,0.07-0.84,0.15-1.26,0.24c-0.48,0.09-0.96,0.19-1.44,0.29c-0.45,0.09-0.9,0.19-1.34,0.29c-0.08,0.01-0.16,0.03-0.23,0.05
				c-0.45,0.09-0.9,0.2-1.35,0.3c-0.8,0.18-1.6,0.38-2.4,0.57c-0.97,0.25-1.94,0.5-2.9,0.76c-0.44,0.11-0.87,0.23-1.31,0.35
				c-1.74,0.48-3.45,0.97-5.15,1.49c-0.73,0.21-1.45,0.43-2.17,0.66c-0.96,0.29-1.92,0.6-2.87,0.9c-0.42,0.13-0.83,0.26-1.24,0.4
				c-1.1,0.35-2.19,0.7-3.26,1.05c-0.4,0.12-0.81,0.26-1.21,0.39c-0.4,0.13-0.8,0.26-1.2,0.39c-0.15,0.04-0.3,0.09-0.45,0.15
				c-0.41,0.12-0.81,0.25-1.21,0.39c-0.24,0.07-0.48,0.15-0.72,0.23c-1.98,0.63-3.93,1.25-5.86,1.84c-0.18,0.05-0.35,0.1-0.53,0.16
				c-1.56,0.47-3.1,0.92-4.63,1.33c-0.19,0.05-0.38,0.1-0.57,0.15c-0.75,0.2-1.5,0.39-2.25,0.58c-0.38,0.09-0.75,0.18-1.12,0.27
				c-0.38,0.09-0.75,0.17-1.12,0.26c-0.37,0.08-0.74,0.16-1.11,0.24c-0.74,0.15-1.48,0.3-2.21,0.44c-0.74,0.13-1.47,0.25-2.19,0.37
				c-0.55,0.08-1.09,0.16-1.64,0.23c-1.08,0.14-2.17,0.25-3.24,0.32c-0.54,0.04-1.08,0.07-1.61,0.09c-0.36,0.01-0.71,0.02-1.07,0.03
				c-0.24,0.01-0.49,0.02-0.73,0.02c-22.95,0.07-47.68-17.01-78.54-17.01c-22.9,0-41.46-18.56-41.46-41.46
				c0-13,5.99-24.6,15.35-32.19c3.26-2.65,6.93-4.81,10.9-6.38v-0.7c0-30.5,11.72-57.73,27.13-79.37
				c7.15-10.05,15.1-18.89,23.04-26.29c3.32-3.1,6.63-5.94,9.89-8.51C139.55,2.09,151.07,0,163.46,0c10.98,0,21.27,1.64,30.79,4.74
				c0.01,0,0.01,0.01,0.02,0.01c0.09,0.06,0.17,0.13,0.26,0.2c0.09,0.06,0.19,0.14,0.29,0.21c0,0,0.01,0,0.01,0.01l0.01,0.01
				c0.55,0.42,1.09,0.84,1.65,1.28c1.32,1.04,2.66,2.13,4,3.25c0.99,0.83,1.99,1.68,2.98,2.56c1,0.88,2,1.77,3,2.69
				c0.04,0.03,0.07,0.06,0.1,0.09c1.31,1.2,2.62,2.44,3.92,3.72c0.05,0.05,0.1,0.1,0.15,0.14c0.62,0.61,1.24,1.23,1.86,1.85
				c1.41,1.41,2.81,2.87,4.21,4.37c0.58,0.64,1.17,1.28,1.76,1.93c1.64,1.82,3.27,3.69,4.87,5.62c0.32,0.38,0.64,0.77,0.96,1.16
				c0.01,0.01,0.02,0.02,0.03,0.04c0.28,0.34,0.56,0.69,0.85,1.04c0.97,1.21,1.94,2.45,2.9,3.71c0.31,0.41,0.62,0.81,0.92,1.23
				c0.31,0.41,0.62,0.82,0.92,1.24c0.31,0.41,0.61,0.83,0.91,1.25c2.12,2.93,4.16,5.96,6.11,9.09c0.56,0.9,1.11,1.8,1.66,2.71
				c0.27,0.45,0.54,0.91,0.8,1.37c0.27,0.46,0.54,0.92,0.8,1.38s0.53,0.92,0.78,1.39c0.3,0.53,0.6,1.07,0.89,1.61
				c0.36,0.67,0.71,1.33,1.07,2.01c0.41,0.79,0.82,1.59,1.22,2.39l0.54,1.11c0.24,0.48,0.47,0.97,0.7,1.46
				c0.25,0.5,0.48,1.01,0.72,1.52c0.22,0.47,0.43,0.95,0.64,1.42c0.71,1.58,1.39,3.19,2.05,4.81c0.16,0.4,0.32,0.8,0.47,1.2
				c0.22,0.54,0.42,1.08,0.63,1.62c0.18,0.48,0.36,0.96,0.53,1.44c0.22,0.61,0.44,1.22,0.66,1.83c0.14,0.42,0.29,0.85,0.43,1.27
				c0.7,2.08,1.35,4.19,1.95,6.32c0.23,0.83,0.46,1.67,0.67,2.51c0.07,0.24,0.12,0.47,0.18,0.7c0.14,0.54,0.27,1.08,0.4,1.62
				c0.11,0.45,0.21,0.89,0.31,1.34c0.12,0.55,0.24,1.1,0.36,1.65c0.49,2.33,0.92,4.68,1.27,7.05c0.08,0.52,0.15,1.03,0.22,1.54
				c0.38,2.78,0.66,5.6,0.83,8.44c0.02,0.36,0.05,0.71,0.06,1.07c0.11,1.97,0.16,3.96,0.16,5.96v0.7c3.97,1.57,7.64,3.73,10.9,6.38
				C278.2,134.85,284.19,146.45,284.19,159.45z"/>
			<path id="XMLID_51_" style="fill:#A0756F;" d="M258.33,182.89c-17.53,15.98-56.2,23.97-94.87,23.97s-77.34-7.99-94.87-23.97
				c-25.17-22.94-10.64-27.25-10.64-48.17c0-2.51,0.04-5,0.13-7.46C60.11,68,86.38,21.92,129.04,6.01C139.55,2.09,151.07,0,163.46,0
				c10.98,0,21.27,1.64,30.79,4.74c0.01,0,0.01,0.01,0.02,0.01c44.79,14.61,72.49,61.6,74.57,122.51c0.09,2.46,0.13,4.95,0.13,7.46
				C268.97,155.64,283.5,159.95,258.33,182.89z"/>
		</g>
		<g id="XMLID_43_">
			<path id="XMLID_47_" style="fill:#8C6762;" d="M284.19,159.45c0,22.9-19.66,41.46-41.46,41.46c-2.46,0-4.88,0.1-7.26,0.29
				c-0.37,0.03-0.73,0.06-1.1,0.09c-0.7,0.06-1.4,0.13-2.1,0.21c-0.39,0.04-0.78,0.09-1.16,0.14c-2.3,0.28-4.56,0.63-6.79,1.05
				c-0.42,0.07-0.84,0.15-1.26,0.24c-0.48,0.09-0.96,0.19-1.44,0.29c-0.45,0.09-0.9,0.19-1.34,0.29c-0.08,0.01-0.16,0.03-0.23,0.05
				c-0.45,0.09-0.9,0.2-1.35,0.3c-0.8,0.18-1.6,0.38-2.4,0.57c-0.97,0.25-1.94,0.5-2.9,0.76c-0.44,0.11-0.87,0.23-1.31,0.35
				c-1.74,0.48-3.45,0.97-5.15,1.49c-0.73,0.21-1.45,0.43-2.17,0.66c-0.96,0.29-1.92,0.6-2.87,0.9c-0.42,0.13-0.83,0.26-1.24,0.4
				c-1.09,0.34-2.18,0.69-3.26,1.05c-0.4,0.12-0.81,0.26-1.21,0.39c-0.4,0.13-0.8,0.26-1.2,0.39c-0.15,0.04-0.3,0.09-0.45,0.15
				c-0.41,0.12-0.81,0.25-1.21,0.39c-0.24,0.07-0.48,0.15-0.72,0.23c-1.98,0.63-3.93,1.25-5.86,1.84c-0.18,0.05-0.35,0.1-0.53,0.16
				c-1.56,0.46-3.1,0.91-4.63,1.33c-0.19,0.05-0.38,0.1-0.57,0.15c-0.75,0.2-1.5,0.39-2.25,0.58c-0.38,0.09-0.75,0.18-1.12,0.27
				c-0.38,0.09-0.75,0.17-1.12,0.26c-0.37,0.08-0.74,0.16-1.11,0.24c-0.74,0.15-1.48,0.3-2.21,0.44c-0.74,0.13-1.47,0.25-2.19,0.37
				c-0.55,0.08-1.09,0.16-1.64,0.23c-1.08,0.13-2.17,0.24-3.24,0.32c-0.54,0.04-1.08,0.07-1.61,0.09c-0.36,0.01-0.71,0.02-1.07,0.03
				V0c10.98,0,21.27,1.64,30.79,4.74c0.01,0,0.01,0.01,0.02,0.01c0.09,0.06,0.17,0.13,0.26,0.2c0.09,0.07,0.17,0.14,0.25,0.2
				c0.01,0.01,0.02,0.01,0.03,0.02c0.56,0.42,1.12,0.85,1.68,1.29c1.32,1.04,2.66,2.13,4,3.25c0.99,0.84,1.99,1.69,2.98,2.56
				c1,0.88,2,1.77,3,2.69c0.04,0.03,0.07,0.06,0.1,0.09c1.31,1.2,2.62,2.44,3.92,3.72c0.05,0.05,0.1,0.1,0.15,0.14
				c0.62,0.61,1.24,1.23,1.86,1.85c1.41,1.41,2.81,2.87,4.21,4.37c0.58,0.64,1.17,1.28,1.76,1.93c1.64,1.82,3.27,3.69,4.87,5.62
				c0.32,0.38,0.64,0.77,0.96,1.16c0.01,0.01,0.02,0.02,0.03,0.04c0.28,0.34,0.56,0.69,0.85,1.04c0.97,1.21,1.94,2.45,2.9,3.71
				c0.31,0.41,0.62,0.81,0.92,1.23c0.31,0.41,0.62,0.82,0.92,1.24c0.31,0.41,0.61,0.83,0.91,1.25c2.12,2.93,4.16,5.96,6.11,9.09
				c0.56,0.9,1.11,1.8,1.66,2.71c0.27,0.45,0.54,0.91,0.8,1.37c0.27,0.46,0.54,0.92,0.8,1.38s0.53,0.92,0.78,1.39
				c0.3,0.53,0.6,1.07,0.89,1.61c0.36,0.67,0.71,1.33,1.07,2.01c0.41,0.79,0.82,1.59,1.22,2.39l0.54,1.11
				c0.24,0.48,0.47,0.97,0.7,1.46c0.25,0.5,0.48,1.01,0.72,1.52c0.22,0.47,0.43,0.95,0.64,1.42c0.71,1.58,1.39,3.19,2.05,4.81
				c0.16,0.4,0.32,0.8,0.47,1.2c0.22,0.54,0.42,1.08,0.63,1.62c0.18,0.48,0.36,0.96,0.53,1.44c0.22,0.61,0.44,1.22,0.66,1.83
				c0.14,0.42,0.29,0.85,0.43,1.27c0.7,2.08,1.35,4.19,1.95,6.32c0.23,0.83,0.46,1.67,0.67,2.51c0.07,0.24,0.12,0.47,0.18,0.7
				c0.14,0.54,0.27,1.08,0.4,1.62c0.11,0.45,0.21,0.89,0.31,1.34c0.12,0.55,0.24,1.1,0.36,1.65c0.49,2.33,0.92,4.68,1.27,7.05
				c0.08,0.52,0.15,1.03,0.22,1.54c0.38,2.78,0.66,5.6,0.83,8.44c0.02,0.36,0.05,0.71,0.06,1.07c0.11,1.97,0.16,3.96,0.16,5.96v0.7
				c3.97,1.57,7.64,3.73,10.9,6.38C278.2,134.85,284.19,146.45,284.19,159.45z"/>
			<path id="XMLID_44_" style="fill:#8C6762;" d="M268.97,134.72c0-2.51-0.04-5-0.13-7.46c-2.08-60.91-29.78-107.9-74.57-122.51
				c-0.01,0-0.01-0.01-0.02-0.01C184.73,1.64,174.44,0,163.46,0v206.86c38.67,0,77.34-7.99,94.87-23.97
				C283.5,159.95,268.97,155.64,268.97,134.72z"/>
		</g>
	</g>
	<g id="XMLID_38_">
		<path id="XMLID_40_" style="fill:#F3D8B6;" d="M191.789,168.919h-26.884h-1.256h-0.379h-1.256H135.13
			c0,74.552-36.43,67.808-36.43,67.808c0,47.368,51.162,62.392,63.313,66.806v1.537c0,0,0.533-0.11,1.446-0.359
			c0.912,0.249,1.446,0.359,1.446,0.359v-1.537c12.151-4.414,63.313-19.439,63.313-66.806
			C228.219,236.727,191.789,243.471,191.789,168.919z"/>
		<path id="XMLID_39_" style="fill:#EEC8A2;" d="M191.789,168.919h-26.884h-1.256h-0.189v135.792
			c0.912,0.249,1.446,0.359,1.446,0.359v-1.537c12.151-4.414,63.313-19.439,63.313-66.806
			C228.219,236.727,191.789,243.471,191.789,168.919z"/>
	</g>
	<g id="XMLID_71_">
		<path id="XMLID_85_" style="fill:#F3D8B6;" d="M242.837,234.153c-6.043-3.641-12.69-6.43-19.844-8.196
			c-4.824-1.206-17.048-1.949-25.018-2.188c-8.189,8.543-20.608,13.994-34.515,13.994s-24.326-5.451-32.515-13.994
			c-7.969,0.239-22.194,0.982-27.018,2.188c-7.154,1.766-13.802,4.554-19.844,8.196c-23.228,13.951-37.605,40.482-37.605,70.913
			v21.849h233.963v-21.849C280.442,274.635,266.064,248.104,242.837,234.153z"/>
		<path id="XMLID_86_" style="fill:#EEC8A2;" d="M280.44,305.07v21.85H163.46v-89.16c13.91,0,24.33-5.45,32.51-13.99
			c7.97,0.24,22.2,0.98,27.02,2.19c7.16,1.76,13.8,4.55,19.85,8.19c17.23,10.35,29.59,27.63,34.82,48.28
			C279.48,289.62,280.44,297.21,280.44,305.07z"/>
	</g>
	<g id="XMLID_87_">
		<g id="XMLID_88_">
			<path id="XMLID_41_" style="fill:#CC2F3F;" d="M46.797,305.07h43.31v-22.64h-40.53C47.757,289.62,46.797,297.21,46.797,305.07z"
				/>
			<g id="XMLID_89_">
				<path id="XMLID_90_" style="fill:#CC2F3F;" d="M208.783,267.785h-6.146c-21.637,0-39.177,17.54-39.177,39.177
					c0-21.637-17.54-39.177-39.177-39.177h-6.146c-21.637,0-39.177,17.54-39.177,39.177v19.958h84.5h84.5v-19.958
					C247.96,285.325,230.42,267.785,208.783,267.785z"/>
			</g>
		</g>
		<g id="XMLID_91_">
			<path id="XMLID_92_" style="fill:#B32A38;" d="M280.44,305.07h-43.31v-22.64h40.53C279.48,289.62,280.44,297.21,280.44,305.07z"
				/>
			<path id="XMLID_37_" style="fill:#B32A38;" d="M247.96,326.92h-84.5v-19.958c0-21.637,17.54-39.177,39.177-39.177h6.146
				c21.637,0,39.177,17.54,39.177,39.177V326.92z"/>
		</g>
	</g>
	<g id="XMLID_93_">
		<path id="XMLID_102_" style="fill:#F3DBC4;" d="M143.938,74.755c-1.601-2.747-3.074-5.376-4.444-7.916
			c-8.147,18.49-27.525,41.72-40.005,44.833c1.005,21.124,4.398,39.916,8.316,47.149c9.042,16.694,29.221,38.957,55.657,38.957
			c26.431,0,46.607-22.262,55.652-38.957c3.924-7.245,7.322-26.082,8.322-47.246C213.542,110.499,161.277,104.514,143.938,74.755z"
			/>
		<path id="XMLID_103_" style="fill:#EDCEAE;" d="M163.46,93.593v104.186c0,0,0.001,0,0.002,0c26.431,0,46.607-22.262,55.652-38.957
			c3.924-7.245,7.322-26.083,8.322-47.246C217.181,110.78,186.047,107.309,163.46,93.593z"/>
	</g>
</g>
<g>
</g>
<g>
</g>
<g>
</g>
<g>
</g>
<g>
</g>
<g>
</g>
<g>
</g>
<g>
</g>
<g>
</g>
<g>
</g>
<g>
</g>
<g>
</g>
<g>
</g>
<g>
</g>
<g>
</g>
</svg>
