<?xml version="1.0" encoding="iso-8859-1"?>
<!-- Generator: Adobe Illustrator 19.0.0, SVG Export Plug-In . SVG Version: 6.00 Build 0)  -->
<svg version="1.1" id="Layer_1" xmlns="http://www.w3.org/2000/svg" xmlns:xlink="http://www.w3.org/1999/xlink" x="0px" y="0px"
	 viewBox="0 0 359.342 359.342" style="enable-background:new 0 0 359.342 359.342;" xml:space="preserve">
<g id="XMLID_24_">
	<g id="XMLID_50_">
		<path id="XMLID_52_" style="fill:#682234;" d="M279.157,283.677c26.39-24.059,11.154-120.469,11.154-142.407
			C290.311,59.796,247.565,0,179.671,0S69.031,59.796,69.031,141.269c0,21.938-15.236,118.348,11.154,142.407
			C116.944,317.19,242.398,317.19,279.157,283.677z"/>
		<path id="XMLID_51_" style="fill:#581A2B;" d="M290.311,141.269C290.311,59.796,247.565,0,179.671,0v308.811
			c40.553,0,81.106-8.378,99.486-25.135C305.547,259.617,290.311,163.207,290.311,141.269z"/>
	</g>
	<g id="XMLID_47_">
		<path id="XMLID_49_" style="fill:#F3D8B6;" d="M296.653,318.204v40.681H62.689v-40.681c0-30.431,14.377-56.963,37.605-70.913
			c6.043-3.641,12.69-6.43,19.844-8.196c5.953-1.488,12.254-2.272,18.842-2.272l40.691,24.002l40.691-24.002
			c6.588,0,12.889,0.784,18.842,2.272c7.154,1.766,13.802,4.554,19.844,8.196C282.276,261.242,296.653,287.773,296.653,318.204z"/>
		<path id="XMLID_48_" style="fill:#EEC8A2;" d="M259.048,247.291c-6.043-3.641-12.69-6.43-19.844-8.196
			c-5.953-1.488-12.254-2.272-18.842-2.272l-40.691,24.001l0,0v98.06h116.982v-40.681
			C296.653,287.773,282.276,261.241,259.048,247.291z"/>
	</g>
	<g id="XMLID_44_">
		<path id="XMLID_46_" style="fill:#F3D8B6;" d="M222.86,263.333c0,0-14.458-18.417-14.458-81.376h-26.23h-5.002h-26.23
			c0,62.959-14.458,81.376-14.458,81.376c0,47.368,28.832,48.824,40.688,53.239v1.537c0,0,0.922-0.188,2.501-0.68
			c1.579,0.492,2.501,0.68,2.501,0.68v-1.537C194.028,312.157,222.86,310.7,222.86,263.333z"/>
		<path id="XMLID_45_" style="fill:#EEC8A2;" d="M208.402,181.957h-26.23h-2.501v135.471c1.579,0.492,2.501,0.68,2.501,0.68v-1.537
			c11.856-4.414,40.688-5.871,40.688-53.239C222.86,263.333,208.402,244.916,208.402,181.957z"/>
	</g>
	<g id="XMLID_41_">
		<path id="XMLID_43_" style="fill:#F3DBC4;" d="M180.576,120.925h-64.871c1.012,21.074,4.4,39.808,8.31,47.027
			c9.042,16.694,29.221,38.957,55.657,38.957c26.431,0,46.607-22.262,55.652-38.957c3.91-7.219,7.298-25.953,8.311-47.027
			C243.635,120.925,180.576,120.925,180.576,120.925z"/>
		<path id="XMLID_42_" style="fill:#EDCEAE;" d="M180.576,120.925h-0.905v85.984c0,0,0.001,0,0.002,0
			c26.431,0,46.607-22.262,55.652-38.957c3.91-7.219,7.298-25.953,8.311-47.027C243.636,120.925,180.576,120.925,180.576,120.925z"
			/>
	</g>
	<g id="XMLID_36_">
		<polygon id="XMLID_40_" style="fill:#C64832;" points="215.146,268.342 144.197,268.342 99.671,324.676 99.671,359.342 
			259.671,359.342 259.671,324.676 		"/>
		<polygon id="XMLID_37_" style="fill:#B2332D;" points="215.146,268.342 179.671,268.342 179.671,359.342 259.671,359.342 
			259.671,324.676 		"/>
	</g>
	<g id="XMLID_25_">
		<path id="XMLID_35_" style="fill:#C64832;" d="M227.683,234.026c-4.283-3.518-8.405-4.966-15.202-4.541l-32.81,25.859
			l-32.81-25.859c-6.797-0.424-10.919,1.023-15.202,4.541c-10.252,8.421-6.096,38.13,9.281,50.761
			c12.163,9.991,27.693,1.155,38.731-6.479c11.038,7.634,26.568,16.47,38.731,6.479C233.78,272.155,237.935,242.446,227.683,234.026
			z"/>
		<path id="XMLID_32_" style="fill:#B2332D;" d="M227.684,234.026c-4.283-3.518-8.405-4.966-15.202-4.541l-32.81,25.859v22.964
			c11.038,7.634,26.568,16.47,38.731,6.479C233.78,272.155,237.935,242.446,227.684,234.026z"/>
	</g>
</g>
<g>
</g>
<g>
</g>
<g>
</g>
<g>
</g>
<g>
</g>
<g>
</g>
<g>
</g>
<g>
</g>
<g>
</g>
<g>
</g>
<g>
</g>
<g>
</g>
<g>
</g>
<g>
</g>
<g>
</g>
</svg>
