<?xml version="1.0" encoding="iso-8859-1"?>
<!-- Generator: Adobe Illustrator 19.0.0, SVG Export Plug-In . SVG Version: 6.00 Build 0)  -->
<svg version="1.1" id="Layer_1" xmlns="http://www.w3.org/2000/svg" xmlns:xlink="http://www.w3.org/1999/xlink" x="0px" y="0px"
	 viewBox="0 0 353.341 353.341" style="enable-background:new 0 0 353.341 353.341;" xml:space="preserve">
<g id="XMLID_28_">
	<g id="XMLID_46_">
		<path id="XMLID_48_" style="fill:#E1A98C;" d="M276.158,191.787c26.39-24.059,11.154-28.579,11.154-50.517
			C287.312,59.796,244.566,0,176.671,0S66.031,59.796,66.031,141.269c0,21.938-15.236,26.458,11.154,50.517
			C113.945,225.3,239.398,225.3,276.158,191.787z"/>
		<path id="XMLID_47_" style="fill:#D2987B;" d="M287.312,141.269C287.312,59.796,244.566,0,176.671,0v216.922
			c40.553,0,81.107-8.378,99.486-25.135C302.547,167.728,287.312,163.207,287.312,141.269z"/>
	</g>
	<g id="XMLID_43_">
		<path id="XMLID_45_" style="fill:#F3D8B6;" d="M229.859,270.361c0,0-24.458-18.417-24.458-81.376h-26.23h-5.002h-26.23
			c0,62.959-24.458,81.376-24.458,81.376c0,47.368,38.832,48.824,50.688,53.239v1.537c0,0,0.922-0.188,2.501-0.68
			c1.579,0.492,2.501,0.68,2.501,0.68V323.6C191.027,319.185,229.859,317.728,229.859,270.361z"/>
		<path id="XMLID_44_" style="fill:#EEC8A2;" d="M205.402,188.985h-26.23h-2.501v135.471c1.579,0.492,2.501,0.68,2.501,0.68v-1.537
			c11.856-4.414,50.688-5.871,50.688-53.239C229.859,270.361,205.402,251.944,205.402,188.985z"/>
	</g>
	<g id="XMLID_40_">
		<path id="XMLID_42_" style="fill:#AEC7EA;" d="M293.651,312.651v40.69H59.691v-40.69c0-32.3,16.19-60.2,41.98-73.34
			c6.51-3.32,13.63-5.69,21.26-6.96c4.2-0.71,8.56-1.07,13.05-1.07h6.35c5.62,5.87,15,19.26,26.06,24.25l8.28,8.28l8.28-8.28
			c11.06-4.99,20.44-18.38,26.06-24.25h6.35c4.49,0,8.85,0.36,13.05,1.07c7.63,1.27,14.75,3.64,21.26,6.96
			C277.461,252.451,293.651,280.351,293.651,312.651z"/>
		<path id="XMLID_41_" style="fill:#96B3D4;" d="M251.671,239.311c-6.51-3.32-13.63-5.69-21.26-6.96c-4.2-0.71-8.56-1.07-13.05-1.07
			h-6.35c-5.62,5.87-15,19.26-26.06,24.25l-8.28,8.28v89.53h116.98v-40.69C293.651,280.351,277.461,252.451,251.671,239.311z"/>
	</g>
	<g id="XMLID_37_">
		<path id="XMLID_39_" style="fill:#3A4755;" d="M251.671,239.311v114.03h-60.4l39.14-120.99
			C238.04,233.621,245.161,235.991,251.671,239.311z"/>
		<polygon id="XMLID_38_" style="fill:#455465;" points="122.931,232.351 162.071,353.341 101.671,353.341 101.671,239.311 		"/>
	</g>
	<g id="XMLID_34_">
		<path id="XMLID_36_" style="fill:#F3DBC4;" d="M112.588,120.925c0.84,22.166,4.35,42.211,8.428,49.739
			c9.042,16.694,29.221,38.956,55.657,38.956c26.431,0,46.607-22.262,55.652-38.956c4.077-7.528,7.588-27.573,8.429-49.739H112.588z
			"/>
		<path id="XMLID_35_" style="fill:#EDCEAE;" d="M176.671,120.925v88.696c0.001,0,0.001,0,0.002,0
			c26.431,0,46.607-22.262,55.652-38.956c4.077-7.528,7.588-27.573,8.429-49.739h-64.083V120.925z"/>
	</g>
	<g id="XMLID_29_">
		<path id="XMLID_33_" style="fill:#D16154;" d="M198.042,240.628l-21.37,9.543l-21.37-9.543c-4.218-1.883-9.489,0.471-9.489,4.237
			v24.39c0,3.766,5.272,6.121,9.489,4.237l21.37-9.543l21.37,9.543c4.218,1.883,9.489-0.471,9.489-4.237v-24.39
			C207.531,241.099,202.258,238.745,198.042,240.628z"/>
		<path id="XMLID_32_" style="fill:#C64832;" d="M198.042,240.628l-21.37,9.543v13.78l21.37,9.543
			c4.218,1.883,9.489-0.471,9.489-4.237v-24.39C207.531,241.099,202.258,238.745,198.042,240.628z"/>
	</g>
</g>
<g>
</g>
<g>
</g>
<g>
</g>
<g>
</g>
<g>
</g>
<g>
</g>
<g>
</g>
<g>
</g>
<g>
</g>
<g>
</g>
<g>
</g>
<g>
</g>
<g>
</g>
<g>
</g>
<g>
</g>
</svg>
