<?xml version="1.0" encoding="iso-8859-1"?>
<!-- Generator: Adobe Illustrator 19.0.0, SVG Export Plug-In . SVG Version: 6.00 Build 0)  -->
<svg version="1.1" id="Layer_1" xmlns="http://www.w3.org/2000/svg" xmlns:xlink="http://www.w3.org/1999/xlink" x="0px" y="0px"
	 viewBox="0 0 354.881 354.881" style="enable-background:new 0 0 354.881 354.881;" xml:space="preserve">
<g id="XMLID_25_">
	<g id="XMLID_47_">
		<path id="XMLID_479_" style="fill:#C64832;" d="M288.08,141.269C288.08,59.796,245.334,0,177.44,0S66.8,59.796,66.8,141.269
			c0,21.095-14.08,42.87,8.3,65.903c-3.374,4.791-5.361,10.629-5.361,16.934c0,16.268,13.188,29.456,29.456,29.456
			c3.489,0,6.833-0.61,9.939-1.723c19.56,27.308,43.932,56.972,68.307,56.972s48.747-29.664,68.307-56.972
			c3.105,1.113,6.451,1.724,9.939,1.724c16.268,0,29.456-13.188,29.456-29.456c0-6.305-1.988-12.143-5.361-16.934
			C302.16,184.139,288.08,162.364,288.08,141.269z"/>
		<path id="XMLID_483_" style="fill:#B2332D;" d="M288.08,141.269C288.08,59.796,245.334,0,177.44,0
			c-0.112,0-0.222,0.004-0.333,0.005v308.794c0.111,0.001,0.222,0.013,0.333,0.013c24.375,0,48.747-29.664,68.307-56.972
			c3.105,1.113,6.451,1.724,9.939,1.724c16.268,0,29.456-13.188,29.456-29.456c0-6.305-1.988-12.143-5.361-16.934
			C302.16,184.139,288.08,162.364,288.08,141.269z"/>
	</g>
	<g id="XMLID_44_">
		<path id="XMLID_484_" style="fill:#F3D8B6;" d="M220.629,263.333c0,0-14.458-18.417-14.458-81.376h-26.23h-5.002h-26.23
			c0,62.959-14.458,81.376-14.458,81.376c0,47.368,28.832,48.824,40.688,53.239v1.537c0,0,0.922-0.188,2.501-0.68
			c1.579,0.492,2.501,0.68,2.501,0.68v-1.537C191.797,312.157,220.629,310.7,220.629,263.333z"/>
		<path id="XMLID_486_" style="fill:#EEC8A2;" d="M206.171,181.957h-26.23h-2.834V317.53c0.11-0.033,0.216-0.065,0.333-0.101
			c1.579,0.492,2.501,0.68,2.501,0.68v-1.537c11.856-4.414,40.688-5.871,40.688-53.239
			C220.629,263.333,206.171,244.916,206.171,181.957z"/>
	</g>
	<g id="XMLID_41_">
		<path id="XMLID_487_" style="fill:#DFE0F2;" d="M218.128,232.817h-7.878c-0.851-4.52-1.63-9.618-2.273-15.377h-61.073
			c-0.643,5.759-1.423,10.857-2.273,15.377h-7.878c-44.943,0-76.29,36.433-76.29,81.376v40.688h233.955v-40.688
			C294.418,269.25,263.071,232.817,218.128,232.817z"/>
		<path id="XMLID_488_" style="fill:#C6C8D7;" d="M218.128,232.817h-7.878c-0.851-4.52-1.63-9.618-2.273-15.377h-30.87v137.44
			h117.311v-40.688C294.418,269.25,263.071,232.817,218.128,232.817z"/>
	</g>
	<g id="XMLID_38_">
		<path id="XMLID_489_" style="fill:#F3DBC4;" d="M114.867,80.513c-4.453,33.245,0.539,75.661,6.918,87.439
			c9.042,16.694,29.22,38.956,55.657,38.956c26.431,0,46.607-22.262,55.652-38.956c3.916-7.229,7.307-26.002,8.315-47.11
			C229.469,120.005,134.379,112.362,114.867,80.513z"/>
		<path id="XMLID_490_" style="fill:#EDCEAE;" d="M177.107,111.447V206.9c0.112,0.001,0.222,0.009,0.335,0.009
			c26.431,0,46.607-22.262,55.652-38.956c3.916-7.229,7.307-26.002,8.315-47.11C235.201,120.407,206.178,118.109,177.107,111.447z"
			/>
	</g>
	<g id="XMLID_26_">
		<path id="XMLID_35_" style="fill:#367992;" d="M256.817,354.658V243.063c-6.043-3.641-12.69-6.43-19.844-8.196v71.339H117.907
			v-71.339c-7.154,1.766-13.802,4.554-19.844,8.196v111.594L256.817,354.658L256.817,354.658z"/>
		<path id="XMLID_32_" style="fill:#2F697E;" d="M236.973,234.868v71.339h-59.866v48.451h79.71V243.063
			C250.775,239.422,244.127,236.634,236.973,234.868z"/>
	</g>
</g>
<g>
</g>
<g>
</g>
<g>
</g>
<g>
</g>
<g>
</g>
<g>
</g>
<g>
</g>
<g>
</g>
<g>
</g>
<g>
</g>
<g>
</g>
<g>
</g>
<g>
</g>
<g>
</g>
<g>
</g>
</svg>
