<?xml version="1.0" encoding="iso-8859-1"?>
<!-- Generator: Adobe Illustrator 19.0.0, SVG Export Plug-In . SVG Version: 6.00 Build 0)  -->
<svg version="1.1" id="Layer_1" xmlns="http://www.w3.org/2000/svg" xmlns:xlink="http://www.w3.org/1999/xlink" x="0px" y="0px"
	 viewBox="0 0 342.19 342.19" style="enable-background:new 0 0 342.19 342.19;" xml:space="preserve">
<g id="XMLID_1363_">
	<g id="XMLID_1364_">
		<g id="XMLID_1365_">
			<path id="XMLID_1366_" style="fill:#F3D8B6;" d="M254.284,246.64c-18.667-6.681-51.458-11.736-51.458-81.376h-29.23h-5.002
				h-29.23c0,69.64-32.791,74.695-51.458,81.376c0,47.368,68.832,48.824,80.688,53.239v1.537c0,0,0.922-0.188,2.501-0.68
				c1.579,0.492,2.501,0.68,2.501,0.68v-1.537C185.451,295.464,254.284,294.008,254.284,246.64z"/>
		</g>
		<path id="XMLID_1367_" style="fill:#EEC8A2;" d="M202.826,165.265h-29.23h-2.499v135.472c1.578,0.491,2.499,0.679,2.499,0.679
			v-1.537c11.856-4.415,80.688-5.871,80.688-53.239C235.617,239.959,202.826,234.904,202.826,165.265z"/>
	</g>
	<g id="XMLID_1368_">
		<g id="XMLID_1369_">
			<path id="XMLID_1370_" style="fill:#F3DBC4;" d="M171.097,186.782c-27.454,0-48.409-23.119-57.799-40.456
				s-15.888-77.445,4.34-104.897c19.808-26.883,53.459-23.838,53.459-23.838s33.649-3.045,53.458,23.838
				c20.226,27.452,13.726,87.56,4.335,104.897C219.498,163.663,198.545,186.782,171.097,186.782z"/>
		</g>
		<path id="XMLID_1371_" style="fill:#EDCEAE;" d="M224.555,41.429c-19.81-26.883-53.458-23.838-53.458-23.838v169.191
			c27.449,0,48.401-23.119,57.794-40.456C238.281,128.989,244.781,68.882,224.555,41.429z"/>
	</g>
	<g id="XMLID_1372_">
		<g id="XMLID_1373_">
			<path id="XMLID_60_" style="fill:#A0756F;" d="M206.434,25.918c0,0-24.427-32.813-39.707-24.598
				c-39.045,20.991-44.219,18.365-52.979,21.408c-21.241,7.378-21.798,5.405-19.122,21.776c8.879,54.319-0.557,79.337,15.961,59.147
				s22.025-15.423,64.073-20.012s15.256-23.363,37.28-8.18s24.919,42.732,28.589,42.732c3.671,0,11.84-52.59,6.283-68.911
				C234.95,14.439,206.434,25.918,206.434,25.918z"/>
		</g>
		<path id="XMLID_1377_" style="fill:#8C6762;" d="M246.812,49.281c-11.862-34.842-40.378-23.362-40.378-23.362
			S186.247-1.195,171.097,0.045v83.97c1.16-0.118,2.342-0.242,3.563-0.375c42.047-4.588,15.256-23.363,37.28-8.18
			c22.025,15.184,24.919,42.732,28.589,42.732C244.2,118.192,252.369,65.603,246.812,49.281z"/>
	</g>
	<g id="XMLID_1378_">
		<g id="XMLID_1379_">
			<path id="XMLID_1382_" style="fill:#A97C75;" d="M197.254,145.024c-3.596-1.233-3.488,0.654-12.686-3.491
				c-9.039-4.073-9.71-12.604-13.473-11.41c-3.763-1.194-4.434,7.338-13.473,11.41c-9.199,4.145-9.091,2.257-12.686,3.491
				c-1.744,0.599-5.573,5.148,3.051,7.911s16.65,1.655,19.703-2.968c1.998-3.026,2.962-6.895,3.406-10.408
				c0.443,3.514,1.408,7.383,3.406,10.408c3.053,4.623,11.079,5.732,19.703,2.968C202.827,150.171,198.998,145.623,197.254,145.024z
				"/>
		</g>
		<path id="XMLID_1385_" style="fill:#946D68;" d="M197.254,145.023c-3.596-1.233-3.488,0.654-12.686-3.491
			c-9.037-4.072-9.71-12.601-13.471-11.411v9.448c0.444,3.51,1.408,7.374,3.404,10.396c3.053,4.623,11.079,5.731,19.703,2.968
			C202.827,150.171,198.998,145.623,197.254,145.023z"/>
	</g>
	<g id="XMLID_1386_">
		
			<ellipse id="XMLID_46_" transform="matrix(0.3543 -0.9351 0.9351 0.3543 39.2739 295.0177)" style="fill:#EDCEAE;" cx="233.268" cy="119.069" rx="17.187" ry="10.048"/>
		
			<ellipse id="XMLID_45_" transform="matrix(0.3543 0.9351 -0.9351 0.3543 181.6796 -24.9646)" style="fill:#F3DBC4;" cx="108.917" cy="119.078" rx="17.187" ry="10.048"/>
	</g>
	<g id="XMLID_1387_">
		<path id="XMLID_1388_" style="fill:#B7CAE9;" d="M291.075,301.51v40.68H51.115v-40.68c0-30.43,17.37-56.96,40.6-70.91
			c1.76-1.06,4.16-2.13,6.86-3.16c6.57-2.51,14.91-4.78,19.98-6.04c2.93-0.73,15.91,4.75,28.34,10.52
			c12.84,5.95,25.1,12.21,25.1,12.21s3.43-1.64,8.58-4.02c3.76-1.73,8.43-3.86,13.36-6.03c13.75-6.06,29.47-12.48,32.69-11.68
			c5.16,1.28,12.14,3.08,17.89,5.35c2.23,0.89,4.27,1.84,5.95,2.85C273.695,244.55,291.075,271.08,291.075,301.51z"/>
		<path id="XMLID_1389_" style="fill:#96B3D4;" d="M250.465,230.6c-1.68-1.01-3.72-1.96-5.95-2.85c-5.75-2.27-12.73-4.07-17.89-5.35
			c-3.22-0.8-18.94,5.62-32.69,11.68c-4.93,2.17-9.6,4.3-13.36,6.03c-5.15,2.38-8.58,4.02-8.58,4.02s-0.318-0.162-0.898-0.456
			v98.516h119.978v-40.68C291.075,271.08,273.695,244.55,250.465,230.6z"/>
	</g>
	<g id="XMLID_1390_">
		<path id="XMLID_1393_" style="fill:#545465;" d="M244.065,227.44v114.75H98.125V227.44c6.57-2.51,14.91-4.78,19.98-6.04
			c2.93-0.73,15.91,4.75,28.34,10.52l24.84,17.91l22.2-15.75l3.78-2.68c11.87-5.56,23.97-10.71,26.82-10
			C229.155,222.66,237.495,224.93,244.065,227.44z"/>
		<path id="XMLID_1396_" style="fill:#494857;" d="M224.085,221.4c-2.85-0.71-14.95,4.44-26.82,10l-3.78,2.68l-22.388,15.614v0.126
			v92.369h72.968V227.44C237.495,224.93,229.155,222.66,224.085,221.4z"/>
	</g>
	<g id="XMLID_1397_">
		<path id="XMLID_1398_" style="fill:#B7CAE9;" d="M219.262,217.625l-48.314,23.37l-48.02-23.37
			c-11.5,5.5,10.396,38.436,14.833,36.833c10.472-3.783,31.34-9.759,33.187-10.287c1.872,0.527,23.008,6.504,33.48,10.287
			C208.866,256.061,230.762,223.125,219.262,217.625z"/>
		<path id="XMLID_1399_" style="fill:#96B3D4;" d="M219.262,217.625l-48.165,23.298v3.291c2.578,0.728,23.07,6.538,33.332,10.245
			C208.866,256.061,230.762,223.125,219.262,217.625z"/>
	</g>
</g>
<g>
</g>
<g>
</g>
<g>
</g>
<g>
</g>
<g>
</g>
<g>
</g>
<g>
</g>
<g>
</g>
<g>
</g>
<g>
</g>
<g>
</g>
<g>
</g>
<g>
</g>
<g>
</g>
<g>
</g>
</svg>
