<?xml version="1.0" encoding="iso-8859-1"?>
<!-- Generator: Adobe Illustrator 19.0.0, SVG Export Plug-In . SVG Version: 6.00 Build 0)  -->
<svg version="1.1" id="Layer_1" xmlns="http://www.w3.org/2000/svg" xmlns:xlink="http://www.w3.org/1999/xlink" x="0px" y="0px"
	 viewBox="0 0 334.249 334.249" style="enable-background:new 0 0 334.249 334.249;" xml:space="preserve">
<g id="XMLID_4_">
	<g id="XMLID_81_">
		<g id="XMLID_1188_">
			<path id="XMLID_1189_" style="fill:#F3D8B6;" d="M250.313,238.697c-18.667-6.681-51.458-11.736-51.458-81.376h-29.23h-5.002
				h-29.23c0,69.64-32.791,74.695-51.458,81.376c0,47.368,68.832,48.824,80.688,53.239v1.537c0,0,0.922-0.188,2.501-0.68
				c1.579,0.492,2.501,0.68,2.501,0.68v-1.537C181.48,287.521,250.313,286.064,250.313,238.697z"/>
		</g>
		<path id="XMLID_1190_" style="fill:#EEC8A2;" d="M198.855,157.321h-29.23h-2.516v135.477c0.005-0.002,0.01-0.003,0.016-0.005
			c1.579,0.492,2.501,0.68,2.501,0.68v-1.537c11.856-4.414,80.688-5.871,80.688-53.238
			C231.646,232.016,198.855,226.961,198.855,157.321z"/>
	</g>
	<g id="XMLID_74_">
		<path id="XMLID_1193_" style="fill:#66A299;" d="M287.105,293.568v40.681H47.143v-40.681c0-30.431,17.377-56.963,40.605-70.913
			c6.043-3.641,19.69-7.43,26.844-9.196c5.953-1.488,53.438-0.271,53.438-0.271s48.674-0.218,54.627,1.271
			c7.154,1.766,17.802,4.554,23.844,8.196C269.729,236.606,287.105,263.137,287.105,293.568z"/>
		<path id="XMLID_1196_" style="fill:#5A9291;" d="M246.501,222.655c-6.042-3.641-16.69-6.429-23.844-8.195
			c-5.953-1.488-54.627-1.271-54.627-1.271s-0.327-0.009-0.921-0.023v121.083h119.997v-40.681
			C287.105,263.137,269.729,236.606,246.501,222.655z"/>
	</g>
	<g id="XMLID_70_">
		<path id="XMLID_1197_" style="fill:#F3DBC4;" d="M229.374,126.544c-1.31,5.21-2.84,9.5-4.45,12.48c-0.08,0.15-0.17,0.3-0.25,0.46
			c-4.72,8.56-12.21,18.46-21.88,26.27c-9.85,7.95-21.95,13.73-35.67,13.73c-27.21,0-48.04-22.72-57.55-40
			c-0.08-0.16-0.17-0.31-0.25-0.46c-1.61-2.98-3.14-7.27-4.45-12.48c-6.38-25.15-7.97-71.67,8.79-94.41
			c19.81-26.89,53.46-13.84,53.46-13.84s33.65-13.05,53.46,13.84C237.344,54.874,235.753,101.394,229.374,126.544z"/>
		<path id="XMLID_1198_" style="fill:#EDCEAE;" d="M229.374,126.544c-1.31,5.21-2.84,9.5-4.45,12.48c-0.08,0.15-0.17,0.3-0.25,0.46
			c-4.72,8.56-12.21,18.46-21.88,26.27c-9.85,7.95-21.95,13.73-35.67,13.73V18.294c0,0,33.65-13.05,53.46,13.84
			C237.344,54.874,235.753,101.394,229.374,126.544z"/>
	</g>
	<g id="XMLID_63_">
		<path id="XMLID_1201_" style="fill:#545465;" d="M224.578,27.976c-2.159,0.08-25.469-13.121-41.382-16.355
			c91.081,18.513-128.625,30.477-26.02,1.516c-29.41-9.014-57.539,14.472-56.495,36.488c1.759,37.07-4.778,36.505-0.295,49.454
			s8.466,23.407,8.466,23.407s0.996,3.565,2.988-16.854s-4.579-42.372,11.137-40.379c15.716,1.992,10.785,14.805,44.436,14.805
			c33.391,0,28.719-12.813,44.436-14.805c15.716-1.992,9.145,19.96,11.137,40.379s2.988,16.854,2.988,16.854
			s8.92-9.712,8.466-23.407C233.93,83.624,240.811,27.374,224.578,27.976z"/>
		<path id="XMLID_1204_" style="fill:#494857;" d="M219.578,27.976c-2.16,0.019-20.469-13.121-36.382-16.355
			c-8.193-1.665-12.81,18.023-16.016,18.37v50.063c0.08,0,0.153,0.003,0.234,0.003c33.391,0,28.719-12.813,44.436-14.805
			c15.716-1.992,9.145,19.96,11.137,40.379s2.988,16.854,2.988,16.854s8.786-9.708,8.466-23.407
			C234.098,84.291,238.93,27.807,219.578,27.976z"/>
	</g>
	<g id="XMLID_56_">
		<path id="XMLID_1207_" style="fill:#66A299;" d="M167.124,73.769c29.48,0,54.877,6.299,66.407,15.368h2.513V31.239
			c0,0-8.186-31.239-68.92-31.239c-59.469,0-68.92,31.239-68.92,31.239v57.898h2.513C112.247,80.068,137.643,73.769,167.124,73.769z
			"/>
		<path id="XMLID_1210_" style="fill:#5A9291;" d="M167.18,0v73.769c29.456,0.008,54.827,6.305,66.35,15.368h2.513V31.239
			C236.044,31.239,227.863,0.007,167.18,0z"/>
	</g>
	<g id="XMLID_37_">
		<g id="XMLID_1211_">
			<path id="XMLID_55_" style="fill:#66A299;" d="M135.71,118.633l23.348-9.887c5.156-2.183,10.977-2.183,16.133,0l23.348,9.887
				c7.65,3.239,12.619,10.741,12.619,19.048v9.886c0,8.307-4.97,15.809-12.619,19.048l-23.348,9.887
				c-5.156,2.184-10.977,2.184-16.133,0l-23.348-9.887c-7.65-3.24-12.619-10.741-12.619-19.048v-9.886
				C123.09,129.374,128.059,121.872,135.71,118.633z"/>
			<g id="XMLID_1212_">
				
					<rect id="XMLID_54_" x="115.163" y="96.334" transform="matrix(0.8162 -0.5777 0.5777 0.8162 -45.4329 90.8963)" style="fill:#66A299;" width="10" height="41.059"/>
			</g>
			<g id="XMLID_1213_">
				<path id="XMLID_1214_" style="fill:#66A299;" d="M136.964,140.444l-3.97,9.18l-23.42-10.14c-0.08-0.16-0.17-0.31-0.25-0.46
					c-1.61-2.98-3.14-7.27-4.45-12.48L136.964,140.444z"/>
			</g>
		</g>
		<g id="XMLID_1215_">
			<g id="XMLID_1219_">
				<g id="XMLID_1217_">
					
						<rect id="XMLID_1218_" x="209.093" y="96.325" transform="matrix(-0.8162 -0.5777 0.5777 -0.8162 321.3326 335.9226)" style="fill:#5A9291;" width="10" height="41.059"/>
				</g>
			</g>
			<g id="XMLID_1224_">
				<g id="XMLID_1222_">
					<path id="XMLID_1223_" style="fill:#5A9291;" d="M229.374,126.544c-1.31,5.21-2.84,9.5-4.45,12.48
						c-0.08,0.15-0.17,0.3-0.25,0.46l-23.42,10.14l-3.97-9.18L229.374,126.544z"/>
				</g>
			</g>
			<path id="XMLID_1226_" style="fill:#5A9291;" d="M198.538,118.632l-23.348-9.887c-2.578-1.092-5.323-1.638-8.067-1.638v71.033
				c2.744,0,5.489-0.546,8.067-1.638l23.348-9.887c7.65-3.24,12.619-10.741,12.619-19.048v-9.887
				C211.158,129.374,206.188,121.872,198.538,118.632z"/>
		</g>
	</g>
	<polygon id="XMLID_34_" style="fill:#5A9291;" points="187.673,241.457 95.404,241.457 95.404,334.249 108.404,334.249 
		108.404,254.457 187.525,254.457 	"/>
	<g id="XMLID_5_">
		
			<ellipse id="XMLID_33_" transform="matrix(0.3543 -0.9351 0.9351 0.3543 43.5355 286.5922)" style="fill:#EDCEAE;" cx="229.298" cy="111.771" rx="17.187" ry="10.048"/>
		
			<ellipse id="XMLID_32_" transform="matrix(0.3543 0.9351 -0.9351 0.3543 172.2898 -25.9638)" style="fill:#F3DBC4;" cx="104.946" cy="111.779" rx="17.187" ry="10.048"/>
	</g>
</g>
<g>
</g>
<g>
</g>
<g>
</g>
<g>
</g>
<g>
</g>
<g>
</g>
<g>
</g>
<g>
</g>
<g>
</g>
<g>
</g>
<g>
</g>
<g>
</g>
<g>
</g>
<g>
</g>
<g>
</g>
</svg>
