<?xml version="1.0" encoding="iso-8859-1"?>
<!-- Generator: Adobe Illustrator 18.0.0, SVG Export Plug-In . SVG Version: 6.00 Build 0)  -->
<!DOCTYPE svg PUBLIC "-//W3C//DTD SVG 1.1//EN" "http://www.w3.org/Graphics/SVG/1.1/DTD/svg11.dtd">
<svg version="1.1" id="Capa_1" xmlns="http://www.w3.org/2000/svg" xmlns:xlink="http://www.w3.org/1999/xlink" x="0px" y="0px"
	 viewBox="0 0 58 58" style="enable-background:new 0 0 58 58;" xml:space="preserve">
<g>
	<g>
		<path style="fill:#3E465B;" d="M29,0C16.91,0,6.568,7.407,2.215,17.923c0.258-0.122,0.524-0.234,0.804-0.331
			c2.594-0.9,6.146-0.07,8.743,0.679c1.492,0.431,1.217,0.29,2.704-0.214c0.114-0.039,0.226-0.091,0.343-0.138
			c3.181-1.289,7.016-1.299,9.816,0.464c1.89,1.19,3.554,2.892,4.1,4.915c1.07,3.963,0.446,8.421-0.496,12.704
			c0-0.001,0-0.001,0-0.002h0.059c0,5.869,3.604,10.888,8.721,15.152c0.653,0.544,1.298,1.099,1.88,1.718
			c0.8,0.85,1.509,1.687,2.15,2.512C51.044,50.808,58,40.72,58,29C58,12.984,45.016,0,29,0z"/>
	</g>
	<path style="fill:#E7ECED;" d="M28.725,23.298c-0.546-2.023-2.211-3.725-4.1-4.915c-2.8-1.763-6.634-1.753-9.816-0.464
		c-0.117,0.047-0.229,0.099-0.343,0.138c-1.486,0.505-1.212,0.645-2.704,0.214c-2.596-0.75-6.149-1.579-8.743-0.679
		c-0.288,0.1-0.563,0.215-0.827,0.341C0.782,21.344,0,25.08,0,29c0,7.18,2.615,13.746,6.937,18.81
		c0.722-2.024,1.328-4.07,2.586-5.872c1.484-2.125,3.86-3.652,6.421-2.158c2.571,1.499,2.843,4.755,3.678,7.276
		c0.68,2.05,2.404,6.898,4.567,3.185c1.367-2.346,1.865-5.01,2.461-7.612C28.021,36.64,30.368,29.384,28.725,23.298z"/>
	<path style="fill:#ED9893;" d="M41.039,55.382c-0.641-0.825-1.35-1.661-2.15-2.512c-0.582-0.619-1.228-1.174-1.88-1.718
		c-5.117-4.264-8.721-9.282-8.721-15.152h-0.059c-0.505,2.294-1.1,4.539-1.578,6.628c-0.596,2.602-1.094,5.267-2.461,7.612
		c-2.163,3.713-3.887-1.135-4.567-3.185c-0.836-2.521-1.107-5.776-3.678-7.276c-2.562-1.494-4.938,0.033-6.421,2.158
		c-1.258,1.802-1.864,3.849-2.586,5.872C12.256,54.043,20.164,58,29,58C33.297,58,37.371,57.058,41.039,55.382z"/>
	<path style="fill:#FFFFFF;" d="M29,53c-0.256,0-0.512-0.098-0.707-0.293c-0.391-0.391-0.391-1.023,0-1.414l7.416-7.416
		c0.391-0.391,1.023-0.391,1.414,0s0.391,1.023,0,1.414l-7.416,7.416C29.512,52.902,29.256,53,29,53z"/>
	<path style="fill:#A1C8EC;" d="M56.061,18.575l-3.008,3.008c0.005,0.005,0.013,0.007,0.018,0.012l2,2
		c0.391,0.391,0.391,1.023,0,1.414c-0.195,0.195-0.451,0.293-0.707,0.293s-0.512-0.098-0.707-0.293l-2-2
		c-0.005-0.005-0.007-0.013-0.012-0.018l-1.592,1.592c0.005,0.005,0.013,0.007,0.018,0.012l3,3c0.391,0.391,0.391,1.023,0,1.414
		c-0.195,0.195-0.451,0.293-0.707,0.293s-0.512-0.098-0.707-0.293l-3-3c-0.005-0.005-0.007-0.013-0.012-0.018l-1.592,1.592
		c0.005,0.005,0.013,0.007,0.018,0.012l2,2c0.391,0.391,0.391,1.023,0,1.414c-0.195,0.195-0.451,0.293-0.707,0.293
		s-0.512-0.098-0.707-0.293l-2-2c-0.005-0.005-0.007-0.013-0.012-0.018l-1.592,1.592c0.005,0.005,0.013,0.007,0.018,0.012l3,3
		c0.391,0.391,0.391,1.023,0,1.414c-0.195,0.195-0.451,0.293-0.707,0.293s-0.512-0.098-0.707-0.293l-3-3
		c-0.005-0.005-0.007-0.013-0.012-0.018l-3.804,3.804c-0.689,0.689-0.689,1.805,0,2.494l3.87,3.87c0.689,0.689,1.805,0.689,2.494,0
		l12.785-12.785C57.992,29.249,58,29.125,58,29C58,25.324,57.309,21.811,56.061,18.575z"/>
	<path style="fill:#7FABDA;" d="M45.658,35.009c0.195,0.195,0.451,0.293,0.707,0.293s0.512-0.098,0.707-0.293
		c0.391-0.391,0.391-1.023,0-1.414l-3-3c-0.005-0.005-0.013-0.007-0.018-0.012l-1.408,1.408c0.005,0.005,0.007,0.013,0.012,0.018
		L45.658,35.009z"/>
	<path style="fill:#7FABDA;" d="M47.658,31.009c0.195,0.195,0.451,0.293,0.707,0.293s0.512-0.098,0.707-0.293
		c0.391-0.391,0.391-1.023,0-1.414l-2-2c-0.005-0.005-0.013-0.007-0.018-0.012l-1.408,1.408c0.005,0.005,0.007,0.013,0.012,0.018
		L47.658,31.009z"/>
	<path style="fill:#7FABDA;" d="M51.658,29.009c0.195,0.195,0.451,0.293,0.707,0.293s0.512-0.098,0.707-0.293
		c0.391-0.391,0.391-1.023,0-1.414l-3-3c-0.005-0.005-0.013-0.007-0.018-0.012l-1.408,1.408c0.005,0.005,0.007,0.013,0.012,0.018
		L51.658,29.009z"/>
	<path style="fill:#7FABDA;" d="M53.658,25.009c0.195,0.195,0.451,0.293,0.707,0.293s0.512-0.098,0.707-0.293
		c0.391-0.391,0.391-1.023,0-1.414l-2-2c-0.005-0.005-0.013-0.007-0.018-0.012l-1.408,1.408c0.005,0.005,0.007,0.013,0.012,0.018
		L53.658,25.009z"/>
	<path style="fill:#EFCE4A;" d="M42.711,42.159l-3.87-3.87c-0.117-0.117-0.207-0.25-0.284-0.388l-2.413,4.163
		c-0.401,0.801-0.244,1.769,0.39,2.402c0.633,0.633,1.601,0.79,2.402,0.39l4.223-2.382C42.999,42.393,42.845,42.293,42.711,42.159z"
		/>
</g>
<g>
</g>
<g>
</g>
<g>
</g>
<g>
</g>
<g>
</g>
<g>
</g>
<g>
</g>
<g>
</g>
<g>
</g>
<g>
</g>
<g>
</g>
<g>
</g>
<g>
</g>
<g>
</g>
<g>
</g>
</svg>
