<?xml version="1.0" encoding="iso-8859-1"?>
<!-- Generator: Adobe Illustrator 18.0.0, SVG Export Plug-In . SVG Version: 6.00 Build 0)  -->
<!DOCTYPE svg PUBLIC "-//W3C//DTD SVG 1.1//EN" "http://www.w3.org/Graphics/SVG/1.1/DTD/svg11.dtd">
<svg version="1.1" id="Capa_1" xmlns="http://www.w3.org/2000/svg" xmlns:xlink="http://www.w3.org/1999/xlink" x="0px" y="0px"
	 viewBox="0 0 58 58" style="enable-background:new 0 0 58 58;" xml:space="preserve">
<g>
	<g>
		<path style="fill:#CC4B4C;" d="M29,0c-2.675,0-5.262,0.37-7.721,1.047C24.277,3.49,31.554,9.347,32,9c0.562-0.438,4,13,4,13l1,16
			l-8,9.736c-1.957,2.318-1.95,6.875-1.618,10.216C27.918,57.982,28.457,58,29,58c16.016,0,29-12.984,29-29C58,12.984,45.016,0,29,0
			z"/>
	</g>
	<path style="fill:#CF8C6D;" d="M46,24c-0.973-3.05-5-7-5-7C41.75,0.875,27,4,27,4c-0.822-0.563-1.31-2.059-1.603-3.769h0
		c-0.075,0.01-0.151,0.045-0.224,0.029l0,0c-1.755,0.232-3.461,0.617-5.103,1.148c-3.189,3.332-1.244,11.76,4.586,13.067L27,15
		c0.833,0.292,1.333,0.833,1.63,1.426c0.571,1.141,0.337,2.525-0.479,3.506C21.407,28.041,32,35,32,35c-4.625,0.5-8,2-8,2
		c-3.214,1.487-7.693,0.877-11.079,0.999c-1.257,0.045-2.434-0.495-3.259-1.444c-1.626-1.871-5.796-3.76-9.557-5.182
		c0.346,4.269,1.614,8.275,3.609,11.821c0,0,0,0,0,0.001C6.969,43.362,10,43,10,43c6.375,5.125,15.625,4.375,24,5s8-5,8-5
		S48.75,32.625,46,24z"/>
	<path style="fill:#FBCE9D;" d="M0.073,30.956c0.021,0.321,0.041,0.642,0.073,0.96c0.019,0.193,0.048,0.383,0.071,0.575
		c0.034,0.285,0.066,0.571,0.108,0.853c0.031,0.203,0.07,0.404,0.105,0.606c0.046,0.267,0.089,0.534,0.143,0.798
		c0.042,0.21,0.092,0.416,0.139,0.624c0.057,0.253,0.111,0.507,0.175,0.757C0.939,36.341,1,36.549,1.058,36.758
		C1.125,37,1.191,37.244,1.264,37.484c0.065,0.213,0.137,0.422,0.206,0.633c0.077,0.232,0.152,0.464,0.234,0.693
		c0.076,0.212,0.159,0.421,0.24,0.631c0.086,0.223,0.172,0.447,0.263,0.667c0.087,0.209,0.179,0.415,0.271,0.622
		c0.095,0.215,0.191,0.431,0.291,0.644c0.098,0.208,0.201,0.412,0.304,0.617c0.103,0.205,0.206,0.411,0.314,0.613
		c0.109,0.206,0.223,0.408,0.337,0.611c0.111,0.197,0.222,0.393,0.338,0.587c0.12,0.202,0.244,0.401,0.369,0.599
		c0.118,0.188,0.237,0.375,0.359,0.561c0.131,0.199,0.266,0.395,0.402,0.591c0.124,0.178,0.249,0.355,0.377,0.531
		c0.142,0.195,0.287,0.387,0.434,0.579c0.13,0.169,0.262,0.338,0.396,0.504c0.153,0.19,0.309,0.378,0.466,0.565
		c0.135,0.16,0.272,0.318,0.411,0.474c0.165,0.187,0.332,0.371,0.502,0.553c0.139,0.149,0.279,0.296,0.421,0.442
		c0.177,0.182,0.355,0.363,0.537,0.54c0.142,0.139,0.286,0.275,0.431,0.411c0.188,0.177,0.378,0.352,0.571,0.523
		c0.145,0.129,0.293,0.255,0.44,0.381c0.2,0.171,0.401,0.341,0.606,0.506c0.146,0.118,0.295,0.233,0.444,0.349
		c0.213,0.165,0.426,0.329,0.643,0.489c0.146,0.107,0.296,0.211,0.444,0.316c0.226,0.159,0.453,0.318,0.683,0.471
		c0.144,0.095,0.291,0.187,0.437,0.28c0.241,0.154,0.482,0.307,0.728,0.453c0.14,0.084,0.283,0.163,0.425,0.244
		c0.257,0.147,0.514,0.295,0.776,0.434c0.134,0.072,0.271,0.139,0.407,0.208c0.274,0.141,0.548,0.281,0.827,0.413
		c0.125,0.059,0.252,0.114,0.378,0.171c0.295,0.135,0.59,0.269,0.89,0.393c0.105,0.044,0.212,0.083,0.318,0.125
		c0.325,0.131,0.651,0.26,0.981,0.379c0.069,0.025,0.139,0.046,0.208,0.07c2.527,0.889,5.213,1.442,8.006,1.596
		c0.001,0,0.001,0,0.001,0C27.05,54.611,27.043,50.054,29,47.736L37,38l-1-16c0,0-3.438-13.438-4-13
		c-0.446,0.347-7.723-5.51-10.721-7.953c-2.683,0.74-5.211,1.852-7.523,3.283c-0.485,0.3-0.958,0.617-1.423,0.944
		c-0.062,0.044-0.124,0.088-0.186,0.132c-0.443,0.317-0.877,0.644-1.3,0.985c-0.024,0.019-0.048,0.037-0.071,0.056
		C9.869,7.181,9.01,7.969,8.199,8.803C8.139,8.865,8.081,8.927,8.022,8.988C7.677,9.35,7.341,9.721,7.015,10.1
		c-0.054,0.063-0.11,0.125-0.164,0.189c-0.739,0.874-1.427,1.792-2.061,2.75c-0.055,0.084-0.108,0.17-0.163,0.254
		c-0.253,0.392-0.497,0.79-0.731,1.194c-0.065,0.112-0.13,0.223-0.193,0.336c-0.249,0.443-0.488,0.893-0.714,1.351
		c-0.024,0.049-0.051,0.096-0.075,0.146c-0.25,0.513-0.483,1.034-0.703,1.563c-0.043,0.103-0.081,0.208-0.123,0.311
		c-0.169,0.419-0.328,0.843-0.477,1.271c-0.053,0.153-0.105,0.307-0.156,0.462c-0.137,0.415-0.264,0.835-0.382,1.259
		c-0.036,0.131-0.077,0.26-0.111,0.392c-0.145,0.548-0.276,1.102-0.389,1.663c-0.018,0.092-0.032,0.185-0.05,0.277
		c-0.09,0.468-0.168,0.939-0.235,1.414c-0.025,0.179-0.047,0.36-0.069,0.54c-0.05,0.414-0.091,0.83-0.124,1.249
		c-0.014,0.175-0.029,0.349-0.04,0.524C0.023,27.825,0,28.41,0,29c0,0.492,0.013,0.981,0.037,1.468
		C0.045,30.631,0.062,30.793,0.073,30.956z"/>
	<g>
		<path style="fill:#CF8C6D;" d="M26.737,25.359c-0.315-0.453-0.938-0.563-1.393-0.248c-0.947,0.662-2.085,1.338-3.345,1.338
			c-0.552,0-1,0.447-1,1s0.448,1,1,1c1.825,0,3.358-0.907,4.49-1.697C26.943,26.436,27.054,25.812,26.737,25.359z"/>
		<circle style="fill:#CF8C6D;" cx="11" cy="25" r="1"/>
		<path style="fill:#CF8C6D;" d="M15.306,27.28c-2.374,2.291-6.237,2.291-8.611,0c-0.047-0.046-0.106-0.067-0.159-0.102
			c-0.053-0.035-0.101-0.078-0.159-0.102c-0.063-0.026-0.129-0.029-0.195-0.042C6.12,27.024,6.062,27.004,6,27.004
			c-0.062,0-0.12,0.02-0.182,0.032c-0.066,0.012-0.132,0.016-0.194,0.041c-0.058,0.024-0.107,0.068-0.161,0.103
			c-0.053,0.034-0.111,0.056-0.158,0.101c-1.36,1.313-3.237,1.92-5.146,1.664c-0.055-0.007-0.105,0.01-0.159,0.012
			C0.001,28.971,0,28.985,0,29c0,0.652,0.029,1.297,0.072,1.939c0.317,0.036,0.633,0.063,0.947,0.063
			c1.815,0,3.556-0.593,4.982-1.69c1.459,1.117,3.229,1.68,5,1.68c2.062,0,4.125-0.758,5.694-2.272
			c0.397-0.384,0.409-1.017,0.025-1.414C16.336,26.909,15.703,26.897,15.306,27.28z"/>
		<path style="fill:#CF8C6D;" d="M16.69,50.291c-0.742,1.022-1.698,1.586-2.69,1.586s-1.948-0.563-2.69-1.586
			c-0.325-0.446-0.951-0.548-1.397-0.223c-0.166,0.12-0.266,0.288-0.332,0.467c1.386,1.251,2.894,2.369,4.504,3.337
			c1.618-0.029,3.116-0.878,4.226-2.407c0.324-0.446,0.225-1.072-0.222-1.396C17.64,49.744,17.015,49.845,16.69,50.291z"/>
	</g>
	<g>
		<path style="fill:#CF8C6D;" d="M46,24c-0.973-3.05-5-7-5-7c0.35-7.53-2.68-10.86-6.009-12.273
			c2.384,1.845,4.178,5.158,3.904,11.043c0,0,4.027,3.95,5,7c2.75,8.625-4,19-4,19s0.375,5.625-8,5
			c-7.123-0.531-14.873-0.082-20.955-3.085C17.264,48.045,26.026,47.405,34,48c8.375,0.625,8-5,8-5S48.75,32.625,46,24z"/>
	</g>
	<path style="fill:#EABB8C;" d="M39.897,41.767c0.123-0.19,6.723-10.452,3.998-18.997c-0.938-2.943-4.721-6.724-4.985-6.986
		c-0.011-0.011-0.014-0.024-0.013-0.039C39.615-0.016,25.504,2.647,24.914,2.765c-0.016,0.003-0.026-0.001-0.039-0.01
		c-0.556-0.394-0.955-1.223-1.246-2.25C23.564,0.517,23.5,0.53,23.435,0.542c-11.613,2.046-6.2,13.185,0.538,15.052
		C22.754,17.123,22,19.203,22,21.5c0,2.835,1.147,5.338,2.904,6.883c0.98,3.024,4.161,4.808,4.868,5.302
		c0.044,0.031,0.02,0.096-0.033,0.102c-4.544,0.516-7.844,1.983-7.844,1.983c-3.205,1.483-7.669,0.88-11.051,0.998
		c-1.289,0.045-2.486-0.557-3.349-1.514c-1.347-1.493-4.289-2.989-7.327-4.25c-0.042-0.018-0.09,0.017-0.087,0.063
		c0.275,3.899,1.319,7.583,2.984,10.905c0.011,0.021,0.033,0.035,0.057,0.035c2.52,0.018,4.604-0.217,4.764-0.236
		c0.012-0.001,0.015,0.003,0.024,0.01c6.375,5.113,15.617,4.364,23.986,4.989c8.245,0.615,8.01-4.827,8-4.996
		C39.895,41.766,39.893,41.772,39.897,41.767z"/>
</g>
<g>
</g>
<g>
</g>
<g>
</g>
<g>
</g>
<g>
</g>
<g>
</g>
<g>
</g>
<g>
</g>
<g>
</g>
<g>
</g>
<g>
</g>
<g>
</g>
<g>
</g>
<g>
</g>
<g>
</g>
</svg>
