<?xml version="1.0" encoding="iso-8859-1"?>
<!-- Generator: Adobe Illustrator 18.0.0, SVG Export Plug-In . SVG Version: 6.00 Build 0)  -->
<!DOCTYPE svg PUBLIC "-//W3C//DTD SVG 1.1//EN" "http://www.w3.org/Graphics/SVG/1.1/DTD/svg11.dtd">
<svg version="1.1" id="Capa_1" xmlns="http://www.w3.org/2000/svg" xmlns:xlink="http://www.w3.org/1999/xlink" x="0px" y="0px"
	 viewBox="0 0 58 58" style="enable-background:new 0 0 58 58;" xml:space="preserve">
<g>
	<g>
		<path style="fill:#43B05C;" d="M37.973,1.422c0.823,3.738,2.855,7.139,5.712,9.818c2.118,1.986,3.386,4.867,3.198,8.042
			c-0.238,4.024-2.914,7.504-6.57,8.903c3.215,1.584,5.502,4.828,5.721,8.534c0.188,3.175-1.08,6.056-3.198,8.042
			c-3.446,3.231-5.677,7.515-6.045,12.173C49.022,53.528,58,42.316,58,29C58,16.116,49.596,5.201,37.973,1.422z"/>
		<path style="fill:#43B05C;" d="M12.117,36.718c0.238-4.024,2.914-7.504,6.57-8.903c-3.215-1.584-5.502-4.828-5.721-8.534
			c-0.188-3.175,1.08-6.056,3.198-8.042c2.996-2.808,5.066-6.415,5.804-10.368C9.352,4.015,0,15.41,0,29
			c0,13.372,9.053,24.623,21.363,27.976c-0.357-4.674-2.591-8.975-6.047-12.216C13.197,42.774,11.929,39.893,12.117,36.718z"/>
	</g>
	<path style="fill:#F2ECBF;" d="M21.971,0.863c-0.737,3.956-2.809,7.567-5.807,10.377c-2.118,1.986-3.386,4.867-3.198,8.042
		c0.288,4.873,4.148,8.957,8.999,9.502c1.323,0.148,2.6,0.041,3.791-0.278c2.74-0.734,5.596-0.734,8.336,0
		c1.191,0.319,2.468,0.426,3.791,0.278c4.852-0.544,8.711-4.628,9-9.502c0.188-3.175-1.08-6.056-3.198-8.042
		c-2.857-2.679-4.889-6.08-5.712-9.818C35.146,0.503,32.133,0,29,0C26.575,0,24.222,0.302,21.971,0.863z"/>
	<path style="fill:#F7E6A1;" d="M40.313,28.185c-0.771,0.295-1.584,0.504-2.43,0.599c-1.323,0.148-2.6,0.041-3.791-0.278
		c-1.181-0.316-2.383-0.488-3.588-0.532c-0.668,0.06-1.339,0.077-2.008,0.053c-0.92,0.082-1.836,0.237-2.74,0.479
		c-1.191,0.319-2.468,0.426-3.791,0.278c-1.163-0.13-2.266-0.469-3.279-0.968c-3.656,1.399-6.332,4.879-6.57,8.903
		c-0.188,3.175,1.08,6.056,3.198,8.042c3.457,3.241,5.69,7.542,6.047,12.216C23.797,57.639,26.356,58,29,58
		c2.7,0,5.311-0.377,7.791-1.067c0.368-4.658,2.599-8.942,6.045-12.173c2.118-1.986,3.386-4.867,3.198-8.042
		C45.815,33.013,43.528,29.768,40.313,28.185z"/>
</g>
<g>
</g>
<g>
</g>
<g>
</g>
<g>
</g>
<g>
</g>
<g>
</g>
<g>
</g>
<g>
</g>
<g>
</g>
<g>
</g>
<g>
</g>
<g>
</g>
<g>
</g>
<g>
</g>
<g>
</g>
</svg>
