<?xml version="1.0" encoding="iso-8859-1"?>
<!-- Generator: Adobe Illustrator 18.0.0, SVG Export Plug-In . SVG Version: 6.00 Build 0)  -->
<!DOCTYPE svg PUBLIC "-//W3C//DTD SVG 1.1//EN" "http://www.w3.org/Graphics/SVG/1.1/DTD/svg11.dtd">
<svg version="1.1" id="Capa_1" xmlns="http://www.w3.org/2000/svg" xmlns:xlink="http://www.w3.org/1999/xlink" x="0px" y="0px"
	 viewBox="0 0 58 58" style="enable-background:new 0 0 58 58;" xml:space="preserve">
<g>
	<path style="fill:#556080;" d="M45.549,52.62c-7.049,3.961-16.133,2.959-22.13-3.038c-7.225-7.225-7.225-18.938,0-26.163
		c7.225-7.225,18.938-7.225,26.163,0c5.998,5.998,6.999,15.082,3.039,22.13l0.111,0.11C56.047,40.945,58,35.202,58,29
		C58,12.984,45.016,0,29,0S0,12.984,0,29c0,16.016,12.984,29,29,29c6.202,0,11.945-1.953,16.659-5.27L45.549,52.62z"/>
	<path style="fill:#FFFFFF;" d="M23.419,49.582c-7.225-7.225-7.225-18.938,0-26.163c7.225-7.225,18.938-7.225,26.163,0
		c2.042,2.042,3.491,4.446,4.376,7.001C53.984,29.95,54,29.477,54,29C54,15.215,42.785,4,29,4S4,15.215,4,29s11.215,25,25,25
		c0.477,0,0.95-0.016,1.42-0.043C27.864,53.072,25.461,51.624,23.419,49.582z"/>
	<g>
		<path style="fill:#EFCE4A;" d="M17,14c-0.553,0-1,0.447-1,1v4c0,0.553,0.447,1,1,1s1-0.447,1-1v-4C18,14.447,17.553,14,17,14z"/>
		<path style="fill:#EFCE4A;" d="M12.707,25.293c-0.391-0.391-1.023-0.391-1.414,0l-2.5,2.5c-0.391,0.391-0.391,1.023,0,1.414
			C8.988,29.402,9.244,29.5,9.5,29.5s0.512-0.098,0.707-0.293l2.5-2.5C13.098,26.316,13.098,25.684,12.707,25.293z"/>
		<path style="fill:#EFCE4A;" d="M31.707,12.293l-2-2c-0.391-0.391-1.023-0.391-1.414,0s-0.391,1.023,0,1.414l2,2
			C30.488,13.902,30.744,14,31,14s0.512-0.098,0.707-0.293C32.098,13.316,32.098,12.684,31.707,12.293z"/>
		<path style="fill:#EFCE4A;" d="M13.168,35.445l-2,3c-0.307,0.46-0.183,1.08,0.277,1.387C11.616,39.945,11.809,40,11.999,40
			c0.323,0,0.641-0.156,0.833-0.445l2-3c0.307-0.46,0.183-1.08-0.277-1.387C14.093,34.861,13.474,34.985,13.168,35.445z"/>
	</g>
	<path style="fill:#F2ECBF;" d="M49.581,23.419c-7.723-7.723-20.576-7.19-27.591,1.599c-5.268,6.6-5.32,16.169-0.115,22.819
		c5.886,7.522,15.99,9.101,23.674,4.783l3.842,3.842c1.385,1.729,4.922,2.132,6.907,0.514c2.286-1.863,2.083-5.712,0.355-7.394
		l-4.033-4.033C56.581,38.5,55.579,29.416,49.581,23.419z"/>
	<circle style="fill:#38454F;" cx="50" cy="52" r="1"/>
	<circle style="fill:#38454F;" cx="54" cy="52" r="1"/>
	<circle style="fill:#38454F;" cx="52" cy="50" r="1"/>
	<circle style="fill:#38454F;" cx="52" cy="54" r="1"/>
	<circle style="fill:#E4C05C;" cx="32" cy="26" r="3"/>
	<circle style="fill:#E4C05C;" cx="45" cy="45" r="3"/>
	<g>
		<path style="fill:#EFCE4A;" d="M48,33h-2.586l1.293-1.293c0.391-0.391,0.391-1.023,0-1.414s-1.023-0.391-1.414,0l-2.999,2.999
			c-0.093,0.092-0.166,0.203-0.217,0.326c-0.101,0.244-0.101,0.52,0,0.764c0.101,0.245,0.296,0.44,0.541,0.541
			C42.74,34.974,42.87,35,43,35h5c0.553,0,1-0.447,1-1S48.553,33,48,33z"/>
		<path style="fill:#EFCE4A;" d="M29,41h-3c-0.553,0-1,0.447-1,1s0.447,1,1,1h2v3c0,0.553,0.447,1,1,1s1-0.447,1-1v-4
			C30,41.447,29.553,41,29,41z"/>
		<path style="fill:#EFCE4A;" d="M32.293,37.707C32.488,37.902,32.744,38,33,38s0.512-0.098,0.707-0.293l2-2
			c0.391-0.391,0.391-1.023,0-1.414s-1.023-0.391-1.414,0l-2,2C31.902,36.684,31.902,37.316,32.293,37.707z"/>
		<path style="fill:#EFCE4A;" d="M36,36v3c0,0.553,0.447,1,1,1s1-0.447,1-1v-3c0-0.553-0.447-1-1-1S36,35.447,36,36z"/>
		<path style="fill:#EFCE4A;" d="M35.707,41.293l-2-2c-0.391-0.391-1.023-0.391-1.414,0s-0.391,1.023,0,1.414l2,2
			C34.488,42.902,34.744,43,35,43s0.512-0.098,0.707-0.293C36.098,42.316,36.098,41.684,35.707,41.293z"/>
		<path style="fill:#EFCE4A;" d="M38.293,40.293l-2,2c-0.391,0.391-0.391,1.023,0,1.414C36.488,43.902,36.744,44,37,44
			s0.512-0.098,0.707-0.293l2-2c0.391-0.391,0.391-1.023,0-1.414S38.684,39.902,38.293,40.293z"/>
		<path style="fill:#EFCE4A;" d="M40,34c-0.553,0-1,0.447-1,1v3c0,0.553,0.447,1,1,1s1-0.447,1-1v-3C41,34.447,40.553,34,40,34z"/>
		<path style="fill:#EFCE4A;" d="M36,34h2c0.553,0,1-0.447,1-1s-0.447-1-1-1h-2c-0.553,0-1,0.447-1,1S35.447,34,36,34z"/>
		<path style="fill:#EFCE4A;" d="M31.447,39.895c0.494-0.247,0.694-0.848,0.447-1.342l-1-2c-0.248-0.494-0.848-0.693-1.342-0.447
			c-0.494,0.247-0.694,0.848-0.447,1.342l1,2C30.281,39.798,30.634,40,31.001,40C31.151,40,31.304,39.966,31.447,39.895z"/>
		<path style="fill:#EFCE4A;" d="M32,35c0.256,0,0.512-0.098,0.707-0.293l1-1c0.391-0.391,0.391-1.023,0-1.414s-1.023-0.391-1.414,0
			l-1,1c-0.391,0.391-0.391,1.023,0,1.414C31.488,34.902,31.744,35,32,35z"/>
		<path style="fill:#EFCE4A;" d="M33,42h-1c-0.553,0-1,0.447-1,1s0.447,1,1,1h1c0.553,0,1-0.447,1-1S33.553,42,33,42z"/>
	</g>
</g>
<g>
</g>
<g>
</g>
<g>
</g>
<g>
</g>
<g>
</g>
<g>
</g>
<g>
</g>
<g>
</g>
<g>
</g>
<g>
</g>
<g>
</g>
<g>
</g>
<g>
</g>
<g>
</g>
<g>
</g>
</svg>
