<?xml version="1.0" encoding="iso-8859-1"?>
<!-- Generator: Adobe Illustrator 18.0.0, SVG Export Plug-In . SVG Version: 6.00 Build 0)  -->
<!DOCTYPE svg PUBLIC "-//W3C//DTD SVG 1.1//EN" "http://www.w3.org/Graphics/SVG/1.1/DTD/svg11.dtd">
<svg version="1.1" id="Capa_1" xmlns="http://www.w3.org/2000/svg" xmlns:xlink="http://www.w3.org/1999/xlink" x="0px" y="0px"
	 viewBox="0 0 58 58" style="enable-background:new 0 0 58 58;" xml:space="preserve">
<g>
	<path style="fill:#E0B28E;" d="M15,5.762V20v18v14.238c7.683,7.683,20.317,7.683,28,0V38V20V5.762
		C35.317-1.921,22.683-1.921,15,5.762z"/>
	<g>
		<circle style="fill:#F4D2B6;" cx="17" cy="5" r="1"/>
		<circle style="fill:#F4D2B6;" cx="23" cy="5" r="1"/>
		<circle style="fill:#F4D2B6;" cx="29" cy="5" r="1"/>
		<circle style="fill:#F4D2B6;" cx="26" cy="2" r="1"/>
		<circle style="fill:#F4D2B6;" cx="32" cy="2" r="1"/>
		<circle style="fill:#F4D2B6;" cx="35" cy="5" r="1"/>
		<circle style="fill:#F4D2B6;" cx="41" cy="5" r="1"/>
		<circle style="fill:#F4D2B6;" cx="20" cy="8" r="1"/>
		<circle style="fill:#F4D2B6;" cx="26" cy="8" r="1"/>
		<circle style="fill:#F4D2B6;" cx="32" cy="8" r="1"/>
		<circle style="fill:#F4D2B6;" cx="38" cy="8" r="1"/>
		<circle style="fill:#F4D2B6;" cx="17" cy="11" r="1"/>
		<circle style="fill:#F4D2B6;" cx="17" cy="17" r="1"/>
		<circle style="fill:#F4D2B6;" cx="20" cy="14" r="1"/>
		<circle style="fill:#F4D2B6;" cx="23" cy="11" r="1"/>
		<circle style="fill:#F4D2B6;" cx="29" cy="11" r="1"/>
		<circle style="fill:#F4D2B6;" cx="23" cy="17" r="1"/>
		<circle style="fill:#F4D2B6;" cx="29" cy="17" r="1"/>
		<circle style="fill:#F4D2B6;" cx="26" cy="14" r="1"/>
		<circle style="fill:#F4D2B6;" cx="32" cy="14" r="1"/>
		<circle style="fill:#F4D2B6;" cx="35" cy="11" r="1"/>
		<circle style="fill:#F4D2B6;" cx="41" cy="11" r="1"/>
		<circle style="fill:#F4D2B6;" cx="35" cy="17" r="1"/>
		<circle style="fill:#F4D2B6;" cx="41" cy="17" r="1"/>
		<circle style="fill:#F4D2B6;" cx="38" cy="14" r="1"/>
		<circle style="fill:#F4D2B6;" cx="20" cy="20" r="1"/>
		<circle style="fill:#F4D2B6;" cx="26" cy="20" r="1"/>
		<circle style="fill:#F4D2B6;" cx="32" cy="20" r="1"/>
		<circle style="fill:#F4D2B6;" cx="38" cy="20" r="1"/>
		<circle style="fill:#F4D2B6;" cx="17" cy="41" r="1"/>
		<circle style="fill:#F4D2B6;" cx="23" cy="41" r="1"/>
		<circle style="fill:#F4D2B6;" cx="29" cy="41" r="1"/>
		<circle style="fill:#F4D2B6;" cx="35" cy="41" r="1"/>
		<circle style="fill:#F4D2B6;" cx="41" cy="41" r="1"/>
		<circle style="fill:#F4D2B6;" cx="20" cy="44" r="1"/>
		<circle style="fill:#F4D2B6;" cx="26" cy="44" r="1"/>
		<circle style="fill:#F4D2B6;" cx="32" cy="44" r="1"/>
		<circle style="fill:#F4D2B6;" cx="38" cy="44" r="1"/>
		<circle style="fill:#F4D2B6;" cx="20" cy="38" r="1"/>
		<circle style="fill:#F4D2B6;" cx="26" cy="38" r="1"/>
		<circle style="fill:#F4D2B6;" cx="32" cy="38" r="1"/>
		<circle style="fill:#F4D2B6;" cx="38" cy="38" r="1"/>
		<circle style="fill:#F4D2B6;" cx="17" cy="47" r="1"/>
		<circle style="fill:#F4D2B6;" cx="17" cy="53" r="1"/>
		<circle style="fill:#F4D2B6;" cx="20" cy="50" r="1"/>
		<circle style="fill:#F4D2B6;" cx="23" cy="47" r="1"/>
		<circle style="fill:#F4D2B6;" cx="29" cy="47" r="1"/>
		<circle style="fill:#F4D2B6;" cx="23" cy="53" r="1"/>
		<circle style="fill:#F4D2B6;" cx="29" cy="53" r="1"/>
		<circle style="fill:#F4D2B6;" cx="26" cy="50" r="1"/>
		<circle style="fill:#F4D2B6;" cx="32" cy="50" r="1"/>
		<circle style="fill:#F4D2B6;" cx="35" cy="47" r="1"/>
		<circle style="fill:#F4D2B6;" cx="41" cy="47" r="1"/>
		<circle style="fill:#F4D2B6;" cx="35" cy="53" r="1"/>
		<circle style="fill:#F4D2B6;" cx="41" cy="53" r="1"/>
		<circle style="fill:#F4D2B6;" cx="38" cy="50" r="1"/>
		<circle style="fill:#F4D2B6;" cx="26" cy="56" r="1"/>
		<circle style="fill:#F4D2B6;" cx="32" cy="56" r="1"/>
	</g>
</g>
<g>
</g>
<g>
</g>
<g>
</g>
<g>
</g>
<g>
</g>
<g>
</g>
<g>
</g>
<g>
</g>
<g>
</g>
<g>
</g>
<g>
</g>
<g>
</g>
<g>
</g>
<g>
</g>
<g>
</g>
</svg>
