<?xml version="1.0" encoding="iso-8859-1"?>
<!-- Generator: Adobe Illustrator 18.0.0, SVG Export Plug-In . SVG Version: 6.00 Build 0)  -->
<!DOCTYPE svg PUBLIC "-//W3C//DTD SVG 1.1//EN" "http://www.w3.org/Graphics/SVG/1.1/DTD/svg11.dtd">
<svg version="1.1" id="Capa_1" xmlns="http://www.w3.org/2000/svg" xmlns:xlink="http://www.w3.org/1999/xlink" x="0px" y="0px"
	 viewBox="0 0 58 58" style="enable-background:new 0 0 58 58;" xml:space="preserve">
<g>
	<polygon style="fill:#E7ECED;" points="54,32 4,32 0,32 0,58 58,58 58,32 	"/>
	<rect x="2" y="10" style="fill:#7FABDA;" width="18" height="4"/>
	<path style="fill:#6B5B4B;" d="M18,10H4V0.498C4,0.223,4.223,0,4.498,0h13.004C17.777,0,18,0.223,18,0.498V10z"/>
	<path style="fill:#937A60;" d="M10,4c2.209,0,4-1.791,4-4H6C6,2.209,7.791,4,10,4z"/>
	<path style="fill:#937A60;" d="M10.95,10C10.973,9.835,11,9.671,11,9.5C11,7.567,9.433,6,7.5,6S4,7.567,4,9.5
		C4,9.671,4.027,9.835,4.05,10H10.95z"/>
	<path style="fill:#937A60;" d="M18,5.511C17.581,5.195,17.065,5,16.5,5C15.119,5,14,6.119,14,7.5c0,1.381,1.119,2.5,2.5,2.5
		c0.565,0,1.081-0.195,1.5-0.511V5.511z"/>
	<path style="fill:#A1C8EC;" d="M11,52L11,52c-3.866,0-7-3.134-7-7V14h14v31C18,48.866,14.866,52,11,52z"/>
	<path style="fill:#DD352E;" d="M11,52L11,52c-3.866,0-7-3.134-7-7V21h14v24C18,48.866,14.866,52,11,52z"/>
	<rect x="20" y="10" style="fill:#7FABDA;" width="18" height="4"/>
	<path style="fill:#6B5B4B;" d="M36,10H22V0.498C22,0.223,22.223,0,22.498,0h13.004C35.777,0,36,0.223,36,0.498V10z"/>
	<path style="fill:#937A60;" d="M28,4c2.209,0,4-1.791,4-4h-8C24,2.209,25.791,4,28,4z"/>
	<path style="fill:#937A60;" d="M28.95,10C28.973,9.835,29,9.671,29,9.5C29,7.567,27.433,6,25.5,6S22,7.567,22,9.5
		c0,0.171,0.027,0.335,0.05,0.5H28.95z"/>
	<path style="fill:#937A60;" d="M36,5.511C35.581,5.195,35.065,5,34.5,5C33.119,5,32,6.119,32,7.5c0,1.381,1.119,2.5,2.5,2.5
		c0.565,0,1.081-0.195,1.5-0.511V5.511z"/>
	<path style="fill:#A1C8EC;" d="M29,52L29,52c-3.866,0-7-3.134-7-7V14h14v31C36,48.866,32.866,52,29,52z"/>
	<path style="fill:#DD352E;" d="M29,52L29,52c-3.866,0-7-3.134-7-7V21h14v24C36,48.866,32.866,52,29,52z"/>
	<rect x="38" y="10" style="fill:#7FABDA;" width="18" height="4"/>
	<path style="fill:#6B5B4B;" d="M54,10H40V0.498C40,0.223,40.223,0,40.498,0h13.004C53.777,0,54,0.223,54,0.498V10z"/>
	<path style="fill:#937A60;" d="M46,4c2.209,0,4-1.791,4-4h-8C42,2.209,43.791,4,46,4z"/>
	<path style="fill:#937A60;" d="M46.95,10C46.973,9.835,47,9.671,47,9.5C47,7.567,45.433,6,43.5,6S40,7.567,40,9.5
		c0,0.171,0.027,0.335,0.05,0.5H46.95z"/>
	<path style="fill:#937A60;" d="M54,5.511C53.581,5.195,53.065,5,52.5,5C51.119,5,50,6.119,50,7.5c0,1.381,1.119,2.5,2.5,2.5
		c0.565,0,1.081-0.195,1.5-0.511V5.511z"/>
	<path style="fill:#A1C8EC;" d="M47,52L47,52c-3.866,0-7-3.134-7-7V14h14v31C54,48.866,50.866,52,47,52z"/>
	<path style="fill:#DD352E;" d="M47,52L47,52c-3.866,0-7-3.134-7-7V21h14v24C54,48.866,50.866,52,47,52z"/>
	<circle style="fill:#B02721;" cx="44" cy="25" r="1"/>
	<circle style="fill:#B02721;" cx="41" cy="22" r="1"/>
	<circle style="fill:#B02721;" cx="47" cy="22" r="1"/>
	<circle style="fill:#B02721;" cx="50" cy="25" r="1"/>
	<circle style="fill:#B02721;" cx="53" cy="22" r="1"/>
	<circle style="fill:#B02721;" cx="41" cy="28" r="1"/>
	<circle style="fill:#B02721;" cx="47" cy="28" r="1"/>
	<circle style="fill:#B02721;" cx="53" cy="28" r="1"/>
	<circle style="fill:#B02721;" cx="44" cy="31" r="1"/>
	<circle style="fill:#B02721;" cx="44" cy="37" r="1"/>
	<circle style="fill:#B02721;" cx="41" cy="34" r="1"/>
	<circle style="fill:#B02721;" cx="47" cy="34" r="1"/>
	<circle style="fill:#B02721;" cx="50" cy="31" r="1"/>
	<circle style="fill:#B02721;" cx="50" cy="37" r="1"/>
	<circle style="fill:#B02721;" cx="53" cy="34" r="1"/>
	<circle style="fill:#B02721;" cx="41" cy="40" r="1"/>
	<circle style="fill:#B02721;" cx="47" cy="40" r="1"/>
	<circle style="fill:#B02721;" cx="53" cy="40" r="1"/>
	<circle style="fill:#B02721;" cx="44" cy="43" r="1"/>
	<circle style="fill:#B02721;" cx="41" cy="46" r="1"/>
	<circle style="fill:#B02721;" cx="47" cy="46" r="1"/>
	<circle style="fill:#B02721;" cx="50" cy="43" r="1"/>
	<circle style="fill:#B02721;" cx="53" cy="46" r="1"/>
	<circle style="fill:#B02721;" cx="26" cy="25" r="1"/>
	<circle style="fill:#B02721;" cx="23" cy="22" r="1"/>
	<circle style="fill:#B02721;" cx="29" cy="22" r="1"/>
	<circle style="fill:#B02721;" cx="32" cy="25" r="1"/>
	<circle style="fill:#B02721;" cx="35" cy="22" r="1"/>
	<circle style="fill:#B02721;" cx="23" cy="28" r="1"/>
	<circle style="fill:#B02721;" cx="29" cy="28" r="1"/>
	<circle style="fill:#B02721;" cx="35" cy="28" r="1"/>
	<circle style="fill:#B02721;" cx="26" cy="31" r="1"/>
	<circle style="fill:#B02721;" cx="26" cy="37" r="1"/>
	<circle style="fill:#B02721;" cx="23" cy="34" r="1"/>
	<circle style="fill:#B02721;" cx="29" cy="34" r="1"/>
	<circle style="fill:#B02721;" cx="32" cy="31" r="1"/>
	<circle style="fill:#B02721;" cx="32" cy="37" r="1"/>
	<circle style="fill:#B02721;" cx="35" cy="34" r="1"/>
	<circle style="fill:#B02721;" cx="23" cy="40" r="1"/>
	<circle style="fill:#B02721;" cx="29" cy="40" r="1"/>
	<circle style="fill:#B02721;" cx="35" cy="40" r="1"/>
	<circle style="fill:#B02721;" cx="26" cy="43" r="1"/>
	<circle style="fill:#B02721;" cx="23" cy="46" r="1"/>
	<circle style="fill:#B02721;" cx="29" cy="46" r="1"/>
	<circle style="fill:#B02721;" cx="32" cy="43" r="1"/>
	<circle style="fill:#B02721;" cx="35" cy="46" r="1"/>
	<circle style="fill:#B02721;" cx="8" cy="25" r="1"/>
	<circle style="fill:#B02721;" cx="5" cy="22" r="1"/>
	<circle style="fill:#B02721;" cx="11" cy="22" r="1"/>
	<circle style="fill:#B02721;" cx="14" cy="25" r="1"/>
	<circle style="fill:#B02721;" cx="17" cy="22" r="1"/>
	<circle style="fill:#B02721;" cx="5" cy="28" r="1"/>
	<circle style="fill:#B02721;" cx="11" cy="28" r="1"/>
	<circle style="fill:#B02721;" cx="17" cy="28" r="1"/>
	<circle style="fill:#B02721;" cx="8" cy="31" r="1"/>
	<circle style="fill:#B02721;" cx="8" cy="37" r="1"/>
	<circle style="fill:#B02721;" cx="5" cy="34" r="1"/>
	<circle style="fill:#B02721;" cx="11" cy="34" r="1"/>
	<circle style="fill:#B02721;" cx="14" cy="31" r="1"/>
	<circle style="fill:#B02721;" cx="14" cy="37" r="1"/>
	<circle style="fill:#B02721;" cx="17" cy="34" r="1"/>
	<circle style="fill:#B02721;" cx="5" cy="40" r="1"/>
	<circle style="fill:#B02721;" cx="11" cy="40" r="1"/>
	<circle style="fill:#B02721;" cx="17" cy="40" r="1"/>
	<circle style="fill:#B02721;" cx="8" cy="43" r="1"/>
	<circle style="fill:#B02721;" cx="5" cy="46" r="1"/>
	<circle style="fill:#B02721;" cx="11" cy="46" r="1"/>
	<circle style="fill:#B02721;" cx="14" cy="43" r="1"/>
	<circle style="fill:#B02721;" cx="17" cy="46" r="1"/>
</g>
<g>
</g>
<g>
</g>
<g>
</g>
<g>
</g>
<g>
</g>
<g>
</g>
<g>
</g>
<g>
</g>
<g>
</g>
<g>
</g>
<g>
</g>
<g>
</g>
<g>
</g>
<g>
</g>
<g>
</g>
</svg>
