<?xml version="1.0" encoding="iso-8859-1"?>
<!-- Generator: Adobe Illustrator 18.0.0, SVG Export Plug-In . SVG Version: 6.00 Build 0)  -->
<!DOCTYPE svg PUBLIC "-//W3C//DTD SVG 1.1//EN" "http://www.w3.org/Graphics/SVG/1.1/DTD/svg11.dtd">
<svg version="1.1" id="Capa_1" xmlns="http://www.w3.org/2000/svg" xmlns:xlink="http://www.w3.org/1999/xlink" x="0px" y="0px"
	 viewBox="0 0 58 58" style="enable-background:new 0 0 58 58;" xml:space="preserve">
<g>
	<path style="fill:#7FABDA;" d="M38.475,14h-18.95C19.235,14,19,13.765,19,13.475v-2.95C19,10.235,19.235,10,19.525,10h18.95
		C38.765,10,39,10.235,39,10.525v2.95C39,13.765,38.765,14,38.475,14z"/>
	<path style="fill:#6B5B4B;" d="M36,10H22V0.498C22,0.223,22.223,0,22.498,0h13.004C35.777,0,36,0.223,36,0.498V10z"/>
	<path style="fill:#937A60;" d="M28,4c2.209,0,4-1.791,4-4h-8C24,2.209,25.791,4,28,4z"/>
	<path style="fill:#937A60;" d="M28.95,10C28.973,9.835,29,9.671,29,9.5C29,7.567,27.433,6,25.5,6S22,7.567,22,9.5
		c0,0.171,0.027,0.335,0.05,0.5H28.95z"/>
	<path style="fill:#937A60;" d="M36,5.511C35.581,5.195,35.065,5,34.5,5C33.119,5,32,6.119,32,7.5c0,1.381,1.119,2.5,2.5,2.5
		c0.565,0,1.081-0.195,1.5-0.511V5.511z"/>
	<path style="fill:#A1C8EC;" d="M29,58L29,58c-3.866,0-7-3.134-7-7V14h14v37C36,54.866,32.866,58,29,58z"/>
	<path style="fill:#B02721;" d="M29,58L29,58c-3.866,0-7-3.134-7-7V29h14v22C36,54.866,32.866,58,29,58z"/>
</g>
<g>
</g>
<g>
</g>
<g>
</g>
<g>
</g>
<g>
</g>
<g>
</g>
<g>
</g>
<g>
</g>
<g>
</g>
<g>
</g>
<g>
</g>
<g>
</g>
<g>
</g>
<g>
</g>
<g>
</g>
</svg>
