<?xml version="1.0" encoding="iso-8859-1"?>
<!-- Generator: Adobe Illustrator 18.0.0, SVG Export Plug-In . SVG Version: 6.00 Build 0)  -->
<!DOCTYPE svg PUBLIC "-//W3C//DTD SVG 1.1//EN" "http://www.w3.org/Graphics/SVG/1.1/DTD/svg11.dtd">
<svg version="1.1" id="Capa_1" xmlns="http://www.w3.org/2000/svg" xmlns:xlink="http://www.w3.org/1999/xlink" x="0px" y="0px"
	 viewBox="0 0 58 58" style="enable-background:new 0 0 58 58;" xml:space="preserve">
<g>
	<g>
		<path style="fill:#48A0DC;" d="M58,29C58,12.984,45.016,0,29,0S0,12.984,0,29c0,12.872,8.392,23.772,20,27.56v-5.89
			c0-6.099-2.762-11.754-7.211-15.925c-2.495-2.34-3.989-5.733-3.768-9.474c0.339-5.741,4.887-10.553,10.602-11.194
			c1.559-0.175,3.063-0.048,4.466,0.328c3.228,0.865,6.593,0.865,9.821,0c1.403-0.376,2.907-0.502,4.466-0.328
			c5.715,0.641,10.263,5.452,10.602,11.194c0.221,3.74-1.272,7.134-3.768,9.474C40.762,38.916,38,44.571,38,50.67v5.89
			C49.608,52.772,58,41.872,58,29z"/>
	</g>
	<path style="fill:#F2ECBF;" d="M38.376,14.077c-1.559-0.175-3.063-0.048-4.466,0.328c-3.228,0.865-6.593,0.865-9.821,0
		c-1.403-0.376-2.907-0.502-4.466-0.328C13.908,14.718,9.361,19.53,9.022,25.271c-0.221,3.74,1.272,7.134,3.768,9.474
		C17.238,38.916,20,44.571,20,50.67v5.899C22.834,57.494,25.857,58,29,58s6.166-0.506,9-1.431V50.67
		c0-6.099,2.762-11.754,7.211-15.925c2.495-2.34,3.989-5.733,3.768-9.474C48.639,19.53,44.092,14.718,38.376,14.077z"/>
	<circle style="fill:#EFCE4A;" cx="32" cy="19" r="1"/>
	<circle style="fill:#EFCE4A;" cx="27" cy="19" r="1"/>
	<circle style="fill:#EFCE4A;" cx="29" cy="22" r="1"/>
	<circle style="fill:#EFCE4A;" cx="32" cy="26" r="1"/>
	<circle style="fill:#EFCE4A;" cx="15" cy="23" r="1"/>
	<circle style="fill:#EFCE4A;" cx="15" cy="20" r="1"/>
	<circle style="fill:#EFCE4A;" cx="12" cy="25" r="1"/>
	<circle style="fill:#EFCE4A;" cx="42" cy="21" r="1"/>
	<circle style="fill:#EFCE4A;" cx="46" cy="25" r="1"/>
	<circle style="fill:#EFCE4A;" cx="42" cy="25" r="1"/>
</g>
<g>
</g>
<g>
</g>
<g>
</g>
<g>
</g>
<g>
</g>
<g>
</g>
<g>
</g>
<g>
</g>
<g>
</g>
<g>
</g>
<g>
</g>
<g>
</g>
<g>
</g>
<g>
</g>
<g>
</g>
</svg>
