<?xml version="1.0" encoding="iso-8859-1"?>
<!-- Generator: Adobe Illustrator 18.0.0, SVG Export Plug-In . SVG Version: 6.00 Build 0)  -->
<!DOCTYPE svg PUBLIC "-//W3C//DTD SVG 1.1//EN" "http://www.w3.org/Graphics/SVG/1.1/DTD/svg11.dtd">
<svg version="1.1" id="Capa_1" xmlns="http://www.w3.org/2000/svg" xmlns:xlink="http://www.w3.org/1999/xlink" x="0px" y="0px"
	 viewBox="0 0 58 58" style="enable-background:new 0 0 58 58;" xml:space="preserve">
<g>
	<g>
		<path style="fill:#E7ECED;" d="M28.999,51c-7.42,0-9.277-0.302-11.222-6.649C16.36,39.727,16.041,33.933,16,29.057
			c-0.037-4.394,7.25-11.167,11.594-11.968c0.458-0.084,0.951-0.125,1.405-0.047c4.171,0.712,13.151,7.764,12.999,12.016
			c-0.183,5.105-1.486,11.495-2.86,16.413C37.792,50.292,33.249,51,28.999,51z"/>
	</g>
	<path style="fill:#3E465B;" d="M12.981,31.186c-0.203,3.313-0.777,7.152-1.54,10.814h5.737c-0.905-4.144-1.144-8.861-1.178-12.943
		c-0.037-4.394,7.25-11.167,11.594-11.968c0.458-0.084,0.951-0.125,1.405-0.047c4.171,0.712,13.151,7.764,12.999,12.016
		c-0.142,3.972-0.965,8.714-1.969,12.943h5.27c-1.001-4.176-1.261-8.952-1.299-13.078c-0.034-3.736,5.634-3.473,10.208-3.802
		c1.169-0.084,2.34-0.121,3.511-0.119C55.77,10.878,43.659,0,29,0C15.988,0,5.001,8.579,1.329,20.383
		c1.804,0.325,3.588,0.83,5.267,1.413C10.054,22.997,13.275,26.395,12.981,31.186z"/>
	<path style="fill:#FFFFFF;" d="M30.155,28.708c2.709,0.746,5.301,1.432,8.135,1.268c0.418-0.024,0.753-0.052,1.054-0.085
		c-0.041-0.865-0.174-1.712-0.52-2.513c-0.819-1.897-2.252-3.203-3.879-4.324c-0.439-0.302-0.798-0.702-1.091-1.147
		c-0.511-0.775-1.051-1.538-1.641-2.281c-0.634-0.798-1.454-0.829-2.119-0.459c-0.328-0.148-0.723-0.126-1.05,0.214
		c-1.198,1.247-2.034,2.657-2.522,4.126c-0.74,2.226,0.743,4.549,3.034,5.053C29.764,28.607,29.965,28.655,30.155,28.708z"/>
	<path style="fill:#ED9893;" d="M45.914,44.217c-0.235-0.711-0.433-1.458-0.615-2.217h-5.27c-0.286,1.207-0.586,2.378-0.89,3.47
		C37.792,50.292,33.249,51,28.999,51c-7.42,0-9.277-0.302-11.222-6.649c-0.231-0.753-0.423-1.545-0.599-2.351h-5.737
		c-0.458,2.198-0.984,4.332-1.538,6.25c-0.2,0.693-0.472,1.297-0.794,1.836C14.301,54.988,21.296,58,29,58
		c7.918,0,15.086-3.182,20.317-8.328C47.817,48.749,46.872,47.119,45.914,44.217z"/>
	<path style="fill:#E7ECED;" d="M6.595,21.795c-1.687-0.586-3.479-1.094-5.292-1.418C0.456,23.101,0,25.997,0,29
		c0,8.313,3.503,15.803,9.107,21.091c0.323-0.54,0.596-1.145,0.797-1.84c1.478-5.113,2.753-11.763,3.078-17.064
		C13.275,26.395,10.054,22.997,6.595,21.795z"/>
	<path style="fill:#E7ECED;" d="M57.719,25.001c-1.171-0.001-2.342,0.035-3.511,0.119C49.634,25.45,43.966,25.187,44,28.922
		c0.044,4.875,0.388,10.67,1.914,15.294c0.96,2.908,1.907,4.538,3.412,5.461C54.678,44.416,58,37.097,58,29
		C58,27.642,57.899,26.309,57.719,25.001z"/>
	<rect x="23" y="33" style="fill:#C7CAC7;" width="4" height="8"/>
	<rect x="31" y="33" style="fill:#C7CAC7;" width="4" height="8"/>
	<path style="fill:#7383BF;" d="M57.142,36H36v-4h-6v4h-2v-4h-6v4H0.861c0.168,0.676,0.353,1.344,0.567,2H22v4h6v-4h2v4h6v-4h20.568
		C56.783,37.343,56.974,36.677,57.142,36z M26,40h-2v-6h2V40z M34,40h-2v-6h2V40z"/>
	<path style="fill:#FFFFFF;" d="M4.551,26.193c2.374,0.187,2.871,2.981,2.883,4.878c0.008,1.289,2.008,1.29,2,0
		c-0.02-3.138-1.31-6.597-4.883-6.878C3.264,24.091,3.274,26.092,4.551,26.193L4.551,26.193z"/>
	<path style="fill:#FFFFFF;" d="M46.885,29.558c-0.263-0.613,3.822-0.585,4.109-0.588c1.273-0.013,2.546-0.026,3.819-0.04
		c1.289-0.013,1.29-2.013,0-2c-2.214,0.023-11.724-1.183-9.655,3.637C45.665,31.75,47.388,30.73,46.885,29.558L46.885,29.558z"/>
</g>
<g>
</g>
<g>
</g>
<g>
</g>
<g>
</g>
<g>
</g>
<g>
</g>
<g>
</g>
<g>
</g>
<g>
</g>
<g>
</g>
<g>
</g>
<g>
</g>
<g>
</g>
<g>
</g>
<g>
</g>
</svg>
