<?xml version="1.0" encoding="iso-8859-1"?>
<!-- Generator: Adobe Illustrator 18.0.0, SVG Export Plug-In . SVG Version: 6.00 Build 0)  -->
<!DOCTYPE svg PUBLIC "-//W3C//DTD SVG 1.1//EN" "http://www.w3.org/Graphics/SVG/1.1/DTD/svg11.dtd">
<svg version="1.1" id="Capa_1" xmlns="http://www.w3.org/2000/svg" xmlns:xlink="http://www.w3.org/1999/xlink" x="0px" y="0px"
	 viewBox="0 0 58 58" style="enable-background:new 0 0 58 58;" xml:space="preserve">
<g>
	<g>
		<path style="fill:#3E465B;" d="M46.977,39.995c-2.864-1.905-4.998-6.748-4.976-9.182c0.005-0.592,0.015-1.199,0.03-1.814H15.859
			c0.058,0.617,0.11,1.226,0.146,1.814c0.293,4.791-2.927,8.189-6.386,9.391c-2.101,0.73-4.367,1.334-6.631,1.618
			C7.721,51.406,17.588,58,29,58c11.342,0,21.141-6.523,25.906-16.012C52.067,42.074,49.311,41.549,46.977,39.995z"/>
	</g>
	<path style="fill:#ED9893;" d="M29,0C12.984,0,0,12.984,0,29h58C58,12.984,45.016,0,29,0z"/>
	<g>
		<path style="fill:#E7ECED;" d="M41.584,21.542c1.059,4.575,0.086,9.439-2.819,13.113c-2.428,3.071-5.605,6.179-8.415,8.009
			c-0.585,0.381-1.491,0.446-2.124,0.151c-3.578-1.668-12.608-10.439-12.214-15.512c0.347-4.465,0.57-8.976,1.848-13.264
			c1.533-5.144,5.683-7.094,10.811-7.039c5.222,0.056,9.364,2.004,11.033,7.332C40.445,16.699,41.024,19.118,41.584,21.542z"/>
	</g>
	<path style="fill:#E7ECED;" d="M49.415,8.406c-2.854,0.641-4.163,2.285-5.502,6.506C42.388,19.721,42.044,25.745,42,30.814
		c-0.021,2.434,2.113,7.277,4.976,9.182c2.341,1.557,5.104,2.082,7.951,1.992C56.889,38.079,58,33.671,58,29
		C58,20.946,54.715,13.661,49.415,8.406z"/>
	<path style="fill:#E7ECED;" d="M12.927,13.75c-0.78-2.699-2.561-4.152-4.75-4.924C3.119,14.046,0,21.157,0,29
		c0,4.605,1.078,8.956,2.988,12.823c2.264-0.284,4.53-0.888,6.631-1.618c3.459-1.202,6.68-4.6,6.386-9.391
		C15.68,25.512,14.405,18.863,12.927,13.75z"/>
	<path style="fill:#FFFFFF;" d="M26.469,29.537c-0.438-0.281-0.879-0.484-1.302-0.493c-0.054-0.001-0.109-0.003-0.165-0.005
		c-1.037-0.04-1.934,0.733-2.012,1.768c-0.001,0.008-0.001,0.016-0.002,0.024c-0.025,0.326,0.018,0.654,0.15,0.953
		c1.105,2.515,2.535,4.904,4.316,7.147c1.604,2.02,4.415-0.831,2.828-2.828C28.676,34.079,27.413,31.87,26.469,29.537z"/>
	<path style="fill:#FFFFFF;" d="M51.705,35.541c-2.232-2.77-3.43-6.124-3.57-9.666c-0.101-2.571-4.102-2.58-4,0
		c0.184,4.677,1.813,8.86,4.742,12.495C50.496,40.379,53.307,37.53,51.705,35.541L51.705,35.541z"/>
	<path style="fill:#FFFFFF;" d="M5.894,39.999c7.51-0.496,8.455-8.295,7.837-14.266c-0.263-2.539-4.265-2.565-4,0
		c0.341,3.293,1.026,9.945-3.837,10.266C3.334,36.168,3.318,40.17,5.894,39.999L5.894,39.999z"/>
	<rect x="23" y="13" style="fill:#C7CAC7;" width="4" height="8"/>
	<rect x="31" y="13" style="fill:#C7CAC7;" width="4" height="8"/>
	<path style="fill:#7383BF;" d="M54.921,16H36v-4h-6v4h-2v-4h-6v4H3.079c-0.328,0.653-0.634,1.32-0.913,2H22v4h6v-4h2v4h6v-4h19.835
		C55.555,17.32,55.25,16.653,54.921,16z M26,16v4h-2v-4v-2h2V16z M34,16v4h-2v-4v-2h2V16z"/>
</g>
<g>
</g>
<g>
</g>
<g>
</g>
<g>
</g>
<g>
</g>
<g>
</g>
<g>
</g>
<g>
</g>
<g>
</g>
<g>
</g>
<g>
</g>
<g>
</g>
<g>
</g>
<g>
</g>
<g>
</g>
</svg>
