<?xml version="1.0" encoding="iso-8859-1"?>
<!-- Generator: Adobe Illustrator 18.0.0, SVG Export Plug-In . SVG Version: 6.00 Build 0)  -->
<!DOCTYPE svg PUBLIC "-//W3C//DTD SVG 1.1//EN" "http://www.w3.org/Graphics/SVG/1.1/DTD/svg11.dtd">
<svg version="1.1" id="Capa_1" xmlns="http://www.w3.org/2000/svg" xmlns:xlink="http://www.w3.org/1999/xlink" x="0px" y="0px"
	 viewBox="0 0 59.482 59.482" style="enable-background:new 0 0 59.482 59.482;" xml:space="preserve">
<g>
	<path style="fill:#EFC9B3;" d="M54.46,32.227c-0.926,1.441-3.823,4.274-3.719,6c0.193,3.184-1.774,7.225-4.54,8.645
		c-1.5,0.77-1.104,2.025-1.849,3.573c-1.375,2.857-4.188,1.326-4.611,4.387c-0.714,5.171-5.982,4.425-8.571,0.406
		c-0.655-1.017-2.202-1.017-2.857,0c-2.589,4.019-7.857,4.765-8.571-0.406c-0.422-3.061-3.236-1.529-4.611-4.387
		c-0.745-1.549-0.349-2.804-1.849-3.573c-2.766-1.42-4.733-5.461-4.54-8.645c0.104-1.726-2.792-4.559-3.719-6
		c-1.708-2.658-1.708-6.342,0-9c0.926-1.441,1.371-4.274,1.266-6c-0.193-3.184,1.481-6.58,4.247-8l0,0c1.5-0.77,2.715-0.451,3.46-2
		c1.375-2.857,2.662-3.199,5.745-3c1.671,0.108,2.417-2.583,5-2.977c0.013-0.002,0.022-0.015,0.034-0.023
		c0.912-0.618,2.645,0.115,3.803,1.132c0.649,0.569,1.581,0.56,2.269,0.04c0.922-0.697,2.328-1.171,3.86-1.171
		c0.014,0,0.02,0.023,0.034,0.023c2.583,0,3.329,3.085,5,2.977c3.083-0.199,4.371,0.143,5.745,3c0.745,1.549,1.96,1.23,3.46,2l0,0
		c2.766,1.42,4.44,4.816,4.247,8c-0.104,1.726,0.34,4.559,1.266,6C56.168,25.885,56.168,29.569,54.46,32.227z"/>
	<g>
		<path style="fill:#CF8C6D;" d="M20.741,42c-3.86,0-7,3.141-7,7c0,0.553,0.448,1,1,1s1-0.447,1-1c0-2.757,2.243-5,5-5
			c0.552,0,1-0.447,1-1S21.293,42,20.741,42z"/>
		<path style="fill:#CF8C6D;" d="M13.741,10c1.654,0,3,1.346,3,3c0,0.553,0.448,1,1,1s1-0.447,1-1c0-2.757-2.243-5-5-5
			c-0.552,0-1,0.447-1,1S13.189,10,13.741,10z"/>
		<path style="fill:#CF8C6D;" d="M23.741,24c0-0.553-0.448-1-1-1s-1,0.447-1,1c0,3.309-2.691,6-6,6c-4.411,0-8,3.589-8,8
			c0,0.553,0.448,1,1,1s1-0.447,1-1c0-3.309,2.691-6,6-6C20.152,32,23.741,28.411,23.741,24z"/>
		<path style="fill:#CF8C6D;" d="M24.93,31.979c-0.391-0.391-1.023-0.391-1.414,0c-1.279,1.279-1.984,2.979-1.984,4.785
			s0.705,3.506,1.984,4.785c0.195,0.195,0.451,0.293,0.707,0.293s0.512-0.098,0.707-0.293c0.391-0.391,0.391-1.023,0-1.414
			c-0.901-0.901-1.398-2.099-1.398-3.371s0.497-2.47,1.398-3.371C25.321,33.003,25.321,32.37,24.93,31.979z"/>
		<path style="fill:#CF8C6D;" d="M25.283,13.103c-3.679-0.638-7.191,1.821-7.836,5.496c-0.456,2.59-2.932,4.324-5.521,3.87
			c-0.547-0.091-1.062,0.269-1.158,0.813s0.268,1.063,0.812,1.158c0.395,0.069,0.787,0.103,1.174,0.103
			c3.222,0,6.085-2.316,6.662-5.598c0.454-2.589,2.934-4.323,5.521-3.871c0.545,0.089,1.063-0.27,1.158-0.813
			C26.191,13.717,25.827,13.198,25.283,13.103z"/>
	</g>
	<g>
		<circle style="fill:#FFFFFF;" cx="37.741" cy="56.483" r="1"/>
		<circle style="fill:#FFFFFF;" cx="33.741" cy="56.483" r="1"/>
		<circle style="fill:#FFFFFF;" cx="39.741" cy="54.483" r="1"/>
		<circle style="fill:#FFFFFF;" cx="31.741" cy="54.483" r="1"/>
		<circle style="fill:#FFFFFF;" cx="37.741" cy="52.483" r="1"/>
		<circle style="fill:#FFFFFF;" cx="33.741" cy="52.483" r="1"/>
		<circle style="fill:#FFFFFF;" cx="35.741" cy="50.483" r="1"/>
		<circle style="fill:#FFFFFF;" cx="39.741" cy="50.483" r="1"/>
		<circle style="fill:#FFFFFF;" cx="31.741" cy="50.483" r="1"/>
		<circle style="fill:#FFFFFF;" cx="39.741" cy="46.483" r="1"/>
		<circle style="fill:#FFFFFF;" cx="31.741" cy="46.483" r="1"/>
		<circle style="fill:#FFFFFF;" cx="33.741" cy="44.483" r="1"/>
		<circle style="fill:#FFFFFF;" cx="35.741" cy="42.483" r="1"/>
		<circle style="fill:#FFFFFF;" cx="39.741" cy="42.483" r="1"/>
		<circle style="fill:#FFFFFF;" cx="31.741" cy="42.483" r="1"/>
		<circle style="fill:#FFFFFF;" cx="37.741" cy="40.483" r="1"/>
		<circle style="fill:#FFFFFF;" cx="31.741" cy="38.483" r="1"/>
		<circle style="fill:#FFFFFF;" cx="37.741" cy="36.483" r="1"/>
		<circle style="fill:#FFFFFF;" cx="33.741" cy="36.483" r="1"/>
		<circle style="fill:#FFFFFF;" cx="31.741" cy="34.483" r="1"/>
		<circle style="fill:#FFFFFF;" cx="33.741" cy="32.483" r="1"/>
		<circle style="fill:#FFFFFF;" cx="35.741" cy="30.483" r="1"/>
		<circle style="fill:#FFFFFF;" cx="39.741" cy="30.483" r="1"/>
		<circle style="fill:#FFFFFF;" cx="31.741" cy="30.483" r="1"/>
		<circle style="fill:#FFFFFF;" cx="37.741" cy="28.483" r="1"/>
		<circle style="fill:#FFFFFF;" cx="35.741" cy="26.483" r="1"/>
		<circle style="fill:#FFFFFF;" cx="39.741" cy="26.483" r="1"/>
		<circle style="fill:#FFFFFF;" cx="31.741" cy="26.483" r="1"/>
		<circle style="fill:#FFFFFF;" cx="33.741" cy="24.483" r="1"/>
		<circle style="fill:#FFFFFF;" cx="35.741" cy="22.483" r="1"/>
		<circle style="fill:#FFFFFF;" cx="37.741" cy="20.483" r="1"/>
		<circle style="fill:#FFFFFF;" cx="33.741" cy="20.483" r="1"/>
		<circle style="fill:#FFFFFF;" cx="31.741" cy="18.483" r="1"/>
		<circle style="fill:#FFFFFF;" cx="37.741" cy="16.483" r="1"/>
		<circle style="fill:#FFFFFF;" cx="33.741" cy="16.483" r="1"/>
		<circle style="fill:#FFFFFF;" cx="35.741" cy="14.483" r="1"/>
		<circle style="fill:#FFFFFF;" cx="39.741" cy="14.483" r="1"/>
		<circle style="fill:#FFFFFF;" cx="37.741" cy="12.483" r="1"/>
		<circle style="fill:#FFFFFF;" cx="33.741" cy="12.483" r="1"/>
		<circle style="fill:#FFFFFF;" cx="31.741" cy="10.483" r="1"/>
		<circle style="fill:#FFFFFF;" cx="37.741" cy="8.483" r="1"/>
		<circle style="fill:#FFFFFF;" cx="39.741" cy="6.483" r="1"/>
		<circle style="fill:#FFFFFF;" cx="31.741" cy="6.483" r="1"/>
		<circle style="fill:#FFFFFF;" cx="37.741" cy="4.483" r="1"/>
		<circle style="fill:#FFFFFF;" cx="33.741" cy="4.483" r="1"/>
		<circle style="fill:#FFFFFF;" cx="35.741" cy="2.483" r="1"/>
		<circle style="fill:#FFFFFF;" cx="31.741" cy="2.483" r="1"/>
		<circle style="fill:#FFFFFF;" cx="41.741" cy="52.483" r="1"/>
		<circle style="fill:#FFFFFF;" cx="43.741" cy="50.483" r="1"/>
		<circle style="fill:#FFFFFF;" cx="41.741" cy="48.483" r="1"/>
		<circle style="fill:#FFFFFF;" cx="43.741" cy="46.483" r="1"/>
		<circle style="fill:#FFFFFF;" cx="45.741" cy="44.483" r="1"/>
		<circle style="fill:#FFFFFF;" cx="47.741" cy="42.483" r="1"/>
		<circle style="fill:#FFFFFF;" cx="43.741" cy="42.483" r="1"/>
		<circle style="fill:#FFFFFF;" cx="45.741" cy="40.483" r="1"/>
		<circle style="fill:#FFFFFF;" cx="49.741" cy="40.483" r="1"/>
		<circle style="fill:#FFFFFF;" cx="47.741" cy="38.483" r="1"/>
		<circle style="fill:#FFFFFF;" cx="45.741" cy="36.483" r="1"/>
		<circle style="fill:#FFFFFF;" cx="49.741" cy="36.483" r="1"/>
		<circle style="fill:#FFFFFF;" cx="41.741" cy="36.483" r="1"/>
		<circle style="fill:#FFFFFF;" cx="45.741" cy="32.483" r="1"/>
		<circle style="fill:#FFFFFF;" cx="49.741" cy="32.483" r="1"/>
		<circle style="fill:#FFFFFF;" cx="41.741" cy="32.483" r="1"/>
		<circle style="fill:#FFFFFF;" cx="45.741" cy="28.483" r="1"/>
		<circle style="fill:#FFFFFF;" cx="49.741" cy="28.483" r="1"/>
		<circle style="fill:#FFFFFF;" cx="43.741" cy="26.483" r="1"/>
		<circle style="fill:#FFFFFF;" cx="45.741" cy="24.483" r="1"/>
		<circle style="fill:#FFFFFF;" cx="47.741" cy="22.483" r="1"/>
		<circle style="fill:#FFFFFF;" cx="43.741" cy="22.483" r="1"/>
		<circle style="fill:#FFFFFF;" cx="45.741" cy="20.483" r="1"/>
		<circle style="fill:#FFFFFF;" cx="41.741" cy="20.483" r="1"/>
		<circle style="fill:#FFFFFF;" cx="47.741" cy="18.483" r="1"/>
		<circle style="fill:#FFFFFF;" cx="49.741" cy="16.483" r="1"/>
		<circle style="fill:#FFFFFF;" cx="47.741" cy="14.483" r="1"/>
		<circle style="fill:#FFFFFF;" cx="43.741" cy="14.483" r="1"/>
		<circle style="fill:#FFFFFF;" cx="49.741" cy="12.483" r="1"/>
		<circle style="fill:#FFFFFF;" cx="41.741" cy="12.483" r="1"/>
		<circle style="fill:#FFFFFF;" cx="47.741" cy="10.483" r="1"/>
		<circle style="fill:#FFFFFF;" cx="43.741" cy="10.483" r="1"/>
		<circle style="fill:#FFFFFF;" cx="45.741" cy="8.483" r="1"/>
		<circle style="fill:#FFFFFF;" cx="43.741" cy="6.483" r="1"/>
		<circle style="fill:#FFFFFF;" cx="41.741" cy="4.483" r="1"/>
		<circle style="fill:#FFFFFF;" cx="51.741" cy="34.483" r="1"/>
		<circle style="fill:#FFFFFF;" cx="53.741" cy="32.483" r="1"/>
		<circle style="fill:#FFFFFF;" cx="53.741" cy="28.483" r="1"/>
		<circle style="fill:#FFFFFF;" cx="51.741" cy="26.483" r="1"/>
		<circle style="fill:#FFFFFF;" cx="53.741" cy="24.483" r="1"/>
		<circle style="fill:#FFFFFF;" cx="51.741" cy="22.483" r="1"/>
		<circle style="fill:#FFFFFF;" cx="51.741" cy="18.483" r="1"/>
		<circle style="fill:#FFFFFF;" cx="51.741" cy="14.483" r="1"/>
	</g>
	<path style="fill:#CF8C6D;" d="M36.254,59.482c-2.15,0-4.476-1.453-5.925-3.702c-0.177-0.274-0.47-0.305-0.588-0.305
		s-0.411,0.03-0.588,0.305c-1.449,2.249-3.775,3.702-5.925,3.702c-2.414,0-4.087-1.688-4.478-4.514
		c-0.142-1.026-0.529-1.174-1.465-1.529c-0.942-0.359-2.233-0.85-3.056-2.561c-0.305-0.634-0.447-1.224-0.562-1.697
		c-0.207-0.856-0.298-1.14-0.843-1.42c-3.028-1.555-5.308-5.859-5.082-9.596c0.051-0.844-1.443-2.688-2.335-3.789
		c-0.5-0.618-0.932-1.151-1.227-1.609c-1.908-2.968-1.908-7.113,0-10.082c0.774-1.203,1.206-3.811,1.11-5.398
		c-0.225-3.707,1.745-7.388,4.789-8.95c0.587-0.302,1.115-0.454,1.581-0.588c0.801-0.231,1.132-0.327,1.434-0.956
		c1.284-2.667,2.701-3.612,5.413-3.612c0.397,0,0.828,0.018,1.298,0.048h0.001c0.366,0,0.79-0.419,1.279-0.904
		c0.737-0.729,1.735-1.718,3.292-2.025C24.738,0.099,25.148,0,25.606,0c1.326,0,2.745,0.83,3.631,1.606
		c0.421,0.369,0.74,0.196,1.007-0.006c1.154-0.873,2.781-1.374,4.463-1.374l0.505,0.05c1.569,0.181,2.56,1.239,3.301,2.032
		c0.423,0.452,0.861,0.921,1.142,0.921c0.492-0.031,0.923-0.049,1.32-0.049c2.712,0,4.128,0.945,5.412,3.612
		c0.303,0.629,0.634,0.725,1.435,0.956c0.465,0.134,0.993,0.286,1.581,0.588c3.044,1.563,5.013,5.243,4.789,8.95
		c-0.096,1.588,0.336,4.195,1.11,5.398c1.908,2.969,1.908,7.114,0,10.082c-0.295,0.458-0.727,0.991-1.227,1.609
		c-0.892,1.102-2.386,2.945-2.335,3.789c0.227,3.736-2.053,8.041-5.082,9.596c-0.545,0.28-0.637,0.563-0.843,1.42
		c-0.114,0.474-0.256,1.063-0.561,1.697c-0.823,1.711-2.114,2.201-3.057,2.561c-0.936,0.355-1.323,0.503-1.465,1.529
		C40.272,58.297,38.118,59.482,36.254,59.482z M29.741,53.476c0.928,0,1.776,0.457,2.269,1.221c1.091,1.692,2.756,2.786,4.244,2.786
		c1.361,0,2.248-0.99,2.496-2.787c0.304-2.2,1.709-2.735,2.735-3.125c0.831-0.316,1.488-0.566,1.965-1.559
		c0.212-0.441,0.317-0.878,0.419-1.3c0.228-0.945,0.487-2.018,1.874-2.729c2.307-1.184,4.175-4.78,3.999-7.695
		c-0.098-1.62,1.429-3.506,2.777-5.17c0.444-0.548,0.863-1.065,1.098-1.432c1.499-2.33,1.499-5.587,0-7.918
		c-1.043-1.622-1.543-4.63-1.423-6.602c0.175-2.893-1.383-5.857-3.706-7.05c-0.415-0.213-0.826-0.331-1.222-0.446
		c-0.934-0.27-1.992-0.575-2.682-2.01c-1.021-2.121-1.797-2.479-3.61-2.479c-0.358,0-0.747,0.017-1.17,0.044l-0.15,0.005
		c-1.148,0-1.921-0.826-2.603-1.555c-0.829-0.887-1.398-1.425-2.311-1.425l-0.468-0.009c-1.083,0.074-2.114,0.419-2.822,0.955
		c-1.048,0.791-2.572,0.756-3.532-0.086C27.185,2.467,26.212,2,25.606,2c-0.097,0-0.179,0.013-0.234,0.035l-0.156,0.144
		l-0.328,0.061c-1.033,0.157-1.694,0.813-2.395,1.506c-0.703,0.696-1.499,1.484-2.654,1.484l-0.163-0.005
		c-0.423-0.027-0.812-0.044-1.169-0.044c-1.813,0-2.589,0.358-3.61,2.479c-0.689,1.435-1.748,1.74-2.682,2.01
		c-0.396,0.115-0.807,0.233-1.222,0.446c-2.322,1.192-3.881,4.157-3.706,7.05c0.12,1.972-0.38,4.979-1.423,6.602
		c-1.499,2.331-1.499,5.588,0,7.918c0.235,0.366,0.654,0.884,1.098,1.432c1.348,1.664,2.875,3.55,2.777,5.17
		c-0.176,2.915,1.692,6.512,3.999,7.695c1.387,0.712,1.646,1.784,1.874,2.729c0.102,0.422,0.207,0.858,0.42,1.3
		c0.477,0.992,1.134,1.242,1.965,1.559c1.026,0.39,2.432,0.925,2.735,3.125c0.248,1.797,1.135,2.787,2.496,2.787
		c1.465,0,3.17-1.119,4.244-2.786C27.965,53.933,28.813,53.476,29.741,53.476z"/>
</g>
<g>
</g>
<g>
</g>
<g>
</g>
<g>
</g>
<g>
</g>
<g>
</g>
<g>
</g>
<g>
</g>
<g>
</g>
<g>
</g>
<g>
</g>
<g>
</g>
<g>
</g>
<g>
</g>
<g>
</g>
</svg>
