<?xml version="1.0" encoding="iso-8859-1"?>
<!-- Generator: Adobe Illustrator 18.0.0, SVG Export Plug-In . SVG Version: 6.00 Build 0)  -->
<!DOCTYPE svg PUBLIC "-//W3C//DTD SVG 1.1//EN" "http://www.w3.org/Graphics/SVG/1.1/DTD/svg11.dtd">
<svg version="1.1" id="Capa_1" xmlns="http://www.w3.org/2000/svg" xmlns:xlink="http://www.w3.org/1999/xlink" x="0px" y="0px"
	 viewBox="0 0 58 58" style="enable-background:new 0 0 58 58;" xml:space="preserve">
<g>
	<circle style="fill:#FBCE9D;" cx="29" cy="29" r="29"/>
	<path style="fill:#F7B563;" d="M29,50c-10.477,0-19-8.075-19-18c0-0.553,0.448-1,1-1s1,0.447,1,1c0,8.822,7.626,16,17,16
		s17-7.178,17-16c0-6.358-1.299-8.615-3.888-13.11c-1.092-1.896-2.451-4.257-4.011-7.451c-0.243-0.496-0.037-1.095,0.459-1.337
		c0.499-0.243,1.096-0.036,1.337,0.46c1.53,3.133,2.87,5.46,3.947,7.33C46.524,22.544,48,25.106,48,32C48,41.925,39.477,50,29,50z"
		/>
	<circle style="fill:#EA7F5F;" cx="29" cy="31" r="9"/>
	<circle style="fill:#B34B4D;" cx="29" cy="31" r="4"/>
	<path style="fill:#556080;" d="M45.923,52.543C45.923,52.543,45.923,52.543,45.923,52.543c-0.052-3.688-1.344-7.911-1.785-9.681
		l-0.763,0.763c-2.197,5.437-2.189,9.487-2.607,11.879C42.594,54.692,44.32,53.698,45.923,52.543z"/>
</g>
<g>
</g>
<g>
</g>
<g>
</g>
<g>
</g>
<g>
</g>
<g>
</g>
<g>
</g>
<g>
</g>
<g>
</g>
<g>
</g>
<g>
</g>
<g>
</g>
<g>
</g>
<g>
</g>
<g>
</g>
</svg>
