<?xml version="1.0" encoding="iso-8859-1"?>
<!-- Generator: Adobe Illustrator 18.0.0, SVG Export Plug-In . SVG Version: 6.00 Build 0)  -->
<!DOCTYPE svg PUBLIC "-//W3C//DTD SVG 1.1//EN" "http://www.w3.org/Graphics/SVG/1.1/DTD/svg11.dtd">
<svg version="1.1" id="Capa_1" xmlns="http://www.w3.org/2000/svg" xmlns:xlink="http://www.w3.org/1999/xlink" x="0px" y="0px"
	 viewBox="0 0 58 58" style="enable-background:new 0 0 58 58;" xml:space="preserve">
<g>
	<circle style="fill:#2998C0;" cx="29" cy="29" r="29"/>
	<path style="fill:#FBCE9D;" d="M50.216,30.013c-0.814-1.427-0.564-3.227,0.597-4.39c1.622-1.626,3.953-2.71,6.375-3.433
		c-1.241-5.154-3.856-9.771-7.439-13.441l-4.383,0.913c-2.552,0.532-4.995-1.291-5.211-3.889l-0.924-3.91
		C36.049,0.662,32.602,0,29,0c-3.675,0-7.186,0.69-10.422,1.937c-0.396,2.225-0.682,3.835-0.682,3.835
		c-0.217,2.598-2.659,4.421-5.211,3.889L8.26,8.74c-3.584,3.669-6.201,8.283-7.444,13.436c2.417,0.717,4.747,1.791,6.378,3.403
		c1.177,1.163,1.426,2.978,0.603,4.414c-0.985,1.719-1.618,3.778-1.764,6.015C6.012,36.334,6,36.665,6,37
		c0,3.594,2.286,7.105,5.211,9.573c0.049,0.481,0.098,0.949,0.147,1.424c0.131,1.266,0.26,2.512,0.384,3.681
		c0.206,0.339,0.47,0.772,0.676,1.112c0.198,0.136,0.395,0.271,0.596,0.403c0.336,0.222,0.675,0.441,1.02,0.65
		c0.428,0.257,0.863,0.505,1.305,0.74c0.185,0.099,0.372,0.194,0.56,0.288c0.443,0.223,1.177,0.568,1.631,0.767
		c0.091,0.04,0.181,0.08,0.272,0.119c0.586,0.244,1.183,0.467,1.787,0.673c0.135,0.046,0.27,0.093,0.406,0.137
		c0.645,0.21,1.297,0.401,1.961,0.567c0.073,0.018,0.147,0.033,0.22,0.051c0.665,0.16,1.336,0.29,2.01,0.41
		c0.06,0.011,0.119,0.022,0.179,0.032c0.695,0.112,1.398,0.195,2.109,0.257c0.123,0.011,0.247,0.019,0.371,0.028
		c0.717,0.053,1.44,0.087,2.171,0.088c0.018,0,0.035-0.001,0.052-0.001c0.683-0.001,1.358-0.035,2.029-0.082
		c0.188-0.013,0.377-0.026,0.564-0.043c0.627-0.056,1.248-0.132,1.863-0.227c0.242-0.038,0.481-0.085,0.721-0.129
		c0.398-0.072,0.792-0.154,1.183-0.242c0.466-0.106,0.928-0.222,1.386-0.35c0.298-0.083,0.596-0.166,0.891-0.257
		c0.405-0.127,0.807-0.263,1.204-0.407c0.065-0.023,0.129-0.049,0.194-0.073c2.571-0.956,4.97-2.266,7.137-3.871
		c0.146-1.369,0.299-2.844,0.456-4.362c0.049-0.473,0.098-0.95,0.147-1.43C49.742,44.059,52,40.571,52,37
		c0-0.335-0.012-0.666-0.033-0.993C51.822,33.78,51.193,31.728,50.216,30.013z"/>
	<path style="fill:#FBCE9D;" d="M29,42.507C27.213,47.359,23.25,51,19,51c-2.438,0-5.208-1.162-7.642-3.003
		c0.131,1.266,0.26,2.512,0.384,3.681c0.206,0.339,0.47,0.772,0.676,1.112c0.198,0.136,0.395,0.271,0.596,0.403
		c0.336,0.222,0.675,0.441,1.02,0.65c0.428,0.257,0.863,0.505,1.305,0.74c0.185,0.099,0.372,0.194,0.56,0.288
		c0.443,0.223,1.177,0.568,1.631,0.767c0.091,0.04,0.181,0.08,0.272,0.119c0.586,0.244,1.183,0.467,1.787,0.673
		c0.135,0.046,0.27,0.093,0.406,0.137c0.645,0.21,1.297,0.401,1.961,0.567c0.073,0.018,0.147,0.033,0.22,0.051
		c0.665,0.16,1.336,0.29,2.01,0.41c0.06,0.011,0.119,0.022,0.179,0.032c0.695,0.112,1.398,0.195,2.109,0.257
		c0.123,0.011,0.247,0.019,0.371,0.028c0.717,0.053,1.44,0.087,2.171,0.088c0.018,0,0.035-0.001,0.052-0.001
		c0.683-0.001,1.358-0.035,2.029-0.082c0.188-0.013,0.377-0.026,0.564-0.043c0.627-0.056,1.248-0.132,1.863-0.227
		c0.242-0.038,0.481-0.085,0.721-0.129c0.398-0.072,0.792-0.154,1.183-0.242c0.466-0.106,0.928-0.222,1.386-0.35
		c0.298-0.083,0.596-0.166,0.891-0.257c0.405-0.127,0.807-0.263,1.204-0.407c0.065-0.023,0.129-0.049,0.194-0.073
		c2.571-0.956,4.97-2.266,7.137-3.871c0.146-1.369,0.299-2.844,0.456-4.362C44.251,49.821,41.457,51,39,51
		C34.75,51,30.787,47.359,29,42.507z"/>
	<path style="fill:#FBCE9D;" d="M7,37c0,6.188,7.486,12,12,12c4.626,0,9-5.832,9-12c0-4.963-2.691-9-6-9c-0.553,0-1-0.447-1-1
		s0.447-1,1-1c3.01,0,5.635,2.3,7,5.686C30.365,28.3,32.99,26,36,26c0.553,0,1,0.447,1,1s-0.447,1-1,1c-3.309,0-6,4.037-6,9
		c0,6.168,4.374,12,9,12c4.514,0,12-5.813,12-12c0-0.541,0.431-0.975,0.967-0.993c-0.145-2.227-0.774-4.279-1.751-5.994
		c-0.814-1.427-0.564-3.227,0.597-4.39c1.622-1.626,3.953-2.71,6.375-3.433c-1.241-5.154-3.856-9.771-7.439-13.441l-4.383,0.913
		c-2.552,0.532-4.995-1.291-5.211-3.889l-0.924-3.91C36.049,0.662,32.602,0,29,0c-3.675,0-7.186,0.69-10.422,1.937
		c-0.396,2.225-0.682,3.835-0.682,3.835c-0.217,2.598-2.659,4.421-5.211,3.889L8.26,8.74c-3.584,3.669-6.201,8.283-7.444,13.436
		c2.417,0.717,4.747,1.791,6.378,3.403c1.177,1.163,1.426,2.978,0.603,4.414c-0.985,1.719-1.618,3.778-1.764,6.015
		C6.569,36.025,7,36.459,7,37z"/>
	<path style="fill:#EABB8C;" d="M52,37c0-0.335-0.012-0.666-0.033-0.993C51.431,36.025,51,36.459,51,37c0,6.188-7.486,12-12,12
		c-4.626,0-9-5.832-9-12c0-4.963,2.691-9,6-9c0.553,0,1-0.447,1-1s-0.447-1-1-1c-3.01,0-5.635,2.3-7,5.686
		C27.635,28.3,25.01,26,22,26c-0.553,0-1,0.447-1,1s0.447,1,1,1c3.309,0,6,4.037,6,9c0,6.168-4.374,12-9,12c-4.514,0-12-5.813-12-12
		c0-0.541-0.431-0.975-0.967-0.993C6.012,36.334,6,36.665,6,37c0,3.594,2.286,7.105,5.211,9.573
		c0.049,0.481,0.098,0.949,0.147,1.424C13.792,49.838,16.562,51,19,51c4.25,0,8.213-3.641,10-8.493C30.787,47.359,34.75,51,39,51
		c2.457,0,5.251-1.179,7.698-3.045c0.049-0.473,0.098-0.95,0.147-1.43C49.742,44.059,52,40.571,52,37z"/>
	<path style="fill:#EABB8C;" d="M24,15.02c-0.256,0-0.512-0.098-0.707-0.293c-1.264-1.262-3.035-1.839-5.235-1.709
		c-0.554,0.024-1.024-0.389-1.056-0.94c-0.032-0.551,0.389-1.023,0.94-1.056c2.801-0.171,5.081,0.607,6.765,2.291
		c0.391,0.391,0.391,1.023,0,1.414C24.512,14.922,24.256,15.02,24,15.02z"/>
	<path style="fill:#EABB8C;" d="M33.472,15.02c-0.256,0-0.512-0.098-0.707-0.293c-0.391-0.391-0.391-1.024,0-1.414
		c1.607-1.606,4.344-2.467,7.293-2.291c0.552,0.032,0.973,0.505,0.94,1.056c-0.031,0.552-0.501,0.962-1.056,0.94
		c-2.417-0.14-4.555,0.5-5.764,1.709C33.983,14.922,33.728,15.02,33.472,15.02z"/>
	<path style="fill:#DBA16E;" d="M12,28c-0.553,0-1-0.447-1-1c0-4.23-2.203-5.014-2.297-5.045c-0.518-0.173-0.811-0.73-0.648-1.25
		c0.163-0.521,0.702-0.819,1.226-0.665C9.432,20.084,13,21.191,13,27C13,27.553,12.553,28,12,28z"/>
	<path style="fill:#DBA16E;" d="M46,28c-0.553,0-1-0.447-1-1c0-5.809,3.568-6.916,3.72-6.96c0.537-0.157,1.086,0.15,1.24,0.68
		c0.153,0.525-0.145,1.075-0.665,1.235C49.171,21.998,47,22.801,47,27C47,27.553,46.553,28,46,28z"/>
	<circle style="fill:#EA7F5F;" cx="19" cy="44" r="3"/>
	<circle style="fill:#D5354E;" cx="19" cy="44" r="1"/>
	<circle style="fill:#EA7F5F;" cx="39" cy="44" r="3"/>
	<circle style="fill:#D5354E;" cx="39" cy="44" r="1"/>
</g>
<g>
</g>
<g>
</g>
<g>
</g>
<g>
</g>
<g>
</g>
<g>
</g>
<g>
</g>
<g>
</g>
<g>
</g>
<g>
</g>
<g>
</g>
<g>
</g>
<g>
</g>
<g>
</g>
<g>
</g>
</svg>
