<?xml version="1.0" encoding="iso-8859-1"?>
<!-- Generator: Adobe Illustrator 18.0.0, SVG Export Plug-In . SVG Version: 6.00 Build 0)  -->
<!DOCTYPE svg PUBLIC "-//W3C//DTD SVG 1.1//EN" "http://www.w3.org/Graphics/SVG/1.1/DTD/svg11.dtd">
<svg version="1.1" id="Capa_1" xmlns="http://www.w3.org/2000/svg" xmlns:xlink="http://www.w3.org/1999/xlink" x="0px" y="0px"
	 viewBox="0 0 58 58" style="enable-background:new 0 0 58 58;" xml:space="preserve">
<g>
	<g>
		<path style="fill:#C03A2B;" d="M29,0C12.984,0,0,12.984,0,29c0,9.58,4.652,18.064,11.813,23.345
			c-0.318-2.987-0.673-6.466-1.018-9.824l-0.089-0.741C12.851,43.215,15.751,44,19,44c4.107,0,7.805-1.425,10-3.786
			C31.195,42.575,34.893,44,39,44c2.974,0,6.035-0.969,8.392-2.615l-0.136,1.135c-0.344,3.348-0.698,6.815-1.015,9.796
			C53.374,47.034,58,38.558,58,29C58,12.984,45.016,0,29,0z"/>
	</g>
	<path style="fill:#FBCE9D;" d="M48.903,28.731c1.05-3.47,4.563-5.43,8.285-6.541c-1.241-5.154-3.856-9.771-7.439-13.441
		l-4.383,0.913c-2.552,0.532-4.995-1.291-5.211-3.889l-0.924-3.91C36.049,0.662,32.602,0,29,0c-3.675,0-7.186,0.69-10.422,1.937
		c-0.396,2.225-0.682,3.835-0.682,3.835c-0.217,2.598-2.659,4.421-5.211,3.889L8.26,8.74c-3.584,3.669-6.201,8.283-7.444,13.436
		c3.74,1.109,7.278,3.071,8.333,6.556l0.035,0.297C9.334,30.29,9,31.535,8.377,32.642c-0.472,0.837-0.732,1.746-0.732,2.697
		c0,1.662,0.8,3.192,2.137,4.438c0.239,0.223,0.49,0.44,0.762,0.644l0.162,1.359l0.089,0.741c0.345,3.362,0.701,6.846,1.019,9.835
		c0.255,0.188,0.514,0.372,0.776,0.552c0.141,0.096,0.281,0.192,0.424,0.286c0.336,0.222,0.675,0.441,1.02,0.65
		c0.428,0.257,0.863,0.505,1.305,0.74c0.224,0.12,0.451,0.233,0.678,0.347c0.48,0.24,0.965,0.471,1.459,0.684
		c0.109,0.047,0.217,0.096,0.326,0.142c0.586,0.244,1.183,0.467,1.787,0.673c0.135,0.046,0.27,0.093,0.406,0.137
		c0.645,0.21,1.297,0.401,1.961,0.567c0.073,0.018,0.147,0.033,0.22,0.051c0.652,0.157,1.313,0.292,1.981,0.405
		c0.07,0.012,0.138,0.026,0.208,0.037c0.695,0.112,1.398,0.195,2.109,0.257c0.123,0.011,0.247,0.019,0.371,0.028
		C27.562,57.965,28.285,58,29.016,58c0.018,0,0.035-0.001,0.052-0.001c0.683-0.001,1.358-0.035,2.029-0.082
		c0.188-0.013,0.377-0.026,0.564-0.043c0.627-0.056,1.248-0.132,1.863-0.227c0.242-0.038,0.481-0.085,0.721-0.129
		c0.398-0.072,0.792-0.154,1.183-0.242c0.466-0.106,0.928-0.222,1.386-0.35c0.298-0.083,0.596-0.166,0.891-0.257
		c0.405-0.127,0.807-0.263,1.204-0.407c0.065-0.023,0.129-0.049,0.194-0.073c2.571-0.956,4.97-2.266,7.137-3.871
		c0.317-2.981,0.671-6.448,1.015-9.796l0.136-1.135l0.163-1.368c0.255-0.22,0.486-0.453,0.704-0.691
		c1.062-1.158,1.687-2.521,1.687-3.987c0-0.859-0.212-1.683-0.6-2.452c-0.494-0.977-0.692-2.077-0.562-3.163L48.903,28.731z"/>
	<path style="fill:#FBCE9D;" d="M48.903,28.731c1.05-3.47,4.563-5.43,8.285-6.541c-1.241-5.154-3.856-9.771-7.439-13.441
		l-4.383,0.913c-2.552,0.532-4.995-1.291-5.211-3.889l-0.924-3.91C36.049,0.662,32.602,0,29,0c-3.675,0-7.186,0.69-10.422,1.937
		c-0.396,2.225-0.682,3.835-0.682,3.835c-0.217,2.598-2.659,4.421-5.211,3.889L8.26,8.74c-3.584,3.669-6.201,8.283-7.444,13.436
		c3.74,1.109,7.278,3.071,8.333,6.556l0.035,0.297C9.334,30.29,9,31.535,8.377,32.642c-0.472,0.837-0.732,1.746-0.732,2.697
		c0,1.662,0.8,3.192,2.137,4.438c0.352-0.417,0.975-0.478,1.399-0.127C13.016,41.165,15.793,42,19,42c3.842,0,7.326-1.463,9-3.736
		V35c0-0.553,0.447-1,1-1s1,0.447,1,1v3.264C31.674,40.537,35.158,42,39,42c2.871,0,5.831-1.029,7.919-2.754
		c0.404-0.333,0.982-0.285,1.341,0.08c1.062-1.158,1.687-2.521,1.687-3.987c0-0.859-0.212-1.683-0.6-2.452
		c-0.494-0.977-0.692-2.077-0.562-3.163L48.903,28.731z"/>
	<path style="fill:#FBCE9D;" d="M29,40.214C26.805,42.575,23.107,44,19,44c-3.249,0-6.149-0.785-8.294-2.221l0.089,0.741
		c0.345,3.362,0.701,6.846,1.019,9.835c0.255,0.188,0.514,0.372,0.776,0.552c0.141,0.096,0.281,0.192,0.424,0.286
		c0.336,0.222,0.675,0.441,1.02,0.65c0.428,0.257,0.863,0.505,1.305,0.74c0.224,0.12,0.451,0.233,0.678,0.347
		c0.48,0.24,0.965,0.471,1.459,0.684c0.109,0.047,0.217,0.096,0.326,0.142c0.586,0.244,1.183,0.467,1.787,0.673
		c0.135,0.046,0.27,0.093,0.406,0.137c0.645,0.21,1.297,0.401,1.961,0.567c0.073,0.018,0.147,0.033,0.22,0.051
		c0.652,0.157,1.313,0.292,1.981,0.405c0.07,0.012,0.138,0.026,0.208,0.037c0.695,0.112,1.398,0.195,2.109,0.257
		c0.123,0.011,0.247,0.019,0.371,0.028C27.562,57.965,28.285,58,29.016,58c0.018,0,0.035-0.001,0.052-0.001
		c0.683-0.001,1.358-0.035,2.029-0.082c0.188-0.013,0.377-0.026,0.564-0.043c0.627-0.056,1.248-0.132,1.863-0.227
		c0.242-0.038,0.481-0.085,0.721-0.129c0.398-0.072,0.792-0.154,1.183-0.242c0.466-0.106,0.928-0.222,1.386-0.35
		c0.298-0.083,0.596-0.166,0.891-0.257c0.405-0.127,0.807-0.263,1.204-0.407c0.065-0.023,0.129-0.049,0.194-0.073
		c2.571-0.956,4.97-2.266,7.137-3.871c0.317-2.981,0.671-6.448,1.015-9.796l0.136-1.135C45.035,43.031,41.974,44,39,44
		C34.893,44,31.195,42.575,29,40.214z"/>
	<path style="fill:#EABB8C;" d="M46.919,39.246C44.831,40.971,41.871,42,39,42c-3.842,0-7.326-1.463-9-3.736V35c0-0.553-0.447-1-1-1
		s-1,0.447-1,1v3.264C26.326,40.537,22.842,42,19,42c-3.207,0-5.984-0.835-7.819-2.351c-0.424-0.351-1.047-0.29-1.399,0.127
		c0.239,0.223,0.49,0.44,0.762,0.644l0.162,1.359C12.851,43.215,15.751,44,19,44c4.107,0,7.805-1.425,10-3.786
		C31.195,42.575,34.893,44,39,44c2.974,0,6.035-0.969,8.392-2.615l0.163-1.368c0.255-0.22,0.486-0.453,0.704-0.691
		C47.901,38.962,47.323,38.913,46.919,39.246z"/>
	<circle style="fill:#EA7F5F;" cx="15" cy="36" r="3"/>
	<circle style="fill:#EA7F5F;" cx="44" cy="36" r="3"/>
	<path style="fill:#EABB8C;" d="M24,15.02c-0.256,0-0.512-0.098-0.707-0.293c-1.264-1.262-3.031-1.839-5.235-1.709
		c-0.551,0.024-1.024-0.389-1.056-0.94c-0.032-0.551,0.389-1.023,0.94-1.056c2.8-0.171,5.081,0.607,6.765,2.291
		c0.391,0.391,0.391,1.023,0,1.414C24.512,14.922,24.256,15.02,24,15.02z"/>
	<path style="fill:#EABB8C;" d="M33.472,15.02c-0.256,0-0.512-0.098-0.707-0.293c-0.391-0.391-0.391-1.024,0-1.414
		c1.607-1.606,4.343-2.467,7.293-2.291c0.552,0.032,0.973,0.505,0.94,1.056c-0.031,0.552-0.512,0.962-1.056,0.94
		c-2.416-0.14-4.554,0.5-5.764,1.709C33.983,14.922,33.728,15.02,33.472,15.02z"/>
	<path style="fill:#DBA16E;" d="M12,28c-0.553,0-1-0.447-1-1c0-4.23-2.203-5.014-2.297-5.045c-0.518-0.173-0.811-0.73-0.648-1.25
		c0.163-0.521,0.702-0.819,1.226-0.665C9.432,20.084,13,21.192,13,27C13,27.553,12.553,28,12,28z"/>
	<path style="fill:#DBA16E;" d="M46,28c-0.553,0-1-0.447-1-1c0-5.809,3.568-6.916,3.72-6.96c0.537-0.157,1.086,0.15,1.24,0.68
		c0.153,0.525-0.145,1.075-0.665,1.235C49.171,21.998,47,22.801,47,27C47,27.553,46.553,28,46,28z"/>
	<circle style="fill:#B34B4D;" cx="15" cy="36" r="1"/>
	<circle style="fill:#B34B4D;" cx="44" cy="36" r="1"/>
</g>
<g>
</g>
<g>
</g>
<g>
</g>
<g>
</g>
<g>
</g>
<g>
</g>
<g>
</g>
<g>
</g>
<g>
</g>
<g>
</g>
<g>
</g>
<g>
</g>
<g>
</g>
<g>
</g>
<g>
</g>
</svg>
