<?xml version="1.0" encoding="iso-8859-1"?>
<!-- Generator: Adobe Illustrator 18.0.0, SVG Export Plug-In . SVG Version: 6.00 Build 0)  -->
<!DOCTYPE svg PUBLIC "-//W3C//DTD SVG 1.1//EN" "http://www.w3.org/Graphics/SVG/1.1/DTD/svg11.dtd">
<svg version="1.1" id="Capa_1" xmlns="http://www.w3.org/2000/svg" xmlns:xlink="http://www.w3.org/1999/xlink" x="0px" y="0px"
	 viewBox="0 0 58 58" style="enable-background:new 0 0 58 58;" xml:space="preserve">
<g>
	<g>
		<path style="fill:#DC691D;" d="M58,29C58,12.984,45.016,0,29,0S0,12.984,0,29c0,9.622,4.697,18.135,11.912,23.409
			c-0.276-2.585-0.578-5.542-0.879-8.47C13,45.231,15.402,46,18,46c4.917,0,9.148-2.728,11-6.617C30.852,43.272,35.083,46,40,46
			c2.598,0,5-0.769,6.966-2.061c-0.3,2.928-0.603,5.885-0.879,8.47C53.303,47.135,58,38.622,58,29z"/>
	</g>
	<path style="fill:#FBCE9D;" d="M51.4,25.158c1.605-1.291,3.691-2.18,5.828-2.793C56.033,17.262,53.493,12.681,50,9.011
		l-4.776,0.995c-2.534,0.528-4.959-1.281-5.174-3.861l-1.031-4.367C35.896,0.629,32.521,0,29,0c-3.626,0-7.093,0.671-10.292,1.886
		c-0.435,2.445-0.758,4.259-0.758,4.259c-0.215,2.58-2.64,4.389-5.174,3.861L8,9.011c-3.494,3.669-6.034,8.251-7.229,13.353
		c2.137,0.613,4.223,1.503,5.828,2.793c1.767,1.422,2.22,3.916,1.262,5.972c-0.419,0.9-0.696,1.868-0.807,2.881
		C7.02,34.336,7,34.666,7,35c0,3.061,1.517,5.796,3.899,7.631c0.045,0.434,0.089,0.872,0.134,1.308
		c0.301,2.935,0.605,5.899,0.881,8.488C16.707,55.929,22.61,58,29,58s12.293-2.071,17.086-5.573c0.276-2.589,0.58-5.554,0.881-8.488
		c0.045-0.437,0.09-0.875,0.134-1.308C49.483,40.796,51,38.061,51,35c0-0.334-0.02-0.664-0.055-0.989
		c-0.111-1.013-0.388-1.981-0.807-2.881C49.18,29.074,49.633,26.579,51.4,25.158z"/>
	<path style="fill:#FBCE9D;" d="M29,39.383C27.148,43.272,22.917,46,18,46c-2.598,0-5-0.769-6.966-2.061
		c0.301,2.935,0.605,5.899,0.881,8.488C16.707,55.929,22.61,58,29,58s12.293-2.071,17.086-5.573c0.276-2.589,0.58-5.554,0.881-8.488
		C45,45.231,42.598,46,40,46C35.083,46,30.852,43.272,29,39.383z"/>
	<path style="fill:#FBCE9D;" d="M8,35c0,4.963,4.486,9,10,9s10-4.037,10-9v-4c0-0.553,0.448-1,1-1s1,0.447,1,1v4
		c0,4.963,4.486,9,10,9s10-4.037,10-9c0-0.533,0.42-0.959,0.945-0.989c-0.111-1.013-0.388-1.981-0.807-2.881
		c-0.958-2.056-0.505-4.551,1.262-5.972c1.605-1.291,3.691-2.18,5.828-2.793C56.033,17.262,53.493,12.681,50,9.011l-4.776,0.995
		c-2.534,0.528-4.959-1.281-5.174-3.861l-1.031-4.367C35.896,0.629,32.521,0,29,0c-3.626,0-7.093,0.671-10.292,1.886
		c-0.435,2.445-0.758,4.259-0.758,4.259c-0.215,2.58-2.64,4.389-5.174,3.861L8,9.011c-3.494,3.669-6.034,8.251-7.229,13.353
		c2.137,0.613,4.223,1.503,5.828,2.793c1.767,1.422,2.22,3.916,1.262,5.972c-0.419,0.9-0.696,1.868-0.807,2.881
		C7.58,34.041,8,34.467,8,35z"/>
	<path style="fill:#EABB8C;" d="M51,35c0-0.334-0.02-0.664-0.055-0.989C50.42,34.041,50,34.467,50,35c0,4.963-4.486,9-10,9
		s-10-4.037-10-9v-4c0-0.553-0.448-1-1-1s-1,0.447-1,1v4c0,4.963-4.486,9-10,9S8,39.963,8,35c0-0.533-0.42-0.959-0.945-0.989
		C7.02,34.336,7,34.666,7,35c0,3.061,1.517,5.796,3.899,7.631c0.045,0.434,0.089,0.872,0.134,1.308C13,45.231,15.402,46,18,46
		c4.917,0,9.148-2.728,11-6.617C30.852,43.272,35.083,46,40,46c2.598,0,5-0.769,6.966-2.061c0.045-0.437,0.09-0.875,0.134-1.308
		C49.483,40.796,51,38.061,51,35z"/>
	<path style="fill:#E8B480;" d="M24,15.02c-0.256,0-0.512-0.098-0.707-0.293c-1.263-1.262-3.02-1.837-5.235-1.709
		c-0.554,0.033-1.024-0.388-1.057-0.94c-0.032-0.551,0.389-1.023,0.94-1.056c2.805-0.171,5.082,0.607,6.765,2.291
		c0.391,0.391,0.391,1.023,0,1.414C24.512,14.922,24.256,15.02,24,15.02z"/>
	<path style="fill:#E8B480;" d="M33.472,15.02c-0.256,0-0.512-0.098-0.707-0.293c-0.391-0.391-0.391-1.023,0-1.414
		c1.606-1.606,4.334-2.463,7.293-2.291c0.551,0.032,0.972,0.505,0.94,1.056c-0.032,0.553-0.495,0.971-1.057,0.94
		c-2.401-0.139-4.554,0.5-5.763,1.709C33.984,14.922,33.728,15.02,33.472,15.02z"/>
	<path style="fill:#DBA16E;" d="M12,28c-0.552,0-1-0.447-1-1c0-4.23-2.204-5.014-2.297-5.045c-0.517-0.173-0.81-0.73-0.647-1.25
		c0.162-0.521,0.702-0.819,1.225-0.665C9.432,20.084,13,21.191,13,27C13,27.553,12.552,28,12,28z"/>
	<path style="fill:#DBA16E;" d="M46,28c-0.552,0-1-0.447-1-1c0-5.809,3.568-6.916,3.72-6.96c0.53-0.153,1.085,0.149,1.24,0.68
		c0.153,0.525-0.144,1.075-0.665,1.235C49.171,21.998,47,22.801,47,27C47,27.553,46.552,28,46,28z"/>
	<circle style="fill:#EA7F5F;" cx="17" cy="37" r="4"/>
	<circle style="fill:#EA7F5F;" cx="41" cy="37" r="4"/>
	<circle style="fill:#B34B4D;" cx="17" cy="37" r="1"/>
	<circle style="fill:#B34B4D;" cx="41" cy="37" r="1"/>
</g>
<g>
</g>
<g>
</g>
<g>
</g>
<g>
</g>
<g>
</g>
<g>
</g>
<g>
</g>
<g>
</g>
<g>
</g>
<g>
</g>
<g>
</g>
<g>
</g>
<g>
</g>
<g>
</g>
<g>
</g>
</svg>
