<?xml version="1.0" encoding="iso-8859-1"?>
<!-- Generator: Adobe Illustrator 18.0.0, SVG Export Plug-In . SVG Version: 6.00 Build 0)  -->
<!DOCTYPE svg PUBLIC "-//W3C//DTD SVG 1.1//EN" "http://www.w3.org/Graphics/SVG/1.1/DTD/svg11.dtd">
<svg version="1.1" id="Capa_1" xmlns="http://www.w3.org/2000/svg" xmlns:xlink="http://www.w3.org/1999/xlink" x="0px" y="0px"
	 viewBox="0 0 58 58" style="enable-background:new 0 0 58 58;" xml:space="preserve">
<g>
	<g>
		<path style="fill:#25AE88;" d="M58,29C58,12.984,45.016,0,29,0S0,12.984,0,29c0,9.622,4.697,18.135,11.912,23.409
			c-0.276-2.585-0.578-5.542-0.879-8.47C13,45.231,15.402,46,18,46c4.917,0,9.148-2.728,11-6.617C30.852,43.272,35.083,46,40,46
			c2.599,0,5-0.769,6.966-2.061c-0.3,2.928-0.603,5.885-0.879,8.47C53.303,47.135,58,38.622,58,29z"/>
	</g>
	<path style="fill:#FBCE9D;" d="M51.4,25.158c1.605-1.291,3.691-2.18,5.828-2.793C56.033,17.262,53.493,12.681,50,9.011
		l-4.776,0.995c-2.534,0.528-4.959-1.281-5.174-3.861l-1.031-4.367C35.896,0.629,32.521,0,29,0c-3.626,0-7.093,0.671-10.292,1.886
		c-0.435,2.445-0.758,4.259-0.758,4.259c-0.215,2.58-2.64,4.389-5.174,3.861L8,9.011c-3.494,3.669-6.034,8.251-7.229,13.353
		c2.137,0.613,4.223,1.503,5.828,2.793c1.767,1.422,2.22,3.916,1.262,5.972c-0.419,0.9-0.696,1.868-0.807,2.881
		C7.02,34.336,7,34.666,7,35c0,3.061,1.517,5.796,3.899,7.631c0.045,0.434,0.089,0.872,0.134,1.308
		c0.301,2.935,0.605,5.899,0.881,8.488C16.707,55.929,22.61,58,29,58s12.293-2.071,17.086-5.573c0.276-2.589,0.58-5.554,0.881-8.488
		c0.045-0.437,0.09-0.875,0.134-1.308C49.483,40.796,51,38.061,51,35c0-0.334-0.02-0.664-0.055-0.989
		c-0.111-1.013-0.388-1.981-0.807-2.881C49.18,29.074,49.633,26.579,51.4,25.158z"/>
	<path style="fill:#FBCE9D;" d="M8,35c0,4.963,4.486,9,10,9s10-4.037,10-9v-4c0-0.553,0.448-1,1-1s1,0.447,1,1v4
		c0,4.963,4.486,9,10,9s10-4.037,10-9c0-0.533,0.419-0.959,0.945-0.989c-0.111-1.013-0.388-1.981-0.807-2.881
		c-0.958-2.056-0.505-4.551,1.262-5.972c1.605-1.291,3.691-2.18,5.828-2.793C56.033,17.262,53.493,12.681,50,9.011l-4.776,0.995
		c-2.534,0.528-4.959-1.281-5.174-3.861l-1.031-4.367C35.896,0.629,32.521,0,29,0c-3.626,0-7.093,0.671-10.292,1.886
		c-0.435,2.445-0.758,4.259-0.758,4.259c-0.215,2.58-2.64,4.389-5.174,3.861L8,9.011c-3.494,3.669-6.034,8.251-7.229,13.353
		c2.137,0.613,4.223,1.503,5.828,2.793c1.767,1.422,2.22,3.916,1.262,5.972c-0.419,0.9-0.696,1.868-0.807,2.881
		C7.58,34.041,8,34.467,8,35z"/>
	<path style="fill:#FBCE9D;" d="M29,39.383C27.148,43.272,22.917,46,18,46c-2.598,0-5-0.769-6.966-2.061
		c0.301,2.935,0.605,5.899,0.881,8.488C16.707,55.929,22.61,58,29,58s12.293-2.071,17.086-5.573c0.276-2.589,0.58-5.554,0.881-8.488
		C45,45.231,42.599,46,40,46C35.083,46,30.852,43.272,29,39.383z"/>
	<path style="fill:#EABB8C;" d="M51,35c0-0.334-0.02-0.664-0.055-0.989C50.419,34.041,50,34.467,50,35c0,4.963-4.486,9-10,9
		s-10-4.037-10-9v-4c0-0.553-0.448-1-1-1s-1,0.447-1,1v4c0,4.963-4.486,9-10,9S8,39.963,8,35c0-0.533-0.42-0.959-0.945-0.989
		C7.02,34.336,7,34.666,7,35c0,3.061,1.517,5.796,3.899,7.631c0.045,0.434,0.089,0.872,0.134,1.308C13,45.231,15.402,46,18,46
		c4.917,0,9.148-2.728,11-6.617C30.852,43.272,35.083,46,40,46c2.599,0,5-0.769,6.966-2.061c0.045-0.437,0.09-0.875,0.134-1.308
		C49.483,40.796,51,38.061,51,35z"/>
	<path style="fill:#E8B480;" d="M24,15.02c-0.256,0-0.512-0.098-0.707-0.293c-1.263-1.262-3.021-1.837-5.235-1.709
		c-0.55,0.033-1.024-0.388-1.057-0.94c-0.032-0.551,0.389-1.023,0.94-1.056c2.805-0.171,5.082,0.607,6.765,2.291
		c0.391,0.391,0.391,1.023,0,1.414C24.512,14.922,24.256,15.02,24,15.02z"/>
	<path style="fill:#E8B480;" d="M33.472,15.02c-0.256,0-0.512-0.098-0.707-0.293c-0.391-0.391-0.391-1.023,0-1.414
		c1.606-1.606,4.331-2.463,7.293-2.291c0.551,0.032,0.972,0.505,0.94,1.056c-0.032,0.553-0.491,0.971-1.057,0.94
		c-2.396-0.139-4.554,0.5-5.763,1.709C33.984,14.922,33.728,15.02,33.472,15.02z"/>
	<path style="fill:#DBA16E;" d="M12,28c-0.552,0-1-0.447-1-1c0-4.23-2.204-5.014-2.297-5.045c-0.517-0.173-0.81-0.73-0.647-1.25
		c0.162-0.521,0.702-0.819,1.225-0.665C9.432,20.084,13,21.191,13,27C13,27.553,12.552,28,12,28z"/>
	<path style="fill:#DBA16E;" d="M46,28c-0.552,0-1-0.447-1-1c0-5.809,3.568-6.916,3.72-6.96c0.535-0.157,1.086,0.15,1.24,0.68
		c0.153,0.525-0.145,1.075-0.665,1.235C49.171,21.998,47,22.801,47,27C47,27.553,46.553,28,46,28z"/>
	<circle style="fill:#EA7F5F;" cx="17" cy="37" r="4"/>
	<circle style="fill:#EA7F5F;" cx="41" cy="37" r="4"/>
	<circle style="fill:#B34B4D;" cx="17" cy="37" r="1"/>
	<circle style="fill:#B34B4D;" cx="41" cy="37" r="1"/>
	<path style="fill:#7383BF;" d="M18,49c-0.57,0-1.15-0.03-1.71-0.09c-0.27-0.03-0.51-0.16-0.68-0.37s-0.24-0.471-0.21-0.73
		c0.06-0.55,0.55-0.95,1.1-0.89c0.69,0.07,1.5,0.09,2.03,0.07c0.55-0.03,1.02,0.409,1.04,0.96c0.02,0.55-0.42,1.02-0.97,1.04
		C18.37,49,18.18,49,18,49z M22.83,48.2c-0.42,0-0.81-0.271-0.94-0.681c-0.04-0.1-0.06-0.21-0.06-0.319
		c0-0.431,0.27-0.811,0.68-0.95c0.63-0.21,1.25-0.48,1.86-0.8c0.47-0.25,1.1-0.051,1.35,0.43c0.12,0.229,0.14,0.5,0.07,0.76
		c-0.08,0.25-0.26,0.46-0.49,0.58c-0.68,0.36-1.39,0.66-2.11,0.91l-0.03,0.02C23.05,48.18,22.94,48.2,22.83,48.2z M28.32,44.76
		c-0.27,0-0.51-0.1-0.7-0.29c-0.19-0.18-0.3-0.43-0.3-0.7c0-0.26,0.09-0.51,0.27-0.7l0.02-0.01c0.04-0.04,0.08-0.08,0.12-0.109
		c0.37-0.28,0.95-0.25,1.3,0.09c0.39,0.39,0.39,1.02,0.01,1.41C28.84,44.649,28.59,44.76,28.32,44.76z"/>
	<path style="fill:#7383BF;" d="M29.673,44.752c-0.241,0-0.482-0.087-0.673-0.26c-0.39,0.354-0.995,0.347-1.375-0.028
		c-0.393-0.388-0.398-1.021-0.01-1.414c0.217-0.22,0.424-0.447,0.623-0.682L29,41.471l0.762,0.897
		c0.199,0.234,0.406,0.462,0.623,0.682c0.388,0.394,0.383,1.026-0.01,1.414C30.18,44.656,29.926,44.752,29.673,44.752z"/>
	<path style="fill:#7383BF;" d="M40,49c-0.2,0-0.4,0-0.61-0.01l-0.05-0.011c-0.51-0.04-0.91-0.46-0.91-0.979c0-0.021,0-0.03,0-0.05
		c0.02-0.53,0.45-0.95,0.98-0.96l0,0h0.05c0.03,0,0.05,0,0.07,0C39.7,47,39.85,47,40,47c0.48,0,0.98-0.03,1.49-0.08
		c0.56-0.07,1.05,0.34,1.1,0.89c0.03,0.271-0.05,0.53-0.21,0.73c-0.17,0.21-0.41,0.34-0.67,0.37C41.14,48.97,40.57,49,40,49z
		 M35.16,48.2c-0.11,0-0.22-0.021-0.33-0.061c-0.73-0.25-1.45-0.56-2.13-0.92c-0.49-0.26-0.68-0.86-0.42-1.35
		c0.24-0.471,0.87-0.681,1.35-0.42c0.6,0.319,1.23,0.58,1.86,0.8c0.52,0.18,0.79,0.75,0.62,1.27C35.97,47.92,35.58,48.2,35.16,48.2z
		 M45.8,47.83c-0.4,0-0.76-0.24-0.92-0.61c-0.05-0.13-0.08-0.26-0.08-0.39c0-0.4,0.24-0.771,0.61-0.92
		c0.05-0.021,0.1-0.04,0.15-0.051c0.47-0.119,0.98,0.131,1.169,0.58c0.21,0.49-0.01,1.051-0.489,1.28
		c-0.011,0.01-0.03,0.021-0.051,0.03C46.069,47.8,45.94,47.83,45.8,47.83z"/>
	<path style="fill:#7383BF;" d="M33,34c-0.55,0-1-0.45-1-1c0-0.75,0.09-1.5,0.28-2.23c0.13-0.52,0.69-0.85,1.21-0.72
		c0.54,0.14,0.86,0.68,0.72,1.22C34.07,31.83,34,32.42,34,33C34,33.55,33.55,34,33,34z M35.14,28.55c-0.25,0-0.49-0.1-0.68-0.27
		c-0.2-0.19-0.32-0.461-0.32-0.75c0.01-0.24,0.1-0.48,0.27-0.66c0.51-0.551,1.09-1.03,1.72-1.44c0.45-0.29,1.1-0.149,1.38,0.3
		c0.3,0.46,0.17,1.08-0.3,1.38c-0.48,0.311-0.93,0.69-1.33,1.12C35.69,28.43,35.42,28.55,35.14,28.55z M40.43,26.02
		c-0.53,0-0.96-0.41-1-0.93c0-0.03,0-0.05,0-0.08c0-0.52,0.41-0.95,0.93-0.99C40.56,24.01,40.78,24,41,24c0.55,0,1,0.45,1,1
		s-0.45,1-1,1c-0.16,0-0.32,0-0.5,0.02C40.47,26.02,40.45,26.02,40.43,26.02z"/>
	<path style="fill:#7383BF;" d="M25,34c-0.55,0-1-0.45-1-1c0-0.19-0.01-0.351-0.02-0.5c0-0.03,0-0.061,0-0.08
		c0-0.521,0.41-0.95,0.93-0.99c0.56-0.04,1.03,0.38,1.07,0.92v0.021C25.99,32.569,26,32.78,26,33C26,33.55,25.55,34,25,34z
		 M23.73,29.67c-0.34,0-0.65-0.17-0.84-0.46c-0.31-0.48-0.68-0.93-1.1-1.32l-0.02-0.02c-0.21-0.19-0.32-0.46-0.32-0.74
		c0.01-0.25,0.1-0.49,0.27-0.67c0.36-0.391,1.03-0.41,1.41-0.05c0.55,0.51,1.03,1.09,1.44,1.72c0.3,0.46,0.17,1.08-0.3,1.38
		C24.11,29.62,23.92,29.67,23.73,29.67z M18.98,26.24c-0.08,0-0.16-0.011-0.25-0.03C18.18,26.069,17.61,26,17.04,26H17
		c-0.55,0-1-0.45-1-1s0.45-1,1-1c0.76,0,1.51,0.09,2.22,0.28c0.26,0.06,0.48,0.229,0.62,0.449c0.13,0.23,0.17,0.5,0.11,0.761
		C19.83,25.939,19.44,26.24,18.98,26.24z"/>
	<path style="fill:#7383BF;" d="M46.256,45.513c-0.273,0.141-0.553,0.271-0.839,0.392c-0.508,0.217-0.745,0.804-0.529,1.312
		c0.162,0.381,0.532,0.609,0.921,0.609c0.13,0,0.263-0.025,0.391-0.079c0.134-0.057,0.263-0.124,0.395-0.185
		c0.073-0.707,0.146-1.419,0.22-2.136C46.627,45.405,46.436,45.42,46.256,45.513z"/>
	<path style="fill:#7383BF;" d="M13.112,47.216c0.216-0.508-0.021-1.095-0.529-1.312c-0.286-0.121-0.566-0.251-0.84-0.392
		c-0.179-0.092-0.37-0.106-0.557-0.087c0.074,0.718,0.147,1.428,0.22,2.135c0.132,0.061,0.261,0.128,0.395,0.185
		c0.128,0.054,0.26,0.079,0.391,0.079C12.581,47.825,12.951,47.597,13.112,47.216z"/>
</g>
<g>
</g>
<g>
</g>
<g>
</g>
<g>
</g>
<g>
</g>
<g>
</g>
<g>
</g>
<g>
</g>
<g>
</g>
<g>
</g>
<g>
</g>
<g>
</g>
<g>
</g>
<g>
</g>
<g>
</g>
</svg>
