<?xml version="1.0" encoding="iso-8859-1"?>
<!-- Generator: Adobe Illustrator 18.0.0, SVG Export Plug-In . SVG Version: 6.00 Build 0)  -->
<!DOCTYPE svg PUBLIC "-//W3C//DTD SVG 1.1//EN" "http://www.w3.org/Graphics/SVG/1.1/DTD/svg11.dtd">
<svg version="1.1" id="Capa_1" xmlns="http://www.w3.org/2000/svg" xmlns:xlink="http://www.w3.org/1999/xlink" x="0px" y="0px"
	 viewBox="0 0 58 58" style="enable-background:new 0 0 58 58;" xml:space="preserve">
<g>
	<path style="fill:#3E465B;" d="M46.977,39.995c-2.864-1.905-4.998-6.748-4.976-9.182c0.044-5.039,0.386-11.02,1.888-15.814H13.27
		c1.328,4.917,2.436,10.93,2.735,15.814c0.293,4.791-2.927,8.189-6.386,9.391c-2.101,0.73-4.367,1.334-6.631,1.618
		C7.721,51.406,17.588,58,29,58c11.342,0,21.141-6.523,25.906-16.012C52.067,42.074,49.311,41.549,46.977,39.995z"/>
	<path style="fill:#ED9893;" d="M3.602,15h50.796C49.459,6.058,39.938,0,29,0S8.541,6.058,3.602,15z"/>
	<g>
		<path style="fill:#E7ECED;" d="M41.584,21.542c1.059,4.575,0.086,9.439-2.819,13.113c-2.428,3.071-5.605,6.179-8.415,8.009
			c-0.585,0.381-1.491,0.446-2.124,0.151c-3.578-1.668-12.608-10.439-12.214-15.512c0.347-4.465,0.57-8.976,1.848-13.264
			c1.533-5.144,5.683-7.094,10.811-7.039c5.222,0.056,9.364,2.004,11.033,7.332C40.445,16.699,41.024,19.118,41.584,21.542z"/>
	</g>
	<path style="fill:#E7ECED;" d="M49.415,8.406c-2.854,0.641-4.163,2.285-5.502,6.506C42.388,19.721,42.044,25.745,42,30.814
		c-0.021,2.434,2.113,7.277,4.976,9.182c2.341,1.557,5.104,2.082,7.951,1.992C56.889,38.079,58,33.671,58,29
		C58,20.946,54.715,13.661,49.415,8.406z"/>
	<path style="fill:#E7ECED;" d="M12.927,13.75c-0.78-2.699-2.561-4.152-4.75-4.924C3.119,14.046,0,21.157,0,29
		c0,4.605,1.078,8.956,2.988,12.823c2.264-0.284,4.53-0.888,6.631-1.618c3.459-1.202,6.68-4.6,6.386-9.391
		C15.68,25.512,14.405,18.863,12.927,13.75z"/>
	<path style="fill:#FFFFFF;" d="M28.156,24.048c-0.75-0.448-1.611-0.717-2.419-0.741c-0.782-0.023-1.463-0.567-1.508-1.349
		c-0.001-0.01-0.001-0.019-0.002-0.029c-0.141-2.565-4.141-2.579-4,0c0.028,0.508,0.089,1.005,0.139,1.505
		c-0.096,0.148-0.164,0.323-0.148,0.554c0.179,2.698-0.786,5.727,0.327,8.307c0.922,2.135,2.62,3.52,4.498,4.737
		c0.648,1.028,1.339,2.039,2.113,3.014c0.634,0.798,1.454,0.829,2.119,0.459c0.328,0.148,0.723,0.126,1.05-0.214
		C35.15,35.271,34.128,27.609,28.156,24.048z"/>
	<path style="fill:#FFFFFF;" d="M45.338,35.153c1.487,2.672,4.129,4.313,7.157,4.584c1.285,0.115,1.274-1.886,0-2
		c-2.324-0.208-4.304-1.57-5.431-3.594C46.438,33.017,44.71,34.025,45.338,35.153L45.338,35.153z"/>
	<path style="fill:#FFFFFF;" d="M4.841,39.911c5.116-0.017,9.104-3.97,9.189-9.081c0.021-1.29-1.979-1.288-2,0
		c-0.067,4.024-3.168,7.067-7.189,7.081C3.551,37.916,3.551,39.916,4.841,39.911L4.841,39.911z"/>
</g>
<g>
</g>
<g>
</g>
<g>
</g>
<g>
</g>
<g>
</g>
<g>
</g>
<g>
</g>
<g>
</g>
<g>
</g>
<g>
</g>
<g>
</g>
<g>
</g>
<g>
</g>
<g>
</g>
<g>
</g>
</svg>
