<?xml version="1.0" encoding="iso-8859-1"?>
<!-- Generator: Adobe Illustrator 18.0.0, SVG Export Plug-In . SVG Version: 6.00 Build 0)  -->
<!DOCTYPE svg PUBLIC "-//W3C//DTD SVG 1.1//EN" "http://www.w3.org/Graphics/SVG/1.1/DTD/svg11.dtd">
<svg version="1.1" id="Capa_1" xmlns="http://www.w3.org/2000/svg" xmlns:xlink="http://www.w3.org/1999/xlink" x="0px" y="0px"
	 viewBox="0 0 62 62" style="enable-background:new 0 0 62 62;" xml:space="preserve">
<g>
	<path style="fill:#ED9893;" d="M1,2.414v11.27c0,1.247,0.948,2.309,2.192,2.403c5.955,0.451,13.075,2.646,13.075,6.047h29.467
		c0-3.401,7.12-5.596,13.075-6.047C60.052,15.992,61,14.931,61,13.683V2.414C61,1.081,59.919,0,58.586,0H3.414
		C2.081,0,1,1.081,1,2.414z"/>
	<path style="fill:#E7ECED;" d="M48.812,32.197c1.47,6.355,0.12,13.109-3.915,18.212c-3.372,4.265-7.785,8.582-11.688,11.124
		c-0.812,0.529-2.07,0.62-2.95,0.21C25.29,59.427,12.748,47.245,13.295,40.2c0.481-6.202,0.792-12.467,2.567-18.422
		c2.129-7.145,7.894-9.853,15.015-9.776c7.252,0.078,13.005,2.783,15.323,10.183C47.23,25.471,48.033,28.831,48.812,32.197z"/>
	<path style="fill:#F0F6F7;" d="M40.232,45.022c-3.259-0.791-6.54-1.189-9.899-1.156c-3.443,0.034-4.259-0.096-7.769,2.138
		c-0.737,0.469-1.493,0.923-2.257,1.372c0.753,2.898,6.618,10.068,11.03,13.235c2.669-2.1,5.63-5.088,8.111-8.225
		c1.522-1.925,2.469-4.277,2.821-6.76C41.652,45.401,41.003,45.209,40.232,45.022z"/>
	<path style="fill:#FFFFFF;" d="M37.526,52.594c3.439-3.789,4.526-8.837,3.064-13.723c-0.515-1.721,2.166-2.45,2.679-0.738
		c1.749,5.847,0.313,11.919-3.778,16.426C38.284,55.887,36.325,53.917,37.526,52.594L37.526,52.594z"/>
	<path style="fill:#AFB6BB;" d="M35.657,41L41,35.656V25h-1V14.132c-2.564-1.451-5.671-2.094-9.123-2.131
		c-3.338-0.036-6.37,0.551-8.877,1.908V25h-1v10.656L26.343,41H35.657z"/>
	<g>
		<polygon style="fill:#EFD18F;" points="25,29 37,29 37,34 34,37 28,37 25,34 		"/>
		<path style="fill:#EFD18F;" d="M34.414,38h-6.828L24,34.414V28h14v6.414L34.414,38z M28.414,36h5.172L36,33.586V30H26v3.586
			L28.414,36z"/>
	</g>
	<polygon style="fill:#CEB984;" points="35,9 35,5 32,1 30,1 27,5 27,9 25,9 25,29 37,29 37,9 	"/>
	<g>
		<path style="fill:#EFD18F;" d="M32,14.222c-0.424,0-0.817-0.271-0.953-0.697c-0.167-0.526,0.124-1.089,0.65-1.256l7-2.222
			c0.523-0.169,1.088,0.123,1.256,0.65c0.167,0.526-0.124,1.089-0.65,1.256l-7,2.222C32.202,14.207,32.1,14.222,32,14.222z"/>
		<path style="fill:#EFD18F;" d="M23,17c-0.419,0-0.809-0.265-0.949-0.684c-0.175-0.524,0.108-1.091,0.632-1.265l5-1.667
			c0.527-0.177,1.09,0.108,1.265,0.632c0.175,0.524-0.108,1.091-0.632,1.265l-5,1.667C23.211,16.983,23.104,17,23,17z"/>
	</g>
	<g>
		<path style="fill:#EFD18F;" d="M32,20.222c-0.424,0-0.817-0.271-0.953-0.697c-0.167-0.526,0.124-1.089,0.65-1.256l7-2.222
			c0.523-0.169,1.088,0.123,1.256,0.65c0.167,0.526-0.124,1.089-0.65,1.256l-7,2.222C32.202,20.207,32.1,20.222,32,20.222z"/>
		<path style="fill:#EFD18F;" d="M32,26.222c-0.424,0-0.817-0.271-0.953-0.697c-0.167-0.526,0.124-1.089,0.65-1.256l7-2.222
			c0.523-0.168,1.088,0.124,1.256,0.65c0.167,0.526-0.124,1.089-0.65,1.256l-7,2.222C32.202,26.207,32.1,26.222,32,26.222z"/>
		<path style="fill:#EFD18F;" d="M23,29c-0.419,0-0.809-0.265-0.949-0.684c-0.175-0.524,0.108-1.091,0.632-1.265l5-1.667
			c0.527-0.177,1.09,0.108,1.265,0.632c0.175,0.524-0.108,1.091-0.632,1.265l-5,1.667C23.211,28.983,23.104,29,23,29z"/>
		<path style="fill:#EFD18F;" d="M23,23c-0.419,0-0.809-0.265-0.949-0.684c-0.175-0.524,0.108-1.091,0.632-1.265l5-1.667
			c0.527-0.177,1.09,0.108,1.265,0.632c0.175,0.524-0.108,1.091-0.632,1.265l-5,1.667C23.211,22.983,23.104,23,23,23z"/>
	</g>
</g>
<g>
</g>
<g>
</g>
<g>
</g>
<g>
</g>
<g>
</g>
<g>
</g>
<g>
</g>
<g>
</g>
<g>
</g>
<g>
</g>
<g>
</g>
<g>
</g>
<g>
</g>
<g>
</g>
<g>
</g>
</svg>
