<?xml version="1.0" encoding="iso-8859-1"?>
<!-- Generator: Adobe Illustrator 18.0.0, SVG Export Plug-In . SVG Version: 6.00 Build 0)  -->
<!DOCTYPE svg PUBLIC "-//W3C//DTD SVG 1.1//EN" "http://www.w3.org/Graphics/SVG/1.1/DTD/svg11.dtd">
<svg version="1.1" id="Capa_1" xmlns="http://www.w3.org/2000/svg" xmlns:xlink="http://www.w3.org/1999/xlink" x="0px" y="0px"
	 viewBox="0 0 58 58" style="enable-background:new 0 0 58 58;" xml:space="preserve">
<g>
	<path style="fill:#3E465B;" d="M12.981,31.186c-0.203,3.313-0.777,7.152-1.54,10.814h33.857c-1.001-4.176-1.261-8.952-1.299-13.078
		c-0.034-3.736,5.634-3.473,10.208-3.802c1.169-0.084,2.34-0.121,3.511-0.119C55.77,10.878,43.659,0,29,0
		C15.988,0,5.001,8.579,1.329,20.383c1.804,0.325,3.588,0.83,5.267,1.413C10.054,22.997,13.275,26.395,12.981,31.186z"/>
	<g>
		<path style="fill:#E7ECED;" d="M28.999,51c-7.42,0-9.277-0.302-11.222-6.649C16.36,39.727,16.041,33.933,16,29.057
			c-0.037-4.394,7.25-11.167,11.594-11.968c0.458-0.084,0.951-0.125,1.405-0.047c4.171,0.712,13.151,7.764,12.999,12.016
			c-0.183,5.105-1.486,11.495-2.86,16.413C37.792,50.292,33.249,51,28.999,51z"/>
	</g>
	<path style="fill:#ED9893;" d="M45.914,44.217c-0.235-0.711-0.433-1.458-0.615-2.217h-5.27c-0.286,1.207-0.586,2.378-0.89,3.47
		C37.792,50.292,33.249,51,28.999,51c-7.42,0-9.277-0.302-11.222-6.649c-0.231-0.753-0.423-1.545-0.599-2.351h-5.737
		c-0.458,2.198-0.984,4.332-1.538,6.25c-0.2,0.693-0.472,1.297-0.794,1.836C14.301,54.988,21.296,58,29,58
		c7.918,0,15.086-3.182,20.317-8.328C47.817,48.749,46.872,47.119,45.914,44.217z"/>
	<path style="fill:#E7ECED;" d="M6.595,21.795c-1.687-0.586-3.479-1.094-5.292-1.418C0.456,23.101,0,25.997,0,29
		c0,8.313,3.503,15.803,9.107,21.091c0.323-0.54,0.596-1.145,0.797-1.84c1.478-5.113,2.753-11.763,3.078-17.064
		C13.275,26.395,10.054,22.997,6.595,21.795z"/>
	<path style="fill:#E7ECED;" d="M57.719,25.001c-1.171-0.001-2.342,0.035-3.511,0.119C49.634,25.45,43.966,25.187,44,28.922
		c0.044,4.875,0.388,10.67,1.914,15.294c0.96,2.908,1.907,4.538,3.412,5.461C54.678,44.416,58,37.097,58,29
		C58,27.642,57.899,26.309,57.719,25.001z"/>
	<g>
		<circle style="fill:#B5A896;" cx="23" cy="50" r="1"/>
		<circle style="fill:#B5A896;" cx="25" cy="52" r="1"/>
		<circle style="fill:#B5A896;" cx="25" cy="48" r="1"/>
		<circle style="fill:#B5A896;" cx="21" cy="48" r="1"/>
		<circle style="fill:#B5A896;" cx="37" cy="48" r="1"/>
		<circle style="fill:#B5A896;" cx="33" cy="48" r="1"/>
		<circle style="fill:#B5A896;" cx="29" cy="48" r="1"/>
		<circle style="fill:#B5A896;" cx="39" cy="46" r="1"/>
		<circle style="fill:#B5A896;" cx="35" cy="46" r="1"/>
		<circle style="fill:#B5A896;" cx="23" cy="46" r="1"/>
		<circle style="fill:#B5A896;" cx="19" cy="46" r="1"/>
		<circle style="fill:#B5A896;" cx="27" cy="50" r="1"/>
		<circle style="fill:#B5A896;" cx="29" cy="52" r="1"/>
		<circle style="fill:#B5A896;" cx="33" cy="52" r="1"/>
		<circle style="fill:#B5A896;" cx="31" cy="50" r="1"/>
		<circle style="fill:#B5A896;" cx="35" cy="50" r="1"/>
	</g>
	<path style="fill:#FFFFFF;" d="M31.654,35.952c0.75,0.448,1.611,0.717,2.419,0.741c0.782,0.023,1.463,0.567,1.508,1.349
		c0.001,0.01,0.001,0.019,0.002,0.029c0.141,2.565,4.141,2.579,4,0c-0.028-0.508-0.089-1.005-0.139-1.505
		c0.096-0.148,0.164-0.323,0.148-0.554c-0.179-2.698,0.786-5.727-0.327-8.307c-0.922-2.135-2.62-3.52-4.498-4.737
		c-0.648-1.028-1.339-2.039-2.113-3.014c-0.634-0.798-1.454-0.829-2.119-0.459c-0.328-0.148-0.723-0.126-1.05,0.214
		C24.66,24.729,25.682,32.391,31.654,35.952z"/>
	<path style="fill:#FFFFFF;" d="M6.771,26.193c2.374,0.187,2.871,2.981,2.883,4.878c0.008,1.289,2.008,1.29,2,0
		c-0.02-3.138-1.31-6.597-4.883-6.878C5.484,24.091,5.494,26.092,6.771,26.193L6.771,26.193z"/>
	<path style="fill:#FFFFFF;" d="M49.105,29.558c-0.263-0.613,3.822-0.585,4.109-0.588c1.273-0.013,2.546-0.026,3.819-0.04
		c1.289-0.013,1.29-2.013,0-2c-2.214,0.023-11.724-1.183-9.655,3.637C47.885,31.75,49.608,30.73,49.105,29.558L49.105,29.558z"/>
</g>
<g>
</g>
<g>
</g>
<g>
</g>
<g>
</g>
<g>
</g>
<g>
</g>
<g>
</g>
<g>
</g>
<g>
</g>
<g>
</g>
<g>
</g>
<g>
</g>
<g>
</g>
<g>
</g>
<g>
</g>
</svg>
