<?xml version="1.0" encoding="iso-8859-1"?>
<!-- Generator: Adobe Illustrator 18.0.0, SVG Export Plug-In . SVG Version: 6.00 Build 0)  -->
<!DOCTYPE svg PUBLIC "-//W3C//DTD SVG 1.1//EN" "http://www.w3.org/Graphics/SVG/1.1/DTD/svg11.dtd">
<svg version="1.1" id="Capa_1" xmlns="http://www.w3.org/2000/svg" xmlns:xlink="http://www.w3.org/1999/xlink" x="0px" y="0px"
	 viewBox="0 0 58 58" style="enable-background:new 0 0 58 58;" xml:space="preserve">
<g>
	<path style="fill:#3E465B;" d="M55.537,49.5H2.463C1.103,49.5,0,48.397,0,47.037V7.963C0,6.603,1.103,5.5,2.463,5.5h53.074
		C56.897,5.5,58,6.603,58,7.963v39.074C58,48.397,56.897,49.5,55.537,49.5z"/>
	<rect x="4" y="9.5" style="fill:#556080;" width="50" height="34"/>
	<path style="fill:#2BDA72;" d="M39.754,29.5l-3.792-13.274C35.839,15.796,35.446,15.5,35,15.5c-0.447,0-0.839,0.297-0.962,0.726
		l-3.364,11.81l-1.814-3.047c-0.199-0.335-0.569-0.522-0.967-0.482c-0.389,0.042-0.718,0.307-0.841,0.678l-2.119,6.355
		l-3.999-10.398c-0.152-0.395-0.539-0.646-0.956-0.641c-0.422,0.01-0.793,0.283-0.926,0.684L16.279,29.5H4v2h13
		c0.431,0,0.812-0.275,0.948-0.684l2.119-6.355l3.999,10.398C24.216,35.246,24.587,35.5,25,35.5c0.008,0,0.015,0,0.022,0
		c0.422-0.01,0.793-0.283,0.926-0.684l2.31-6.929l1.883,3.162c0.204,0.343,0.597,0.531,0.988,0.479
		c0.396-0.051,0.724-0.333,0.833-0.717l3.039-10.668l3.037,10.63C38.161,31.204,38.554,31.5,39,31.5h15v-2H39.754z"/>
	<rect x="4" y="49.5" style="fill:#363E4B;" width="6" height="3"/>
	<rect x="48" y="49.5" style="fill:#363E4B;" width="6" height="3"/>
	<path style="fill:#A4E869;" d="M53,47.5h-1c-0.553,0-1-0.447-1-1s0.447-1,1-1h1c0.553,0,1,0.447,1,1S53.553,47.5,53,47.5z"/>
	<path style="fill:#48A0DC;" d="M49,47.5h-1c-0.553,0-1-0.447-1-1s0.447-1,1-1h1c0.553,0,1,0.447,1,1S49.553,47.5,49,47.5z"/>
	<path style="fill:#DD352E;" d="M45,47.5h-1c-0.553,0-1-0.447-1-1s0.447-1,1-1h1c0.553,0,1,0.447,1,1S45.553,47.5,45,47.5z"/>
</g>
<g>
</g>
<g>
</g>
<g>
</g>
<g>
</g>
<g>
</g>
<g>
</g>
<g>
</g>
<g>
</g>
<g>
</g>
<g>
</g>
<g>
</g>
<g>
</g>
<g>
</g>
<g>
</g>
<g>
</g>
</svg>
