<?xml version="1.0" encoding="iso-8859-1"?>
<!-- Generator: Adobe Illustrator 18.0.0, SVG Export Plug-In . SVG Version: 6.00 Build 0)  -->
<!DOCTYPE svg PUBLIC "-//W3C//DTD SVG 1.1//EN" "http://www.w3.org/Graphics/SVG/1.1/DTD/svg11.dtd">
<svg version="1.1" id="Capa_1" xmlns="http://www.w3.org/2000/svg" xmlns:xlink="http://www.w3.org/1999/xlink" x="0px" y="0px"
	 viewBox="0 0 58 58" style="enable-background:new 0 0 58 58;" xml:space="preserve">
<g>
	<rect y="39" style="fill:#363E4B;" width="58" height="14"/>
	<rect y="1" style="fill:#556080;" width="58" height="38"/>
	<path style="fill:#2C4055;" d="M56,3v34H2V3H56 M58,1H0v38h58V1L58,1z"/>
	<path style="fill:#2BDA72;" d="M25,36c-0.021,0-0.042-0.001-0.063-0.002c-0.385-0.024-0.722-0.269-0.865-0.627l-5.13-12.825
		l-4.031,8.868C14.748,31.771,14.393,32,14,32H6c-0.553,0-1-0.447-1-1s0.447-1,1-1h7.356l4.733-10.414
		c0.165-0.364,0.526-0.576,0.934-0.586c0.4,0.01,0.756,0.257,0.905,0.629l5.219,13.047l3.979-7.161
		c0.174-0.313,0.501-0.509,0.859-0.515c0.349-0.002,0.69,0.182,0.874,0.488l1.688,2.837l3.474-16.531C36.119,11.33,36.528,11,37,11
		c0.008,0,0.017,0,0.025,0c0.482,0.013,0.887,0.367,0.962,0.844L40.854,30H52c0.553,0,1,0.447,1,1s-0.447,1-1,1H40
		c-0.492,0-0.911-0.358-0.987-0.844L36.86,17.527l-2.882,13.717c-0.085,0.402-0.408,0.713-0.814,0.78
		c-0.402,0.064-0.813-0.121-1.023-0.475l-2.11-3.545l-4.156,7.48C25.697,35.805,25.361,36,25,36z"/>
	<rect x="36" y="42" style="fill:#556080;" width="14" height="8"/>
	<rect x="36" y="42" style="fill:#F7E6A1;" width="5" height="8"/>
	<path style="fill:#E4C05C;" d="M10,46c0-0.553,0.447-1,1-1h3.859c-0.446-1.722-1.997-3-3.859-3c-2.209,0-4,1.791-4,4
		c0,2.209,1.791,4,4,4c1.862,0,3.412-1.278,3.859-3H11C10.447,47,10,46.553,10,46z"/>
	<path style="fill:#F7E6A1;" d="M14.859,45H11c-0.553,0-1,0.447-1,1s0.447,1,1,1h3.859C14.942,46.679,15,46.347,15,46
		S14.942,45.321,14.859,45z"/>
	<path style="fill:#E4C05C;" d="M27.828,43.172c-0.524-0.524-1.16-0.856-1.828-1.028V46c0,0.553-0.447,1-1,1s-1-0.447-1-1v-3.857
		c-0.669,0.173-1.305,0.505-1.828,1.028c-1.562,1.562-1.562,4.095,0,5.657c1.562,1.562,4.095,1.562,5.657,0
		C29.391,47.266,29.391,44.734,27.828,43.172z"/>
	<path style="fill:#F7E6A1;" d="M25,47c0.553,0,1-0.447,1-1v-3.857c-0.657-0.17-1.343-0.17-2,0V46C24,46.553,24.447,47,25,47z"/>
	<rect x="2" y="53" style="fill:#212F3F;" width="6" height="4"/>
	<rect x="50" y="53" style="fill:#212F3F;" width="6" height="4"/>
	<path style="fill:#ED7161;" d="M12,7.45C12.565,6.176,13.814,5,15.315,5c2.023,0,3.479,1.646,3.662,3.607
		c0,0,0.099,0.487-0.119,1.363c-0.296,1.194-0.993,2.254-1.931,3.063l-4.859,4.158c-0.04,0.034-0.098,0.034-0.138,0l-4.859-4.158
		c-0.939-0.809-1.635-1.87-1.931-3.063C4.924,9.094,5.022,8.607,5.022,8.607C5.206,6.646,6.662,5,8.685,5
		C10.186,5,11.435,6.176,12,7.45z"/>
	<path style="fill:#FFFFFF;" d="M53,7h-4c-0.553,0-1-0.447-1-1s0.447-1,1-1h4c0.553,0,1,0.447,1,1S53.553,7,53,7z"/>
	<path style="fill:#FFFFFF;" d="M54,11h-8c-0.553,0-1-0.447-1-1s0.447-1,1-1h8c0.553,0,1,0.447,1,1S54.553,11,54,11z"/>
	<path style="fill:#FFFFFF;" d="M53,15h-4c-0.553,0-1-0.447-1-1s0.447-1,1-1h4c0.553,0,1,0.447,1,1S53.553,15,53,15z"/>
</g>
<g>
</g>
<g>
</g>
<g>
</g>
<g>
</g>
<g>
</g>
<g>
</g>
<g>
</g>
<g>
</g>
<g>
</g>
<g>
</g>
<g>
</g>
<g>
</g>
<g>
</g>
<g>
</g>
<g>
</g>
</svg>
