<?xml version="1.0" encoding="iso-8859-1"?>
<!-- Generator: Adobe Illustrator 18.0.0, SVG Export Plug-In . SVG Version: 6.00 Build 0)  -->
<!DOCTYPE svg PUBLIC "-//W3C//DTD SVG 1.1//EN" "http://www.w3.org/Graphics/SVG/1.1/DTD/svg11.dtd">
<svg version="1.1" id="Capa_1" xmlns="http://www.w3.org/2000/svg" xmlns:xlink="http://www.w3.org/1999/xlink" x="0px" y="0px"
	 viewBox="0 0 57.038 57.038" style="enable-background:new 0 0 57.038 57.038;" xml:space="preserve">
<g>
	<path style="fill:#6B5B4B;" d="M34.809,33.428l-4.078-4.077l-1.504,1.504l-1.414-1.414l1.875-1.875
		c0.543-0.544,0.893-1.108,0.984-1.59c0.053-0.282,0.066-0.716-0.434-1.216l-2.993-2.993L43.527,5.485l9.612,9.612L34.809,33.428z
		 M32.033,27.825l2.775,2.774l15.503-15.503l-6.784-6.784L30.073,21.767l1.579,1.579c0.854,0.854,1.194,1.892,0.984,3.003
		C32.544,26.839,32.339,27.336,32.033,27.825z"/>
	<path style="fill:#4F2E1D;" d="M35.173,33.058l-3.419,3.419c-0.188,0.188-0.492,0.188-0.68,0l-4.442-4.442l4.099-4.099l4.442,4.442
		C35.36,32.566,35.36,32.871,35.173,33.058z"/>
	
		<rect x="39.729" y="31.372" transform="matrix(0.7071 -0.7071 0.7071 0.7071 -18.1793 42.0434)" style="fill:#BE6E41;" width="3.865" height="23.188"/>
	<path style="fill:#6C342A;" d="M53.422,54.433l-0.293,0.293c-1.239,1.239-3.337,0.835-4.027-0.775l-0.609-1.421l2.733-2.733
		l1.421,0.609C54.256,51.097,54.66,53.195,53.422,54.433z"/>
	<path style="fill:#6B5B4B;" d="M41.305,26.346l-9.167-9.167l3.8-3.8l9.167,9.167L41.305,26.346z M34.966,17.179l6.339,6.339
		l0.972-0.972l-6.339-6.339L34.966,17.179z"/>
	
		<rect x="13.585" y="31.513" transform="matrix(0.7071 0.7071 -0.7071 0.7071 35.0259 1.6531)" style="fill:#BE6E41;" width="3.865" height="23.188"/>
	<path style="fill:#6C342A;" d="M4.05,54.867l-0.293-0.293c-1.239-1.239-0.835-3.337,0.775-4.027l1.421-0.609l2.733,2.733
		l-0.609,1.421C7.387,55.702,5.289,56.106,4.05,54.867z"/>
	<path style="fill:#6C4127;" d="M26.967,31.699c-1.312,1.312-2.908,1.863-4.219,0.551l-0.237-0.237l-0.845,0.845l3.686,3.686
		c0.228,0.228,0.598,0.228,0.826,0l2.481-2.481l-2.028-2.028L26.967,31.699z"/>
	<path style="fill:#6B5B4B;" d="M24.412,34.002c-0.872,0-1.682-0.354-2.371-1.045L4.039,14.956l9.612-9.612l18.001,18.002
		c0.854,0.854,1.194,1.892,0.984,3.003c-0.168,0.884-0.698,1.794-1.535,2.631l-3.427,3.427c-0.837,0.837-1.747,1.367-2.631,1.535
		C24.83,33.982,24.619,34.002,24.412,34.002z M6.867,14.956l16.588,16.587c0.746,0.747,1.691,0.563,2.806-0.551l3.427-3.427
		c1.113-1.114,1.299-2.059,0.551-2.806L13.651,8.172L6.867,14.956z"/>
	<path style="fill:#6B5B4B;" d="M15.733,26.346l-3.8-3.8l9.167-9.167l3.8,3.8L15.733,26.346z M14.762,22.546l0.972,0.972
		l6.339-6.339l-0.972-0.972L14.762,22.546z"/>
	<path style="fill:#4F2E1D;" d="M13.487,6.899l-8.033,8.033c-0.911,0.911-2.387,0.911-3.297,0l-1.473-1.473
		c-0.911-0.911-0.911-2.387,0-3.297l8.033-8.033c0.911-0.911,2.387-0.911,3.297,0l1.473,1.473
		C14.398,4.512,14.398,5.989,13.487,6.899z"/>
	<path style="fill:#4F2E1D;" d="M51.584,14.933l-8.033-8.033c-0.911-0.911-0.911-2.387,0-3.297l1.473-1.473
		c0.911-0.911,2.387-0.911,3.297,0l8.033,8.033c0.911,0.911,0.911,2.387,0,3.297l-1.473,1.473
		C53.971,15.843,52.495,15.843,51.584,14.933z"/>
</g>
<g>
</g>
<g>
</g>
<g>
</g>
<g>
</g>
<g>
</g>
<g>
</g>
<g>
</g>
<g>
</g>
<g>
</g>
<g>
</g>
<g>
</g>
<g>
</g>
<g>
</g>
<g>
</g>
<g>
</g>
</svg>
