<?xml version="1.0" encoding="iso-8859-1"?>
<!-- Generator: Adobe Illustrator 18.0.0, SVG Export Plug-In . SVG Version: 6.00 Build 0)  -->
<!DOCTYPE svg PUBLIC "-//W3C//DTD SVG 1.1//EN" "http://www.w3.org/Graphics/SVG/1.1/DTD/svg11.dtd">
<svg version="1.1" id="Capa_1" xmlns="http://www.w3.org/2000/svg" xmlns:xlink="http://www.w3.org/1999/xlink" x="0px" y="0px"
	 viewBox="0 0 59 59" style="enable-background:new 0 0 59 59;" xml:space="preserve">
<g>
	<path style="fill:#25AE88;" d="M31,11.338V8h-8v3.338C11.65,13.243,3,23.109,3,35v13.267C3,54.195,7.805,59,13.733,59h26.534
		C46.195,59,51,54.195,51,48.267V35C51,23.109,42.35,13.243,31,11.338z"/>
	<g>
		<path style="fill:#A1C8EC;" d="M27,53c-9.374,0-17-7.626-17-17s7.626-17,17-17s17,7.626,17,17S36.374,53,27,53z"/>
		<path style="fill:#7FABDA;" d="M27,54c-9.925,0-18-8.075-18-18s8.075-18,18-18s18,8.075,18,18S36.925,54,27,54z M27,20
			c-8.822,0-16,7.178-16,16s7.178,16,16,16s16-7.178,16-16S35.822,20,27,20z"/>
	</g>
	<g>
		<path style="fill:#7FABDA;" d="M27,22c-7.72,0-14,6.28-14,14s6.28,14,14,14s14-6.28,14-14S34.72,22,27,22z M27,48
			c-6.617,0-12-5.383-12-12s5.383-12,12-12s12,5.383,12,12S33.617,48,27,48z"/>
		<path style="fill:#7FABDA;" d="M27,26c-5.514,0-10,4.486-10,10s4.486,10,10,10s10-4.486,10-10S32.514,26,27,26z M27,44
			c-4.411,0-8-3.589-8-8s3.589-8,8-8s8,3.589,8,8S31.411,44,27,44z"/>
		<path style="fill:#7FABDA;" d="M27,30c-3.309,0-6,2.691-6,6s2.691,6,6,6s6-2.691,6-6S30.309,30,27,30z M27,40
			c-2.206,0-4-1.794-4-4s1.794-4,4-4s4,1.794,4,4S29.206,40,27,40z"/>
	</g>
	<path style="fill:#7FABDA;" d="M49,17c-3.86,0-7-3.141-7-7c0-4.411-3.589-8-8-8h-2c-2.206,0-4,1.794-4,4c0,0.553-0.448,1-1,1
		s-1-0.447-1-1c0-3.309,2.691-6,6-6h2c5.514,0,10,4.486,10,10c0,2.757,2.243,5,5,5s5-2.243,5-5c0-0.553,0.448-1,1-1s1,0.447,1,1
		C56,13.859,52.86,17,49,17z"/>
	<path style="fill:#7FABDA;" d="M21.654,20.86c-0.433,0-0.833-0.283-0.959-0.721c-0.154-0.53,0.15-1.085,0.681-1.239
		C25.362,17.74,26,16.948,26,15V6c0-0.553,0.448-1,1-1s1,0.447,1,1v9c0,3.448-1.956,4.625-6.066,5.82
		C21.841,20.848,21.747,20.86,21.654,20.86z"/>
</g>
<g>
</g>
<g>
</g>
<g>
</g>
<g>
</g>
<g>
</g>
<g>
</g>
<g>
</g>
<g>
</g>
<g>
</g>
<g>
</g>
<g>
</g>
<g>
</g>
<g>
</g>
<g>
</g>
<g>
</g>
</svg>
