<?xml version="1.0" encoding="iso-8859-1"?>
<!-- Generator: Adobe Illustrator 18.0.0, SVG Export Plug-In . SVG Version: 6.00 Build 0)  -->
<!DOCTYPE svg PUBLIC "-//W3C//DTD SVG 1.1//EN" "http://www.w3.org/Graphics/SVG/1.1/DTD/svg11.dtd">
<svg version="1.1" id="Capa_1" xmlns="http://www.w3.org/2000/svg" xmlns:xlink="http://www.w3.org/1999/xlink" x="0px" y="0px"
	 viewBox="0 0 59 59" style="enable-background:new 0 0 59 59;" xml:space="preserve">
<g>
	<path style="fill:#363E4B;" d="M38.5,59c-0.553,0-1-0.448-1-1v-3c0-1.103-0.897-2-2-2s-2,0.897-2,2c0,2.206-1.794,4-4,4
		s-4-1.794-4-4c0-0.552,0.447-1,1-1s1,0.448,1,1c0,1.103,0.897,2,2,2s2-0.897,2-2c0-2.206,1.794-4,4-4s4,1.794,4,4v3
		C39.5,58.552,39.053,59,38.5,59z"/>
	<path style="fill:#7383BF;" d="M20.5,7h-5c-0.553,0-1-0.448-1-1s0.447-1,1-1h5c0.553,0,1,0.448,1,1S21.053,7,20.5,7z"/>
	<circle style="fill:#3E465B;" cx="14.5" cy="6" r="2"/>
	<path style="fill:#E7ECED;" d="M43.5,12h-17c-3.314,0-6-2.686-6-6v0c0-3.314,2.686-6,6-6l17,0V12z"/>
	<rect x="26.5" style="fill:#AFB6BB;" width="2" height="12"/>
	<path style="fill:#AFB6BB;" d="M31.5,12h8.243l-2.728,2.728C32.203,19.54,29.5,26.065,29.5,32.869V52h-6V30.605
		c0-6.936,2.791-13.594,7.784-18.407C31.416,12.07,31.493,12,31.5,12z"/>
	<rect x="24.5" y="52" style="fill:#3E465B;" width="4" height="3"/>
	<path style="fill:#556080;" d="M23.501,35c-0.367,0-0.72-0.202-0.896-0.553c-0.247-0.494-0.047-1.095,0.447-1.342l6-3
		c0.493-0.248,1.094-0.046,1.342,0.447c0.247,0.494,0.047,1.095-0.447,1.342l-6,3C23.804,34.966,23.651,35,23.501,35z"/>
	<path style="fill:#556080;" d="M23.501,47c-0.344,0-0.679-0.177-0.864-0.496c-0.278-0.477-0.118-1.089,0.358-1.368l6-3.505
		c0.479-0.279,1.091-0.118,1.368,0.359c0.278,0.477,0.118,1.089-0.358,1.368l-6,3.505C23.846,46.956,23.672,47,23.501,47z"/>
	<path style="fill:#556080;" d="M23.501,41c-0.367,0-0.72-0.202-0.896-0.553c-0.247-0.494-0.047-1.095,0.447-1.342l6-3
		c0.493-0.247,1.094-0.047,1.342,0.447c0.247,0.494,0.047,1.095-0.447,1.342l-6,3C23.804,40.966,23.651,41,23.501,41z"/>
	<rect x="43.5" y="2" style="fill:#AFB6BB;" width="3" height="8"/>
	<rect x="34.5" style="fill:#AFB6BB;" width="2" height="3"/>
	<rect x="34.5" y="9" style="fill:#AFB6BB;" width="2" height="3"/>
</g>
<g>
</g>
<g>
</g>
<g>
</g>
<g>
</g>
<g>
</g>
<g>
</g>
<g>
</g>
<g>
</g>
<g>
</g>
<g>
</g>
<g>
</g>
<g>
</g>
<g>
</g>
<g>
</g>
<g>
</g>
</svg>
