<?xml version="1.0" encoding="iso-8859-1"?>
<!-- Generator: Adobe Illustrator 18.0.0, SVG Export Plug-In . SVG Version: 6.00 Build 0)  -->
<!DOCTYPE svg PUBLIC "-//W3C//DTD SVG 1.1//EN" "http://www.w3.org/Graphics/SVG/1.1/DTD/svg11.dtd">
<svg version="1.1" id="Capa_1" xmlns="http://www.w3.org/2000/svg" xmlns:xlink="http://www.w3.org/1999/xlink" x="0px" y="0px"
	 viewBox="0 0 57.086 57.086" style="enable-background:new 0 0 57.086 57.086;" xml:space="preserve">
<g>
	
		<rect x="9.836" y="13.176" transform="matrix(0.7071 -0.7071 0.7071 0.7071 -6.5595 15.8361)" style="fill:#3E465B;" width="12" height="5.32"/>
	<path style="fill:#DFF2F8;" d="M56.5,53.672l-2.828-2.828l-1.414-7.071L25.01,16.525l-8.485,8.485l4.574,4.574
		c0.048-0.104,0.108-0.206,0.194-0.292l2-2c0.391-0.391,1.023-0.391,1.414,0s0.391,1.023,0,1.414l-2,2
		c-0.086,0.086-0.187,0.146-0.292,0.194l1.684,1.684c0.048-0.104,0.108-0.206,0.194-0.292l2-2c0.391-0.391,1.023-0.391,1.414,0
		s0.391,1.023,0,1.414l-2,2c-0.086,0.086-0.187,0.146-0.292,0.194l1.684,1.684c0.048-0.104,0.108-0.206,0.194-0.292l2-2
		c0.391-0.391,1.023-0.391,1.414,0s0.391,1.023,0,1.414l-2,2c-0.086,0.086-0.187,0.146-0.292,0.194l1.684,1.684
		c0.048-0.104,0.108-0.206,0.194-0.292l2-2c0.391-0.391,1.023-0.391,1.414,0s0.391,1.023,0,1.414l-2,2
		c-0.086,0.086-0.187,0.146-0.292,0.194l12.357,12.357l7.071,1.414l2.828,2.828c0.781,0.781,2.047,0.781,2.828,0
		C57.281,55.719,57.281,54.453,56.5,53.672z"/>
	<path style="fill:#7FABDA;" d="M24.707,28.707c0.391-0.391,0.391-1.023,0-1.414s-1.023-0.391-1.414,0l-2,2
		c-0.086,0.086-0.146,0.187-0.194,0.292l1.316,1.316c0.104-0.048,0.206-0.108,0.292-0.194L24.707,28.707z"/>
	<path style="fill:#7FABDA;" d="M27.707,31.707c0.391-0.391,0.391-1.023,0-1.414s-1.023-0.391-1.414,0l-2,2
		c-0.086,0.086-0.146,0.187-0.194,0.292l1.316,1.316c0.104-0.048,0.206-0.108,0.292-0.194L27.707,31.707z"/>
	<path style="fill:#7FABDA;" d="M30.707,34.707c0.391-0.391,0.391-1.023,0-1.414s-1.023-0.391-1.414,0l-2,2
		c-0.086,0.086-0.146,0.187-0.194,0.292l1.316,1.316c0.104-0.048,0.206-0.108,0.292-0.194L30.707,34.707z"/>
	<path style="fill:#7FABDA;" d="M33.707,37.707c0.391-0.391,0.391-1.023,0-1.414s-1.023-0.391-1.414,0l-2,2
		c-0.086,0.086-0.146,0.187-0.194,0.292l1.316,1.316c0.104-0.048,0.206-0.108,0.292-0.194L33.707,37.707z"/>
	<path style="fill:#7FABDA;" d="M43.772,52.257l7.071,1.414l2.828,2.828c0.781,0.781,2.047,0.781,2.828,0
		c0.781-0.781,0.781-2.047,0-2.828l-2.828-2.828l-1.414-7.071L48.485,40H31.515L43.772,52.257z"/>
	<circle style="fill:#C6E2F7;" cx="40" cy="43" r="1"/>
	<circle style="fill:#C6E2F7;" cx="46" cy="43" r="1"/>
	<circle style="fill:#C6E2F7;" cx="43" cy="45" r="1"/>
	<circle style="fill:#C6E2F7;" cx="46" cy="48" r="1"/>
	<circle style="fill:#C6E2F7;" cx="49" cy="45" r="1"/>
	<circle style="fill:#C6E2F7;" cx="52" cy="48" r="1"/>
	<circle style="fill:#C6E2F7;" cx="49" cy="51" r="1"/>
	<path style="fill:#556080;" d="M18.243,9.757l-8.485,8.485l-8-8c-2.343-2.343-2.343-6.142,0-8.485l0,0
		c2.343-2.343,6.142-2.343,8.485,0L18.243,9.757z"/>
	<path style="fill:#556080;" d="M7.636,21.364c-0.256,0-0.512-0.098-0.707-0.293c-0.391-0.391-0.391-1.023,0-1.414L19.657,6.929
		c0.391-0.391,1.023-0.391,1.414,0s0.391,1.023,0,1.414L8.343,21.071C8.148,21.266,7.892,21.364,7.636,21.364z"/>
	
		<rect x="9.161" y="16.339" transform="matrix(0.7071 -0.7071 0.7071 0.7071 -7.7089 19.0668)" style="fill:#384051;" width="20" height="5"/>
	
		<rect x="13.126" y="21.374" transform="matrix(0.7071 0.7071 -0.7071 0.7071 20.3977 -4.4958)" style="fill:#272D38;" width="5" height="2"/>
	
		<rect x="16.661" y="17.839" transform="matrix(0.7071 0.7071 -0.7071 0.7071 18.9333 -8.0312)" style="fill:#272D38;" width="4.999" height="2"/>
	
		<rect x="20.196" y="14.304" transform="matrix(0.7071 0.7071 -0.7071 0.7071 17.4689 -11.5666)" style="fill:#272D38;" width="5" height="2"/>
</g>
<g>
</g>
<g>
</g>
<g>
</g>
<g>
</g>
<g>
</g>
<g>
</g>
<g>
</g>
<g>
</g>
<g>
</g>
<g>
</g>
<g>
</g>
<g>
</g>
<g>
</g>
<g>
</g>
<g>
</g>
</svg>
