<?xml version="1.0" encoding="iso-8859-1"?>
<!-- Generator: Adobe Illustrator 18.0.0, SVG Export Plug-In . SVG Version: 6.00 Build 0)  -->
<!DOCTYPE svg PUBLIC "-//W3C//DTD SVG 1.1//EN" "http://www.w3.org/Graphics/SVG/1.1/DTD/svg11.dtd">
<svg version="1.1" id="Capa_1" xmlns="http://www.w3.org/2000/svg" xmlns:xlink="http://www.w3.org/1999/xlink" x="0px" y="0px"
	 viewBox="0 0 58 58" style="enable-background:new 0 0 58 58;" xml:space="preserve">
<g>
	<polygon style="fill:#F77400;" points="38,45.5 38,10.5 11,10.5 11,56.5 32,56.5 32,45.5 	"/>
	<rect x="17" y="10.5" style="fill:#F98630;" width="7" height="46"/>
	<rect x="32" y="45.5" style="fill:#E7ECED;" width="26" height="11"/>
	<g>
		<rect x="54" y="45.5" style="fill:#C1C4C9;" width="2" height="7"/>
		<rect x="50" y="45.5" style="fill:#C1C4C9;" width="2" height="7"/>
		<rect x="46" y="45.5" style="fill:#C1C4C9;" width="2" height="7"/>
		<rect x="42" y="45.5" style="fill:#C1C4C9;" width="2" height="7"/>
		<rect x="38" y="45.5" style="fill:#C1C4C9;" width="2" height="7"/>
		<rect x="34" y="45.5" style="fill:#C1C4C9;" width="2" height="7"/>
	</g>
	<rect x="13" y="1.5" style="fill:#C1C4C9;" width="23" height="9"/>
	<path style="fill:#E7ECED;" d="M38,8.5h-4c-0.553,0-1-0.448-1-1s0.447-1,1-1h4c0.553,0,1,0.448,1,1S38.553,8.5,38,8.5z"/>
	<path style="fill:#E7ECED;" d="M38,5.5h-4c-0.553,0-1-0.448-1-1s0.447-1,1-1h4c0.553,0,1,0.448,1,1S38.553,5.5,38,5.5z"/>
	<path style="fill:#E7ECED;" d="M15,8.5h-4c-0.553,0-1-0.448-1-1s0.447-1,1-1h4c0.553,0,1,0.448,1,1S15.553,8.5,15,8.5z"/>
	<path style="fill:#E7ECED;" d="M15,5.5h-4c-0.553,0-1-0.448-1-1s0.447-1,1-1h4c0.553,0,1,0.448,1,1S15.553,5.5,15,5.5z"/>
	<path style="fill:#E7ECED;" d="M19,8.5h-1c-0.553,0-1-0.448-1-1s0.447-1,1-1h1c0.553,0,1,0.448,1,1S19.553,8.5,19,8.5z"/>
	<path style="fill:#E7ECED;" d="M19,5.5h-1c-0.553,0-1-0.448-1-1s0.447-1,1-1h1c0.553,0,1,0.448,1,1S19.553,5.5,19,5.5z"/>
	<path style="fill:#E7ECED;" d="M23,8.5h-1c-0.553,0-1-0.448-1-1s0.447-1,1-1h1c0.553,0,1,0.448,1,1S23.553,8.5,23,8.5z"/>
	<path style="fill:#E7ECED;" d="M23,5.5h-1c-0.553,0-1-0.448-1-1s0.447-1,1-1h1c0.553,0,1,0.448,1,1S23.553,5.5,23,5.5z"/>
	<path style="fill:#E7ECED;" d="M27,8.5h-1c-0.553,0-1-0.448-1-1s0.447-1,1-1h1c0.553,0,1,0.448,1,1S27.553,8.5,27,8.5z"/>
	<path style="fill:#E7ECED;" d="M27,5.5h-1c-0.553,0-1-0.448-1-1s0.447-1,1-1h1c0.553,0,1,0.448,1,1S27.553,5.5,27,5.5z"/>
	<path style="fill:#E7ECED;" d="M31,8.5h-1c-0.553,0-1-0.448-1-1s0.447-1,1-1h1c0.553,0,1,0.448,1,1S31.553,8.5,31,8.5z"/>
	<path style="fill:#E7ECED;" d="M31,5.5h-1c-0.553,0-1-0.448-1-1s0.447-1,1-1h1c0.553,0,1,0.448,1,1S31.553,5.5,31,5.5z"/>
	<rect x="34" y="18.5" style="fill:#F2ECBF;" width="4" height="27"/>
	<rect x="11" y="18.5" style="fill:#F2ECBF;" width="12" height="30"/>
	<g>
		<rect x="11" y="30.5" style="fill:#C9BE7D;" width="9" height="2"/>
		<rect x="11" y="34.5" style="fill:#C9BE7D;" width="9" height="2"/>
		<rect x="11" y="22.5" style="fill:#C9BE7D;" width="9" height="2"/>
		<rect x="11" y="26.5" style="fill:#C9BE7D;" width="9" height="2"/>
		<rect x="11" y="38.5" style="fill:#C9BE7D;" width="9" height="2"/>
		<rect x="11" y="42.5" style="fill:#C9BE7D;" width="9" height="2"/>
	</g>
	<path style="fill:#3B8DD3;" d="M18,56.5H4c-2.2,0-4-1.8-4-4v0c0-2.2,1.8-4,4-4h14c2.2,0,4,1.8,4,4v0C22,54.7,20.2,56.5,18,56.5z"/>
	<path style="fill:#EBBA16;" d="M11,48.5H4c-2.2,0-4,1.8-4,4s1.8,4,4,4h7V48.5z"/>
</g>
<g>
</g>
<g>
</g>
<g>
</g>
<g>
</g>
<g>
</g>
<g>
</g>
<g>
</g>
<g>
</g>
<g>
</g>
<g>
</g>
<g>
</g>
<g>
</g>
<g>
</g>
<g>
</g>
<g>
</g>
</svg>
