<?xml version="1.0" encoding="iso-8859-1"?>
<!-- Generator: Adobe Illustrator 18.0.0, SVG Export Plug-In . SVG Version: 6.00 Build 0)  -->
<!DOCTYPE svg PUBLIC "-//W3C//DTD SVG 1.1//EN" "http://www.w3.org/Graphics/SVG/1.1/DTD/svg11.dtd">
<svg version="1.1" id="Capa_1" xmlns="http://www.w3.org/2000/svg" xmlns:xlink="http://www.w3.org/1999/xlink" x="0px" y="0px"
	 viewBox="0 0 56 56" style="enable-background:new 0 0 56 56;" xml:space="preserve">
<g>
	<rect x="3.293" y="23" style="fill:#A1C8EC;" width="28" height="32"/>
	<path style="fill:#3E465B;" d="M5.293,24c-0.553,0-1-0.448-1-1V10c0-0.552,0.447-1,1-1s1,0.448,1,1v13
		C6.293,23.552,5.846,24,5.293,24z"/>
	<path style="fill:#3E465B;" d="M13.293,24c-0.553,0-1-0.448-1-1V10c0-0.552,0.447-1,1-1s1,0.448,1,1v13
		C14.293,23.552,13.846,24,13.293,24z"/>
	<path style="fill:#3E465B;" d="M21.293,24c-0.553,0-1-0.448-1-1V10c0-0.552,0.447-1,1-1s1,0.448,1,1v13
		C22.293,23.552,21.846,24,21.293,24z"/>
	<path style="fill:#3E465B;" d="M29.293,24c-0.553,0-1-0.448-1-1V10c0-0.552,0.447-1,1-1s1,0.448,1,1v13
		C30.293,23.552,29.846,24,29.293,24z"/>
	<path style="fill:#3E465B;" d="M9.293,24c-0.553,0-1-0.448-1-1V8c0-0.552,0.447-1,1-1s1,0.448,1,1v15
		C10.293,23.552,9.846,24,9.293,24z"/>
	<path style="fill:#3E465B;" d="M17.293,24c-0.553,0-1-0.448-1-1V8c0-0.552,0.447-1,1-1s1,0.448,1,1v15
		C18.293,23.552,17.846,24,17.293,24z"/>
	<path style="fill:#3E465B;" d="M25.293,24c-0.553,0-1-0.448-1-1V8c0-0.552,0.447-1,1-1s1,0.448,1,1v15
		C26.293,23.552,25.846,24,25.293,24z"/>
	<rect x="15.293" y="28" style="fill:#D7E9F4;" width="16" height="22"/>
	<g>
		<rect x="22.293" y="32.083" style="fill:#7FABDA;" width="9" height="2"/>
		<rect x="22.293" y="36.083" style="fill:#7FABDA;" width="9" height="2"/>
		<rect x="22.293" y="40.083" style="fill:#7FABDA;" width="9" height="2"/>
		<rect x="22.293" y="44.083" style="fill:#7FABDA;" width="9" height="2"/>
	</g>
	<rect x="3.293" y="28" style="fill:#D7E9F4;" width="4" height="22"/>
	<rect x="1.293" y="54" style="fill:#7FABDA;" width="32" height="2"/>
	<rect x="1.293" y="22" style="fill:#7FABDA;" width="32" height="2"/>
	<g>
		
			<rect x="41.393" y="31.899" transform="matrix(0.7071 -0.7071 0.7071 0.7071 -18.332 43.5417)" style="fill:#A1C8EC;" width="4" height="24"/>
		<path style="fill:#7FABDA;" d="M50.465,55.213L32.08,36.829l4.242-4.243l18.385,18.385L50.465,55.213z M34.908,36.829
			l15.557,15.556l1.414-1.414L36.322,35.414L34.908,36.829z"/>
	</g>
	<g>
		<path style="fill:#E7ECED;" d="M5.293,1c-1.657,0-3,4.011-3,5.786S3.636,10,5.293,10s3-1.439,3-3.214S6.95,1,5.293,1z"/>
		<path style="fill:#C7CAC7;" d="M5.293,11c-2.206,0-4-1.891-4-4.214c0-1.969,1.401-6.786,4-6.786s4,4.816,4,6.786
			C9.293,9.109,7.499,11,5.293,11z M5.293,2c-0.474,0-2,2.6-2,4.786C3.293,8.007,4.19,9,5.293,9s2-0.993,2-2.214
			C7.293,4.6,5.767,2,5.293,2z"/>
	</g>
	<g>
		<path style="fill:#E7ECED;" d="M13.293,1c-1.657,0-3,4.011-3,5.786s1.343,3.214,3,3.214s3-1.439,3-3.214S14.95,1,13.293,1z"/>
		<path style="fill:#C7CAC7;" d="M13.293,11c-2.206,0-4-1.891-4-4.214c0-1.969,1.401-6.786,4-6.786s4,4.816,4,6.786
			C17.293,9.109,15.499,11,13.293,11z M13.293,2c-0.474,0-2,2.6-2,4.786c0,1.221,0.897,2.214,2,2.214s2-0.993,2-2.214
			C15.293,4.6,13.767,2,13.293,2z"/>
	</g>
	<g>
		<path style="fill:#E7ECED;" d="M21.293,1c-1.657,0-3,4.011-3,5.786s1.343,3.214,3,3.214s3-1.439,3-3.214S22.95,1,21.293,1z"/>
		<path style="fill:#C7CAC7;" d="M21.293,11c-2.206,0-4-1.891-4-4.214c0-1.969,1.401-6.786,4-6.786s4,4.816,4,6.786
			C25.293,9.109,23.499,11,21.293,11z M21.293,2c-0.474,0-2,2.6-2,4.786c0,1.221,0.897,2.214,2,2.214s2-0.993,2-2.214
			C23.293,4.6,21.767,2,21.293,2z"/>
	</g>
	<g>
		<path style="fill:#E7ECED;" d="M29.293,1c-1.657,0-3,4.011-3,5.786s1.343,3.214,3,3.214s3-1.439,3-3.214S30.95,1,29.293,1z"/>
		<path style="fill:#C7CAC7;" d="M29.293,11c-2.206,0-4-1.891-4-4.214c0-1.969,1.401-6.786,4-6.786s4,4.816,4,6.786
			C33.293,9.109,31.499,11,29.293,11z M29.293,2c-0.474,0-2,2.6-2,4.786c0,1.221,0.897,2.214,2,2.214s2-0.993,2-2.214
			C31.293,4.6,29.767,2,29.293,2z"/>
	</g>
</g>
<g>
</g>
<g>
</g>
<g>
</g>
<g>
</g>
<g>
</g>
<g>
</g>
<g>
</g>
<g>
</g>
<g>
</g>
<g>
</g>
<g>
</g>
<g>
</g>
<g>
</g>
<g>
</g>
<g>
</g>
</svg>
