<?xml version="1.0" encoding="iso-8859-1"?>
<!-- Generator: Adobe Illustrator 18.0.0, SVG Export Plug-In . SVG Version: 6.00 Build 0)  -->
<!DOCTYPE svg PUBLIC "-//W3C//DTD SVG 1.1//EN" "http://www.w3.org/Graphics/SVG/1.1/DTD/svg11.dtd">
<svg version="1.1" id="Capa_1" xmlns="http://www.w3.org/2000/svg" xmlns:xlink="http://www.w3.org/1999/xlink" x="0px" y="0px"
	 viewBox="0 0 57.306 57.306" style="enable-background:new 0 0 57.306 57.306;" xml:space="preserve">
<g>
	<path style="fill:#E7ECED;" d="M56.393,55.98L56.393,55.98c-1.033,1.033-2.645,1.21-3.877,0.426L35.073,41.52l6.364-6.364
		l15.382,16.947C57.603,53.335,57.426,54.947,56.393,55.98z"/>
	<path style="fill:#556080;" d="M40.985,28.675l-0.04-0.04c-2.148-2.148-3.15-5.128-2.981-8.161
		c0.29-5.209-1.553-10.515-5.533-14.495C24.5-1.952,11.303-1.406,4.097,7.616c-5.407,6.77-5.471,16.587-0.14,23.418
		c4.1,5.254,10.205,7.7,16.175,7.344c3.005-0.179,5.953,0.853,8.081,2.982l0.044,0.044c1.915,1.915,5.019,1.915,6.933,0l5.794-5.794
		C42.899,33.694,42.899,30.589,40.985,28.675z"/>
	<path style="fill:#7383BF;" d="M7.888,24.876c-3.277-2.323-3.214-6.356-1.92-9.817c1.017-2.72,5.412-1.543,4.384,1.208
		c-0.406,1.085-1.441,3.781-0.17,4.683C12.553,22.631,10.285,26.576,7.888,24.876z"/>
</g>
<g>
</g>
<g>
</g>
<g>
</g>
<g>
</g>
<g>
</g>
<g>
</g>
<g>
</g>
<g>
</g>
<g>
</g>
<g>
</g>
<g>
</g>
<g>
</g>
<g>
</g>
<g>
</g>
<g>
</g>
</svg>
