<?xml version="1.0" encoding="iso-8859-1"?>
<!-- Generator: Adobe Illustrator 18.0.0, SVG Export Plug-In . SVG Version: 6.00 Build 0)  -->
<!DOCTYPE svg PUBLIC "-//W3C//DTD SVG 1.1//EN" "http://www.w3.org/Graphics/SVG/1.1/DTD/svg11.dtd">
<svg version="1.1" id="Capa_1" xmlns="http://www.w3.org/2000/svg" xmlns:xlink="http://www.w3.org/1999/xlink" x="0px" y="0px"
	 viewBox="0 0 59 59" style="enable-background:new 0 0 59 59;" xml:space="preserve">
<g>
	<path style="fill:#E6E2E3;" d="M58.091,52.686l-5.405,5.405c-1.212,1.212-3.196,1.212-4.409,0L25.823,35.636
		c-2.139-2.139-2.139-5.639,0-7.778l2.035-2.035c2.139-2.139,5.639-2.139,7.778,0l22.455,22.455
		C59.303,49.49,59.303,51.474,58.091,52.686z"/>
	
		<rect x="49.928" y="43.989" transform="matrix(0.7071 0.7071 -0.7071 0.7071 50.9277 -21.095)" style="fill:#7383BF;" width="2" height="13.878"/>
	<path style="fill:#7383BF;" d="M34.148,32.734c-1.855-1.856-4.864-1.856-6.72,0l-2.188,2.188c0.176,0.248,0.361,0.492,0.583,0.714
		l17.009,17.009l2.254-2.254c1.856-1.856,1.856-4.864,0-6.72L34.148,32.734z"/>
	<path style="fill:#7383BF;" d="M14.268,11.101c-0.732,1.477-1.965,2.66-3.483,3.319l14.102,14.743
		c0.248-0.466,0.543-0.914,0.935-1.306l1.017-1.017l0,0l0,0l1.017-1.017c0.392-0.392,0.839-0.687,1.306-0.935L14.268,11.101z"/>
	<path style="fill:#3E465B;" d="M36.455,39.891c-1.754-1.754-4.598-1.754-6.353,0l6.353,6.353
		C38.21,44.49,38.21,41.645,36.455,39.891z"/>
	<path style="fill:#AFB6BB;" d="M8,0C3.589,0,0,3.589,0,8s3.589,8,8,8s8-3.589,8-8S12.411,0,8,0z"/>
	<circle style="fill:#FFFFFF;" cx="6" cy="2" r="1"/>
	<circle style="fill:#FFFFFF;" cx="10" cy="2" r="1"/>
	<circle style="fill:#FFFFFF;" cx="8" cy="4" r="1"/>
	<circle style="fill:#FFFFFF;" cx="4" cy="4" r="1"/>
	<circle style="fill:#FFFFFF;" cx="6" cy="6" r="1"/>
	<circle style="fill:#FFFFFF;" cx="10" cy="6" r="1"/>
	<circle style="fill:#FFFFFF;" cx="12" cy="4" r="1"/>
	<circle style="fill:#FFFFFF;" cx="14" cy="6" r="1"/>
	<circle style="fill:#FFFFFF;" cx="12" cy="8" r="1"/>
	<circle style="fill:#FFFFFF;" cx="12" cy="12" r="1"/>
	<circle style="fill:#FFFFFF;" cx="8" cy="12" r="1"/>
	<circle style="fill:#FFFFFF;" cx="4" cy="12" r="1"/>
	<circle style="fill:#FFFFFF;" cx="6" cy="14" r="1"/>
	<circle style="fill:#FFFFFF;" cx="10" cy="14" r="1"/>
	<circle style="fill:#FFFFFF;" cx="8" cy="8" r="1"/>
	<circle style="fill:#FFFFFF;" cx="4" cy="8" r="1"/>
	<circle style="fill:#FFFFFF;" cx="2" cy="6" r="1"/>
	<circle style="fill:#FFFFFF;" cx="2" cy="10" r="1"/>
	<circle style="fill:#FFFFFF;" cx="6" cy="10" r="1"/>
	<circle style="fill:#FFFFFF;" cx="10" cy="10" r="1"/>
	<circle style="fill:#FFFFFF;" cx="14" cy="10" r="1"/>
</g>
<g>
</g>
<g>
</g>
<g>
</g>
<g>
</g>
<g>
</g>
<g>
</g>
<g>
</g>
<g>
</g>
<g>
</g>
<g>
</g>
<g>
</g>
<g>
</g>
<g>
</g>
<g>
</g>
<g>
</g>
</svg>
