<?xml version="1.0" encoding="iso-8859-1"?>
<!-- Generator: Adobe Illustrator 18.0.0, SVG Export Plug-In . SVG Version: 6.00 Build 0)  -->
<!DOCTYPE svg PUBLIC "-//W3C//DTD SVG 1.1//EN" "http://www.w3.org/Graphics/SVG/1.1/DTD/svg11.dtd">
<svg version="1.1" id="Capa_1" xmlns="http://www.w3.org/2000/svg" xmlns:xlink="http://www.w3.org/1999/xlink" x="0px" y="0px"
	 viewBox="0 0 60 60" style="enable-background:new 0 0 60 60;" xml:space="preserve">
<g>
	<path style="fill:#ED9893;" d="M55.276,23.851h-2.244c-4.605,0-8.636,2.877-10.212,7.068c-0.271,1.214-0.526,2.44-0.858,3.639
		l-0.27,1.42c-0.98,5.148-5.481,8.873-10.721,8.873h-1.941c-5.188,0-9.645-3.652-10.685-8.72c-0.67-1.67-1.21-3.4-1.663-5.163
		c-2.341-4.3-6.888-7.135-12.004-7.118c-1.818,0.006-3.093,1.813-2.535,3.544l5.664,17.557c1.903,5.9,7.395,9.899,13.595,9.899
		h17.197c6.2,0,11.692-3.999,13.595-9.899l5.664-17.557C58.422,25.644,57.116,23.851,55.276,23.851z"/>
	<path style="fill:#D18684;" d="M50.761,40.849l5.056-16.928c-0.175-0.038-0.353-0.071-0.541-0.071h-2.244
		c-4.605,0-8.636,3.107-10.212,7.633c-0.271,1.311-0.526,2.635-0.858,3.931l-0.27,1.534c-0.98,5.56-5.481,9.583-10.721,9.583h-1.941
		c-5.188,0-9.645-3.945-10.685-9.417c-0.67-1.804-1.21-3.672-1.663-5.576c-2.341-4.644-6.888-7.706-12.004-7.687
		c-0.172,0.001-0.335,0.034-0.496,0.068l5.057,16.931c1.781,5.961,6.918,10.001,12.718,10.001h16.088
		C43.843,50.851,48.981,46.81,50.761,40.849z"/>
	<path style="fill:#E7ECED;" d="M44.882,11.448c1.61,6.085-0.689,13.342-2.031,19.33c-0.583,2.602-1.071,5.267-2.41,7.612
		c-2.118,3.713-3.807-1.135-4.472-3.185c-0.818-2.521-1.084-5.776-3.602-7.275c-2.508-1.494-4.835,0.033-6.288,2.158
		c-1.472,2.154-2.03,4.656-2.964,7.051c-0.432,1.108-0.908,2.216-2.079,2.712c-1.243,0-2.106-2.271-2.563-3.374
		c-2.492-6.017-3.258-12.835-4.22-19.231c-0.677-4.5,0.782-9.848,5.456-11.504c2.54-0.9,6.019-0.07,8.562,0.679
		c1.461,0.431,1.192,0.29,2.648-0.215c0.112-0.039,0.222-0.091,0.336-0.138c3.115-1.289,6.87-1.299,9.612,0.464
		C42.718,7.722,44.347,9.425,44.882,11.448z"/>
	<path style="fill:#AFB6BB;" d="M16,30.851c-0.39,0-0.761-0.229-0.922-0.612L7.336,11.851H1c-0.553,0-1-0.447-1-1s0.447-1,1-1h7.664
		l8.258,19.612c0.214,0.509-0.024,1.095-0.534,1.31C16.262,30.825,16.13,30.851,16,30.851z"/>
	<path style="fill:#AFB6BB;" d="M43,30.851c-0.13,0-0.262-0.025-0.388-0.078c-0.51-0.215-0.748-0.801-0.534-1.31l8.258-19.612H59
		c0.553,0,1,0.447,1,1s-0.447,1-1,1h-7.336l-7.742,18.388C43.761,30.621,43.39,30.851,43,30.851z"/>
	<path style="fill:#F4ADAB;" d="M53.032,23.851c-4.56,0-8.557,2.821-10.165,6.945c-0.032,0.081-0.057,0.166-0.076,0.251
		c-0.257,1.157-0.503,2.324-0.818,3.467c-0.008,0.03-0.015,0.059-0.021,0.089l-0.037,0.196c-1.11,5.832-6.209,10.051-12.145,10.051
		h-0.742c-5.188,0-9.645-3.652-10.685-8.72c-0.646-1.61-1.171-3.276-1.614-4.973c-0.033-0.125-0.08-0.248-0.144-0.361
		c-1.039-1.845-2.491-3.404-4.219-4.573c-1.245-0.842-2.774,0.605-2.051,1.923c0.415,0.756,0.815,1.52,1.159,2.314
		c0.047,0.107,0.085,0.216,0.128,0.324c0.454,0.462,0.867,0.964,1.22,1.513c0.082,0.128,0.142,0.273,0.182,0.42
		c0.443,1.629,0.928,3.119,1.475,4.522c0.017,0.043,0.03,0.086,0.041,0.131c1.582,6.678,7.612,11.478,14.507,11.478h0.748
		c7.856,0,14.602-5.585,16.068-13.303l0.008-0.04c0.006-0.03,0.013-0.06,0.021-0.09c0.277-1.025,0.499-2.034,0.714-3.012
		l0.069-0.313c0.734-1.751,2.184-3.129,3.965-3.794c0.232-0.087,0.443-0.222,0.606-0.408c0.994-1.144,1.924-2.218,2.287-3.218
		c0.03-0.084,0.061-0.167,0.091-0.251c0.001-0.143,0.006-0.319,0.017-0.569H53.032z"/>
</g>
<g>
</g>
<g>
</g>
<g>
</g>
<g>
</g>
<g>
</g>
<g>
</g>
<g>
</g>
<g>
</g>
<g>
</g>
<g>
</g>
<g>
</g>
<g>
</g>
<g>
</g>
<g>
</g>
<g>
</g>
</svg>
