<?xml version="1.0" encoding="iso-8859-1"?>
<!-- Generator: Adobe Illustrator 18.0.0, SVG Export Plug-In . SVG Version: 6.00 Build 0)  -->
<!DOCTYPE svg PUBLIC "-//W3C//DTD SVG 1.1//EN" "http://www.w3.org/Graphics/SVG/1.1/DTD/svg11.dtd">
<svg version="1.1" id="Capa_1" xmlns="http://www.w3.org/2000/svg" xmlns:xlink="http://www.w3.org/1999/xlink" x="0px" y="0px"
	 viewBox="0 0 59 59" style="enable-background:new 0 0 59 59;" xml:space="preserve">
<g>
	<g>
		<path style="fill:#496AAF;" d="M18.034,29.5c0-13.374-1.275-24.295,11.695-24.967C29.485,4.526,29.246,4.5,29,4.5
			c-9.208,0-18.526,3.512-24.03,10.372C6.371,16.372,6,22.346,6,29.5c0,7.154,0.371,13.128-1.03,14.628
			C10.474,50.988,19.792,54.5,29,54.5c0.246,0,0.485-0.026,0.73-0.033C16.759,53.795,18.034,42.874,18.034,29.5z"/>
	</g>
	<path style="fill:#F19266;" d="M56.842,26.5h-2.034C53.293,14.338,42.699,4.88,29.73,4.533C16.759,5.205,18.034,16.126,18.034,29.5
		S16.759,53.795,29.73,54.467C42.699,54.12,53.293,44.662,54.807,32.5h2.034H58v-6H56.842z"/>
	<g>
		<path style="fill:#F76363;" d="M18.034,29.5c0-13.374-1.275-24.295,11.695-24.967C29.485,4.526,29.246,4.5,29,4.5
			c-14.359,0-13,11.193-13,25s-1.359,25,13,25c0.246,0,0.485-0.026,0.73-0.033C16.759,53.795,18.034,42.874,18.034,29.5z"/>
	</g>
	<g>
		<circle style="fill:#EA6248;" cx="21" cy="15.5" r="1"/>
		<circle style="fill:#EA6248;" cx="22" cy="46.5" r="1"/>
		<circle style="fill:#EA6248;" cx="27" cy="42.5" r="1"/>
		<circle style="fill:#EA6248;" cx="21" cy="37.5" r="1"/>
		<circle style="fill:#EA6248;" cx="28" cy="36.5" r="1"/>
		<circle style="fill:#EA6248;" cx="22" cy="29.5" r="1"/>
		<circle style="fill:#EA6248;" cx="26" cy="21.5" r="1"/>
		<circle style="fill:#EA6248;" cx="20" cy="21.5" r="1"/>
		<circle style="fill:#EA6248;" cx="27" cy="10.5" r="1"/>
	</g>
	<path style="fill:#CCE0E1;" d="M16,29.5c0,6.627,0.375,12-2,12c-2.761,0-5-5.373-5-12s2.239-12,5-12C16.406,17.5,16,22.873,16,29.5
		z"/>
	<path style="fill:#F7B563;" d="M58,28.5h-5.586L36,12.086V8.5c0-0.553-0.448-1-1-1s-1,0.447-1,1v3h-3c-0.552,0-1,0.447-1,1
		s0.448,1,1,1h3.586l15,15h-5.172l-7.207-7.207c-0.061-0.061-0.136-0.095-0.207-0.137V17.5c0-0.553-0.448-1-1-1s-1,0.447-1,1v3h-3
		c-0.552,0-1,0.447-1,1s0.448,1,1,1h3.655c0.042,0.071,0.076,0.146,0.138,0.207l5.793,5.793H40h-8.586l-2.707-2.707
		c-0.391-0.391-1.023-0.391-1.414,0s-0.391,1.023,0,1.414l2.293,2.293l-2.293,2.293c-0.391,0.391-0.391,1.023,0,1.414
		C27.488,33.402,27.744,33.5,28,33.5s0.512-0.098,0.707-0.293l2.707-2.707H40h1.586l-6,6H32c-0.552,0-1,0.447-1,1s0.448,1,1,1h3v3
		c0,0.553,0.448,1,1,1s1-0.447,1-1v-3.586l7.414-7.414h5.172l-15,15H31c-0.552,0-1,0.447-1,1s0.448,1,1,1h3v3c0,0.553,0.448,1,1,1
		s1-0.447,1-1v-3.586L52.414,30.5H58c0.552,0,1-0.447,1-1S58.552,28.5,58,28.5z"/>
	<path style="fill:#B9D2D9;" d="M6,29.5c0,8.284,0.503,15-1.832,15S0,37.784,0,29.5s1.833-15,4.168-15S6,21.216,6,29.5z"/>
	<circle style="fill:#E083A0;" cx="13" cy="23.5" r="1"/>
	<circle style="fill:#E083A0;" cx="13" cy="26.5" r="1"/>
	<circle style="fill:#E083A0;" cx="13" cy="29.5" r="1"/>
	<circle style="fill:#E083A0;" cx="13" cy="32.5" r="1"/>
	<circle style="fill:#E083A0;" cx="13" cy="35.5" r="1"/>
	<path style="fill:#FFFFFF;" d="M3.779,41.508c-0.838-1.835-1.823-5.955-1.823-12.061s0.985-10.226,1.823-12.061
		c0.264,1.894,0.23,5.35,0.201,8.262c-0.012,1.214-0.024,2.486-0.024,3.799s0.013,2.585,0.024,3.799
		C4.009,36.159,4.044,39.615,3.779,41.508z"/>
</g>
<g>
</g>
<g>
</g>
<g>
</g>
<g>
</g>
<g>
</g>
<g>
</g>
<g>
</g>
<g>
</g>
<g>
</g>
<g>
</g>
<g>
</g>
<g>
</g>
<g>
</g>
<g>
</g>
<g>
</g>
</svg>
