<?xml version="1.0" encoding="iso-8859-1"?>
<!-- Generator: Adobe Illustrator 18.0.0, SVG Export Plug-In . SVG Version: 6.00 Build 0)  -->
<!DOCTYPE svg PUBLIC "-//W3C//DTD SVG 1.1//EN" "http://www.w3.org/Graphics/SVG/1.1/DTD/svg11.dtd">
<svg version="1.1" id="Capa_1" xmlns="http://www.w3.org/2000/svg" xmlns:xlink="http://www.w3.org/1999/xlink" x="0px" y="0px"
	 viewBox="0 0 58 58" style="enable-background:new 0 0 58 58;" xml:space="preserve">
<g>
	<g>
		<path style="fill:#CC4B4C;" d="M26.101,54L27,57.923C27.661,57.971,28.327,58,29,58s1.339-0.029,2-0.077L32,54H26.101z"/>
		<path style="fill:#CC4B4C;" d="M9.423,39.755c-3.71-6.428-5.711-16.385-5.381-25.473C1.488,18.599,0,23.621,0,29
			c0,8.754,3.885,16.596,10.018,21.914v-8.926C10.018,41.202,9.816,40.436,9.423,39.755z"/>
		<path style="fill:#CC4B4C;" d="M53.957,14.233c0.339,9.089-1.657,19.054-5.363,25.493c-0.391,0.679-0.595,1.442-0.592,2.226
			c0,0.016,0,0.032,0,0.048v8.896C54.124,45.579,58,37.745,58,29C58,23.606,56.522,18.559,53.957,14.233z"/>
	</g>
	<path style="fill:#FBCE9D;" d="M31.919,54H32l-1,3.924c4.611-0.314,8.924-1.704,12.692-3.924c1.533-0.903,2.974-1.943,4.31-3.104
		v-6.821C41.157,44.573,35.257,48.423,31.919,54z"/>
	<g>
		<path style="fill:#FBCE9D;" d="M53.957,14.233L53.957,14.233c-0.619-1.044-1.303-2.043-2.043-2.997
			c-0.034-0.044-0.069-0.088-0.104-0.132c-0.352-0.448-0.716-0.887-1.093-1.313c-0.015-0.016-0.028-0.033-0.043-0.05
			c-0.79-0.889-1.636-1.728-2.529-2.514c-0.06-0.053-0.121-0.105-0.182-0.158c-0.397-0.344-0.803-0.677-1.218-0.998
			c-0.053-0.041-0.104-0.083-0.157-0.123c-0.923-0.706-1.892-1.356-2.898-1.949c-0.101-0.06-0.203-0.117-0.305-0.176
			c-0.414-0.237-0.834-0.464-1.26-0.681c-0.1-0.051-0.199-0.104-0.3-0.154c-1.027-0.508-2.089-0.955-3.18-1.34
			c-0.142-0.05-0.285-0.097-0.428-0.145c-0.418-0.14-0.841-0.271-1.268-0.392c-0.145-0.041-0.29-0.085-0.436-0.124
			c-0.558-0.15-1.122-0.287-1.693-0.404c-0.015-0.003-0.03-0.005-0.045-0.008c-0.549-0.111-1.104-0.202-1.664-0.281
			c-0.171-0.024-0.343-0.044-0.515-0.065c-0.428-0.053-0.859-0.096-1.292-0.131c-0.174-0.014-0.348-0.029-0.523-0.04
			C30.192,0.024,29.599,0,29,0c-0.599,0-1.193,0.024-1.783,0.06c-0.174,0.011-0.346,0.026-0.519,0.039
			c-0.435,0.034-0.867,0.078-1.297,0.131c-0.171,0.021-0.342,0.041-0.512,0.065c-0.56,0.08-1.116,0.171-1.665,0.282
			c-0.015,0.003-0.03,0.005-0.045,0.008c-0.572,0.117-1.135,0.254-1.694,0.404c-0.145,0.039-0.289,0.082-0.433,0.123
			c-0.428,0.122-0.852,0.253-1.271,0.393c-0.142,0.048-0.285,0.094-0.426,0.144c-1.092,0.385-2.155,0.833-3.183,1.341
			c-0.099,0.049-0.196,0.101-0.295,0.151c-0.428,0.218-0.851,0.446-1.266,0.684c-0.1,0.057-0.2,0.114-0.299,0.172
			c-1.008,0.594-1.977,1.245-2.902,1.952c-0.051,0.039-0.1,0.079-0.151,0.119c-0.417,0.324-0.826,0.658-1.224,1.004
			C9.975,7.123,9.915,7.174,9.857,7.226C8.962,8.013,8.116,8.852,7.324,9.743c-0.013,0.015-0.026,0.03-0.039,0.045
			c-0.379,0.428-0.744,0.869-1.098,1.319c-0.033,0.042-0.067,0.084-0.1,0.127c-0.741,0.955-1.426,1.955-2.045,3
			c-0.339,9.101,1.664,19.082,5.38,25.522c0.393,0.681,0.596,1.447,0.595,2.233c0,0.004,0,0.008,0,0.012v2.076
			c6.846,0.497,12.745,4.347,16.083,9.924h5.818c3.338-5.577,9.238-9.427,16.083-9.924c0-1.201,0-2.076,0-2.076
			c0-0.016,0-0.032,0-0.048c-0.003-0.784,0.201-1.547,0.592-2.226C52.3,33.287,54.296,23.322,53.957,14.233z"/>
	</g>
	<path style="fill:#FFFFFF;" d="M28.003,32c-9.043,0-13.493,1.104-20.765,3.023c0.643,1.727,1.372,3.323,2.185,4.732
		c0.393,0.681,0.596,1.447,0.595,2.233c0,0.004,0,0.008,0,0.012v2.076c6.846,0.497,12.745,4.347,16.083,9.924h5.818
		c3.338-5.577,9.238-9.427,16.083-9.924V42c0-0.016,0-0.032,0-0.048c-0.003-0.784,0.2-1.547,0.592-2.226
		c0.879-1.527,1.66-3.274,2.339-5.169C44.09,32.927,36.289,32,28.003,32z"/>
	<circle style="fill:#F7B563;" cx="29" cy="21" r="2"/>
	<circle style="fill:#F7B563;" cx="29" cy="26" r="1"/>
	<circle style="fill:#F7B563;" cx="29" cy="15" r="1"/>
	<circle style="fill:#F7B563;" cx="25" cy="26" r="1"/>
	<circle style="fill:#F7B563;" cx="27" cy="28" r="1"/>
	<circle style="fill:#F7B563;" cx="33" cy="26" r="1"/>
	<circle style="fill:#F7B563;" cx="31" cy="28" r="1"/>
	<path style="fill:#FBCE9D;" d="M26.101,54c-3.338-5.577-9.238-9.427-16.083-9.924v6.838c1.33,1.153,2.764,2.188,4.29,3.086
		c3.769,2.22,8.082,3.609,12.692,3.924L26.101,54z"/>
	<g>
		<path style="fill:#C7CAC7;" d="M45.45,36.105c-0.494-0.245-1.094-0.047-1.342,0.447c-0.247,0.494-0.047,1.095,0.447,1.342
			L46.767,39l-2.211,1.105c-0.494,0.247-0.694,0.848-0.447,1.342C44.284,41.798,44.637,42,45.004,42c0.15,0,0.303-0.034,0.446-0.105
			l2.804-1.402c0.091-0.263,0.199-0.522,0.34-0.766c0.296-0.514,0.577-1.062,0.85-1.624L45.45,36.105z"/>
		<path style="fill:#C7CAC7;" d="M13.912,36.553c-0.248-0.494-0.848-0.692-1.342-0.447l-4,2c-0.004,0.002-0.006,0.005-0.01,0.008
			c0.277,0.568,0.562,1.122,0.862,1.642c0.135,0.233,0.238,0.479,0.328,0.729l2.82,1.41C12.714,41.966,12.866,42,13.017,42
			c0.367,0,0.72-0.202,0.896-0.553c0.247-0.494,0.047-1.095-0.447-1.342L11.254,39l2.211-1.105
			C13.959,37.647,14.159,37.047,13.912,36.553z"/>
	</g>
</g>
<g>
</g>
<g>
</g>
<g>
</g>
<g>
</g>
<g>
</g>
<g>
</g>
<g>
</g>
<g>
</g>
<g>
</g>
<g>
</g>
<g>
</g>
<g>
</g>
<g>
</g>
<g>
</g>
<g>
</g>
</svg>
