<?xml version="1.0" encoding="iso-8859-1"?>
<!-- Generator: Adobe Illustrator 18.0.0, SVG Export Plug-In . SVG Version: 6.00 Build 0)  -->
<!DOCTYPE svg PUBLIC "-//W3C//DTD SVG 1.1//EN" "http://www.w3.org/Graphics/SVG/1.1/DTD/svg11.dtd">
<svg version="1.1" id="Capa_1" xmlns="http://www.w3.org/2000/svg" xmlns:xlink="http://www.w3.org/1999/xlink" x="0px" y="0px"
	 viewBox="0 0 56.892 56.892" style="enable-background:new 0 0 56.892 56.892;" xml:space="preserve">
<g>
	<path style="fill:#AFB6BB;" d="M43.996,15.508h4.987c-0.04-0.452-0.223-0.893-0.566-1.237l-4.243-4.243
		c-0.778-0.778-2.051-0.778-2.828,0c-0.778,0.778-0.778,2.051,0,2.828L43.996,15.508z"/>
	<path style="fill:#C7CAC7;" d="M54.417,10.029c-0.778-0.778-2.051-0.778-2.828,0l-3.707,3.707l0.536,0.536
		c0.344,0.344,0.527,0.785,0.566,1.237h2.705c0.025,0,0.048,0.005,0.073,0.005l2.656-2.656
		C55.194,12.08,55.194,10.807,54.417,10.029z"/>
	<g>
		<path style="fill:#FBCE9D;" d="M55.097,21.894c2.022-2.626-0.095-6.448-3.409-6.448l-22.834,0h-2.115c0,0,7.231-1.167,7.231-6H22
			h-5.864c-1.803,0-3.533,0.315-5.136,0.894C5.168,12.443,1,18.026,1,24.582v11.823c0,6.098,4.943,11.041,11.041,11.041h11.14h7.288
			c1.925,0,3.5-1.575,3.5-3.5v-1c0-1.925-1.575-3.5-3.5-3.5h1.038c2.705,0,4.462-1.8,4.462-4s-1.757-4-3.904-4l1.715,0
			c2.086,0,3.958-1.514,4.168-3.59c0.241-2.382-1.644-4.41-3.979-4.41h18.124C53.297,23.446,54.379,22.826,55.097,21.894z"/>
		<path style="fill:#F7B563;" d="M30.469,48.446H12.041C5.401,48.446,0,43.044,0,36.405V24.582C0,17.8,4.284,11.699,10.661,9.399
			c1.753-0.633,3.596-0.953,5.475-0.953h18.833v1c0,2.34-1.342,3.934-2.932,5h19.65c1.992,0,3.783,1.125,4.675,2.937
			c0.847,1.723,0.67,3.638-0.474,5.122c-0.949,1.233-2.333,1.941-3.796,1.941h-14.13c0.752,1,1.106,2.256,0.98,3.511
			c-0.19,1.877-1.5,3.451-3.249,4.131c0.792,0.888,1.274,2.066,1.274,3.358c0,2.069-1.238,3.77-3.108,4.546
			c0.69,0.791,1.108,1.824,1.108,2.954v1C34.969,46.427,32.95,48.446,30.469,48.446z M16.136,10.446
			c-1.647,0-3.261,0.28-4.797,0.834C5.753,13.295,2,18.641,2,24.582v11.823c0,5.537,4.504,10.041,10.041,10.041h18.428
			c1.379,0,2.5-1.121,2.5-2.5v-1c0-1.379-1.121-2.5-2.5-2.5v-2h1.038c2.038,0,3.462-1.233,3.462-3c0-1.654-1.303-3-2.903-3v-2h1.715
			c1.627,0,3.021-1.182,3.173-2.69c0.087-0.855-0.184-1.678-0.761-2.316c-0.571-0.631-1.382-0.993-2.224-0.993v-2h18.124
			c0.837,0,1.644-0.424,2.211-1.161l0.001-0.001c0.668-0.867,0.766-1.995,0.263-3.019c-0.433-0.879-1.416-1.819-2.88-1.819H26.738
			l-0.16-1.987c0.058-0.009,5.292-0.904,6.243-4.013H16.136z"/>
	</g>
	<circle style="fill:#F7B563;" cx="7" cy="35.383" r="1"/>
	<circle style="fill:#F7B563;" cx="11" cy="35.383" r="1"/>
	<circle style="fill:#F7B563;" cx="7" cy="39.383" r="1"/>
	<circle style="fill:#F7B563;" cx="9" cy="37.383" r="1"/>
	<circle style="fill:#F7B563;" cx="11" cy="39.383" r="1"/>
	<circle style="fill:#F7B563;" cx="13" cy="41.383" r="1"/>
	<path style="fill:#F7B563;" d="M27.969,16.446H18c-0.553,0-1-0.447-1-1s0.447-1,1-1h9.969c0.553,0,1,0.447,1,1
		S28.521,16.446,27.969,16.446z"/>
	<path style="fill:#F7B563;" d="M34.969,24.446H22c-0.553,0-1-0.447-1-1s0.447-1,1-1h12.969c0.553,0,1,0.447,1,1
		S35.521,24.446,34.969,24.446z"/>
	<path style="fill:#F7B563;" d="M32.969,32.446H23c-0.553,0-1-0.447-1-1s0.447-1,1-1h9.969c0.553,0,1,0.447,1,1
		S33.521,32.446,32.969,32.446z"/>
	<path style="fill:#F7B563;" d="M30.969,40.446H25c-0.553,0-1-0.447-1-1s0.447-1,1-1h5.969c0.553,0,1,0.447,1,1
		S31.521,40.446,30.969,40.446z"/>
	<path style="fill:#F7B563;" d="M30,21.446c-0.553,0-1-0.447-1-1v-2c0-0.553,0.447-1,1-1s1,0.447,1,1v2
		C31,20.999,30.553,21.446,30,21.446z"/>
	<path style="fill:#F7B563;" d="M33,21.446c-0.553,0-1-0.447-1-1v-2c0-0.553,0.447-1,1-1s1,0.447,1,1v2
		C34,20.999,33.553,21.446,33,21.446z"/>
	<rect x="45" y="14.446" style="fill:#E7ECED;" width="5" height="10"/>
</g>
<g>
</g>
<g>
</g>
<g>
</g>
<g>
</g>
<g>
</g>
<g>
</g>
<g>
</g>
<g>
</g>
<g>
</g>
<g>
</g>
<g>
</g>
<g>
</g>
<g>
</g>
<g>
</g>
<g>
</g>
</svg>
