<?xml version="1.0" encoding="iso-8859-1"?>
<!-- Generator: Adobe Illustrator 18.0.0, SVG Export Plug-In . SVG Version: 6.00 Build 0)  -->
<!DOCTYPE svg PUBLIC "-//W3C//DTD SVG 1.1//EN" "http://www.w3.org/Graphics/SVG/1.1/DTD/svg11.dtd">
<svg version="1.1" id="Capa_1" xmlns="http://www.w3.org/2000/svg" xmlns:xlink="http://www.w3.org/1999/xlink" x="0px" y="0px"
	 viewBox="0 0 60 60" style="enable-background:new 0 0 60 60;" xml:space="preserve">
<g>
	<g>
		<path style="fill:#FBCE9D;" d="M52.101,23.448C54.123,20.823,52.005,17,48.692,17H28.853h-2.115c0,0,7.231-1.167,7.231-6H22
			h-5.864c-1.803,0-3.533,0.315-5.136,0.894C5.168,13.997,1,19.58,1,26.136v11.823C1,44.057,5.943,49,12.041,49h11.14h7.288
			c1.925,0,3.5-1.575,3.5-3.5v-1c0-1.925-1.575-3.5-3.5-3.5h1.038c2.705,0,4.462-1.8,4.462-4s-1.757-4-3.904-4h1.715
			c2.086,0,3.958-1.514,4.168-3.59c0.241-2.382-1.644-4.41-3.979-4.41h15.127C50.301,25,51.383,24.38,52.101,23.448z"/>
		<path style="fill:#F7B563;" d="M30.469,50H12.041C5.401,50,0,44.599,0,37.959V26.136c0-6.781,4.284-12.883,10.661-15.183
			C12.414,10.32,14.257,10,16.136,10h18.833v1c0,2.34-1.342,3.934-2.932,5h16.654c1.992,0,3.783,1.125,4.675,2.937
			c0.847,1.723,0.67,3.638-0.474,5.122C51.943,25.292,50.56,26,49.097,26H37.963c0.752,1,1.106,2.256,0.98,3.511
			c-0.19,1.877-1.5,3.451-3.249,4.131c0.792,0.888,1.274,2.066,1.274,3.358c0,2.069-1.238,3.77-3.108,4.546
			c0.69,0.791,1.108,1.824,1.108,2.954v1C34.969,47.981,32.95,50,30.469,50z M16.136,12c-1.647,0-3.261,0.28-4.797,0.834
			C5.753,14.85,2,20.195,2,26.136v11.823C2,43.496,6.504,48,12.041,48h18.428c1.379,0,2.5-1.121,2.5-2.5v-1
			c0-1.379-1.121-2.5-2.5-2.5v-2h1.038c2.038,0,3.462-1.233,3.462-3c0-1.654-1.303-3-2.903-3v-2h1.715
			c1.627,0,3.021-1.182,3.173-2.69c0.087-0.855-0.184-1.678-0.761-2.316C35.621,26.362,34.811,26,33.969,26v-2h15.128
			c0.837,0,1.644-0.424,2.211-1.161l0.001-0.001c0.668-0.867,0.766-1.995,0.263-3.019C51.139,18.94,50.155,18,48.691,18H26.738
			l-0.16-1.987c0.058-0.009,5.292-0.904,6.243-4.013H16.136z"/>
	</g>
	<circle style="fill:#F7B563;" cx="7" cy="37" r="1"/>
	<circle style="fill:#F7B563;" cx="11" cy="37" r="1"/>
	<circle style="fill:#F7B563;" cx="7" cy="41" r="1"/>
	<circle style="fill:#F7B563;" cx="9" cy="39" r="1"/>
	<circle style="fill:#F7B563;" cx="11" cy="41" r="1"/>
	<circle style="fill:#F7B563;" cx="13" cy="43" r="1"/>
	<path style="fill:#F7B563;" d="M27.969,18H18c-0.553,0-1-0.447-1-1s0.447-1,1-1h9.969c0.553,0,1,0.447,1,1S28.521,18,27.969,18z"/>
	<path style="fill:#F7B563;" d="M34.969,26H22c-0.553,0-1-0.447-1-1s0.447-1,1-1h12.969c0.553,0,1,0.447,1,1S35.521,26,34.969,26z"
		/>
	<path style="fill:#F7B563;" d="M32.969,34H23c-0.553,0-1-0.447-1-1s0.447-1,1-1h9.969c0.553,0,1,0.447,1,1S33.521,34,32.969,34z"/>
	<path style="fill:#F7B563;" d="M30.969,42H25c-0.553,0-1-0.447-1-1s0.447-1,1-1h5.969c0.553,0,1,0.447,1,1S31.521,42,30.969,42z"/>
	<path style="fill:#F7B563;" d="M30,23c-0.553,0-1-0.447-1-1v-2c0-0.553,0.447-1,1-1s1,0.447,1,1v2C31,22.553,30.553,23,30,23z"/>
	<path style="fill:#F7B563;" d="M33,23c-0.553,0-1-0.447-1-1v-2c0-0.553,0.447-1,1-1s1,0.447,1,1v2C34,22.553,33.553,23,33,23z"/>
	<path style="fill:#EBBA16;" d="M55.031,18c-0.256,0-0.512-0.098-0.707-0.293c-0.391-0.391-0.391-1.023,0-1.414l2-2
		c0.391-0.391,1.023-0.391,1.414,0s0.391,1.023,0,1.414l-2,2C55.543,17.902,55.287,18,55.031,18z"/>
	<path style="fill:#EBBA16;" d="M57.031,28c-0.256,0-0.512-0.098-0.707-0.293l-2-2c-0.391-0.391-0.391-1.023,0-1.414
		s1.023-0.391,1.414,0l2,2c0.391,0.391,0.391,1.023,0,1.414C57.543,27.902,57.287,28,57.031,28z"/>
	<path style="fill:#EBBA16;" d="M51.031,15c-0.553,0-1-0.447-1-1v-2c0-0.553,0.447-1,1-1s1,0.447,1,1v2
		C52.031,14.553,51.584,15,51.031,15z"/>
	<path style="fill:#EBBA16;" d="M52.031,31c-0.553,0-1-0.447-1-1v-2c0-0.553,0.447-1,1-1s1,0.447,1,1v2
		C53.031,30.553,52.584,31,52.031,31z"/>
	<path style="fill:#EBBA16;" d="M59,22h-2c-0.553,0-1-0.447-1-1s0.447-1,1-1h2c0.553,0,1,0.447,1,1S59.553,22,59,22z"/>
	<rect x="45" y="19" style="fill:#F7B563;" width="2" height="4"/>
</g>
<g>
</g>
<g>
</g>
<g>
</g>
<g>
</g>
<g>
</g>
<g>
</g>
<g>
</g>
<g>
</g>
<g>
</g>
<g>
</g>
<g>
</g>
<g>
</g>
<g>
</g>
<g>
</g>
<g>
</g>
</svg>
