<?xml version="1.0" encoding="iso-8859-1"?>
<!-- Generator: Adobe Illustrator 18.0.0, SVG Export Plug-In . SVG Version: 6.00 Build 0)  -->
<!DOCTYPE svg PUBLIC "-//W3C//DTD SVG 1.1//EN" "http://www.w3.org/Graphics/SVG/1.1/DTD/svg11.dtd">
<svg version="1.1" id="Capa_1" xmlns="http://www.w3.org/2000/svg" xmlns:xlink="http://www.w3.org/1999/xlink" x="0px" y="0px"
	 viewBox="0 0 58 58" style="enable-background:new 0 0 58 58;" xml:space="preserve">
<g>
	<g>
		<path style="fill:#61B872;" d="M58,29c0-7.03-2.502-13.474-6.663-18.494l-0.009,0.045C50.445,14.839,50,19.206,50,23.584V35H8
			V23.584c0-4.378-0.445-8.745-1.328-13.033l-0.009-0.045C2.502,15.526,0,21.97,0,29c0,7.751,3.047,14.785,8,19.988V40h42v8.988
			C54.953,43.785,58,36.751,58,29z"/>
	</g>
	<path style="fill:#FBCE9D;" d="M50,35V23.584c0-4.378,0.445-8.745,1.328-13.033l0.009-0.045C46.018,4.089,37.987,0,29,0
		S11.982,4.089,6.663,10.506l0.009,0.045C7.555,14.839,8,19.206,8,23.584V35H50z"/>
	<path style="fill:#F7B563;" d="M24,20.992c-2.062,0-4.125-0.758-5.694-2.272c-0.397-0.384-0.409-1.017-0.025-1.414
		c0.384-0.396,1.018-0.409,1.414-0.025c2.374,2.291,6.237,2.291,8.611,0c0.397-0.384,1.03-0.371,1.414,0.025
		c0.383,0.397,0.372,1.03-0.025,1.414C28.125,20.234,26.062,20.992,24,20.992z"/>
	<path style="fill:#F7B563;" d="M34,20.992c-2.062,0-4.125-0.758-5.694-2.272c-0.397-0.384-0.409-1.017-0.025-1.414
		c0.384-0.396,1.018-0.409,1.414-0.025c2.374,2.291,6.237,2.291,8.611,0c0.397-0.384,1.031-0.371,1.414,0.025
		c0.383,0.397,0.372,1.03-0.025,1.414C38.125,20.234,36.062,20.992,34,20.992z"/>
	<path style="fill:#F7B563;" d="M25.5,31c-1.65,0-3.181-0.856-4.31-2.413c-0.324-0.447-0.225-1.072,0.222-1.396
		c0.448-0.325,1.072-0.224,1.397,0.223C23.552,28.437,24.507,29,25.5,29s1.948-0.563,2.69-1.587c0.325-0.446,0.95-0.547,1.397-0.223
		s0.546,0.949,0.222,1.396C28.681,30.144,27.15,31,25.5,31z"/>
	<path style="fill:#F7B563;" d="M32.5,31c-1.65,0-3.181-0.856-4.31-2.413c-0.324-0.447-0.225-1.072,0.222-1.396
		c0.448-0.325,1.072-0.224,1.397,0.223C30.552,28.437,31.507,29,32.5,29s1.948-0.563,2.69-1.587c0.325-0.446,0.95-0.547,1.397-0.223
		s0.546,0.949,0.222,1.396C35.681,30.144,34.15,31,32.5,31z"/>
	<path style="fill:#F7B563;" d="M18.001,36c-0.367,0-0.72-0.202-0.896-0.553l-3-6c-0.247-0.494-0.047-1.095,0.447-1.342
		c0.496-0.246,1.095-0.046,1.342,0.447l3,6c0.247,0.494,0.047,1.095-0.447,1.342C18.304,35.966,18.151,36,18.001,36z"/>
	<path style="fill:#F7B563;" d="M39.999,36c-0.15,0-0.303-0.034-0.446-0.105c-0.494-0.247-0.694-0.848-0.447-1.342l3-6
		c0.247-0.493,0.846-0.693,1.342-0.447c0.494,0.247,0.694,0.848,0.447,1.342l-3,6C40.719,35.798,40.366,36,39.999,36z"/>
	<g>
		<path style="fill:#E7ECED;" d="M37,41.5c0-0.855,0.089-1.689,0.241-2.5H20.759C20.912,39.811,21,40.645,21,41.5
			c0,3.39-1.262,6.476-3.327,8.843c-1.12-0.731-2.319-1.351-3.576-1.856v0.459c3.325,1.799,6.218,4.664,8.417,7.689
			c0.185,0.255-0.049,0.605-0.353,0.546C24.355,57.712,26.643,58,29,58c2.359,0,4.65-0.289,6.846-0.82
			c-0.304,0.06-0.539-0.291-0.354-0.546c2.167-2.98,5.006-5.808,8.269-7.611v-0.479c-1.206,0.494-2.355,1.098-3.433,1.802
			C38.262,47.977,37,44.891,37,41.5z"/>
		<path style="fill:#E7ECED;" d="M43.761,53.961v-0.008c-1.798,1.067-3.721,1.946-5.742,2.61
			C40.04,55.901,41.963,55.026,43.761,53.961z"/>
		<path style="fill:#E7ECED;" d="M14.097,53.879c1.83,1.099,3.792,1.997,5.856,2.674c-2.064-0.681-4.024-1.589-5.856-2.69V53.879z"
			/>
		<path style="fill:#E7ECED;" d="M20.063,56.59c0.655,0.212,1.32,0.401,1.994,0.567C21.383,56.991,20.717,56.803,20.063,56.59z"/>
		<path style="fill:#E7ECED;" d="M35.946,57.156c0.661-0.163,1.313-0.347,1.956-0.554C37.26,56.81,36.607,56.994,35.946,57.156z"/>
	</g>
	<rect x="8" y="34.106" style="fill:#556080;" width="17" height="5.894"/>
	<rect x="33" y="34.106" style="fill:#556080;" width="17" height="5.894"/>
	<path style="fill:#FFFFFF;" d="M22,42.733c0-0.934-0.096-1.844-0.26-2.729L8.003,40c0,6.533,0,6.537,0,6.541V48.8
		c3.829,0.281,7.379,1.553,10.415,3.555C20.641,49.779,22,46.422,22,42.733z"/>
	<path style="fill:#FFFFFF;" d="M36.26,40C36.095,40.884,36,41.792,36,42.724c0,3.69,1.359,7.048,3.584,9.624
		c3.036-2.003,6.587-3.276,10.418-3.557v-8.787L36.26,40z"/>
	<g>
		<line style="fill:#FFFFFF;" x1="29" y1="39" x2="29" y2="46"/>
		<path style="fill:#FFFFFF;" d="M29,47c-0.552,0-1-0.447-1-1v-7c0-0.553,0.448-1,1-1s1,0.447,1,1v7C30,46.553,29.552,47,29,47z"/>
	</g>
	<rect x="25" y="34.094" style="fill:#FFFFFF;" width="8" height="5.886"/>
	<path style="fill:#FBCE9D;" d="M50.003,48.985v-1.91c-5.877,0.427-11.051,4.8-14.511,9.558c-0.189,0.259,0.057,0.623,0.368,0.547
		C41.353,55.848,46.23,52.948,50.003,48.985z"/>
	<path style="fill:#FBCE9D;" d="M8.003,48.991c3.773,3.962,8.651,6.86,14.144,8.192c0.312,0.076,0.557-0.288,0.368-0.547
		c-3.46-4.759-8.634-9.133-14.512-9.56V48.991z"/>
	<path style="fill:#F7B563;" d="M52.092,11.699l0.046-0.179c-0.453-0.599-0.931-1.177-1.428-1.738
		c-0.175,0.141-0.312,0.33-0.361,0.567c-0.028,0.138-0.052,0.276-0.075,0.415l-0.025,0.141C49.189,12.817,47.191,14,45,14
		c-0.552,0-1,0.447-1,1s0.448,1,1,1C47.988,16,50.706,14.352,52.092,11.699z"/>
	<path style="fill:#F7B563;" d="M13,14c-2.192,0-4.189-1.183-5.248-3.096l-0.026-0.148c-0.023-0.136-0.046-0.271-0.074-0.407
		c-0.049-0.237-0.187-0.425-0.363-0.565c-0.501,0.565-0.982,1.148-1.438,1.751l0.058,0.165C7.294,14.352,10.011,16,13,16
		c0.552,0,1-0.447,1-1S13.552,14,13,14z"/>
</g>
<g>
</g>
<g>
</g>
<g>
</g>
<g>
</g>
<g>
</g>
<g>
</g>
<g>
</g>
<g>
</g>
<g>
</g>
<g>
</g>
<g>
</g>
<g>
</g>
<g>
</g>
<g>
</g>
<g>
</g>
</svg>
