<?xml version="1.0" encoding="iso-8859-1"?>
<!-- Generator: Adobe Illustrator 18.0.0, SVG Export Plug-In . SVG Version: 6.00 Build 0)  -->
<!DOCTYPE svg PUBLIC "-//W3C//DTD SVG 1.1//EN" "http://www.w3.org/Graphics/SVG/1.1/DTD/svg11.dtd">
<svg version="1.1" id="Capa_1" xmlns="http://www.w3.org/2000/svg" xmlns:xlink="http://www.w3.org/1999/xlink" x="0px" y="0px"
	 viewBox="0 0 58 58" style="enable-background:new 0 0 58 58;" xml:space="preserve">
<g>
	<path style="fill:#E7ECED;" d="M29,0C20.605,0,13.048,3.571,7.752,9.272c1.149,7.77,2.361,15.808,5.394,23.015
		c0.641,1.524,1.853,4.662,3.599,4.662c1.644-0.685,2.313-2.217,2.919-3.747c1.311-3.31,2.094-6.767,4.161-9.743
		c2.04-2.937,5.307-5.047,8.829-2.982c3.535,2.072,3.909,6.57,5.058,10.053c0.935,2.833,3.305,9.532,6.28,4.402
		c1.88-3.241,2.564-6.923,3.383-10.519c1.043-4.581,2.495-9.7,3.203-14.784C45.268,3.719,37.57,0,29,0z"/>
	<path style="fill:#ED9893;" d="M0.05,30.648C0.904,45.897,13.537,58,29,58s28.096-12.103,28.95-27.352
		c0.006-0.106,0.011-0.212,0.016-0.318C57.986,29.889,58,29.446,58,29c0-0.605-0.024-1.204-0.061-1.8
		c-0.01-0.168-0.025-0.336-0.038-0.503c-0.036-0.456-0.082-0.91-0.139-1.36c-0.019-0.149-0.036-0.3-0.057-0.448
		c-0.17-1.194-0.412-2.365-0.723-3.508c-0.026-0.097-0.055-0.194-0.083-0.291c-0.146-0.516-0.305-1.027-0.479-1.531
		c-0.021-0.06-0.04-0.12-0.061-0.179c-0.41-1.164-0.891-2.294-1.44-3.385c-0.013-0.026-0.026-0.051-0.039-0.076
		c-0.276-0.544-3.435,13.626-4.942,20.351c-0.918,4.094-1.685,8.286-3.791,11.976c-3.333,5.841-5.989-1.786-7.036-5.012
		c-1.287-3.965-1.706-9.087-5.667-11.446c-3.946-2.35-7.607,0.052-9.893,3.396c-2.316,3.388-3.194,7.325-4.663,11.094
		c-0.679,1.742-1.428,3.486-3.271,4.266c-1.956,0-3.314-3.573-4.032-5.308c-3.92-9.466-5.125-20.193-6.639-30.255
		c-0.01-0.068-0.063-0.15-0.142-0.238c-0.212-0.237-0.481-0.389-0.766-0.502c-0.305,0.514-0.592,1.04-0.865,1.574
		c-0.025,0.049-0.051,0.098-0.076,0.148c-0.548,1.085-1.029,2.209-1.44,3.366c-0.023,0.064-0.043,0.129-0.065,0.193
		c-0.172,0.497-0.33,1.002-0.476,1.511c-0.031,0.109-0.063,0.219-0.093,0.329c-0.312,1.143-0.556,2.315-0.727,3.51
		c-0.021,0.149-0.038,0.298-0.057,0.448c-0.058,0.453-0.104,0.909-0.141,1.368c-0.013,0.169-0.028,0.337-0.038,0.506
		C0.025,27.791,0,28.392,0,29c0,0.446,0.014,0.889,0.034,1.33C0.038,30.436,0.044,30.542,0.05,30.648z"/>
	<circle style="fill:#AF6868;" cx="53" cy="39" r="1"/>
	<circle style="fill:#AF6868;" cx="55" cy="30" r="1"/>
	<circle style="fill:#AF6868;" cx="34.231" cy="38.949" r="1"/>
	<circle style="fill:#AF6868;" cx="37.231" cy="49.949" r="1"/>
	<circle style="fill:#AF6868;" cx="5" cy="38" r="1"/>
	<circle style="fill:#AF6868;" cx="3.231" cy="30.949" r="1"/>
	<circle style="fill:#AF6868;" cx="26.731" cy="47.449" r="3.5"/>
	<path style="fill:#FFFFFF;" d="M22.625,6.073C17.252,6.92,14.169,12.36,15.42,17.47c0.92,3.757,6.706,2.163,5.786-1.595
		c-0.542-2.213,0.939-3.69,3.014-4.017c1.618-0.255,2.492-2.249,2.095-3.69C25.846,6.46,24.239,5.818,22.625,6.073L22.625,6.073z"/>
	<path style="fill:#FFFFFF;" d="M34.027,5.006c7.326,1.915,6.997,9.283,6.011,15.376c-0.612,3.784,5.169,5.407,5.786,1.595
		c1.074-6.64,0.955-13.823-3.021-18.476c-3.105-1.685-6.55-2.819-10.208-3.272C31.427,1.756,31.617,4.376,34.027,5.006z"/>
	<g>
		<path style="fill:#3E465B;" d="M50.574,9.647c-0.708,5.078-2.158,10.19-3.2,14.766c-0.819,3.596-1.504,7.277-3.383,10.519
			c-2.974,5.13-5.345-1.568-6.28-4.402c-1.149-3.483-1.523-7.981-5.058-10.053c-3.522-2.064-6.789,0.046-8.829,2.982
			c-2.067,2.976-2.851,6.434-4.161,9.743c-0.606,1.53-1.275,3.062-2.919,3.747c-1.746,0-2.957-3.139-3.599-4.662
			C10.113,25.08,8.901,17.042,7.752,9.272c-1.407,1.514-2.647,3.182-3.707,4.971c0.282,0.113,0.549,0.264,0.759,0.499
			c0.079,0.088,0.132,0.17,0.142,0.238c1.514,10.062,2.719,20.789,6.639,30.255c0.719,1.735,2.076,5.308,4.032,5.308
			c1.843-0.78,2.592-2.524,3.271-4.266c1.469-3.768,2.346-7.705,4.663-11.094c2.286-3.343,5.946-5.746,9.893-3.396
			c3.961,2.359,4.38,7.481,5.667,11.446c1.047,3.226,3.703,10.852,7.036,5.012c2.106-3.691,2.873-7.882,3.791-11.976
			c1.507-6.725,4.666-20.894,4.942-20.351C53.723,13.636,52.266,11.534,50.574,9.647z"/>
	</g>
</g>
<g>
</g>
<g>
</g>
<g>
</g>
<g>
</g>
<g>
</g>
<g>
</g>
<g>
</g>
<g>
</g>
<g>
</g>
<g>
</g>
<g>
</g>
<g>
</g>
<g>
</g>
<g>
</g>
<g>
</g>
</svg>
