<?xml version="1.0" encoding="iso-8859-1"?>
<!-- Generator: Adobe Illustrator 18.0.0, SVG Export Plug-In . SVG Version: 6.00 Build 0)  -->
<!DOCTYPE svg PUBLIC "-//W3C//DTD SVG 1.1//EN" "http://www.w3.org/Graphics/SVG/1.1/DTD/svg11.dtd">
<svg version="1.1" id="Capa_1" xmlns="http://www.w3.org/2000/svg" xmlns:xlink="http://www.w3.org/1999/xlink" x="0px" y="0px"
	 viewBox="0 0 58.888 58.888" style="enable-background:new 0 0 58.888 58.888;" xml:space="preserve">
<g>
	<path style="fill:#ED9893;" d="M5.391,19.919c-0.051-0.34-0.087-0.685-0.123-1.031H4.213c-2.081,0-3.769,1.687-3.769,3.769V55.12
		c0,2.082,1.687,3.769,3.769,3.769h50.462c2.081,0,3.769-1.687,3.769-3.769V22.657c0-2.081-1.687-3.769-3.769-3.769h-0.251"/>
	<path style="fill:#E7ECED;" d="M53.577,10.797c2.533,9.574-1.084,20.991-3.195,30.411c-0.918,4.094-1.685,8.286-3.791,11.976
		c-3.333,5.841-5.989-1.786-7.036-5.012c-1.287-3.965-1.706-9.087-5.667-11.446c-3.946-2.35-7.607,0.052-9.893,3.396
		c-2.316,3.388-3.194,7.325-4.663,11.093c-0.679,1.743-1.428,3.486-3.271,4.266c-1.956,0-3.314-3.573-4.032-5.308
		c-3.92-9.466-5.125-20.193-6.639-30.255C4.326,12.84,6.621,4.426,13.975,1.82c3.996-1.416,9.469-0.11,13.47,1.069
		c2.299,0.678,1.875,0.457,4.165-0.338c0.176-0.061,0.349-0.143,0.529-0.218C37.039,0.306,42.947,0.29,47.26,3.064
		C50.172,4.936,52.736,7.614,53.577,10.797z"/>
	<g>
		<path style="fill:#F0F6F7;" d="M53.56,10.898c-0.842-3.183-3.406-5.861-6.317-7.733c-4.314-2.774-10.221-2.758-15.122-0.731
			c-0.18,0.074-0.352,0.157-0.529,0.218c-2.29,0.794-1.867,1.015-4.165,0.338c-4-1.179-9.474-2.485-13.469-1.069
			c-7.354,2.605-4.972,9.752,0.3,7.884c3.996-1.416,9.469-0.11,13.469,1.069c2.299,0.678,1.875,0.457,4.165-0.338
			c0.176-0.061,0.349-0.143,0.529-0.218c4.901-2.027,10.809-2.043,15.122,0.731C50.454,12.922,54.402,14.082,53.56,10.898z"/>
	</g>
	<path style="fill:#FFFFFF;" d="M22.029,5.705c-0.556-0.653-1.339-0.796-2.165-0.677c-1.72,0.247-3.429,0.627-5.137,0.947
		c-2.084,0.39-3.621,1.806-2.357,3.986c1.128,1.945,4.197,1.817,6.158,1.238c0.237,0.014,0.484-0.047,0.711-0.224
		C20.415,10.059,23.522,7.457,22.029,5.705z"/>
	<path style="fill:#FFFFFF;" d="M41.833,5.888c0.292,0,0.583,0,0.875,0c1.29,0,1.29-2,0-2c-0.292,0-0.583,0-0.875,0
		C40.543,3.888,40.543,5.888,41.833,5.888L41.833,5.888z"/>
	<g>
		<circle style="fill:#AF6868;" cx="52.675" cy="49.888" r="1"/>
		<circle style="fill:#AF6868;" cx="55.675" cy="39.888" r="1"/>
		<circle style="fill:#AF6868;" cx="34.675" cy="43.888" r="1"/>
		<circle style="fill:#AF6868;" cx="37.675" cy="54.888" r="1"/>
		<circle style="fill:#AF6868;" cx="5.675" cy="51.888" r="1"/>
		<circle style="fill:#AF6868;" cx="3.675" cy="35.888" r="1"/>
		<path style="fill:#AF6868;" d="M27.175,47.888c-2.481,0-4.5,2.019-4.5,4.5s2.019,4.5,4.5,4.5s4.5-2.019,4.5-4.5
			S29.657,47.888,27.175,47.888z"/>
	</g>
	<g>
		<path style="fill:#7383BF;" d="M50.59,7.323c-0.027,0-0.055-0.001-0.083-0.003c-0.551-0.046-0.96-0.528-0.915-1.079
			c0.001-0.012,0.002-0.024,0.003-0.036c-0.007-0.008-0.015-0.015-0.022-0.022c-0.394-0.387-0.399-1.021-0.012-1.414
			c0.387-0.395,1.021-0.399,1.414-0.012c0.125,0.123,0.248,0.249,0.369,0.375l0.3,0.313l-0.022,0.433
			c-0.01,0.177-0.021,0.353-0.035,0.528C51.543,6.927,51.106,7.323,50.59,7.323z"/>
		<path style="fill:#7383BF;" d="M29.588,24.888c-0.142,0-0.288-0.002-0.433-0.005c-0.552-0.014-0.989-0.472-0.976-1.023
			s0.514-0.97,1.023-0.977c0.156,0.004,0.313,0.006,0.467,0.005c0.171,0,0.336-0.002,0.5-0.006c0.532-0.016,1.01,0.425,1.022,0.978
			c0.013,0.552-0.425,1.01-0.977,1.022C30.007,24.887,29.801,24.89,29.588,24.888z M25.154,24.446c-0.066,0-0.132-0.006-0.199-0.02
			c-0.347-0.07-0.69-0.146-1.03-0.229c-0.536-0.132-0.864-0.674-0.733-1.21c0.131-0.537,0.671-0.866,1.209-0.733
			c0.313,0.077,0.63,0.147,0.95,0.212c0.542,0.11,0.892,0.638,0.782,1.179C26.037,24.119,25.62,24.446,25.154,24.446z
			 M34.217,24.442c-0.467,0-0.885-0.329-0.979-0.805c-0.108-0.541,0.243-1.068,0.785-1.176c0.318-0.063,0.633-0.134,0.945-0.211
			c0.532-0.131,1.078,0.192,1.211,0.729c0.133,0.536-0.194,1.079-0.73,1.212c-0.341,0.085-0.687,0.161-1.035,0.23
			C34.347,24.436,34.282,24.442,34.217,24.442z M20.334,22.907c-0.138,0-0.278-0.028-0.411-0.089
			c-0.323-0.146-0.641-0.299-0.955-0.458c-0.492-0.25-0.689-0.852-0.439-1.344c0.25-0.492,0.851-0.692,1.344-0.439
			c0.287,0.146,0.578,0.285,0.873,0.419c0.503,0.228,0.727,0.819,0.5,1.323C21.079,22.688,20.715,22.907,20.334,22.907z
			 M39.035,22.897c-0.381,0-0.745-0.219-0.912-0.588c-0.228-0.504-0.004-1.096,0.5-1.323c0.294-0.133,0.584-0.272,0.87-0.419
			c0.492-0.251,1.094-0.056,1.345,0.436c0.251,0.491,0.057,1.094-0.435,1.346c-0.314,0.16-0.633,0.313-0.957,0.46
			C39.313,22.869,39.172,22.897,39.035,22.897z M16.002,20.3c-0.216,0-0.433-0.069-0.616-0.213c-0.279-0.218-0.553-0.441-0.82-0.672
			c-0.418-0.36-0.466-0.991-0.105-1.41c0.36-0.418,0.991-0.467,1.41-0.105c0.244,0.209,0.493,0.413,0.748,0.613
			c0.435,0.34,0.512,0.969,0.171,1.403C16.592,20.168,16.298,20.3,16.002,20.3z M43.366,20.284c-0.297,0-0.591-0.132-0.789-0.385
			c-0.34-0.435-0.263-1.063,0.172-1.403c0.254-0.198,0.503-0.402,0.745-0.612c0.418-0.362,1.05-0.316,1.411,0.102
			c0.362,0.417,0.316,1.049-0.101,1.41c-0.268,0.231-0.542,0.457-0.823,0.677C43.798,20.215,43.581,20.284,43.366,20.284z
			 M12.436,16.717c-0.3,0-0.597-0.135-0.794-0.392c-0.216-0.282-0.425-0.57-0.625-0.863c-0.312-0.456-0.195-1.078,0.261-1.39
			c0.455-0.313,1.078-0.195,1.39,0.261c0.18,0.264,0.368,0.522,0.562,0.775c0.336,0.438,0.253,1.066-0.185,1.402
			C12.862,16.649,12.648,16.717,12.436,16.717z M46.927,16.694c-0.212,0-0.425-0.067-0.606-0.205
			c-0.438-0.336-0.522-0.964-0.187-1.402c0.195-0.256,0.383-0.516,0.564-0.779c0.311-0.456,0.933-0.573,1.39-0.261
			c0.456,0.312,0.572,0.934,0.261,1.39c-0.2,0.293-0.409,0.582-0.625,0.865C47.526,16.559,47.228,16.694,46.927,16.694z
			 M9.936,12.329c-0.398,0-0.775-0.239-0.93-0.632c-0.131-0.332-0.253-0.667-0.366-1.006c-0.174-0.523,0.109-1.09,0.633-1.265
			c0.525-0.171,1.09,0.109,1.265,0.634c0.101,0.304,0.21,0.604,0.328,0.9c0.204,0.514-0.048,1.095-0.562,1.298
			C10.183,12.306,10.058,12.329,9.936,12.329z M49.423,12.301c-0.123,0-0.247-0.022-0.368-0.07
			c-0.514-0.203-0.765-0.784-0.562-1.298c0.117-0.296,0.226-0.595,0.326-0.898c0.173-0.524,0.74-0.806,1.264-0.635
			c0.524,0.174,0.809,0.739,0.635,1.264c-0.112,0.339-0.234,0.675-0.365,1.006C50.198,12.061,49.822,12.301,49.423,12.301z
			 M8.765,7.416c-0.513,0-0.949-0.392-0.995-0.912C7.742,6.188,7.723,5.873,7.711,5.554L7.698,5.181l0.325-0.399
			c0.358-0.42,0.989-0.473,1.409-0.114C9.76,4.947,9.864,5.392,9.723,5.775c0.01,0.185,0.023,0.369,0.04,0.553
			c0.049,0.55-0.358,1.035-0.908,1.084C8.824,7.415,8.794,7.416,8.765,7.416z M47.098,3.963c-0.181,0-0.363-0.049-0.527-0.151
			c-0.265-0.164-0.536-0.317-0.813-0.46c-0.49-0.254-0.683-0.857-0.429-1.348c0.253-0.49,0.857-0.682,1.347-0.43
			c0.324,0.168,0.642,0.347,0.951,0.54c0.469,0.292,0.612,0.908,0.32,1.377C47.758,3.796,47.432,3.963,47.098,3.963z M27.584,3.932
			c-0.084,0-0.171-0.012-0.26-0.037c-0.001-0.001-0.09-0.026-0.091-0.027l-0.879-0.254c-0.531-0.151-0.839-0.704-0.688-1.235
			c0.151-0.53,0.702-0.842,1.235-0.688l0.826,0.238c0.529,0.156,0.911,0.733,0.757,1.263C28.355,3.632,28.003,3.932,27.584,3.932z
			 M11.856,3.81c-0.341,0-0.673-0.174-0.86-0.488c-0.282-0.475-0.126-1.089,0.348-1.371c0.312-0.186,0.636-0.359,0.971-0.521
			c0.498-0.238,1.095-0.031,1.335,0.468c0.24,0.497,0.031,1.095-0.467,1.335C12.9,3.367,12.628,3.513,12.366,3.67
			C12.206,3.765,12.029,3.81,11.856,3.81z M31.493,3.592c-0.419,0-0.809-0.265-0.949-0.684c-0.175-0.524,0.108-1.091,0.632-1.265
			l0.433,0.908l-0.33-0.944c0.095-0.033,0.188-0.074,0.282-0.115l0.503-0.207c0.515-0.204,1.095,0.049,1.298,0.562
			c0.204,0.514-0.048,1.095-0.562,1.298l-0.445,0.184c-0.14,0.061-0.278,0.119-0.417,0.168l-0.13,0.044
			C31.704,3.575,31.597,3.592,31.493,3.592z M22.687,2.699c-0.063,0-0.125-0.006-0.189-0.018c-0.321-0.062-0.644-0.12-0.969-0.172
			c-0.545-0.087-0.917-0.601-0.829-1.146c0.087-0.547,0.6-0.917,1.146-0.829c0.345,0.056,0.688,0.116,1.029,0.182
			c0.542,0.104,0.897,0.628,0.793,1.171C23.576,2.366,23.157,2.699,22.687,2.699z M16.635,2.263c-0.513,0-0.949-0.392-0.995-0.912
			c-0.048-0.551,0.358-1.036,0.909-1.084c0.354-0.031,0.713-0.051,1.077-0.06c0.544,0,1.01,0.425,1.022,0.978
			c0.013,0.552-0.424,1.01-0.977,1.022c-0.319,0.007-0.636,0.024-0.948,0.052C16.694,2.262,16.665,2.263,16.635,2.263z M42.39,2.168
			c-0.062,0-0.124-0.006-0.187-0.018c-0.31-0.059-0.623-0.106-0.938-0.146c-0.548-0.066-0.938-0.565-0.872-1.113
			c0.067-0.549,0.57-0.956,1.114-0.871c0.358,0.043,0.714,0.099,1.066,0.165c0.542,0.103,0.899,0.625,0.797,1.168
			C43.281,1.833,42.861,2.168,42.39,2.168z M36.334,2.137c-0.48,0-0.904-0.347-0.985-0.836c-0.091-0.544,0.277-1.06,0.822-1.15
			c0.352-0.059,0.706-0.107,1.059-0.146c0.544-0.052,1.043,0.335,1.104,0.884c0.061,0.55-0.335,1.044-0.884,1.104
			c-0.317,0.035-0.634,0.078-0.95,0.131C36.444,2.134,36.388,2.137,36.334,2.137z"/>
	</g>
</g>
<g>
</g>
<g>
</g>
<g>
</g>
<g>
</g>
<g>
</g>
<g>
</g>
<g>
</g>
<g>
</g>
<g>
</g>
<g>
</g>
<g>
</g>
<g>
</g>
<g>
</g>
<g>
</g>
<g>
</g>
</svg>
