<?xml version="1.0" encoding="iso-8859-1"?>
<!-- Generator: Adobe Illustrator 18.0.0, SVG Export Plug-In . SVG Version: 6.00 Build 0)  -->
<!DOCTYPE svg PUBLIC "-//W3C//DTD SVG 1.1//EN" "http://www.w3.org/Graphics/SVG/1.1/DTD/svg11.dtd">
<svg version="1.1" id="Capa_1" xmlns="http://www.w3.org/2000/svg" xmlns:xlink="http://www.w3.org/1999/xlink" x="0px" y="0px"
	 viewBox="0 0 58 58" style="enable-background:new 0 0 58 58;" xml:space="preserve">
<g>
	<path style="fill:#556080;" d="M36.983,21.968c-0.256,0-0.512-0.098-0.707-0.293c-0.391-0.391-0.391-1.023,0-1.414l5.007-5.006
		c0.391-0.391,1.023-0.391,1.414,0s0.391,1.023,0,1.414l-5.007,5.006C37.494,21.87,37.239,21.968,36.983,21.968z"/>
	<path style="fill:#556080;" d="M50.379,8.572c-0.256,0-0.512-0.098-0.707-0.293c-0.391-0.391-0.391-1.023,0-1.414l1.678-1.678
		c0.391-0.391,1.023-0.391,1.414,0s0.391,1.023,0,1.414l-1.678,1.678C50.891,8.474,50.635,8.572,50.379,8.572z"/>
	<path style="fill:#57D8AB;" d="M1.122,51.746l30.853-30.853c0.547-0.547,1.337-0.773,2.09-0.599l4.942,1.14
		c0.986,0.228,1.337,1.451,0.621,2.167L6.303,56.927c-1.431,1.431-3.75,1.431-5.181,0l0,0C-0.309,55.496-0.309,53.177,1.122,51.746z
		"/>
	<path style="fill:#556080;" d="M8.246,55.984c-0.381,0-0.744-0.218-0.911-0.586l-3.238-7.124c-0.229-0.503-0.007-1.096,0.496-1.324
		c0.508-0.23,1.097-0.005,1.324,0.496l3.238,7.124c0.229,0.503,0.007,1.096-0.496,1.324C8.525,55.956,8.384,55.984,8.246,55.984z"/>
	<path style="fill:#556080;" d="M12.132,52.099c-0.381,0-0.744-0.218-0.911-0.586L7.983,44.39c-0.229-0.503-0.007-1.096,0.496-1.324
		c0.508-0.23,1.097-0.005,1.324,0.496l3.238,7.123c0.229,0.503,0.007,1.096-0.496,1.324C12.41,52.07,12.27,52.099,12.132,52.099z"/>
	<path style="fill:#556080;" d="M16.018,48.213c-0.381,0-0.744-0.218-0.911-0.586l-3.238-7.124
		c-0.229-0.503-0.007-1.096,0.496-1.324c0.507-0.23,1.097-0.005,1.324,0.496l3.238,7.124c0.229,0.503,0.007,1.096-0.496,1.324
		C16.296,48.185,16.156,48.213,16.018,48.213z"/>
	<path style="fill:#E7ECED;" d="M46.184,18.478l3.883,3.883c1.562,1.562,4.095,1.562,5.657,0l1.055-1.055
		c1.562-1.562,1.562-4.095,0-5.657l-3.883-3.883L46.184,18.478z"/>
	<path style="fill:#E7ECED;" d="M35.589,7.883l3.883,3.883l6.712-6.712l-3.883-3.883c-1.562-1.562-4.095-1.562-5.657,0l-1.055,1.055
		C34.027,3.789,34.027,6.321,35.589,7.883z"/>
	<polygon style="fill:#AFB6BB;" points="39.473,11.767 46.184,5.055 45.345,4.216 46.184,3.377 54.574,11.767 53.735,12.606 
		52.896,11.767 46.184,18.478 47.023,19.317 46.184,20.156 37.795,11.767 38.634,10.928 	"/>
</g>
<g>
</g>
<g>
</g>
<g>
</g>
<g>
</g>
<g>
</g>
<g>
</g>
<g>
</g>
<g>
</g>
<g>
</g>
<g>
</g>
<g>
</g>
<g>
</g>
<g>
</g>
<g>
</g>
<g>
</g>
</svg>
