<?xml version="1.0" encoding="iso-8859-1"?>
<!-- Generator: Adobe Illustrator 18.0.0, SVG Export Plug-In . SVG Version: 6.00 Build 0)  -->
<!DOCTYPE svg PUBLIC "-//W3C//DTD SVG 1.1//EN" "http://www.w3.org/Graphics/SVG/1.1/DTD/svg11.dtd">
<svg version="1.1" id="Capa_1" xmlns="http://www.w3.org/2000/svg" xmlns:xlink="http://www.w3.org/1999/xlink" x="0px" y="0px"
	 viewBox="0 0 56 56" style="enable-background:new 0 0 56 56;" xml:space="preserve">
<g>
	<path style="fill:#E7ECED;" d="M52.121,10.158c-0.854-3.263-3.454-6.008-6.407-7.928c-4.375-2.844-10.366-2.827-15.337-0.749
		c-0.182,0.076-0.357,0.161-0.536,0.223c-2.323,0.814-1.893,1.041-4.224,0.346c-4.057-1.209-9.608-2.547-13.661-1.096
		C4.498,3.626,2.17,12.253,3.25,19.51c0.636,4.272,1.219,8.661,1.965,13.027c0.409,2.395,2.78,3.96,5.099,3.318
		c1.8-0.498,3.707-0.86,5.686-1.134l22-0.415c2.779,0.224,5.43,0.599,7.907,1.221c2.253,0.565,4.531-0.793,5.046-3.081
		C52.632,25.001,53.939,17.108,52.121,10.158z"/>
	<polygon style="fill:#EFD18F;" points="33,22 21,22 21,17 24,14 30,14 33,17 	"/>
	<polygon style="fill:#CEB984;" points="21,22 21,48 23,48 23,52 26,56 28,56 31,52 31,48 33,48 33,22 	"/>
	<g>
		<path style="fill:#EFD18F;" d="M25.697,42.824l-7,2.223c-0.526,0.167-0.817,0.729-0.65,1.256C18.182,46.729,18.576,47,19,47
			c0.101,0,0.203-0.015,0.303-0.047l7-2.223c0.526-0.167,0.817-0.729,0.65-1.256C26.786,42.947,26.221,42.654,25.697,42.824z"/>
		<path style="fill:#EFD18F;" d="M34.684,40.052l-5,1.667c-0.524,0.174-0.807,0.74-0.632,1.265c0.14,0.419,0.53,0.684,0.949,0.684
			c0.104,0,0.211-0.017,0.316-0.052l5-1.667c0.524-0.174,0.807-0.74,0.632-1.265C35.774,40.16,35.209,39.877,34.684,40.052z"/>
		<path style="fill:#EFD18F;" d="M25.697,24.824l-7,2.223c-0.526,0.167-0.817,0.729-0.65,1.256C18.182,28.729,18.576,29,19,29
			c0.101,0,0.203-0.015,0.303-0.047l7-2.223c0.526-0.167,0.817-0.729,0.65-1.256C26.786,24.948,26.221,24.656,25.697,24.824z"/>
		<path style="fill:#EFD18F;" d="M30,25.667c0.104,0,0.211-0.017,0.316-0.052l5-1.667c0.524-0.174,0.807-0.74,0.632-1.265
			c-0.174-0.523-0.739-0.807-1.265-0.632l-5,1.667c-0.524,0.174-0.807,0.74-0.632,1.265C29.191,25.402,29.581,25.667,30,25.667z"/>
		<path style="fill:#EFD18F;" d="M25.697,36.824l-7,2.223c-0.526,0.167-0.817,0.729-0.65,1.256C18.182,40.729,18.576,41,19,41
			c0.101,0,0.203-0.015,0.303-0.047l7-2.223c0.526-0.167,0.817-0.729,0.65-1.256C26.786,36.947,26.221,36.654,25.697,36.824z"/>
		<path style="fill:#EFD18F;" d="M25.697,30.824l-7,2.223c-0.526,0.167-0.817,0.729-0.65,1.256C18.182,34.729,18.576,35,19,35
			c0.101,0,0.203-0.015,0.303-0.047l7-2.223c0.526-0.167,0.817-0.729,0.65-1.256C26.786,30.948,26.221,30.656,25.697,30.824z"/>
		<path style="fill:#EFD18F;" d="M34.684,28.052l-5,1.667c-0.524,0.174-0.807,0.74-0.632,1.265c0.14,0.419,0.53,0.684,0.949,0.684
			c0.104,0,0.211-0.017,0.316-0.052l5-1.667c0.524-0.174,0.807-0.74,0.632-1.265C35.774,28.16,35.209,27.877,34.684,28.052z"/>
		<path style="fill:#EFD18F;" d="M34.684,34.052l-5,1.667c-0.524,0.174-0.807,0.74-0.632,1.265c0.14,0.419,0.53,0.684,0.949,0.684
			c0.104,0,0.211-0.017,0.316-0.052l5-1.667c0.524-0.174,0.807-0.74,0.632-1.265C35.774,34.16,35.209,33.877,34.684,34.052z"/>
	</g>
	<g>
		<path style="fill:#F0F6F7;" d="M51.24,10.909c-0.842-3.183-3.406-5.861-6.317-7.733C40.609,0.402,34.702,0.418,29.8,2.445
			c-0.18,0.074-0.352,0.157-0.529,0.218C26.982,3.457,27.405,3.678,25.107,3c-4-1.179-9.474-2.485-13.469-1.069
			c-7.354,2.605-4.972,9.752,0.3,7.884c3.996-1.416,9.469-0.11,13.469,1.069c2.299,0.678,1.875,0.457,4.165-0.338
			c0.176-0.061,0.349-0.143,0.529-0.218c4.901-2.027,10.809-2.043,15.122,0.731C48.134,12.932,52.082,14.093,51.24,10.909z"/>
	</g>
	<path style="fill:#FFFFFF;" d="M20.354,5.614c-0.556-0.653-1.339-0.796-2.165-0.677c-1.72,0.247-3.429,0.627-5.137,0.947
		c-2.084,0.39-3.621,1.806-2.357,3.986c1.128,1.945,4.197,1.817,6.158,1.238c0.237,0.014,0.484-0.047,0.711-0.224
		C18.74,9.968,21.847,7.366,20.354,5.614z"/>
	<path style="fill:#FFFFFF;" d="M40.719,3.899c0.292,0,0.583,0,0.875,0c1.29,0,1.29-2,0-2c-0.292,0-0.583,0-0.875,0
		C39.429,1.899,39.429,3.899,40.719,3.899L40.719,3.899z"/>
	<path style="fill:#FFFFFF;" d="M29.297,10.556c0.194,0.979,1.138,1.607,2.117,1.414c0.01-0.002,0.02-0.004,0.03-0.006
		c0.034-0.007,0.065-0.01,0.098-0.017C31.2,9.253,30.421,6.63,29.202,4.099c-0.559-1.161-2.28-0.139-1.723,1.016
		C28.33,6.883,28.93,8.7,29.297,10.556z"/>
</g>
<g>
</g>
<g>
</g>
<g>
</g>
<g>
</g>
<g>
</g>
<g>
</g>
<g>
</g>
<g>
</g>
<g>
</g>
<g>
</g>
<g>
</g>
<g>
</g>
<g>
</g>
<g>
</g>
<g>
</g>
</svg>
