<?xml version="1.0" encoding="iso-8859-1"?>
<!-- Generator: Adobe Illustrator 18.0.0, SVG Export Plug-In . SVG Version: 6.00 Build 0)  -->
<!DOCTYPE svg PUBLIC "-//W3C//DTD SVG 1.1//EN" "http://www.w3.org/Graphics/SVG/1.1/DTD/svg11.dtd">
<svg version="1.1" id="Capa_1" xmlns="http://www.w3.org/2000/svg" xmlns:xlink="http://www.w3.org/1999/xlink" x="0px" y="0px"
	 viewBox="0 0 58 58" style="enable-background:new 0 0 58 58;" xml:space="preserve">
<g>
	<path style="fill:#3E465B;" d="M46.988,33.078C45.196,30.42,44.82,26.525,45.075,23H12.725c0.005,0.072,0.014,0.143,0.02,0.214
		c-0.221,2.148-0.191,4.326,0.251,6.292c0.001,0.101,0.004,0.207,0.005,0.308c0.02,2.434-1.962,7.276-4.621,9.182
		c-1.73,1.24-3.71,1.819-5.778,1.962C7.157,51.002,17.252,58,29,58c13.176,0,24.288-8.792,27.818-20.826
		C53.161,37.583,49.029,36.106,46.988,33.078z"/>
	<path style="fill:#ED9893;" d="M29,0C20.97,0,13.712,3.274,8.461,8.548c1.168,1.002,1.961,2.643,2.763,5.365
		c0.814,2.765,1.256,5.932,1.501,9.088h32.351c0.099-1.375,0.292-2.696,0.539-3.862c0.531-2.511,1.701-8.22,4.58-9.127
		c0.189-0.06,0.395-0.094,0.595-0.137C45.475,3.824,37.686,0,29,0z"/>
	<path style="fill:#CEB984;" d="M27.635,27c0.924,0,1.838-0.012,2.688-0.038c2.06-0.062,3.56-1.969,3.134-3.986L29.662,5h-4
		l-3.797,17.981c-0.426,2.02,1.077,3.929,3.14,3.986C25.838,26.989,26.732,27,27.635,27z"/>
	<path style="fill:#E7ECED;" d="M50.789,9.874c-0.2,0.042-0.406,0.077-0.595,0.137c-2.88,0.907-4.049,6.616-4.58,9.127
		c-0.879,4.154-1.117,10.245,1.374,13.94c2.042,3.03,6.177,4.507,9.836,4.095C57.585,34.58,58,31.839,58,29
		C58,21.67,55.275,14.98,50.789,9.874z"/>
	<path style="fill:#E7ECED;" d="M12.744,23.214c-0.24-3.227-0.688-6.474-1.52-9.302C10.42,11.183,9.625,9.54,8.451,8.539
		C3.229,13.783,0,21.014,0,29c0,4.265,0.928,8.312,2.582,11.959c2.075-0.141,4.062-0.72,5.797-1.964
		c2.659-1.905,4.641-6.748,4.621-9.182c-0.001-0.1-0.004-0.207-0.005-0.308C12.553,27.54,12.523,25.363,12.744,23.214z"/>
	<path style="fill:#FBD490;" d="M21.088,13c-0.455,0-0.866-0.313-0.974-0.775c-0.124-0.538,0.212-1.075,0.75-1.199l13-3
		c0.538-0.123,1.074,0.212,1.199,0.75c0.124,0.538-0.212,1.075-0.75,1.199l-13,3C21.238,12.992,21.162,13,21.088,13z"/>
	<path style="fill:#FBD490;" d="M20.088,18c-0.467,0-0.885-0.328-0.979-0.804c-0.108-0.542,0.243-1.068,0.784-1.177l15-3
		c0.548-0.116,1.069,0.243,1.177,0.784c0.108,0.542-0.243,1.068-0.784,1.177l-15,3C20.219,17.994,20.152,18,20.088,18z"/>
	<path style="fill:#E7ECED;" d="M43.448,27.287c-0.55-1.732-1.218-3.571-2.359-5.01c-1.337-1.688-3.656-3.399-5.612-3.515
		c-0.942-0.056-1.885,0.124-2.828,0.384l0.809,3.83c0.426,2.017-1.074,3.923-3.134,3.986C29.473,26.988,28.559,27,27.635,27
		c-0.904,0-1.797-0.011-2.63-0.033c-2.063-0.057-3.567-1.966-3.14-3.986l0.523-2.476c-1.622-0.122-3.25-0.163-4.586,0.257
		c-2.88,0.907-4.049,6.616-4.58,9.127c-0.879,4.154-1.117,10.245,1.374,13.94c2.442,3.623,7.881,5.037,11.914,3.64
		c0.925-0.321,1.384-0.83,2.408-0.708c0.917,0.11,2.165,0.55,3.083,0.682c1.854,0.266,3.552,0.227,5.395-0.102
		C46.883,45.651,45.641,34.197,43.448,27.287z"/>
	<path style="fill:#FFFFFF;" d="M46.972,30.502c1.487,2.672,4.129,4.313,7.157,4.584c1.285,0.115,1.274-1.886,0-2
		c-2.324-0.208-4.304-1.57-5.431-3.594C48.072,28.366,46.344,29.374,46.972,30.502L46.972,30.502z"/>
	<path style="fill:#FFFFFF;" d="M2.9,39.048c5.116-0.017,9.104-3.97,9.189-9.081c0.021-1.29-1.979-1.288-2,0
		c-0.067,4.024-3.168,7.067-7.189,7.081C1.61,37.052,1.61,39.052,2.9,39.048L2.9,39.048z"/>
	<path style="fill:#F0F6F7;" d="M31.422,41.132c-4.937-1.112-9.06-0.713-13.43,1.066c0.037,0.47,0.112,0.968,0.259,1.513
		c0.982,3.65,5.868,2.932,6.738,0.037c0.235,0.03,0.549-0.006,0.952-0.117c1.276-0.002,2.551,0.072,3.824,0.147
		c2.665,0.156,5.293,0.579,7.908,1.104c1.936,0.389,3.382-0.695,4.022-2.108C38.297,42.619,34.888,41.912,31.422,41.132z"/>
	<path style="fill:#FFFFFF;" d="M39.61,35.333c-0.74,0.256-1.36,0.571-1.984,1.057c-1.489,1.161-2.496,1.035-4.147,0.286
		c-1.463-0.663-2.8,0.095-3.724,1.236c-0.692,0.855-1.611,2.443-1.653,3.753c-0.504-0.635-1.18-1.146-2.009-1.462
		c-1.208-0.459-1.725,1.475-0.532,1.929c1,0.38,1.703,1.54,1.541,2.607c-0.082,0.538,0.127,1.073,0.698,1.23
		c0.478,0.132,1.148-0.159,1.23-0.698c0.072-0.476,0.062-0.941,0.001-1.391c0.729,0.752,1.755,1.137,2.9,1.54
		c2.317,0.815,5.222,0.878,7.027-0.499c0.815-0.621,1.664-1.216,2.645-1.513c1.021-0.31,1.806-1.352,1.637-2.83
		C44.484,38.22,42.834,34.218,39.61,35.333z"/>
</g>
<g>
</g>
<g>
</g>
<g>
</g>
<g>
</g>
<g>
</g>
<g>
</g>
<g>
</g>
<g>
</g>
<g>
</g>
<g>
</g>
<g>
</g>
<g>
</g>
<g>
</g>
<g>
</g>
<g>
</g>
</svg>
