<?xml version="1.0" encoding="iso-8859-1"?>
<!-- Generator: Adobe Illustrator 18.0.0, SVG Export Plug-In . SVG Version: 6.00 Build 0)  -->
<!DOCTYPE svg PUBLIC "-//W3C//DTD SVG 1.1//EN" "http://www.w3.org/Graphics/SVG/1.1/DTD/svg11.dtd">
<svg version="1.1" id="Capa_1" xmlns="http://www.w3.org/2000/svg" xmlns:xlink="http://www.w3.org/1999/xlink" x="0px" y="0px"
	 viewBox="0 0 58 58" style="enable-background:new 0 0 58 58;" xml:space="preserve">
<g>
	<path style="fill:#ED9893;" d="M57.24,23.546c-0.59,2.737-1.791,7.611-4.434,8.444c-2.477,0.781-5.959-0.019-8.543,0
		c-3.046,0.023-6.092,2.18-9.133,2c-1.956-0.115-4.275-1.827-5.612-3.515c-1.141-1.44-1.809-3.279-2.359-5.01
		c-0.245-0.771-0.476-1.6-0.684-2.464h-1.188c-0.258,1.774-0.597,3.5-1.064,5.088C22.281,34.686,20.424,35,13.009,35
		c-4.247,0-8.788-0.736-10.133-5.75c-0.504-1.88-0.982-3.968-1.401-6.12C0.618,23.43,0,24.236,0,25.194v18.745
		C0,48.943,4.057,53,9.061,53h39.878C53.943,53,58,48.943,58,43.939V25.194C58,24.533,57.702,23.948,57.24,23.546z"/>
	<path style="fill:#F7E6A1;" d="M48.939,51H9.061C4.057,51,0,46.943,0,41.939v6C0,52.943,4.057,57,9.061,57h39.878
		C53.943,57,58,52.943,58,47.939v-6C58,46.943,53.943,51,48.939,51z"/>
	<path style="fill:#E7ECED;" d="M25.995,12.494c0.001-0.101,0.004-0.207,0.005-0.308c0.02-2.434-1.962-7.276-4.621-9.182
		C16.974-0.152,10.957,0.921,5.947,2.795c-3.211,1.202-6.202,4.6-5.93,9.391c0.302,5.301,1.486,11.951,2.858,17.064
		C4.221,34.264,8.761,35,13.009,35c7.415,0,9.272-0.314,11.215-6.912c0.833-2.828,1.28-6.075,1.52-9.302
		C25.523,16.637,25.553,14.46,25.995,12.494z"/>
	<path style="fill:#F0F6F7;" d="M22.575,6.461C18.778-0.801,11.234,2.762,4.991,3.628c-1.115,0.154-1.533,0.98-1.439,1.83
		C2.777,6.804,2.693,8.521,4.12,9.514c4.481,3.115,7.696,5.644,9.036,11.213c0.628,2.612-0.524,6.425,2.149,8.25
		c1.698,1.159,4.464,1.564,5.688-0.645c1.7-3.066,1.854-6.799,2.239-10.233C23.623,14.619,24.292,9.745,22.575,6.461z M7.081,7.311
		c0.037-0.007,0.075-0.015,0.112-0.023c-0.069,0.049-0.136,0.1-0.185,0.185C7.039,7.418,7.055,7.365,7.081,7.311z"/>
	<path style="fill:#E7ECED;" d="M56.012,8.922c-2.442-3.623-7.881-5.037-11.915-3.64c-0.925,0.32-1.384,0.83-2.408,0.708
		c-0.917-0.11-2.165-0.55-3.083-0.682c-1.855-0.266-3.552-0.227-5.395,0.102C23.724,7.1,24.966,18.554,27.16,25.464
		c0.55,1.732,1.218,3.571,2.359,5.01c1.337,1.688,3.656,3.399,5.612,3.515c3.04,0.18,6.087-1.977,9.133-2
		c2.583-0.02,6.066,0.78,8.543,0c2.88-0.907,4.049-6.616,4.58-9.127C58.265,18.708,58.503,12.617,56.012,8.922z"/>
	<path style="fill:#FFFFFF;" d="M19.651,6.683c2.476,2.728,3.259,6.362,2.206,9.88c-0.371,1.239,1.56,1.764,1.929,0.532
		c1.26-4.21,0.225-8.581-2.72-11.826C20.197,4.312,18.787,5.731,19.651,6.683L19.651,6.683z"/>
	<path style="fill:#FFFFFF;" d="M3.394,11.874c0.004,0.01,0.007,0.021,0.011,0.032c1.766-2.378,4.383-3.96,7.343-4.206
		c0.607-1.229,1.079-2.406,1.237-3.44c0.116-0.758-0.429-1.408-1.23-1.23C6.808,3.908,1.19,6.093,2.73,11.225
		C2.842,11.599,3.102,11.795,3.394,11.874z"/>
	<path style="fill:#FFFFFF;" d="M39.127,6.726c-0.556-0.653-1.339-0.796-2.165-0.677c-1.72,0.247-3.429,0.627-5.137,0.947
		c-2.084,0.39-3.621,1.806-2.357,3.986c1.128,1.945,4.197,1.817,6.158,1.238c0.237,0.014,0.484-0.047,0.711-0.224
		C37.513,11.08,40.62,8.478,39.127,6.726z"/>
	<path style="fill:#FFFFFF;" d="M46.158,8c0.292,0,0.583,0,0.875,0c1.29,0,1.29-2,0-2c-0.292,0-0.583,0-0.875,0
		C44.868,6,44.868,8,46.158,8L46.158,8z"/>
	<path style="fill:#FFFFFF;" d="M55.828,22.05c0.565-4.832-0.27-9.475-2.378-13.85c-0.559-1.161-2.28-0.139-1.723,1.016
		c1.954,4.056,2.622,8.361,2.101,12.823C53.678,23.322,55.68,23.315,55.828,22.05L55.828,22.05z"/>
	<polygon style="fill:#EFD18F;" points="48,26 36,26 36,21 39,18 45,18 48,21 	"/>
	<polygon style="fill:#CEB984;" points="36,26 36,46 38,46 38,50 41,54 43,54 46,50 46,46 48,46 48,26 	"/>
	<g>
		<path style="fill:#EFD18F;" d="M40.698,40.824l-7,2.223c-0.526,0.167-0.817,0.729-0.65,1.256C33.182,44.729,33.576,45,34,45
			c0.101,0,0.203-0.015,0.303-0.047l7-2.223c0.526-0.167,0.817-0.729,0.65-1.256C41.786,40.947,41.221,40.655,40.698,40.824z"/>
		<path style="fill:#EFD18F;" d="M49.684,38.052l-5,1.667c-0.524,0.174-0.807,0.74-0.632,1.265c0.14,0.419,0.53,0.684,0.949,0.684
			c0.104,0,0.211-0.017,0.316-0.052l5-1.667c0.524-0.174,0.807-0.74,0.632-1.265C50.775,38.16,50.21,37.875,49.684,38.052z"/>
		<path style="fill:#EFD18F;" d="M40.698,34.824l-7,2.223c-0.526,0.167-0.817,0.729-0.65,1.256C33.182,38.729,33.576,39,34,39
			c0.101,0,0.203-0.015,0.303-0.047l7-2.223c0.526-0.167,0.817-0.729,0.65-1.256C41.786,34.947,41.221,34.654,40.698,34.824z"/>
		<path style="fill:#EFD18F;" d="M40.698,28.824l-7,2.223c-0.526,0.167-0.817,0.729-0.65,1.256C33.182,32.729,33.576,33,34,33
			c0.101,0,0.203-0.015,0.303-0.047l7-2.223c0.526-0.167,0.817-0.729,0.65-1.256C41.786,28.947,41.221,28.654,40.698,28.824z"/>
		<path style="fill:#EFD18F;" d="M45,29.667c0.104,0,0.211-0.017,0.316-0.052l5-1.667c0.524-0.174,0.807-0.74,0.632-1.265
			c-0.174-0.523-0.739-0.809-1.265-0.632l-5,1.667c-0.524,0.174-0.807,0.74-0.632,1.265C44.191,29.402,44.581,29.667,45,29.667z"/>
		<path style="fill:#EFD18F;" d="M49.684,32.052l-5,1.667c-0.524,0.174-0.807,0.74-0.632,1.265c0.14,0.419,0.53,0.684,0.949,0.684
			c0.104,0,0.211-0.017,0.316-0.052l5-1.667c0.524-0.174,0.807-0.74,0.632-1.265C50.775,32.16,50.21,31.875,49.684,32.052z"/>
	</g>
</g>
<g>
</g>
<g>
</g>
<g>
</g>
<g>
</g>
<g>
</g>
<g>
</g>
<g>
</g>
<g>
</g>
<g>
</g>
<g>
</g>
<g>
</g>
<g>
</g>
<g>
</g>
<g>
</g>
<g>
</g>
</svg>
