<?xml version="1.0" encoding="iso-8859-1"?>
<!-- Generator: Adobe Illustrator 18.0.0, SVG Export Plug-In . SVG Version: 6.00 Build 0)  -->
<!DOCTYPE svg PUBLIC "-//W3C//DTD SVG 1.1//EN" "http://www.w3.org/Graphics/SVG/1.1/DTD/svg11.dtd">
<svg version="1.1" id="Capa_1" xmlns="http://www.w3.org/2000/svg" xmlns:xlink="http://www.w3.org/1999/xlink" x="0px" y="0px"
	 viewBox="0 0 58 58" style="enable-background:new 0 0 58 58;" xml:space="preserve">
<g>
	<path style="fill:#C7CAC7;" d="M29.65,33c-3.244,0-6.386,0.128-9.375,0.428L25.65,58h8l5.38-24.595
		C36.039,33.116,32.897,33,29.65,33z"/>
	<path style="fill:#E7ECED;" d="M6.534,31.738c0.404,2.336,2.741,3.863,5.027,3.237C16.876,33.519,23.054,33,29.65,33
		c6.153,0,11.942,0.398,17.007,1.655c2.221,0.552,4.467-0.774,4.976-3.005c1.655-7.263,2.944-14.962,1.151-21.741
		c-0.842-3.183-3.406-5.861-6.317-7.733c-4.314-2.774-10.221-2.758-15.122-0.731c-0.18,0.074-0.352,0.157-0.529,0.218
		C28.525,2.457,28.948,2.678,26.65,2c-4-1.179-9.474-2.485-13.469-1.069c-7.354,2.605-9.649,11.02-8.584,18.099
		C5.224,23.198,5.798,27.479,6.534,31.738z"/>
	<g>
		<path style="fill:#AFB6BB;" d="M40.471,37.017l-22,4c-0.544,0.099-0.904,0.619-0.805,1.162C17.754,42.662,18.175,43,18.649,43
			c0.06,0,0.119-0.005,0.18-0.017l22-4c0.544-0.099,0.904-0.619,0.805-1.162C41.536,37.277,41.015,36.908,40.471,37.017z"/>
		<path style="fill:#AFB6BB;" d="M39.454,43.02l-20,4c-0.541,0.108-0.893,0.635-0.784,1.177C18.764,48.672,19.182,49,19.649,49
			c0.064,0,0.131-0.006,0.197-0.02l20-4c0.541-0.108,0.893-0.635,0.784-1.177C40.523,43.262,40.002,42.908,39.454,43.02z"/>
		<path style="fill:#AFB6BB;" d="M38.476,50.016l-17,3c-0.544,0.096-0.907,0.614-0.811,1.158C20.751,54.659,21.173,55,21.649,55
			c0.058,0,0.116-0.005,0.175-0.016l17-3c0.544-0.096,0.907-0.614,0.811-1.158C39.539,50.282,39.018,49.911,38.476,50.016z"/>
	</g>
	<g>
		<path style="fill:#F0F6F7;" d="M52.783,9.909c-0.842-3.183-3.406-5.861-6.317-7.733c-4.314-2.774-10.221-2.758-15.122-0.731
			c-0.18,0.074-0.352,0.157-0.529,0.218C28.525,2.457,28.948,2.678,26.65,2c-4-1.179-9.474-2.485-13.469-1.069
			c-7.354,2.605-4.972,9.752,0.3,7.884C17.476,7.4,22.95,8.705,26.95,9.885c2.299,0.678,1.875,0.457,4.165-0.338
			c0.176-0.061,0.349-0.143,0.529-0.218c4.901-2.027,10.809-2.043,15.122,0.731C49.678,11.932,53.625,13.093,52.783,9.909z"/>
	</g>
	<path style="fill:#FFFFFF;" d="M21.253,4.715c-0.556-0.653-1.339-0.796-2.165-0.677c-1.72,0.247-3.429,0.627-5.137,0.947
		c-2.084,0.39-3.621,1.806-2.357,3.986c1.128,1.945,4.197,1.817,6.158,1.238c0.237,0.014,0.484-0.047,0.711-0.224
		C19.638,9.069,22.745,6.467,21.253,4.715z"/>
	<path style="fill:#FFFFFF;" d="M41.617,3c0.292,0,0.583,0,0.875,0c1.29,0,1.29-2,0-2c-0.292,0-0.583,0-0.875,0
		C40.328,1,40.328,3,41.617,3L41.617,3z"/>
	<path style="fill:#FFFFFF;" d="M32.478,17.05c0.565-4.832-0.27-9.475-2.378-13.85c-0.559-1.161-2.28-0.139-1.723,1.016
		c1.954,4.056,2.622,8.361,2.101,12.823C30.328,18.322,32.33,18.315,32.478,17.05L32.478,17.05z"/>
</g>
<g>
</g>
<g>
</g>
<g>
</g>
<g>
</g>
<g>
</g>
<g>
</g>
<g>
</g>
<g>
</g>
<g>
</g>
<g>
</g>
<g>
</g>
<g>
</g>
<g>
</g>
<g>
</g>
<g>
</g>
</svg>
