<?xml version="1.0" encoding="iso-8859-1"?>
<!-- Generator: Adobe Illustrator 18.0.0, SVG Export Plug-In . SVG Version: 6.00 Build 0)  -->
<!DOCTYPE svg PUBLIC "-//W3C//DTD SVG 1.1//EN" "http://www.w3.org/Graphics/SVG/1.1/DTD/svg11.dtd">
<svg version="1.1" id="Capa_1" xmlns="http://www.w3.org/2000/svg" xmlns:xlink="http://www.w3.org/1999/xlink" x="0px" y="0px"
	 viewBox="0 0 55.797 55.797" style="enable-background:new 0 0 55.797 55.797;" xml:space="preserve">
<g>
	<path style="fill:#ECE3D2;" d="M51.682,9.909c2.533,9.574-1.084,20.991-3.195,30.411c-0.918,4.094-1.685,8.286-3.791,11.976
		c-3.333,5.841-5.989-1.786-7.036-5.012c-1.287-3.965-1.706-9.087-5.667-11.446c-3.946-2.35-7.607,0.052-9.893,3.396
		c-2.316,3.388-3.194,7.325-4.663,11.093c-0.679,1.743-1.428,3.486-3.271,4.266c-1.956,0-3.314-3.573-4.032-5.308
		c-3.92-9.466-5.125-20.193-6.639-30.255C2.43,11.952,4.725,3.537,12.079,0.932c3.996-1.416,9.469-0.11,13.47,1.069
		c2.299,0.678,1.875,0.457,4.165-0.338c0.176-0.061,0.349-0.143,0.529-0.218c4.901-2.027,10.809-2.043,15.122,0.731
		C48.276,4.048,50.84,6.726,51.682,9.909z"/>
	<g>
		<path style="fill:#FCF4E6;" d="M50.788,10.807c-0.842-3.183-3.406-5.861-6.317-7.733C40.157,0.3,34.25,0.316,29.349,2.343
			c-0.18,0.074-0.352,0.157-0.529,0.218c-2.29,0.794-1.867,1.015-4.165,0.338c-4-1.179-9.474-2.485-13.469-1.069
			c-7.354,2.605-4.972,9.752,0.3,7.884c3.996-1.416,9.469-0.11,13.469,1.069c2.299,0.678,1.875,0.457,4.165-0.338
			c0.176-0.061,0.349-0.143,0.529-0.218c4.901-2.027,10.809-2.043,15.122,0.731C47.683,12.83,51.631,13.991,50.788,10.807z"/>
	</g>
	<path style="fill:#FFFFFF;" d="M27.664,2.564c-0.993,0.903-0.592,2.397,0.445,3.075c1.264,0.826,2.808,0.973,4.274,1.109
		c1.285,0.119,1.273-1.882,0-2c-0.687-0.064-1.362-0.142-2.034-0.305c-0.291-0.07-0.571-0.173-0.842-0.299
		c-0.128-0.06-0.248-0.133-0.361-0.219c-0.083-0.134-0.106-0.116-0.069,0.052C30.035,3.108,28.616,1.698,27.664,2.564L27.664,2.564z
		"/>
	<path style="fill:#FFFFFF;" d="M39.284,4.773c2.027,0.294,3.743,1.055,5.262,2.442c0.735,0.671,1.256,1.519,1.725,2.384
		c0.211,0.389,1.65,3.955,0.235,3.828c-1.285-0.115-1.274,1.886,0,2c3.503,0.312,2.657-4.308,1.761-6.254
		c-1.597-3.468-4.667-5.78-8.45-6.329C38.555,2.662,38.011,4.589,39.284,4.773L39.284,4.773z"/>
	<polygon style="fill:#EFD18F;" points="34.548,27.797 22.548,27.797 22.548,22.797 25.548,19.797 31.548,19.797 34.548,22.797 	"/>
	<polygon style="fill:#CEB984;" points="22.548,27.797 22.548,47.797 24.548,47.797 24.548,51.797 27.548,55.797 29.548,55.797 
		32.548,51.797 32.548,47.797 34.548,47.797 34.548,27.797 	"/>
	<g>
		<path style="fill:#EFD18F;" d="M20.548,46.797c-0.424,0-0.817-0.271-0.953-0.697c-0.167-0.526,0.124-1.089,0.65-1.256l7-2.223
			c0.525-0.169,1.088,0.123,1.256,0.65c0.167,0.526-0.124,1.089-0.65,1.256l-7,2.223C20.751,46.782,20.649,46.797,20.548,46.797z"/>
		<path style="fill:#EFD18F;" d="M31.548,43.464c-0.419,0-0.809-0.265-0.949-0.684c-0.175-0.524,0.108-1.091,0.632-1.265l5-1.667
			c0.525-0.177,1.091,0.108,1.265,0.632c0.175,0.524-0.108,1.091-0.632,1.265l-5,1.667C31.76,43.447,31.653,43.464,31.548,43.464z"
			/>
	</g>
	<g>
		<path style="fill:#EFD18F;" d="M20.548,40.797c-0.424,0-0.817-0.271-0.953-0.697c-0.167-0.526,0.124-1.089,0.65-1.256l7-2.223
			c0.525-0.169,1.088,0.123,1.256,0.65c0.167,0.526-0.124,1.089-0.65,1.256l-7,2.223C20.751,40.782,20.649,40.797,20.548,40.797z"/>
		<path style="fill:#EFD18F;" d="M20.548,34.797c-0.424,0-0.817-0.271-0.953-0.697c-0.167-0.526,0.124-1.089,0.65-1.256l7-2.223
			c0.525-0.169,1.088,0.123,1.256,0.65c0.167,0.526-0.124,1.089-0.65,1.256l-7,2.223C20.751,34.782,20.649,34.797,20.548,34.797z"/>
		<path style="fill:#EFD18F;" d="M31.548,31.464c-0.419,0-0.809-0.265-0.949-0.684c-0.175-0.524,0.108-1.091,0.632-1.265l5-1.667
			c0.525-0.177,1.091,0.108,1.265,0.632c0.175,0.524-0.108,1.091-0.632,1.265l-5,1.667C31.76,31.447,31.653,31.464,31.548,31.464z"
			/>
		<path style="fill:#EFD18F;" d="M31.548,37.464c-0.419,0-0.809-0.265-0.949-0.684c-0.175-0.524,0.108-1.091,0.632-1.265l5-1.667
			c0.525-0.177,1.091,0.108,1.265,0.632c0.175,0.524-0.108,1.091-0.632,1.265l-5,1.667C31.76,37.447,31.653,37.464,31.548,37.464z"
			/>
	</g>
</g>
<g>
</g>
<g>
</g>
<g>
</g>
<g>
</g>
<g>
</g>
<g>
</g>
<g>
</g>
<g>
</g>
<g>
</g>
<g>
</g>
<g>
</g>
<g>
</g>
<g>
</g>
<g>
</g>
<g>
</g>
</svg>
