<?xml version="1.0" encoding="iso-8859-1"?>
<!-- Generator: Adobe Illustrator 18.0.0, SVG Export Plug-In . SVG Version: 6.00 Build 0)  -->
<!DOCTYPE svg PUBLIC "-//W3C//DTD SVG 1.1//EN" "http://www.w3.org/Graphics/SVG/1.1/DTD/svg11.dtd">
<svg version="1.1" id="Capa_1" xmlns="http://www.w3.org/2000/svg" xmlns:xlink="http://www.w3.org/1999/xlink" x="0px" y="0px"
	 viewBox="0 0 59.47 59.47" style="enable-background:new 0 0 59.47 59.47;" xml:space="preserve">
<g>
	<path style="fill:#ECE3D2;" d="M57.888,29.835L42.174,42.55c-7.162,7.162-18.774,7.162-25.936,0L1.523,29.835l14.714-12.914
		c7.162-7.162,18.774-7.162,25.936,0L57.888,29.835z"/>
	<path style="fill:#6B5B4B;" d="M48.523,29.421c0-3.314-0.832-6.432-2.291-9.165l-4.059-3.335c-7.162-7.162-18.774-7.162-25.936,0
		l-4.866,4.271c-1.172,2.503-1.848,5.283-1.848,8.229c0,3.447,0.918,6.669,2.489,9.478l4.225,3.651
		c7.162,7.162,18.774,7.162,25.936,0l3.278-2.652C47.387,36.869,48.523,33.281,48.523,29.421z"/>
	<g>
		<path style="fill:#998573;" d="M28.523,20.55c-0.552,0-1,0.447-1,1v1.883c0,0.553,0.448,1,1,1s1-0.447,1-1V21.55
			C29.523,20.997,29.075,20.55,28.523,20.55z"/>
		<path style="fill:#998573;" d="M28.523,34.667c-0.552,0-1,0.447-1,1v1.883c0,0.553,0.448,1,1,1s1-0.447,1-1v-1.883
			C29.523,35.114,29.075,34.667,28.523,34.667z"/>
		<path style="fill:#998573;" d="M36.523,28.55h-1.882c-0.552,0-1,0.447-1,1s0.448,1,1,1h1.882c0.552,0,1-0.447,1-1
			S37.075,28.55,36.523,28.55z"/>
		<path style="fill:#998573;" d="M22.405,30.55c0.552,0,1-0.447,1-1s-0.448-1-1-1h-1.882c-0.552,0-1,0.447-1,1s0.448,1,1,1H22.405z"
			/>
		<path style="fill:#998573;" d="M33.556,33.169c-0.391-0.391-1.023-0.391-1.414,0s-0.391,1.023,0,1.414l1.331,1.331
			c0.195,0.195,0.451,0.293,0.707,0.293s0.512-0.098,0.707-0.293c0.391-0.391,0.391-1.023,0-1.414L33.556,33.169z"/>
		<path style="fill:#998573;" d="M23.49,25.93c0.195,0.195,0.451,0.293,0.707,0.293s0.512-0.098,0.707-0.293
			c0.391-0.391,0.391-1.023,0-1.414l-1.331-1.331c-0.391-0.391-1.023-0.391-1.414,0s-0.391,1.023,0,1.414L23.49,25.93z"/>
		<path style="fill:#998573;" d="M32.142,25.93c0.195,0.195,0.451,0.293,0.707,0.293s0.512-0.098,0.707-0.293l1.331-1.331
			c0.391-0.391,0.391-1.023,0-1.414s-1.023-0.391-1.414,0l-1.331,1.331C31.751,24.907,31.751,25.54,32.142,25.93z"/>
		<path style="fill:#998573;" d="M24.904,33.169c-0.391-0.391-1.023-0.391-1.414,0L22.159,34.5c-0.391,0.391-0.391,1.023,0,1.414
			c0.195,0.195,0.451,0.293,0.707,0.293s0.512-0.098,0.707-0.293l1.331-1.331C25.295,34.192,25.295,33.559,24.904,33.169z"/>
		<path style="fill:#998573;" d="M26.566,21.728c-0.201-0.517-0.782-0.771-1.294-0.571c-0.515,0.2-0.771,0.779-0.571,1.294
			l0.68,1.755c0.154,0.396,0.532,0.639,0.933,0.639c0.121,0,0.243-0.021,0.361-0.067c0.515-0.2,0.771-0.779,0.571-1.294
			L26.566,21.728z"/>
		<path style="fill:#998573;" d="M31.665,34.893c-0.2-0.517-0.783-0.771-1.294-0.571c-0.515,0.2-0.771,0.779-0.571,1.294l0.68,1.755
			c0.154,0.396,0.532,0.639,0.933,0.639c0.121,0,0.243-0.021,0.361-0.067c0.515-0.2,0.771-0.779,0.571-1.294L31.665,34.893z"/>
		<path style="fill:#998573;" d="M33.295,27.701c0.153,0.396,0.532,0.639,0.933,0.639c0.12,0,0.242-0.021,0.361-0.067l1.755-0.68
			c0.515-0.199,0.771-0.778,0.572-1.294s-0.778-0.771-1.293-0.571l-1.755,0.68C33.352,26.606,33.096,27.185,33.295,27.701z"/>
		<path style="fill:#998573;" d="M23.751,31.398c-0.199-0.516-0.778-0.77-1.293-0.571l-1.755,0.68
			c-0.515,0.199-0.771,0.778-0.572,1.294c0.153,0.396,0.532,0.639,0.933,0.639c0.12,0,0.242-0.021,0.361-0.067l1.755-0.68
			C23.694,32.493,23.95,31.914,23.751,31.398z"/>
		<path style="fill:#998573;" d="M36.245,31.866l-1.722-0.76c-0.505-0.22-1.095,0.007-1.319,0.512
			c-0.223,0.505,0.006,1.096,0.511,1.318l1.722,0.76c0.131,0.058,0.269,0.085,0.403,0.085c0.384,0,0.75-0.223,0.916-0.597
			C36.979,32.679,36.75,32.089,36.245,31.866z"/>
		<path style="fill:#998573;" d="M20.801,27.233l1.722,0.76c0.131,0.058,0.269,0.085,0.403,0.085c0.384,0,0.75-0.223,0.916-0.597
			c0.223-0.505-0.006-1.096-0.511-1.318l-1.722-0.76c-0.504-0.221-1.096,0.007-1.319,0.512C20.067,26.42,20.296,27.01,20.801,27.233
			z"/>
		<path style="fill:#998573;" d="M30.59,24.868c0.131,0.058,0.269,0.085,0.404,0.085c0.384,0,0.75-0.222,0.915-0.596l0.761-1.722
			c0.223-0.505-0.005-1.096-0.51-1.319c-0.504-0.222-1.096,0.005-1.319,0.511l-0.761,1.722
			C29.856,24.053,30.085,24.644,30.59,24.868z"/>
		<path style="fill:#998573;" d="M26.456,34.231c-0.505-0.222-1.096,0.005-1.319,0.511l-0.761,1.722
			c-0.223,0.505,0.005,1.096,0.51,1.319c0.131,0.058,0.269,0.085,0.404,0.085c0.384,0,0.75-0.222,0.915-0.596l0.761-1.722
			C27.189,35.046,26.961,34.455,26.456,34.231z"/>
	</g>
	<circle style="fill:#47363D;" cx="28.523" cy="29.55" r="6"/>
	<g>
		<path style="fill:#998573;" d="M27.523,14.922c-1.472,0-2.921,0.227-4.307,0.673c-0.525,0.17-0.814,0.733-0.645,1.259
			c0.137,0.424,0.529,0.693,0.952,0.693c0.102,0,0.205-0.016,0.307-0.048c1.187-0.383,2.429-0.577,3.692-0.577c0.552,0,1-0.447,1-1
			S28.075,14.922,27.523,14.922z"/>
		<path style="fill:#998573;" d="M20.408,16.928c-0.117,0.013-0.234,0.048-0.346,0.105c-0.019,0.01-0.037,0.021-0.055,0.031h-0.001
			c-0.45,0.271-0.712,0.885-0.479,1.354c0.131,0.264,0.393,0.431,0.683,0.491c0.101,0.034,0.208,0.051,0.314,0.051
			c0.185,0,0.371-0.051,0.538-0.157c0.876-0.561,0.446-1.361,0.427-1.396C21.424,17.291,21.102,16.79,20.408,16.928z"/>
		<path style="fill:#998573;" d="M17.416,19.228c-2.511,2.618-3.893,6.061-3.893,9.693c0,0.553,0.448,1,1,1s1-0.447,1-1
			c0-3.114,1.185-6.065,3.336-8.309c0.382-0.398,0.369-1.032-0.029-1.414C18.432,18.818,17.798,18.831,17.416,19.228z"/>
	</g>
	<circle style="fill:#FFFFFF;" cx="27.023" cy="25.05" r="2.5"/>
	<path style="fill:#FBCE9D;" d="M29.206,48.921c-5.166,0-10.022-2.011-13.675-5.664L0,29.842L15.578,16.17
		c3.605-3.608,8.462-5.62,13.628-5.62c5.166,0,10.022,2.012,13.675,5.665l16.59,13.627L42.843,43.295
		C39.194,46.924,34.354,48.921,29.206,48.921z M3.045,29.83l13.846,11.963c3.328,3.325,7.683,5.128,12.314,5.128
		c4.631,0,8.986-1.803,12.261-5.078l0.078-0.07L56.305,29.83L41.539,17.694c-3.348-3.341-7.702-5.145-12.333-5.145
		c-4.632,0-8.986,1.804-12.261,5.079L3.045,29.83z"/>
</g>
<g>
</g>
<g>
</g>
<g>
</g>
<g>
</g>
<g>
</g>
<g>
</g>
<g>
</g>
<g>
</g>
<g>
</g>
<g>
</g>
<g>
</g>
<g>
</g>
<g>
</g>
<g>
</g>
<g>
</g>
</svg>
