<?xml version="1.0" encoding="iso-8859-1"?>
<!-- Generator: Adobe Illustrator 18.0.0, SVG Export Plug-In . SVG Version: 6.00 Build 0)  -->
<!DOCTYPE svg PUBLIC "-//W3C//DTD SVG 1.1//EN" "http://www.w3.org/Graphics/SVG/1.1/DTD/svg11.dtd">
<svg version="1.1" id="Capa_1" xmlns="http://www.w3.org/2000/svg" xmlns:xlink="http://www.w3.org/1999/xlink" x="0px" y="0px"
	 viewBox="0 0 58 58" style="enable-background:new 0 0 58 58;" xml:space="preserve">
<g>
	<g>
		<path style="fill:#2998C0;" d="M58,29C58,13.506,45.848,0.851,30.556,0.043l6.997,6.83L6.609,25.602l-5.43-4.787
			C0.416,23.412,0,26.156,0,29c0,8.267,3.467,15.718,9.017,21c0.493-2.427,1.176-4.811,1.903-7h37.568l0.318,7.164
			C54.46,44.873,58,37.354,58,29z"/>
	</g>
	<g>
		<path style="fill:#FBCE9D;" d="M37.553,6.873l-6.997-6.83C30.041,0.015,29.522,0,29,0C15.827,0,4.713,8.786,1.179,20.815
			l5.43,4.787L37.553,6.873z"/>
		<path style="fill:#FBCE9D;" d="M10.92,43c-0.727,2.19-1.411,4.576-1.904,7.004C14.219,54.955,21.251,58,29,58
			c7.661,0,14.623-2.976,19.808-7.828L48.489,43H10.92z"/>
	</g>
	<path style="fill:#E7ECED;" d="M45.923,12.248L39.32,5.803L4.816,26.687l6.803,5.998L14,33l-1.983,1.65
		c-0.881,1.977-2.105,4.934-3.205,8.35h41.679l-0.48-10.798l0.735-2.939C52.271,23.161,50.423,16.642,45.923,12.248z"/>
	<path style="fill:#C7CAC7;" d="M26.146,32.86c0.057,0.009,0.112,0.014,0.168,0.014c0.479,0,0.902-0.345,0.985-0.833
		c0.092-0.544-0.274-1.061-0.819-1.153l-3.293-0.559l0.938-1.173c0.345-0.432,0.274-1.061-0.156-1.406
		c-0.432-0.345-1.06-0.272-1.406,0.156l-1.799,2.249l-9.144,2.529l0.921,0.812c-0.153,0.328-0.333,0.726-0.523,1.153l9.38-2.595
		L26.146,32.86z"/>
	<path style="fill:#FFFFFF;" d="M50.011,32.202l0.082-0.328c-4.339,0.773-11.11,1.981-18.465,3.297l18.815,6.749L50.011,32.202z"/>
	<path style="fill:#FFFFFF;" d="M28.682,35.698c-6.278,1.123-12.795,2.292-18.465,3.315C9.75,40.241,9.27,41.578,8.812,43h38.717
		l-18.215-6.534C28.965,36.341,28.744,36.038,28.682,35.698z"/>
	<path style="fill:#FFFFFF;" d="M4.816,26.687l4.073,3.591c1.701-0.847,4.241-1.989,7.23-3.291L35.526,8.1L4.816,26.687z"/>
	<path style="fill:#FFFFFF;" d="M21.262,24.773c9.397-4.011,20.745-8.726,25.808-11.277c-0.363-0.43-0.74-0.85-1.147-1.247
		l-5.891-5.75c-0.007,0.007-0.009,0.017-0.016,0.024L21.262,24.773z"/>
</g>
<g>
</g>
<g>
</g>
<g>
</g>
<g>
</g>
<g>
</g>
<g>
</g>
<g>
</g>
<g>
</g>
<g>
</g>
<g>
</g>
<g>
</g>
<g>
</g>
<g>
</g>
<g>
</g>
<g>
</g>
</svg>
