<?xml version="1.0" encoding="iso-8859-1"?>
<!-- Generator: Adobe Illustrator 18.0.0, SVG Export Plug-In . SVG Version: 6.00 Build 0)  -->
<!DOCTYPE svg PUBLIC "-//W3C//DTD SVG 1.1//EN" "http://www.w3.org/Graphics/SVG/1.1/DTD/svg11.dtd">
<svg version="1.1" id="Capa_1" xmlns="http://www.w3.org/2000/svg" xmlns:xlink="http://www.w3.org/1999/xlink" x="0px" y="0px"
	 viewBox="0 0 58 58" style="enable-background:new 0 0 58 58;" xml:space="preserve">
<g>
	<g>
		<path style="fill:#7FABDA;" d="M9.017,50C10.79,41.272,15,33,15,33L1.179,20.815C0.416,23.412,0,26.156,0,29
			C0,37.267,3.467,44.717,9.017,50z"/>
		<path style="fill:#7FABDA;" d="M48.806,28.778L48,32l0.807,18.164C54.46,44.873,58,37.354,58,29
			C58,13.506,45.848,0.851,30.556,0.043l13.97,13.637C48.535,17.594,50.164,23.342,48.806,28.778z"/>
	</g>
	<path style="fill:#FBCE9D;" d="M29,58c7.661,0,14.623-2.976,19.808-7.828L48,32l0.806-3.222c1.359-5.436-0.271-11.184-4.28-15.098
		L30.556,0.043C30.04,0.015,29.522,0,29,0C15.827,0,4.713,8.786,1.179,20.815L15,33c0,0-4.211,8.275-5.984,17.004
		C14.218,54.955,21.251,58,29,58z"/>
</g>
<g>
</g>
<g>
</g>
<g>
</g>
<g>
</g>
<g>
</g>
<g>
</g>
<g>
</g>
<g>
</g>
<g>
</g>
<g>
</g>
<g>
</g>
<g>
</g>
<g>
</g>
<g>
</g>
<g>
</g>
</svg>
