<?xml version="1.0" encoding="iso-8859-1"?>
<!-- Generator: Adobe Illustrator 18.0.0, SVG Export Plug-In . SVG Version: 6.00 Build 0)  -->
<!DOCTYPE svg PUBLIC "-//W3C//DTD SVG 1.1//EN" "http://www.w3.org/Graphics/SVG/1.1/DTD/svg11.dtd">
<svg version="1.1" id="Capa_1" xmlns="http://www.w3.org/2000/svg" xmlns:xlink="http://www.w3.org/1999/xlink" x="0px" y="0px"
	 viewBox="0 0 58 58" style="enable-background:new 0 0 58 58;" xml:space="preserve">
<g>
	<g>
		<path style="fill:#DC691D;" d="M9.017,50C10.79,41.272,15,33,15,33L1.179,20.815C0.416,23.412,0,26.156,0,29
			C0,37.267,3.467,44.717,9.017,50z"/>
		<path style="fill:#DC691D;" d="M30.556,0.043l13.97,13.637c4.009,3.914,5.639,9.663,4.28,15.098L48,32l0.807,18.164
			C54.46,44.873,58,37.354,58,29C58,13.506,45.848,0.851,30.556,0.043z"/>
	</g>
	<path style="fill:#FBCE9D;" d="M29,58c7.661,0,14.623-2.976,19.808-7.828L48,32l0.806-3.222c1.359-5.436-0.271-11.184-4.28-15.098
		L30.556,0.043C30.04,0.015,29.522,0,29,0C15.827,0,4.713,8.786,1.179,20.815L15,33c0,0-4.211,8.275-5.984,17.004
		C14.218,54.955,21.251,58,29,58z"/>
	<path style="fill:#F7F2D5;" d="M28.549,7.01c-1.409-1.581-3.346-2.357-5.252-2.321c-2.353,0.044-4.744-0.635-6.806-1.858
		c-3.234,1.549-6.131,3.683-8.566,6.259c1.881,2.315,2.819,5.223,2.763,8.208c-0.035,1.905,0.74,3.843,2.321,5.252
		c2.427,2.163,6.118,2.317,8.597,0.35c1.025-0.813,1.725-1.855,2.107-2.988c0.347-1.028,1.17-1.85,2.197-2.197
		c1.133-0.382,2.175-1.082,2.988-2.107C30.866,13.128,30.712,9.436,28.549,7.01z"/>
	<path style="fill:#F7F2D5;" d="M37.436,36.044c-1.3-0.15-2.532,0.092-3.603,0.623c-0.972,0.482-2.136,0.482-3.108,0
		c-1.071-0.531-2.303-0.773-3.603-0.623c-3.143,0.362-5.644,3.082-5.831,6.327c-0.122,2.114,0.7,4.032,2.072,5.355
		c2.447,2.358,3.966,5.554,3.966,9.001v1.222C27.882,57.98,28.439,58,29,58c2.878,0,5.655-0.425,8.279-1.206v-0.068
		c0-3.447,1.469-6.644,3.916-9.001c1.372-1.322,2.194-3.241,2.072-5.355C43.08,39.126,40.579,36.406,37.436,36.044z"/>
	<circle style="fill:#FFFFFF;" cx="32.279" cy="26" r="7"/>
</g>
<g>
</g>
<g>
</g>
<g>
</g>
<g>
</g>
<g>
</g>
<g>
</g>
<g>
</g>
<g>
</g>
<g>
</g>
<g>
</g>
<g>
</g>
<g>
</g>
<g>
</g>
<g>
</g>
<g>
</g>
</svg>
