<?xml version="1.0" encoding="iso-8859-1"?>
<!-- Generator: Adobe Illustrator 18.0.0, SVG Export Plug-In . SVG Version: 6.00 Build 0)  -->
<!DOCTYPE svg PUBLIC "-//W3C//DTD SVG 1.1//EN" "http://www.w3.org/Graphics/SVG/1.1/DTD/svg11.dtd">
<svg version="1.1" id="Capa_1" xmlns="http://www.w3.org/2000/svg" xmlns:xlink="http://www.w3.org/1999/xlink" x="0px" y="0px"
	 viewBox="0 0 58 58" style="enable-background:new 0 0 58 58;" xml:space="preserve">
<g>
	<circle style="fill:#E6E6E8;" cx="29" cy="29" r="29"/>
	<path style="fill:#BFBDC2;" d="M0.084,26.895C0.034,27.591,0,28.291,0,29s0.034,1.409,0.084,2.105C7.702,31.657,18.289,32,30,32
		c10.714,0,20.485-0.287,27.905-0.759C57.962,30.501,58,29.755,58,29s-0.038-1.501-0.095-2.241C50.485,26.287,40.714,26,30,26
		C18.289,26,7.702,26.343,0.084,26.895z"/>
	<path style="fill:#FFFFFF;" d="M43.667,11.002c-0.214,0-0.429-0.068-0.611-0.209C39,7.658,34.14,6,29,6c-0.552,0-1-0.448-1-1
		s0.448-1,1-1c5.587,0,10.87,1.802,15.28,5.211c0.437,0.338,0.517,0.966,0.179,1.403C44.262,10.869,43.966,11.002,43.667,11.002z"/>
	<path style="fill:#FFFFFF;" d="M20,7.745c-0.396,0-0.77-0.236-0.927-0.625c-0.208-0.512,0.04-1.095,0.552-1.302
		c0.68-0.275,1.381-0.523,2.083-0.737c1.023-0.312,2.075-0.559,3.126-0.735c0.545-0.089,1.06,0.277,1.151,0.821
		s-0.276,1.06-0.821,1.151c-0.966,0.162-1.933,0.389-2.874,0.675c-0.645,0.197-1.29,0.425-1.916,0.678
		C20.252,7.721,20.125,7.745,20,7.745z"/>
	<path style="fill:#FFFFFF;" d="M32.06,53.805c-0.496,0-0.926-0.368-0.99-0.873c-0.07-0.548,0.317-1.049,0.865-1.119
		c5.085-0.65,9.694-2.916,13.329-6.55c0.391-0.391,1.023-0.391,1.414,0s0.391,1.024,0,1.414c-3.951,3.951-8.961,6.413-14.489,7.119
		C32.146,53.803,32.103,53.805,32.06,53.805z"/>
	<path style="fill:#FFFFFF;" d="M48.563,43.907c-0.201,0-0.403-0.06-0.58-0.186c-0.45-0.321-0.554-0.945-0.234-1.395
		c0.569-0.798,1.092-1.643,1.555-2.51c0.318-0.598,0.613-1.215,0.875-1.834c0.216-0.509,0.802-0.745,1.311-0.531
		c0.509,0.216,0.746,0.803,0.531,1.311c-0.286,0.673-0.606,1.344-0.952,1.994c-0.504,0.944-1.073,1.862-1.691,2.73
		C49.184,43.761,48.876,43.907,48.563,43.907z"/>
</g>
<g>
</g>
<g>
</g>
<g>
</g>
<g>
</g>
<g>
</g>
<g>
</g>
<g>
</g>
<g>
</g>
<g>
</g>
<g>
</g>
<g>
</g>
<g>
</g>
<g>
</g>
<g>
</g>
<g>
</g>
</svg>
