<?xml version="1.0" encoding="iso-8859-1"?>
<!-- Generator: Adobe Illustrator 18.0.0, SVG Export Plug-In . SVG Version: 6.00 Build 0)  -->
<!DOCTYPE svg PUBLIC "-//W3C//DTD SVG 1.1//EN" "http://www.w3.org/Graphics/SVG/1.1/DTD/svg11.dtd">
<svg version="1.1" id="Capa_1" xmlns="http://www.w3.org/2000/svg" xmlns:xlink="http://www.w3.org/1999/xlink" x="0px" y="0px"
	 viewBox="0 0 58 58" style="enable-background:new 0 0 58 58;" xml:space="preserve">
<g>
	<path style="fill:#D19FBC;" d="M57.237,49.884C51.4,38.347,52.05,28.436,50.126,20.333c-1.215-5.117-3.869-9.152-9.126-10.42
		c-4.393-1.06-8.548,2.011-8.991,6.242c-0.163,1.559-1.441,2.758-3.009,2.758h0c-1.568,0-2.845-1.199-3.009-2.758
		C25.548,11.923,21.393,8.853,17,9.913c-5.257,1.268-7.911,5.303-9.126,10.42C5.95,28.436,6.6,39.375,0.763,50.913
		c-2.815,5.566,2.629,5.189,8.609,5c7.633-0.242,15.81-2.088,17.628-10c1.06-4.614-1-12.28-1-17v0c0-1.652,1.339-2.992,2.992-2.992
		h0.017c1.652,0,2.992,1.339,2.992,2.992v0c0,4.72-2.06,12.386-1,17c1.817,7.912,9.994,9.73,17.628,9.972
		C54.608,56.074,60.052,55.45,57.237,49.884z"/>
	<g>
		<circle style="fill:#965D80;" cx="20" cy="12" r="1"/>
		<circle style="fill:#965D80;" cx="14" cy="18" r="1"/>
		<circle style="fill:#965D80;" cx="17" cy="15" r="1"/>
		<circle style="fill:#965D80;" cx="23" cy="15" r="1"/>
		<circle style="fill:#965D80;" cx="35" cy="15" r="1"/>
		<circle style="fill:#965D80;" cx="38" cy="12" r="1"/>
		<circle style="fill:#965D80;" cx="44" cy="18" r="1"/>
		<circle style="fill:#965D80;" cx="41" cy="15" r="1"/>
		<circle style="fill:#965D80;" cx="11" cy="21" r="1"/>
		<circle style="fill:#965D80;" cx="17" cy="21" r="1"/>
		<circle style="fill:#965D80;" cx="41" cy="21" r="1"/>
		<circle style="fill:#965D80;" cx="47" cy="21" r="1"/>
		<circle style="fill:#965D80;" cx="8" cy="30" r="1"/>
		<circle style="fill:#965D80;" cx="11" cy="27" r="1"/>
		<circle style="fill:#965D80;" cx="14" cy="24" r="1"/>
		<circle style="fill:#965D80;" cx="14" cy="30" r="1"/>
		<circle style="fill:#965D80;" cx="20" cy="30" r="1"/>
		<circle style="fill:#965D80;" cx="17" cy="27" r="1"/>
		<circle style="fill:#965D80;" cx="23" cy="27" r="1"/>
		<circle style="fill:#965D80;" cx="35" cy="27" r="1"/>
		<circle style="fill:#965D80;" cx="44" cy="24" r="1"/>
		<circle style="fill:#965D80;" cx="38" cy="30" r="1"/>
		<circle style="fill:#965D80;" cx="44" cy="30" r="1"/>
		<circle style="fill:#965D80;" cx="41" cy="27" r="1"/>
		<circle style="fill:#965D80;" cx="47" cy="27" r="1"/>
		<circle style="fill:#965D80;" cx="50" cy="30" r="1"/>
		<circle style="fill:#965D80;" cx="11" cy="33" r="1"/>
		<circle style="fill:#965D80;" cx="17" cy="33" r="1"/>
		<circle style="fill:#965D80;" cx="23" cy="33" r="1"/>
		<circle style="fill:#965D80;" cx="35" cy="33" r="1"/>
		<circle style="fill:#965D80;" cx="41" cy="33" r="1"/>
		<circle style="fill:#965D80;" cx="47" cy="33" r="1"/>
		<circle style="fill:#965D80;" cx="8" cy="36" r="1"/>
		<circle style="fill:#965D80;" cx="8" cy="42" r="1"/>
		<circle style="fill:#965D80;" cx="11" cy="39" r="1"/>
		<circle style="fill:#965D80;" cx="14" cy="36" r="1"/>
		<circle style="fill:#965D80;" cx="20" cy="36" r="1"/>
		<circle style="fill:#965D80;" cx="14" cy="42" r="1"/>
		<circle style="fill:#965D80;" cx="20" cy="42" r="1"/>
		<circle style="fill:#965D80;" cx="17" cy="39" r="1"/>
		<circle style="fill:#965D80;" cx="23" cy="39" r="1"/>
		<circle style="fill:#965D80;" cx="26" cy="42" r="1"/>
		<circle style="fill:#965D80;" cx="32" cy="42" r="1"/>
		<circle style="fill:#965D80;" cx="35" cy="39" r="1"/>
		<circle style="fill:#965D80;" cx="38" cy="36" r="1"/>
		<circle style="fill:#965D80;" cx="44" cy="36" r="1"/>
		<circle style="fill:#965D80;" cx="38" cy="42" r="1"/>
		<circle style="fill:#965D80;" cx="44" cy="42" r="1"/>
		<circle style="fill:#965D80;" cx="41" cy="39" r="1"/>
		<circle style="fill:#965D80;" cx="47" cy="39" r="1"/>
		<circle style="fill:#965D80;" cx="50" cy="36" r="1"/>
		<circle style="fill:#965D80;" cx="50" cy="42" r="1"/>
		<circle style="fill:#965D80;" cx="5" cy="45" r="1"/>
		<circle style="fill:#965D80;" cx="11" cy="45" r="1"/>
		<circle style="fill:#965D80;" cx="17" cy="45" r="1"/>
		<circle style="fill:#965D80;" cx="23" cy="45" r="1"/>
		<circle style="fill:#965D80;" cx="35" cy="45" r="1"/>
		<circle style="fill:#965D80;" cx="41" cy="45" r="1"/>
		<circle style="fill:#965D80;" cx="47" cy="45" r="1"/>
		<circle style="fill:#965D80;" cx="53" cy="45" r="1"/>
		<circle style="fill:#965D80;" cx="8" cy="48" r="1"/>
		<circle style="fill:#965D80;" cx="2" cy="54" r="1"/>
		<circle style="fill:#965D80;" cx="8" cy="54" r="1"/>
		<circle style="fill:#965D80;" cx="5" cy="51" r="1"/>
		<circle style="fill:#965D80;" cx="11" cy="51" r="1"/>
		<circle style="fill:#965D80;" cx="14" cy="48" r="1"/>
		<circle style="fill:#965D80;" cx="20" cy="48" r="1"/>
		<circle style="fill:#965D80;" cx="14" cy="54" r="1"/>
		<circle style="fill:#965D80;" cx="17" cy="51" r="1"/>
		<circle style="fill:#965D80;" cx="38" cy="48" r="1"/>
		<circle style="fill:#965D80;" cx="44" cy="48" r="1"/>
		<circle style="fill:#965D80;" cx="44" cy="54" r="1"/>
		<circle style="fill:#965D80;" cx="41" cy="51" r="1"/>
		<circle style="fill:#965D80;" cx="47" cy="51" r="1"/>
		<circle style="fill:#965D80;" cx="50" cy="48" r="1"/>
		<circle style="fill:#965D80;" cx="50" cy="54" r="1"/>
		<circle style="fill:#965D80;" cx="53" cy="51" r="1"/>
		<circle style="fill:#965D80;" cx="56" cy="54" r="1"/>
	</g>
	<path style="fill:#EFC1B2;" d="M29.021,18.913h-0.043c-1.645,0-2.979-1.334-2.979-2.979V3h6v12.934
		C32,17.579,30.666,18.913,29.021,18.913z"/>
	<path style="fill:#C3897E;" d="M25,2v4v2v2v2v2v1.913v0.021V16h0.007c0.036,2.163,1.8,3.913,3.972,3.913h0.043
		c2.171,0,3.936-1.75,3.972-3.913H33v-0.065v-0.021V14v-2v-2V8V6V2H25z M29.021,17.913h-0.043c-1.068,0-1.936-0.853-1.972-1.913
		h3.987C30.958,17.06,30.09,17.913,29.021,17.913z M31,14h-4v-2h4V14z M31,10h-4V8h4V10z M27,6V4h4v2H27z"/>
	<path style="fill:#965D80;" d="M34.822,22.172C39.108,20.878,42,18.189,42,15c0-0.553-0.447-1-1-1s-1,0.447-1,1
		c0,3.252-5.037,6-11,6s-11-2.748-11-6c0-0.553-0.447-1-1-1s-1,0.447-1,1c0,3.189,2.892,5.878,7.178,7.172
		C16.668,24.837,12,31.812,12,40c0,0.553,0.447,1,1,1s1-0.447,1-1c0-9.374,6.729-17,15-17s15,7.626,15,17c0,0.553,0.447,1,1,1
		s1-0.447,1-1C46,31.812,41.332,24.837,34.822,22.172z"/>
</g>
<g>
</g>
<g>
</g>
<g>
</g>
<g>
</g>
<g>
</g>
<g>
</g>
<g>
</g>
<g>
</g>
<g>
</g>
<g>
</g>
<g>
</g>
<g>
</g>
<g>
</g>
<g>
</g>
<g>
</g>
</svg>
