<?xml version="1.0" encoding="iso-8859-1"?>
<!-- Generator: Adobe Illustrator 18.0.0, SVG Export Plug-In . SVG Version: 6.00 Build 0)  -->
<!DOCTYPE svg PUBLIC "-//W3C//DTD SVG 1.1//EN" "http://www.w3.org/Graphics/SVG/1.1/DTD/svg11.dtd">
<svg version="1.1" id="Capa_1" xmlns="http://www.w3.org/2000/svg" xmlns:xlink="http://www.w3.org/1999/xlink" x="0px" y="0px"
	 viewBox="0 0 56 56" style="enable-background:new 0 0 56 56;" xml:space="preserve">
<g>
	<rect x="4" style="fill:#DD352E;" width="42" height="56"/>
	<polygon style="fill:#FFFFFF;" points="32,16 28,16 28,12 22,12 22,16 18,16 18,22 22,22 22,26 28,26 28,22 32,22 	"/>
	<path style="fill:#ED7161;" d="M30,37H20c-0.552,0-1-0.447-1-1s0.448-1,1-1h10c0.552,0,1,0.447,1,1S30.552,37,30,37z"/>
	<path style="fill:#ED7161;" d="M34,41H16c-0.552,0-1-0.447-1-1s0.448-1,1-1h18c0.552,0,1,0.447,1,1S34.552,41,34,41z"/>
	<path style="fill:#ED7161;" d="M34,45H16c-0.552,0-1-0.447-1-1s0.448-1,1-1h18c0.552,0,1,0.447,1,1S34.552,45,34,45z"/>
	<rect x="46" style="fill:#61B872;" width="6" height="10"/>
	<rect x="46" y="10" style="fill:#EBBA16;" width="6" height="10"/>
	<rect x="46" y="20" style="fill:#DC691D;" width="6" height="10"/>
	<rect x="46" y="30" style="fill:#C03A2B;" width="6" height="10"/>
	<rect x="46" y="40" style="fill:#A485BE;" width="6" height="10"/>
</g>
<g>
</g>
<g>
</g>
<g>
</g>
<g>
</g>
<g>
</g>
<g>
</g>
<g>
</g>
<g>
</g>
<g>
</g>
<g>
</g>
<g>
</g>
<g>
</g>
<g>
</g>
<g>
</g>
<g>
</g>
</svg>
