<?xml version="1.0" encoding="iso-8859-1"?>
<!-- Generator: Adobe Illustrator 18.0.0, SVG Export Plug-In . SVG Version: 6.00 Build 0)  -->
<!DOCTYPE svg PUBLIC "-//W3C//DTD SVG 1.1//EN" "http://www.w3.org/Graphics/SVG/1.1/DTD/svg11.dtd">
<svg version="1.1" id="Capa_1" xmlns="http://www.w3.org/2000/svg" xmlns:xlink="http://www.w3.org/1999/xlink" x="0px" y="0px"
	 viewBox="0 0 57.07 57.07" style="enable-background:new 0 0 57.07 57.07;" xml:space="preserve">
<g>
	<path style="fill:#25AE5F;" d="M57.07,13.117c0.047-4.598-3.958-8.143-8.555-8.079C44.604,5.093,40.83,5.722,37.27,6.84
		c-0.917,0.288-1.895-0.015-2.574-0.695c-0.004-0.004-0.008-0.008-0.012-0.012c-2.598-2.598-6.041-4.049-9.712-4.097
		c-1.037-0.014-2.016,0.669-2.167,1.695c-0.182,1.239,0.774,2.304,1.977,2.303c0.983,0,2.197,0.395,3.341,0.896
		c1.654,0.724,1.827,3.004,0.291,3.954c-0.418,0.258-0.831,0.524-1.238,0.798c-1.418,0.951-3.133,1.317-4.817,1.03
		c-0.754-0.128-1.523-0.195-2.304-0.195c-3.677,0-7.14,1.41-9.77,3.976c-0.762,0.743-0.946,1.956-0.281,2.786
		c0.804,1.002,2.311,1.007,3.12,0.014c0.853-1.048,1.905-1.927,3.208-2.283c8.517-2.331,1.553,3.027-0.455,6.138
		c-0.414,0.642-1.146,0.98-1.908,0.922c-0.303-0.023-0.608-0.036-0.915-0.036c-3.675,0-7.134,1.408-9.764,3.97
		c-0.743,0.724-0.953,1.899-0.334,2.731c0.748,1.005,2.176,1.082,3.027,0.23c0.879-0.879,2.462-1.567,3.921-2.054
		c1.296-0.432,2.523,0.831,2.054,2.114c-0.343,0.939-0.652,1.894-0.924,2.865c-0.377,1.345-1.411,2.373-2.738,2.811
		c-0.007,0.002-0.015,0.005-0.022,0.007c-3.498,1.164-6.342,3.605-8.027,6.882c-0.468,0.91-0.277,2.079,0.561,2.665
		c1.027,0.718,2.407,0.34,2.945-0.737c1.234-2.465,5.814-2.566,5.815-1.284c0.002,2.737,0.825,5.433,3.161,6.859
		c4.541,2.772,9.202,1.243,11.453-2.06c0.423-0.621,0.764-1.897,1.006-3.098c0.313-1.552,2.072-2.329,3.437-1.526
		c2.935,1.728,4.916,4.911,4.942,8.551c0.007,1.021,0.753,1.944,1.767,2.059c1.209,0.137,2.233-0.806,2.233-1.987
		c0-6.814-4.897-12.498-11.354-13.74c-0.026-0.005-0.043-0.03-0.037-0.056c0.004-0.017,0.008-0.033,0.012-0.05
		c0.886-3.794,4.61-5.389,8.027-3.519c2.261,1.237,4.047,3.34,4.812,6.004c0.28,0.975,1.253,1.651,2.254,1.488
		c1.201-0.196,1.932-1.38,1.612-2.517c-1.265-4.496-4.601-7.854-8.685-9.345c-1.767-0.645-2.234-2.98-0.834-4.237
		c0.013-0.012,0.027-0.024,0.04-0.036c0.335-0.3,0.75-0.512,1.194-0.584c5.045-0.817,9.977,2.34,11.273,7.368
		c0.257,0.996,1.223,1.72,2.241,1.572c1.191-0.173,1.943-1.327,1.659-2.465c-0.83-3.325-2.794-6.07-5.376-7.933
		c-1.451-1.047-0.931-3.348,0.834-3.639c1.245-0.205,2.524-0.312,3.826-0.312c0.004,0,0.007,0,0.011,0
		c0.715-0.001,1.413,0.271,1.855,0.833c1.322,1.682,2.117,3.797,2.134,6.094c0.007,1.021,0.753,1.945,1.767,2.06
		c1.209,0.137,2.233-0.806,2.233-1.987c0-2.447-0.635-4.746-1.744-6.747c-0.607-1.095-0.603-2.465,0.149-3.466
		C56.461,16.507,57.052,14.882,57.07,13.117z"/>
	<g>
		<circle style="fill:#219B52;" cx="18.07" cy="47.035" r="3"/>
		<circle style="fill:#219B52;" cx="20.07" cy="36.035" r="3"/>
		<circle style="fill:#219B52;" cx="25.07" cy="26.035" r="3"/>
		<circle style="fill:#219B52;" cx="34.07" cy="19.035" r="3"/>
		<circle style="fill:#219B52;" cx="45.07" cy="15.035" r="3"/>
	</g>
	<g>
		<circle style="fill:#2CCD70;" cx="17.07" cy="46.035" r="3"/>
		<circle style="fill:#2CCD70;" cx="19.07" cy="35.035" r="3"/>
		<circle style="fill:#2CCD70;" cx="24.07" cy="25.035" r="3"/>
		<circle style="fill:#2CCD70;" cx="33.07" cy="18.035" r="3"/>
		<circle style="fill:#2CCD70;" cx="44.07" cy="14.035" r="3"/>
	</g>
	<circle style="fill:#3AED82;" cx="16.57" cy="45.535" r="1.5"/>
	<circle style="fill:#3AED82;" cx="19.57" cy="33.535" r="1.5"/>
	<circle style="fill:#3AED82;" cx="22.57" cy="25.535" r="1.5"/>
	<circle style="fill:#3AED82;" cx="31.57" cy="17.535" r="1.5"/>
	<circle style="fill:#3AED82;" cx="44.57" cy="12.535" r="1.5"/>
</g>
<g>
</g>
<g>
</g>
<g>
</g>
<g>
</g>
<g>
</g>
<g>
</g>
<g>
</g>
<g>
</g>
<g>
</g>
<g>
</g>
<g>
</g>
<g>
</g>
<g>
</g>
<g>
</g>
<g>
</g>
</svg>
