<?xml version="1.0" encoding="iso-8859-1"?>
<!-- Generator: Adobe Illustrator 18.0.0, SVG Export Plug-In . SVG Version: 6.00 Build 0)  -->
<!DOCTYPE svg PUBLIC "-//W3C//DTD SVG 1.1//EN" "http://www.w3.org/Graphics/SVG/1.1/DTD/svg11.dtd">
<svg version="1.1" id="Capa_1" xmlns="http://www.w3.org/2000/svg" xmlns:xlink="http://www.w3.org/1999/xlink" x="0px" y="0px"
	 viewBox="0 0 59 59" style="enable-background:new 0 0 59 59;" xml:space="preserve">
<g>
	<circle style="fill:#E7ECED;" cx="49.979" cy="9" r="8"/>
	<path style="fill:#FFFFFF;" d="M46.979,16.413c0.927,0.376,1.938,0.587,3,0.587c0.339,0,0.672-0.028,1-0.069V1.069
		C50.65,1.028,50.318,1,49.979,1c-1.062,0-2.073,0.211-3,0.587V16.413z"/>
	<path style="fill:#AFB6BB;" d="M36.978,23.001c-0.256,0-0.512-0.098-0.707-0.293c-0.391-0.391-0.391-1.023,0-1.414l7.345-7.345
		c0.391-0.391,1.023-0.391,1.414,0s0.391,1.023,0,1.414l-7.345,7.345C37.49,22.903,37.234,23.001,36.978,23.001z"/>
	<path style="fill:#72A6BF;" d="M1.094,52.746l30.853-30.853c0.547-0.547,1.337-0.773,2.09-0.599l4.942,1.14
		c0.986,0.228,1.337,1.451,0.621,2.167L6.275,57.927c-1.431,1.431-3.75,1.431-5.181,0l0,0C-0.336,56.496-0.336,54.177,1.094,52.746z
		"/>
	<path style="fill:#556080;" d="M8.219,56.984c-0.381,0-0.744-0.218-0.911-0.586L4.07,49.275c-0.229-0.503-0.007-1.096,0.496-1.324
		c0.508-0.23,1.097-0.005,1.324,0.496l3.238,7.124c0.229,0.503,0.007,1.096-0.496,1.324C8.497,56.956,8.357,56.984,8.219,56.984z"/>
	<path style="fill:#556080;" d="M12.104,53.099c-0.381,0-0.744-0.218-0.911-0.586l-3.237-7.123
		c-0.229-0.502-0.007-1.095,0.496-1.324c0.507-0.23,1.097-0.005,1.324,0.497l3.237,7.123c0.229,0.502,0.007,1.095-0.496,1.324
		C12.382,53.07,12.241,53.099,12.104,53.099z"/>
	<path style="fill:#556080;" d="M15.99,49.213c-0.381,0-0.744-0.218-0.911-0.586l-3.238-7.124c-0.229-0.503-0.007-1.096,0.496-1.324
		c0.508-0.23,1.097-0.005,1.324,0.496l3.238,7.124c0.229,0.503,0.007,1.096-0.496,1.324C16.268,49.185,16.127,49.213,15.99,49.213z"
		/>
	<path style="fill:#C7CAC7;" d="M49.979,18c-4.963,0-9-4.038-9-9s4.037-9,9-9s9,4.038,9,9S54.942,18,49.979,18z M49.979,2
		c-3.859,0-7,3.14-7,7s3.141,7,7,7s7-3.14,7-7S53.838,2,49.979,2z"/>
</g>
<g>
</g>
<g>
</g>
<g>
</g>
<g>
</g>
<g>
</g>
<g>
</g>
<g>
</g>
<g>
</g>
<g>
</g>
<g>
</g>
<g>
</g>
<g>
</g>
<g>
</g>
<g>
</g>
<g>
</g>
</svg>
