<?xml version="1.0" encoding="iso-8859-1"?>
<!-- Generator: Adobe Illustrator 18.0.0, SVG Export Plug-In . SVG Version: 6.00 Build 0)  -->
<!DOCTYPE svg PUBLIC "-//W3C//DTD SVG 1.1//EN" "http://www.w3.org/Graphics/SVG/1.1/DTD/svg11.dtd">
<svg version="1.1" id="Capa_1" xmlns="http://www.w3.org/2000/svg" xmlns:xlink="http://www.w3.org/1999/xlink" x="0px" y="0px"
	 viewBox="0 0 54.666 54.666" style="enable-background:new 0 0 54.666 54.666;" xml:space="preserve">
<g>
	<path style="fill:#ED9893;" d="M50.318,16.597L50.318,16.597c-2.993,0-5.738,1.22-7.73,3.222c0.168,3.781-0.685,7.8-1.581,11.572
		c-0.062,0.524-0.144,1.048-0.269,1.568c-0.21,0.875-0.415,1.733-0.602,2.566c-0.583,2.602-1.071,5.267-2.41,7.613
		c-0.559,0.98-1.087,1.352-1.575,1.348c-1.415,0.155-2.501-2.985-3.004-4.534c-0.818-2.521-1.084-5.776-3.602-7.276
		c-0.625-0.372-1.24-0.557-1.832-0.591c-1.739-0.048-3.281,1.187-4.349,2.75c-1.472,2.154-2.03,4.656-2.964,7.051
		c-0.432,1.108-0.908,2.216-2.079,2.712c-0.026,0-0.049-0.015-0.075-0.017c-0.011,0.005-0.021,0.012-0.032,0.017
		c-1.243,0-2.106-2.271-2.563-3.374c-2.492-6.017-3.258-12.835-4.22-19.231c-0.086-0.568-0.136-1.15-0.152-1.736
		c-1.663-1.55-3.705-2.682-5.957-3.249c-3.27-0.823-6.145,2.361-5.109,5.57l7.465,23.141c0.361,1.12,1.404,1.879,2.581,1.879h34.051
		c1.177,0,2.219-0.759,2.581-1.879l7.562-23.441C55.359,19.471,53.266,16.597,50.318,16.597z"/>
	<path style="fill:#D18684;" d="M40.349,44.597c1.412-2.489,1.983-5.089,2.536-7.604l0.18-0.813
		c0.184-0.819,0.385-1.662,0.591-2.523c0.128-0.531,0.228-1.088,0.31-1.736c0.784-3.313,1.589-7.073,1.642-10.761
		c1.358-1.015,2.994-1.563,4.712-1.563c0.596,0,0.937,0.347,1.087,0.553c0.15,0.207,0.376,0.639,0.192,1.206L44.1,44.597H40.349z
		 M22.462,44.597c0.339-0.605,0.563-1.185,0.734-1.622c0.282-0.724,0.532-1.456,0.781-2.187c0.536-1.573,1.042-3.06,1.864-4.261
		c0.679-0.993,1.396-1.444,1.774-1.444c0.055,0.004,0.213,0.062,0.394,0.17c0.856,0.51,1.251,1.816,1.756,3.752
		c0.168,0.643,0.335,1.275,0.528,1.872c0.316,0.974,0.787,2.425,1.545,3.72H22.462z M10.471,44.597l-7.4-22.94
		c-0.187-0.577,0.045-1.019,0.199-1.23c0.251-0.345,0.628-0.551,1.007-0.551c0.102,0,0.207,0.014,0.314,0.041
		c1.365,0.343,2.655,0.963,3.783,1.813c0.026,0.239,0.057,0.477,0.093,0.712c0.116,0.778,0.23,1.564,0.346,2.354
		c0.854,5.876,1.738,11.951,4.068,17.576l0.074,0.18c0.226,0.549,0.532,1.295,0.96,2.046H10.471z"/>
	<path style="fill:#E7ECED;" d="M42.061,16.194c1.61,6.085-0.689,13.342-2.031,19.33c-0.583,2.602-1.071,5.267-2.41,7.612
		c-2.118,3.713-3.807-1.135-4.472-3.185c-0.818-2.521-1.084-5.776-3.602-7.275c-2.508-1.494-4.835,0.033-6.288,2.158
		c-1.472,2.154-2.03,4.656-2.964,7.051c-0.432,1.108-0.908,2.216-2.079,2.712c-1.243,0-2.106-2.271-2.563-3.374
		c-2.492-6.017-3.258-12.835-4.22-19.231c-0.677-4.5,0.782-12.674,5.456-14.331c2.54-0.9,6.019-0.07,8.562,0.679
		c1.461,0.431,1.192,0.29,2.648-0.215c0.112-0.039,0.222-0.091,0.336-0.138c3.115-1.289,7.1-1.299,9.842,0.464
		C40.126,9.642,41.526,14.171,42.061,16.194z"/>
	<g>
		<circle style="fill:#B5A896;" cx="14.275" cy="21.597" r="1"/>
		<circle style="fill:#B5A896;" cx="15.275" cy="25.597" r="1"/>
		<circle style="fill:#B5A896;" cx="16.275" cy="29.597" r="1"/>
		<circle style="fill:#B5A896;" cx="17.275" cy="33.597" r="1"/>
		<circle style="fill:#B5A896;" cx="18.275" cy="37.597" r="1"/>
		<circle style="fill:#B5A896;" cx="19.275" cy="31.597" r="1"/>
		<circle style="fill:#B5A896;" cx="18.275" cy="27.597" r="1"/>
		<circle style="fill:#B5A896;" cx="17.275" cy="23.597" r="1"/>
		<circle style="fill:#B5A896;" cx="40.275" cy="21.597" r="1"/>
		<circle style="fill:#B5A896;" cx="39.275" cy="25.597" r="1"/>
		<circle style="fill:#B5A896;" cx="38.275" cy="29.597" r="1"/>
		<circle style="fill:#B5A896;" cx="37.275" cy="33.597" r="1"/>
		<circle style="fill:#B5A896;" cx="36.275" cy="37.597" r="1"/>
		<circle style="fill:#B5A896;" cx="35.275" cy="31.597" r="1"/>
		<circle style="fill:#B5A896;" cx="36.275" cy="27.597" r="1"/>
		<circle style="fill:#B5A896;" cx="37.275" cy="23.597" r="1"/>
	</g>
</g>
<g>
</g>
<g>
</g>
<g>
</g>
<g>
</g>
<g>
</g>
<g>
</g>
<g>
</g>
<g>
</g>
<g>
</g>
<g>
</g>
<g>
</g>
<g>
</g>
<g>
</g>
<g>
</g>
<g>
</g>
</svg>
