<?xml version="1.0" encoding="iso-8859-1"?>
<!-- Generator: Adobe Illustrator 18.0.0, SVG Export Plug-In . SVG Version: 6.00 Build 0)  -->
<!DOCTYPE svg PUBLIC "-//W3C//DTD SVG 1.1//EN" "http://www.w3.org/Graphics/SVG/1.1/DTD/svg11.dtd">
<svg version="1.1" id="Capa_1" xmlns="http://www.w3.org/2000/svg" xmlns:xlink="http://www.w3.org/1999/xlink" x="0px" y="0px"
	 viewBox="0 0 54.594 54.594" style="enable-background:new 0 0 54.594 54.594;" xml:space="preserve">
<g>
	<path style="fill:#ECE3D2;" d="M51.08,9.909c2.533,9.574-1.084,20.991-3.195,30.411c-0.918,4.094-1.685,8.286-3.791,11.976
		c-3.333,5.841-5.989-1.786-7.036-5.012c-1.287-3.965-1.706-9.087-5.667-11.446c-3.946-2.35-7.607,0.052-9.893,3.396
		c-2.316,3.388-3.194,7.325-4.663,11.093c-0.679,1.743-1.428,3.486-3.271,4.266c-1.956,0-3.314-3.573-4.032-5.308
		c-3.92-9.466-5.125-20.193-6.639-30.255c-1.065-7.079,1.23-15.493,8.584-18.099c3.996-1.416,9.469-0.11,13.47,1.069
		c2.299,0.678,1.875,0.457,4.165-0.338c0.176-0.061,0.349-0.143,0.529-0.218c4.901-2.027,10.809-2.043,15.122,0.731
		C47.674,4.048,50.238,6.726,51.08,9.909z"/>
	<path style="fill:#F7EDDF;" d="M46.863,5.505c-0.582-0.476-1.188-0.925-1.817-1.329c-4.314-2.774-10.221-2.758-15.122-0.731
		c-0.18,0.074-0.352,0.157-0.529,0.218c-2.29,0.794-1.867,1.015-4.165,0.338c-4-1.179-9.474-2.485-13.47-1.069
		c-1.472,0.522-2.733,1.284-3.813,2.214c4.361,4.454,11.53,7.363,19.644,7.363C35.483,12.509,42.473,9.753,46.863,5.505z"/>
	<path style="fill:#DDD3C3;" d="M31.391,35.839c-3.946-2.35-7.607,0.052-9.893,3.395c-0.373,0.545-0.698,1.109-1.005,1.679
		c0.09,0.215,0.177,0.423,0.276,0.658c1.122,2.655,4.21,8.478,7.935,7.373c1.884-0.559,2.876-2.698,3.661-4.311
		c0.61-1.253,1.773-3.18,2.347-4.882C33.98,38.175,32.975,36.782,31.391,35.839z"/>
	<path style="fill:#FFF6EB;" d="M32.95,14.689c0.023-6.103,0.014-8.762-5.582-12.384C26.747,2.493,26.363,2.418,24.947,2
		c-1.481-0.437-3.163-0.889-4.898-1.216l4.406,2.086c6.526,3.691,6.521,5.25,6.496,11.812L30.947,16c0,0.553,0.448,1,1,1
		s1-0.447,1-1L32.95,14.689z"/>
	<g>
		<circle style="fill:#B5A896;" cx="17.647" cy="12" r="1"/>
		<circle style="fill:#B5A896;" cx="15.647" cy="18" r="1"/>
		<circle style="fill:#B5A896;" cx="7.647" cy="18" r="1"/>
		<circle style="fill:#B5A896;" cx="19.647" cy="14" r="1"/>
		<circle style="fill:#B5A896;" cx="21.647" cy="12" r="1"/>
		<circle style="fill:#B5A896;" cx="17.647" cy="8" r="1"/>
		<circle style="fill:#B5A896;" cx="19.647" cy="10" r="1"/>
		<circle style="fill:#B5A896;" cx="21.647" cy="8" r="1"/>
		<circle style="fill:#B5A896;" cx="19.647" cy="6" r="1"/>
		<circle style="fill:#B5A896;" cx="17.647" cy="16" r="1"/>
		<circle style="fill:#B5A896;" cx="11.647" cy="18" r="1"/>
		<circle style="fill:#B5A896;" cx="17.647" cy="4" r="1"/>
		<circle style="fill:#B5A896;" cx="15.647" cy="14" r="1"/>
		<circle style="fill:#B5A896;" cx="15.647" cy="10" r="1"/>
		<circle style="fill:#B5A896;" cx="9.647" cy="12" r="1"/>
		<circle style="fill:#B5A896;" cx="7.647" cy="14" r="1"/>
		<circle style="fill:#B5A896;" cx="11.647" cy="14" r="1"/>
		<circle style="fill:#B5A896;" cx="13.647" cy="12" r="1"/>
		<circle style="fill:#B5A896;" cx="9.647" cy="8" r="1"/>
		<circle style="fill:#B5A896;" cx="7.647" cy="10" r="1"/>
		<circle style="fill:#B5A896;" cx="11.647" cy="10" r="1"/>
		<circle style="fill:#B5A896;" cx="13.647" cy="8" r="1"/>
		<circle style="fill:#B5A896;" cx="13.647" cy="4" r="1"/>
		<circle style="fill:#B5A896;" cx="11.647" cy="6" r="1"/>
		<circle style="fill:#B5A896;" cx="15.647" cy="6" r="1"/>
		<circle style="fill:#B5A896;" cx="13.647" cy="16" r="1"/>
		<circle style="fill:#B5A896;" cx="9.647" cy="16" r="1"/>
	</g>
</g>
<g>
</g>
<g>
</g>
<g>
</g>
<g>
</g>
<g>
</g>
<g>
</g>
<g>
</g>
<g>
</g>
<g>
</g>
<g>
</g>
<g>
</g>
<g>
</g>
<g>
</g>
<g>
</g>
<g>
</g>
</svg>
