<?xml version="1.0" encoding="iso-8859-1"?>
<!-- Generator: Adobe Illustrator 18.0.0, SVG Export Plug-In . SVG Version: 6.00 Build 0)  -->
<!DOCTYPE svg PUBLIC "-//W3C//DTD SVG 1.1//EN" "http://www.w3.org/Graphics/SVG/1.1/DTD/svg11.dtd">
<svg version="1.1" id="Capa_1" xmlns="http://www.w3.org/2000/svg" xmlns:xlink="http://www.w3.org/1999/xlink" x="0px" y="0px"
	 viewBox="0 0 54.594 54.594" style="enable-background:new 0 0 54.594 54.594;" xml:space="preserve">
<g>
	<path style="fill:#ECE3D2;" d="M51.08,9.909c2.533,9.574-1.084,20.991-3.195,30.411c-0.918,4.094-1.685,8.286-3.791,11.976
		c-3.333,5.841-5.989-1.786-7.036-5.012c-1.287-3.965-1.706-9.087-5.667-11.446c-3.946-2.35-7.607,0.052-9.893,3.396
		c-2.316,3.388-3.194,7.325-4.663,11.093c-0.679,1.743-1.428,3.486-3.271,4.266c-1.956,0-3.314-3.573-4.032-5.308
		c-3.92-9.466-5.125-20.193-6.639-30.255c-1.065-7.079,1.23-15.493,8.584-18.099c3.996-1.416,9.469-0.11,13.47,1.069
		c2.299,0.678,1.875,0.457,4.165-0.338c0.176-0.061,0.349-0.143,0.529-0.218c4.901-2.027,10.809-2.043,15.122,0.731
		C47.674,4.048,50.238,6.726,51.08,9.909z"/>
	<path style="fill:#F7EDDF;" d="M45.863,5.505c-0.582-0.476-1.188-0.925-1.817-1.329c-4.314-2.774-10.221-2.758-15.122-0.731
		c-0.18,0.074-0.352,0.157-0.529,0.218c-0.803,0.279-1.271,0.485-1.641,0.608c-0.661-0.441-1.413-0.9-2.299-1.401
		c-0.41-0.232-0.575-0.707-0.45-1.141C24.325,1.82,24.642,1.911,24.947,2c-4-1.179-9.474-2.485-13.47-1.069
		c-5.081,1.8-7.745,6.374-8.556,11.364C4.963,19.729,10.019,25,15.947,25c5.896,0,10.935-5.21,12.997-12.581
		C35.862,11.932,41.915,9.325,45.863,5.505z"/>
	<path style="fill:#FFFFFF;" d="M14.947,15.415L10.533,11l4.414-4.414L19.361,11L14.947,15.415z M13.361,11l1.586,1.586L16.533,11
		l-1.586-1.586L13.361,11z"/>
	<path style="fill:#FFFFFF;" d="M14.947,9c-0.553,0-1-0.447-1-1V6c0-0.553,0.447-1,1-1s1,0.447,1,1v2C15.947,8.553,15.5,9,14.947,9z
		"/>
	<path style="fill:#FFFFFF;" d="M11.947,12h-2c-0.553,0-1-0.447-1-1s0.447-1,1-1h2c0.553,0,1,0.447,1,1S12.5,12,11.947,12z"/>
	<path style="fill:#FFFFFF;" d="M19.947,12h-2c-0.553,0-1-0.447-1-1s0.447-1,1-1h2c0.553,0,1,0.447,1,1S20.5,12,19.947,12z"/>
	<path style="fill:#FFFFFF;" d="M14.947,17c-0.553,0-1-0.447-1-1v-2c0-0.553,0.447-1,1-1s1,0.447,1,1v2
		C15.947,16.553,15.5,17,14.947,17z"/>
	<path style="fill:#FFFFFF;" d="M40.947,33.415L36.533,29l4.414-4.414L45.361,29L40.947,33.415z M39.361,29l1.586,1.586L42.533,29
		l-1.586-1.586L39.361,29z"/>
	<path style="fill:#FFFFFF;" d="M40.947,27c-0.553,0-1-0.447-1-1v-2c0-0.553,0.447-1,1-1s1,0.447,1,1v2
		C41.947,26.553,41.5,27,40.947,27z"/>
	<path style="fill:#FFFFFF;" d="M37.947,30h-2c-0.553,0-1-0.447-1-1s0.447-1,1-1h2c0.553,0,1,0.447,1,1S38.5,30,37.947,30z"/>
	<path style="fill:#FFFFFF;" d="M45.947,30h-2c-0.553,0-1-0.447-1-1s0.447-1,1-1h2c0.553,0,1,0.447,1,1S46.5,30,45.947,30z"/>
	<path style="fill:#FFFFFF;" d="M40.947,35c-0.553,0-1-0.447-1-1v-2c0-0.553,0.447-1,1-1s1,0.447,1,1v2
		C41.947,34.553,41.5,35,40.947,35z"/>
	<path style="fill:#FFF6EB;" d="M32.95,14.688c0.024-6.118,0.014-8.774-5.575-12.385C26.75,2.494,26.368,2.42,24.947,2
		c-0.305-0.09-0.622-0.18-0.943-0.271c-0.124,0.434,0.04,0.909,0.45,1.141c6.526,3.691,6.521,5.25,6.495,11.81L30.947,16
		c0,0.553,0.447,1,1,1s1-0.447,1-1L32.95,14.688z"/>
</g>
<g>
</g>
<g>
</g>
<g>
</g>
<g>
</g>
<g>
</g>
<g>
</g>
<g>
</g>
<g>
</g>
<g>
</g>
<g>
</g>
<g>
</g>
<g>
</g>
<g>
</g>
<g>
</g>
<g>
</g>
</svg>
