<?xml version="1.0" encoding="iso-8859-1"?>
<!-- Generator: Adobe Illustrator 18.0.0, SVG Export Plug-In . SVG Version: 6.00 Build 0)  -->
<!DOCTYPE svg PUBLIC "-//W3C//DTD SVG 1.1//EN" "http://www.w3.org/Graphics/SVG/1.1/DTD/svg11.dtd">
<svg version="1.1" id="Capa_1" xmlns="http://www.w3.org/2000/svg" xmlns:xlink="http://www.w3.org/1999/xlink" x="0px" y="0px"
	 viewBox="0 0 54.594 54.594" style="enable-background:new 0 0 54.594 54.594;" xml:space="preserve">
<g>
	<path style="fill:#ECE3D2;" d="M51.08,9.909c2.533,9.574-1.084,20.991-3.195,30.411c-0.918,4.094-1.685,8.286-3.791,11.976
		c-3.333,5.841-5.989-1.786-7.036-5.012c-1.287-3.965-1.706-9.087-5.667-11.446c-3.946-2.35-7.607,0.052-9.893,3.396
		c-2.316,3.388-3.194,7.325-4.663,11.093c-0.679,1.743-1.428,3.486-3.271,4.266c-1.956,0-3.314-3.573-4.032-5.308
		c-3.92-9.466-5.125-20.193-6.639-30.255c-1.065-7.079,1.23-15.493,8.584-18.099c3.996-1.416,9.469-0.11,13.47,1.069
		c2.299,0.678,1.875,0.457,4.165-0.338c0.176-0.061,0.349-0.143,0.529-0.218c4.901-2.027,10.809-2.043,15.122,0.731
		C47.674,4.048,50.238,6.726,51.08,9.909z"/>
	<path style="fill:#DDD3C3;" d="M31.391,35.839c-3.946-2.35-7.607,0.052-9.893,3.395c-0.373,0.545-0.698,1.109-1.005,1.679
		c0.09,0.215,0.177,0.423,0.276,0.658c1.122,2.655,4.21,8.478,7.935,7.373c1.884-0.559,2.876-2.698,3.661-4.311
		c0.61-1.253,1.773-3.18,2.347-4.882C33.98,38.175,32.975,36.782,31.391,35.839z"/>
	<path style="fill:#E7ECED;" d="M44.763,2.176c-4.314-2.774-10.221-2.758-15.122-0.731c-0.18,0.074-0.352,0.157-0.529,0.218
		C26.822,2.457,27.246,2.678,24.947,2c-1.413-0.417-3.012-0.847-4.663-1.169c-0.219,1.392-0.337,2.815-0.337,4.263
		c0,15.459,12.901,28.132,29.318,29.389c1.928-8.059,3.844-16.907,1.816-24.574C50.238,6.726,47.674,4.048,44.763,2.176z"/>
	<path style="fill:#F0F6F7;" d="M38.804,2.613c-1.887-1.214-4.472-1.207-6.616-0.32c-0.079,0.033-0.154,0.069-0.231,0.095
		c-1.002,0.348-0.817,0.444-1.822,0.148c-0.086-0.025-0.173-0.051-0.262-0.076c-0.946-0.27-1.924,0.427-1.925,1.41
		c0,0.006,0,0.013,0,0.019c0,6.314,4.919,11.566,11.417,12.683c0.79,0.136,1.546-0.384,1.723-1.165
		c0.713-3.148,1.257-6.477,0.481-9.411C41.199,4.603,40.078,3.432,38.804,2.613z"/>
	<path style="fill:#FFFFFF;" d="M37.411,7.386c2.336-0.789,5.107-1.509,7.214,0.226c2.145,1.766,1.467,4.787-0.46,6.336
		c-1.006,0.808,0.419,2.214,1.414,1.414c2.494-2.003,3.226-5.71,1.189-8.327c-2.47-3.172-6.464-2.735-9.888-1.578
		C35.664,5.867,36.185,7.799,37.411,7.386L37.411,7.386z"/>
	<path style="fill:#F9EDDC;" d="M17.49,3.097c-3.891-0.67-8.566,0.48-10.74,4.13c-3.442,5.78-1.323,13.108-0.518,19.364
		c0.162,1.261,2.164,1.277,2,0C7.271,19.121,3.997,2.795,16.958,5.026C18.219,5.243,18.759,3.316,17.49,3.097L17.49,3.097z"/>
</g>
<g>
</g>
<g>
</g>
<g>
</g>
<g>
</g>
<g>
</g>
<g>
</g>
<g>
</g>
<g>
</g>
<g>
</g>
<g>
</g>
<g>
</g>
<g>
</g>
<g>
</g>
<g>
</g>
<g>
</g>
</svg>
