<?xml version="1.0" encoding="iso-8859-1"?>
<!-- Generator: Adobe Illustrator 18.0.0, SVG Export Plug-In . SVG Version: 6.00 Build 0)  -->
<!DOCTYPE svg PUBLIC "-//W3C//DTD SVG 1.1//EN" "http://www.w3.org/Graphics/SVG/1.1/DTD/svg11.dtd">
<svg version="1.1" id="Capa_1" xmlns="http://www.w3.org/2000/svg" xmlns:xlink="http://www.w3.org/1999/xlink" x="0px" y="0px"
	 viewBox="0 0 58 58" style="enable-background:new 0 0 58 58;" xml:space="preserve">
<g>
	<path style="fill:#ED9893;" d="M57.375,23C54.611,9.863,42.959,0,29,0S3.389,9.863,0.625,23H10v4h40v-4H57.375z"/>
	<path style="fill:#E7ECED;" d="M14.595,33.078c2.442,3.623,7.881,5.037,11.915,3.64c0.925-0.32,1.384-0.83,2.408-0.708
		c0.917,0.11,2.165,0.55,3.083,0.682c1.855,0.266,3.552,0.227,5.395-0.102c9.489-1.691,8.247-13.145,6.053-20.055
		c-0.55-1.732-1.218-3.571-2.359-5.01c-1.337-1.688-3.656-3.399-5.612-3.515c-3.04-0.18-6.087,1.977-9.133,2
		c-2.583,0.02-6.066-0.78-8.543,0c-2.88,0.907-4.049,6.616-4.58,9.127C12.342,23.292,12.105,29.383,14.595,33.078z"/>
	<path style="fill:#E7ECED;" d="M50.789,9.874c-0.2,0.042-0.406,0.077-0.595,0.137c-2.88,0.907-4.049,6.616-4.58,9.127
		c-0.879,4.154-1.117,10.245,1.374,13.94c2.042,3.03,6.177,4.507,9.836,4.095C57.585,34.58,58,31.839,58,29
		C58,21.67,55.275,14.98,50.789,9.874z"/>
	<path style="fill:#E7ECED;" d="M12.744,23.214c-0.24-3.227-0.688-6.474-1.52-9.302C10.42,11.183,9.625,9.54,8.451,8.539
		C3.229,13.783,0,21.014,0,29c0,4.265,0.928,8.312,2.582,11.959c2.075-0.141,4.062-0.72,5.797-1.964
		c2.659-1.905,4.641-6.748,4.621-9.182c-0.001-0.1-0.004-0.207-0.005-0.308C12.553,27.54,12.523,25.363,12.744,23.214z"/>
	<g>
		<path style="fill:#3E465B;" d="M46.988,33.078c-1.156-1.716-1.718-3.948-1.906-6.262c-0.04,0.038-0.087,0.071-0.125,0.11
			c-0.268,4.619-2.191,8.708-7.563,9.665c-1.843,0.328-3.54,0.368-5.395,0.102c-0.918-0.132-2.165-0.572-3.083-0.682
			c-1.023-0.122-1.482,0.387-2.408,0.708c-4.034,1.397-9.472-0.017-11.915-3.64c-0.866-1.285-1.397-2.862-1.69-4.545
			c-0.028,0.016-0.053,0.035-0.084,0.046c0.048,0.314,0.105,0.623,0.174,0.927c0.001,0.101,0.004,0.207,0.005,0.308
			c0.02,2.434-1.962,7.276-4.621,9.182c-1.735,1.243-3.722,1.823-5.797,1.964C7.138,51.007,17.249,58,29,58
			c13.176,0,24.288-8.792,27.818-20.826C53.161,37.583,49.029,36.106,46.988,33.078z"/>
	</g>
	<path style="fill:#F0F6F7;" d="M30.901,30.984c-4.937-1.112-9.06-0.713-13.43,1.066c0.037,0.47,0.112,0.968,0.259,1.513
		c0.982,3.65,5.868,2.932,6.738,0.037c0.235,0.03,0.549-0.006,0.952-0.117c1.276-0.002,2.551,0.072,3.824,0.147
		c2.665,0.156,5.293,0.579,7.908,1.104c1.936,0.389,3.382-0.695,4.022-2.108C37.775,32.471,34.366,31.765,30.901,30.984z"/>
	<path style="fill:#FFFFFF;" d="M46.279,21.818c-0.827,5.619,1.207,13.185,8.24,12.849c1.284-0.061,1.29-2.062,0-2
		c-5.605,0.267-6.958-5.927-6.312-10.318C48.393,21.089,46.466,20.546,46.279,21.818L46.279,21.818z"/>
	<path style="fill:#FFFFFF;" d="M3.916,39.254c2.936,0.057,5.446-1.876,6.112-4.742c0.292-1.255-1.637-1.788-1.929-0.532
		C7.629,36.005,6,37.295,3.916,37.254C2.626,37.229,2.628,39.229,3.916,39.254L3.916,39.254z"/>
	<g>
		<circle style="fill:#B5A896;" cx="37" cy="11" r="1"/>
		<circle style="fill:#B5A896;" cx="39" cy="13" r="1"/>
		<circle style="fill:#B5A896;" cx="41" cy="15" r="1"/>
		<circle style="fill:#B5A896;" cx="17" cy="15" r="1"/>
		<circle style="fill:#B5A896;" cx="15" cy="17" r="1"/>
		<circle style="fill:#B5A896;" cx="43" cy="17" r="1"/>
		<circle style="fill:#B5A896;" cx="37" cy="15" r="1"/>
		<circle style="fill:#B5A896;" cx="39" cy="17" r="1"/>
		<circle style="fill:#B5A896;" cx="41" cy="19" r="1"/>
		<circle style="fill:#B5A896;" cx="17" cy="11" r="1"/>
		<circle style="fill:#B5A896;" cx="35" cy="9" r="1"/>
		<circle style="fill:#B5A896;" cx="33" cy="11" r="1"/>
		<circle style="fill:#B5A896;" cx="29" cy="11" r="1"/>
		<circle style="fill:#B5A896;" cx="31" cy="13" r="1"/>
		<circle style="fill:#B5A896;" cx="35" cy="13" r="1"/>
		<circle style="fill:#B5A896;" cx="25" cy="11" r="1"/>
		<circle style="fill:#B5A896;" cx="21" cy="11" r="1"/>
		<circle style="fill:#B5A896;" cx="19" cy="13" r="1"/>
		<circle style="fill:#B5A896;" cx="21" cy="15" r="1"/>
		<circle style="fill:#B5A896;" cx="19" cy="17" r="1"/>
		<circle style="fill:#B5A896;" cx="23" cy="13" r="1"/>
		<circle style="fill:#B5A896;" cx="27" cy="13" r="1"/>
	</g>
	<path style="fill:#FFFFFF;" d="M39.725,25.192c-0.74,0.256-1.36,0.571-1.984,1.057c-1.489,1.161-2.496,1.035-4.147,0.286
		c-1.463-0.663-2.8,0.095-3.724,1.236c-0.692,0.855-1.611,2.443-1.653,3.753c-0.504-0.635-1.18-1.146-2.009-1.462
		c-1.208-0.459-1.725,1.475-0.532,1.929c1,0.38,1.703,1.54,1.541,2.607c-0.082,0.538,0.127,1.073,0.698,1.23
		c0.478,0.132,1.148-0.159,1.23-0.698c0.072-0.476,0.062-0.941,0.001-1.391c0.729,0.752,1.755,1.137,2.9,1.54
		c2.317,0.815,5.222,0.878,7.027-0.499c0.815-0.621,1.664-1.216,2.645-1.513c1.021-0.31,1.806-1.352,1.637-2.83
		C44.598,28.079,42.948,24.077,39.725,25.192z"/>
</g>
<g>
</g>
<g>
</g>
<g>
</g>
<g>
</g>
<g>
</g>
<g>
</g>
<g>
</g>
<g>
</g>
<g>
</g>
<g>
</g>
<g>
</g>
<g>
</g>
<g>
</g>
<g>
</g>
<g>
</g>
</svg>
