<?xml version="1.0" encoding="iso-8859-1"?>
<!-- Generator: Adobe Illustrator 18.0.0, SVG Export Plug-In . SVG Version: 6.00 Build 0)  -->
<!DOCTYPE svg PUBLIC "-//W3C//DTD SVG 1.1//EN" "http://www.w3.org/Graphics/SVG/1.1/DTD/svg11.dtd">
<svg version="1.1" id="Capa_1" xmlns="http://www.w3.org/2000/svg" xmlns:xlink="http://www.w3.org/1999/xlink" x="0px" y="0px"
	 viewBox="0 0 58 58" style="enable-background:new 0 0 58 58;" xml:space="preserve">
<g>
	<path style="fill:#C7CAC7;" d="M17,22.278V18c0-0.553-0.448-1-1-1s-1,0.447-1,1v4.278c-0.595,0.347-1,0.985-1,1.722
		c0,1.103,0.897,2,2,2s2-0.897,2-2C18,23.263,17.595,22.625,17,22.278z"/>
	<path style="fill:#AFB6BB;" d="M57,10.243H42.869c-6.804,0-13.33-2.703-18.141-7.514L22,0v8.243c0,0.007,0.07,0.083,0.198,0.216
		c4.813,4.993,11.471,7.784,18.407,7.784H57V10.243z"/>
	<path style="fill:#ECE3D2;" d="M28.5,20c-3.669,0-7.121,7.977-10.141,11.211c-3.017,3.231-4.253,7.722-3.359,12.051
		c0.594,2.874,1.359,5.697,2.464,8.364C17.92,52.729,18.783,55,20.026,55c1.171-0.496,1.647-1.604,2.079-2.712
		c0.934-2.395,1.491-4.898,2.964-7.051c1.453-2.125,3.78-3.652,6.288-2.158c2.518,1.499,2.784,4.755,3.602,7.276
		c0.666,2.05,2.354,6.898,4.472,3.186c1.339-2.346,1.826-5.01,2.41-7.613c0.187-0.833,0.392-1.69,0.602-2.566
		c1.086-4.525-0.2-9.317-3.476-12.622C35.872,27.617,32.305,20,28.5,20z"/>
	<path style="fill:#ED9893;" d="M54.266,27h-2.244c-4.605,0-8.636,2.877-10.212,7.068c-0.049,0.22-0.099,0.441-0.147,0.661
		c1.178,2.675,1.482,5.707,0.78,8.633c-0.21,0.875-0.415,1.733-0.602,2.566c-0.583,2.602-1.071,5.267-2.41,7.613
		c-2.118,3.712-3.807-1.135-4.472-3.186c-0.818-2.521-1.084-5.776-3.602-7.276c-2.508-1.494-4.835,0.033-6.288,2.158
		c-1.472,2.154-2.03,4.656-2.964,7.051c-0.432,1.108-0.908,2.216-2.079,2.712c-1.243,0-2.106-2.271-2.563-3.374
		c-1.104-2.667-1.87-5.49-2.464-8.364c-0.587-2.84-0.24-5.743,0.908-8.32c-0.076-0.276-0.165-0.546-0.236-0.824
		C13.338,29.83,8.811,27,3.713,27c-1.84,0-3.145,1.793-2.581,3.544l8.251,25.577C9.745,57.241,10.787,58,11.964,58h34.051
		c1.177,0,2.219-0.759,2.581-1.879l8.251-25.577C57.411,28.793,56.106,27,54.266,27z"/>
	<path style="fill:#E7ECED;" d="M22,0v12c0,3.314-2.686,6-6,6h0c-3.314,0-6-2.686-6-6V0L22,0z"/>
	<rect x="10" y="10" style="fill:#C7CAC7;" width="12" height="2"/>
	<path style="fill:#E7ECED;" d="M42.001,17.242c-0.367,0-0.72-0.202-0.896-0.553l-3-6c-0.247-0.494-0.047-1.095,0.447-1.342
		c0.496-0.245,1.095-0.047,1.342,0.447l3,6c0.247,0.494,0.047,1.095-0.447,1.342C42.304,17.208,42.151,17.242,42.001,17.242z"/>
	<path style="fill:#E7ECED;" d="M54.001,17.242c-0.344,0-0.679-0.178-0.864-0.495l-3.505-6c-0.279-0.478-0.118-1.09,0.359-1.368
		c0.478-0.278,1.09-0.117,1.368,0.358l3.505,6c0.279,0.478,0.118,1.09-0.359,1.368C54.346,17.198,54.172,17.242,54.001,17.242z"/>
	<path style="fill:#E7ECED;" d="M48.001,17.242c-0.367,0-0.72-0.202-0.896-0.553l-3-6c-0.247-0.494-0.047-1.095,0.447-1.342
		c0.495-0.245,1.095-0.047,1.342,0.447l3,6c0.247,0.494,0.047,1.095-0.447,1.342C48.304,17.208,48.151,17.242,48.001,17.242z"/>
	<rect x="10" y="2" style="fill:#C7CAC7;" width="3" height="2"/>
	<rect x="19" y="2" style="fill:#C7CAC7;" width="3" height="2"/>
</g>
<g>
</g>
<g>
</g>
<g>
</g>
<g>
</g>
<g>
</g>
<g>
</g>
<g>
</g>
<g>
</g>
<g>
</g>
<g>
</g>
<g>
</g>
<g>
</g>
<g>
</g>
<g>
</g>
<g>
</g>
</svg>
