<?xml version="1.0" encoding="iso-8859-1"?>
<!-- Generator: Adobe Illustrator 18.0.0, SVG Export Plug-In . SVG Version: 6.00 Build 0)  -->
<!DOCTYPE svg PUBLIC "-//W3C//DTD SVG 1.1//EN" "http://www.w3.org/Graphics/SVG/1.1/DTD/svg11.dtd">
<svg version="1.1" id="Capa_1" xmlns="http://www.w3.org/2000/svg" xmlns:xlink="http://www.w3.org/1999/xlink" x="0px" y="0px"
	 viewBox="0 0 58 58" style="enable-background:new 0 0 58 58;" xml:space="preserve">
<g>
	<rect x="9.613" y="13" style="fill:#C7CAC7;" width="39" height="6"/>
	<rect x="6.613" y="15" style="fill:#828282;" width="3" height="2"/>
	<rect x="48.613" y="15" style="fill:#828282;" width="3" height="2"/>
	<path style="fill:#C6BDAF;" d="M33.057,39.245c-3.946-2.35-7.607,0.052-9.893,3.395c-0.373,0.545-0.698,1.109-1.005,1.679
		c0.09,0.215,0.177,0.423,0.276,0.658c1.122,2.655,4.21,8.478,7.935,7.373c1.884-0.559,2.876-2.698,3.661-4.311
		c0.61-1.253,1.773-3.18,2.347-4.882C35.646,41.582,34.641,40.188,33.057,39.245z"/>
	<path style="fill:#ECE3D2;" d="M53.68,13c-0.135-1.392-0.358-1.524-0.71-2.855c-0.842-3.183-3.406-5.861-6.317-7.733
		c-4.314-2.774-10.221-3.161-15.122-1.133c-0.18,0.074-0.352,0.157-0.529,0.218c-2.29,0.794-1.867,1.015-4.165,0.338
		c-4-1.179-9.474-2.082-13.47-0.666C7.712,3.172,5.058,7.375,4.613,13H53.68z"/>
	<path style="fill:#ECE3D2;" d="M4.56,22.437c1.514,10.062,2.719,20.789,6.639,30.255C11.918,54.427,13.275,58,15.231,58
		c1.843-0.78,2.592-2.524,3.271-4.266c1.469-3.768,2.346-7.705,4.663-11.094c2.286-3.343,5.946-5.746,9.893-3.396
		c3.961,2.359,4.38,7.481,5.667,11.446c1.047,3.226,3.703,10.852,7.036,5.012c2.106-3.691,2.873-7.882,3.791-11.976
		C51.369,35.615,54.293,27.62,53.457,19H4.39C4.257,20.689,4.314,20.802,4.56,22.437z"/>
	<rect x="9.613" y="15" style="fill:#969696;" width="39" height="2"/>
	<path style="fill:#F7EDDF;" d="M29.113,8c6.457,0,11.923-3.058,13.8-7.282c-3.653-1.101-7.786-0.926-11.383,0.561
		c-0.18,0.074-0.352,0.157-0.529,0.218c-2.29,0.794-1.867,1.015-4.165,0.338C23.448,0.835,19.009,0.051,15.3,0.69
		C17.165,4.929,22.642,8,29.113,8z"/>
	<path style="fill:#F7EDDF;" d="M53.457,19c0,0-13.76,4.667-14.843,12c-0.969,6.561-12.878,8.053-20.509-0.539
		c-1.313-1.478-2.236-3.249-2.915-5.105C14.333,23.014,11.815,19,4.613,19H53.457z"/>
</g>
<g>
</g>
<g>
</g>
<g>
</g>
<g>
</g>
<g>
</g>
<g>
</g>
<g>
</g>
<g>
</g>
<g>
</g>
<g>
</g>
<g>
</g>
<g>
</g>
<g>
</g>
<g>
</g>
<g>
</g>
</svg>
