<?xml version="1.0" encoding="iso-8859-1"?>
<!-- Generator: Adobe Illustrator 18.0.0, SVG Export Plug-In . SVG Version: 6.00 Build 0)  -->
<!DOCTYPE svg PUBLIC "-//W3C//DTD SVG 1.1//EN" "http://www.w3.org/Graphics/SVG/1.1/DTD/svg11.dtd">
<svg version="1.1" id="Capa_1" xmlns="http://www.w3.org/2000/svg" xmlns:xlink="http://www.w3.org/1999/xlink" x="0px" y="0px"
	 viewBox="0 0 58 58" style="enable-background:new 0 0 58 58;" xml:space="preserve">
<g>
	<path style="fill:#ECE3D2;" d="M28.51,20c-3.669,0-7.121,7.977-10.141,11.211c-3.017,3.231-4.253,7.722-3.359,12.051
		c0.594,2.874,1.359,5.697,2.464,8.364C17.931,52.729,18.794,55,20.037,55c1.171-0.496,1.647-1.604,2.079-2.712
		c0.934-2.395,1.491-4.898,2.964-7.051c1.453-2.125,3.78-3.652,6.288-2.158c2.518,1.499,2.784,4.755,3.602,7.276
		c0.666,2.05,2.354,6.898,4.472,3.186c1.339-2.346,1.826-5.01,2.41-7.613c0.187-0.833,0.392-1.69,0.602-2.566
		c1.086-4.525-0.2-9.317-3.476-12.622C35.882,27.617,32.315,20,28.51,20z"/>
	<path style="fill:#E7ECED;" d="M39.78,1.383c-2.742-1.763-6.497-1.753-9.612-0.464c-0.114,0.047-0.224,0.099-0.336,0.138
		c-1.455,0.505-1.186,0.645-2.647,0.215c-2.543-0.75-6.022-1.579-8.562-0.679c-4.674,1.656-6.133,7.005-5.456,11.504
		c0.052,0.346,0.103,0.698,0.154,1.047C17.235,15.332,22.737,17,28.847,17c6.037,0,11.484-1.634,15.389-3.777
		c0.208-2.384,0.14-4.731-0.44-6.925C43.261,4.275,41.631,2.573,39.78,1.383z"/>
	<path style="fill:#ED9893;" d="M54.276,27h-2.244c-4.605,0-8.636,2.877-10.212,7.068c-0.049,0.22-0.099,0.441-0.147,0.661
		c1.178,2.675,1.482,5.707,0.78,8.633c-0.21,0.875-0.415,1.733-0.602,2.566c-0.583,2.602-1.071,5.267-2.41,7.613
		c-2.118,3.712-3.807-1.135-4.472-3.186c-0.818-2.521-1.084-5.776-3.602-7.276c-2.508-1.494-4.835,0.033-6.288,2.158
		c-1.472,2.154-2.03,4.656-2.964,7.051c-0.432,1.108-0.908,2.216-2.079,2.712c-1.243,0-2.106-2.271-2.563-3.374
		c-1.104-2.667-1.87-5.49-2.464-8.364c-0.587-2.84-0.24-5.743,0.908-8.32c-0.076-0.276-0.165-0.546-0.236-0.824
		C13.348,29.83,8.822,27,3.724,27c-1.84,0-3.145,1.793-2.581,3.544l8.251,25.577C9.755,57.241,10.798,58,11.974,58h34.051
		c1.177,0,2.219-0.759,2.581-1.879l8.251-25.577C57.422,28.793,56.116,27,54.276,27z"/>
	<path style="fill:#D18684;" d="M42.063,55c1.412-2.488,1.983-5.089,2.536-7.604l0.18-0.813c0.184-0.819,0.385-1.662,0.591-2.523
		c0.75-3.12,0.562-6.438-0.521-9.464C46.129,31.825,48.947,30,52.032,30h1.849l-8.065,25H42.063z M24.176,55
		c0.339-0.605,0.563-1.185,0.734-1.622c0.282-0.724,0.532-1.456,0.781-2.187c0.536-1.573,1.042-3.06,1.864-4.261
		c0.681-0.996,1.396-1.449,1.773-1.449c0.139,0,0.308,0.059,0.503,0.175c0.854,0.509,1.249,1.814,1.754,3.749
		c0.168,0.645,0.336,1.278,0.529,1.876c0.316,0.974,0.788,2.424,1.544,3.719H24.176z M12.185,55L4.123,30.008
		c3.496,0.131,6.696,1.98,8.566,4.935c-1.021,2.87-1.236,5.931-0.616,8.927c0.708,3.43,1.568,6.342,2.63,8.904l0.07,0.173
		c0.227,0.551,0.534,1.3,0.963,2.054H12.185z"/>
</g>
<g>
</g>
<g>
</g>
<g>
</g>
<g>
</g>
<g>
</g>
<g>
</g>
<g>
</g>
<g>
</g>
<g>
</g>
<g>
</g>
<g>
</g>
<g>
</g>
<g>
</g>
<g>
</g>
<g>
</g>
</svg>
