<?xml version="1.0" encoding="iso-8859-1"?>
<!-- Generator: Adobe Illustrator 18.0.0, SVG Export Plug-In . SVG Version: 6.00 Build 0)  -->
<!DOCTYPE svg PUBLIC "-//W3C//DTD SVG 1.1//EN" "http://www.w3.org/Graphics/SVG/1.1/DTD/svg11.dtd">
<svg version="1.1" id="Capa_1" xmlns="http://www.w3.org/2000/svg" xmlns:xlink="http://www.w3.org/1999/xlink" x="0px" y="0px"
	 viewBox="0 0 58 58" style="enable-background:new 0 0 58 58;" xml:space="preserve">
<g>
	<g>
		<path style="fill:#363E4B;" d="M32.733,0.253l1.217,3.151c0,0,5.35,13.867,11.797,24.937c6.447,11.07-4.29,15.169-9.426,15.848
			c-4.769,0.63-9.335,1.101-8.483,7.341c0.161,1.179,0.277,2.364,0.25,3.554l-0.065,2.893C28.348,57.986,28.672,58,29,58
			c16.016,0,29-12.984,29-29C58,14.25,46.984,2.086,32.733,0.253z"/>
	</g>
	<path style="fill:#FBCE9D;" d="M0,29c0,15.689,12.46,28.459,28.023,28.975l0.065-2.893c0.027-1.19-0.089-2.375-0.25-3.554
		c-0.852-6.24,3.714-6.711,8.483-7.341c5.136-0.679,15.872-4.778,9.426-15.848C39.3,17.271,33.95,3.404,33.95,3.404l-1.219-3.157
		C31.508,0.09,30.265,0,29,0C12.984,0,0,12.984,0,29z"/>
	<path style="fill:#DB9549;" d="M35.679,41.619c-0.659,0-1.306-0.112-1.866-0.367c-0.502-0.229-0.724-0.822-0.495-1.325
		c0.229-0.502,0.82-0.725,1.325-0.495c0.813,0.37,2.048,0.133,2.811-0.19c-1.246-0.194-4.427-0.264-12.219,1.17
		c-6.642,1.222-10.999,0.43-12.947-2.358c-3.054-4.371,1.236-11.746,1.42-12.059c0.28-0.474,0.889-0.634,1.369-0.353
		c0.476,0.28,0.634,0.894,0.354,1.369c-1.07,1.819-3.428,7.146-1.501,9.898c1.438,2.057,5.222,2.59,10.944,1.535
		c13.646-2.511,14.619-0.734,14.985-0.067c0.323,0.587,0.205,1.272-0.316,1.834C38.789,41.021,37.2,41.619,35.679,41.619z"/>
</g>
<g>
</g>
<g>
</g>
<g>
</g>
<g>
</g>
<g>
</g>
<g>
</g>
<g>
</g>
<g>
</g>
<g>
</g>
<g>
</g>
<g>
</g>
<g>
</g>
<g>
</g>
<g>
</g>
<g>
</g>
</svg>
