<?xml version="1.0" encoding="iso-8859-1"?>
<!-- Generator: Adobe Illustrator 18.0.0, SVG Export Plug-In . SVG Version: 6.00 Build 0)  -->
<!DOCTYPE svg PUBLIC "-//W3C//DTD SVG 1.1//EN" "http://www.w3.org/Graphics/SVG/1.1/DTD/svg11.dtd">
<svg version="1.1" id="Capa_1" xmlns="http://www.w3.org/2000/svg" xmlns:xlink="http://www.w3.org/1999/xlink" x="0px" y="0px"
	 viewBox="0 0 58 58" style="enable-background:new 0 0 58 58;" xml:space="preserve">
<g>
	<polygon style="fill:#3E465B;" points="41,3 41,9 18,9 18,3 7,3 7,58 51,58 51,3 	"/>
	<rect x="18" style="fill:#A1C8EC;" width="23" height="9"/>
	<polygon style="fill:#FFFFFF;" points="41,7 41,9 18,9 18,7 11,7 11,54 47,54 47,7 	"/>
	<path style="fill:#3E465B;" d="M37,5H22c-0.553,0-1-0.447-1-1s0.447-1,1-1h15c0.553,0,1,0.447,1,1S37.553,5,37,5z"/>
	<circle style="fill:#DD352E;" cx="19.5" cy="17.5" r="3.5"/>
	<circle style="fill:#DD352E;" cx="19.5" cy="30.5" r="3.5"/>
	<circle style="fill:#DD352E;" cx="19.5" cy="43.5" r="3.5"/>
	<path style="fill:#839594;" d="M42,17H27c-0.553,0-1-0.447-1-1s0.447-1,1-1h15c0.553,0,1,0.447,1,1S42.553,17,42,17z"/>
	<path style="fill:#839594;" d="M42,21H27c-0.553,0-1-0.447-1-1s0.447-1,1-1h15c0.553,0,1,0.447,1,1S42.553,21,42,21z"/>
	<path style="fill:#839594;" d="M42,30H27c-0.553,0-1-0.447-1-1s0.447-1,1-1h15c0.553,0,1,0.447,1,1S42.553,30,42,30z"/>
	<path style="fill:#839594;" d="M42,34H27c-0.553,0-1-0.447-1-1s0.447-1,1-1h15c0.553,0,1,0.447,1,1S42.553,34,42,34z"/>
	<path style="fill:#839594;" d="M42,43H27c-0.553,0-1-0.447-1-1s0.447-1,1-1h15c0.553,0,1,0.447,1,1S42.553,43,42,43z"/>
	<path style="fill:#839594;" d="M42,47H27c-0.553,0-1-0.447-1-1s0.447-1,1-1h15c0.553,0,1,0.447,1,1S42.553,47,42,47z"/>
</g>
<g>
</g>
<g>
</g>
<g>
</g>
<g>
</g>
<g>
</g>
<g>
</g>
<g>
</g>
<g>
</g>
<g>
</g>
<g>
</g>
<g>
</g>
<g>
</g>
<g>
</g>
<g>
</g>
<g>
</g>
</svg>
