<?xml version="1.0" encoding="iso-8859-1"?>
<!-- Generator: Adobe Illustrator 18.0.0, SVG Export Plug-In . SVG Version: 6.00 Build 0)  -->
<!DOCTYPE svg PUBLIC "-//W3C//DTD SVG 1.1//EN" "http://www.w3.org/Graphics/SVG/1.1/DTD/svg11.dtd">
<svg version="1.1" id="Capa_1" xmlns="http://www.w3.org/2000/svg" xmlns:xlink="http://www.w3.org/1999/xlink" x="0px" y="0px"
	 viewBox="0 0 55.989 55.989" style="enable-background:new 0 0 55.989 55.989;" xml:space="preserve">
<g>
	<path style="fill:#E7ECED;" d="M8.542,3.216c0.022-0.022,0.051-0.03,0.074-0.049L3.551,0L0,3.551l3.167,5.066
		c0.019-0.023,0.027-0.052,0.049-0.074L8.542,3.216z"/>
	<path style="fill:#556080;" d="M13.024,5.923l-2.82-1.763c-0.042,0.172-0.113,0.337-0.247,0.471L4.63,9.957
		c-0.134,0.134-0.299,0.205-0.471,0.247l1.763,2.82L13.024,5.923z"/>
	<path style="fill:#F76363;" d="M9.957,4.63c0.134-0.134,0.205-0.299,0.247-0.471L8.617,3.167C8.593,3.187,8.564,3.195,8.542,3.216
		L3.216,8.543c-0.022,0.022-0.03,0.051-0.049,0.074l0.992,1.587c0.172-0.042,0.337-0.113,0.471-0.247L9.957,4.63z"/>
	<path style="fill:#E7ECED;" d="M55.626,38.241l-4.419-3.655L34.585,51.207l3.655,4.419c0.179,0.217,0.442,0.349,0.723,0.362
		c0.016,0,0.032,0.001,0.047,0.001c0.265,0,0.519-0.105,0.707-0.293l15.978-15.978c0.199-0.199,0.305-0.473,0.292-0.754
		C55.975,38.683,55.843,38.42,55.626,38.241z"/>
	<path style="fill:#25AE88;" d="M14.548,4.264c-0.397-0.329-0.979-0.301-1.344,0.063l-8.876,8.876
		c-0.365,0.365-0.392,0.947-0.063,1.344l29.041,35.11l16.354-16.354L14.548,4.264z"/>
	<path style="fill:#C7D6D8;" d="M53.033,40.967l-4.104-4.104l2.278-2.278l-1.548-1.28l-2.85,2.85l-0.001,0.001
		c0,0-0.001,0.001-0.001,0.001l-2.661,2.661c0,0-0.001,0.001-0.001,0.001c-0.001,0.001-0.001,0.001-0.001,0.002l-5.323,5.323
		c0,0-0.001,0.001-0.001,0.001s-0.001,0.001-0.001,0.001l-2.661,2.661c0,0-0.001,0.001-0.001,0.001s-0.001,0.001-0.001,0.001
		l-2.85,2.85l1.28,1.548l2.278-2.278l4.104,4.104c0.195,0.195,0.451,0.293,0.707,0.293s0.512-0.098,0.707-0.293
		c0.391-0.391,0.391-1.023,0-1.414l-4.104-4.104l1.249-1.249l4.104,4.104c0.195,0.195,0.451,0.293,0.707,0.293
		s0.512-0.098,0.707-0.293c0.391-0.391,0.391-1.023,0-1.414l-4.104-4.104l1.249-1.249l4.104,4.104C46.488,47.902,46.744,48,47,48
		s0.512-0.098,0.707-0.293c0.391-0.391,0.391-1.023,0-1.414l-4.104-4.104l1.249-1.249l4.104,4.104
		c0.195,0.195,0.451,0.293,0.707,0.293s0.512-0.098,0.707-0.293c0.391-0.391,0.391-1.023,0-1.414l-4.104-4.104l1.249-1.249
		l4.104,4.104c0.195,0.195,0.451,0.293,0.707,0.293s0.512-0.098,0.707-0.293C53.423,41.991,53.423,41.358,53.033,40.967z"/>
	<path style="fill:#FFFFFF;" d="M39.637,27.116l-11.586-9.583c-0.397-0.329-0.979-0.302-1.344,0.063l-7.101,7.101
		c-0.391,0.391-0.391,1.023,0,1.414L30.19,36.696c0.195,0.195,0.451,0.293,0.707,0.293s0.512-0.098,0.707-0.293l8.103-8.103
		c0.199-0.199,0.305-0.473,0.292-0.754C39.986,27.558,39.854,27.295,39.637,27.116z"/>
</g>
<g>
</g>
<g>
</g>
<g>
</g>
<g>
</g>
<g>
</g>
<g>
</g>
<g>
</g>
<g>
</g>
<g>
</g>
<g>
</g>
<g>
</g>
<g>
</g>
<g>
</g>
<g>
</g>
<g>
</g>
</svg>
