<?xml version="1.0" encoding="iso-8859-1"?>
<!-- Generator: Adobe Illustrator 18.0.0, SVG Export Plug-In . SVG Version: 6.00 Build 0)  -->
<!DOCTYPE svg PUBLIC "-//W3C//DTD SVG 1.1//EN" "http://www.w3.org/Graphics/SVG/1.1/DTD/svg11.dtd">
<svg version="1.1" id="Capa_1" xmlns="http://www.w3.org/2000/svg" xmlns:xlink="http://www.w3.org/1999/xlink" x="0px" y="0px"
	 viewBox="0 0 60 60" style="enable-background:new 0 0 60 60;" xml:space="preserve">
<g>
	<g>
		<rect x="6" y="1" style="fill:#E6E6E6;" width="48" height="58"/>
		<path style="fill:#AFB6BB;" d="M55,60H5V0h50V60z M7,58h46V2H7V58z"/>
	</g>
	<path style="fill:#839594;" d="M21,35h-9c-0.553,0-1-0.448-1-1s0.447-1,1-1h7v-6h-7c-0.553,0-1-0.448-1-1s0.447-1,1-1h9V35z"/>
	<path style="fill:#839594;" d="M35,35H25v-9c0-0.552,0.447-1,1-1s1,0.448,1,1v7h6v-7c0-0.552,0.447-1,1-1s1,0.448,1,1V35z"/>
	<path style="fill:#839594;" d="M48,35h-9V25h9c0.553,0,1,0.448,1,1s-0.447,1-1,1h-7v6h7c0.553,0,1,0.448,1,1S48.553,35,48,35z"/>
	<path style="fill:#839594;" d="M19,46h-8v-7c0-0.552,0.447-1,1-1s1,0.448,1,1v5h4v-5c0-0.552,0.447-1,1-1s1,0.448,1,1V46z"/>
	<path style="fill:#839594;" d="M28,46c-0.553,0-1-0.448-1-1v-5h-4v5c0,0.552-0.447,1-1,1s-1-0.448-1-1v-7h8v7
		C29,45.552,28.553,46,28,46z"/>
	<path style="fill:#839594;" d="M39,46h-7c-0.553,0-1-0.448-1-1s0.447-1,1-1h5v-4h-5c-0.553,0-1-0.448-1-1s0.447-1,1-1h7V46z"/>
	<path style="fill:#839594;" d="M48,46h-7v-8h7c0.553,0,1,0.448,1,1s-0.447,1-1,1h-5v4h5c0.553,0,1,0.448,1,1S48.553,46,48,46z"/>
	<path style="fill:#839594;" d="M38,21H23c-0.553,0-1-0.448-1-1s0.447-1,1-1h13V7H23c-0.553,0-1-0.448-1-1s0.447-1,1-1h15V21z"/>
	<path style="fill:#839594;" d="M17,55h-5c-0.553,0-1-0.448-1-1s0.447-1,1-1h3v-2h-3c-0.553,0-1-0.448-1-1s0.447-1,1-1h5V55z"/>
	<path style="fill:#839594;" d="M49,55h-5c-0.553,0-1-0.448-1-1s0.447-1,1-1h3v-2h-3c-0.553,0-1-0.448-1-1s0.447-1,1-1h5V55z"/>
	<path style="fill:#839594;" d="M41,55h-6v-5c0-0.552,0.447-1,1-1s1,0.448,1,1v3h2v-3c0-0.552,0.447-1,1-1s1,0.448,1,1V55z"/>
	<path style="fill:#839594;" d="M32,55h-5v-6h5c0.553,0,1,0.448,1,1s-0.447,1-1,1h-3v2h3c0.553,0,1,0.448,1,1S32.553,55,32,55z"/>
	<path style="fill:#839594;" d="M24,55c-0.553,0-1-0.448-1-1v-3h-2v3c0,0.552-0.447,1-1,1s-1-0.448-1-1v-5h6v5
		C25,54.552,24.553,55,24,55z"/>
	<path style="fill:#839594;" d="M37,14H23c-0.553,0-1-0.448-1-1s0.447-1,1-1h14c0.553,0,1,0.448,1,1S37.553,14,37,14z"/>
	<path style="fill:#839594;" d="M20,31h-8c-0.553,0-1-0.448-1-1s0.447-1,1-1h8c0.553,0,1,0.448,1,1S20.553,31,20,31z"/>
	<path style="fill:#839594;" d="M30,35c-0.553,0-1-0.448-1-1v-8c0-0.552,0.447-1,1-1s1,0.448,1,1v8C31,34.552,30.553,35,30,35z"/>
	<path style="fill:#839594;" d="M48,31h-8c-0.553,0-1-0.448-1-1s0.447-1,1-1h8c0.553,0,1,0.448,1,1S48.553,31,48,31z"/>
	<path style="fill:#839594;" d="M15,46c-0.553,0-1-0.448-1-1v-6c0-0.552,0.447-1,1-1s1,0.448,1,1v6C16,45.552,15.553,46,15,46z"/>
	<path style="fill:#839594;" d="M25,46c-0.553,0-1-0.448-1-1v-6c0-0.552,0.447-1,1-1s1,0.448,1,1v6C26,45.552,25.553,46,25,46z"/>
	<path style="fill:#839594;" d="M38,43h-6c-0.553,0-1-0.448-1-1s0.447-1,1-1h6c0.553,0,1,0.448,1,1S38.553,43,38,43z"/>
	<path style="fill:#839594;" d="M48,43h-6c-0.553,0-1-0.448-1-1s0.447-1,1-1h6c0.553,0,1,0.448,1,1S48.553,43,48,43z"/>
</g>
<g>
</g>
<g>
</g>
<g>
</g>
<g>
</g>
<g>
</g>
<g>
</g>
<g>
</g>
<g>
</g>
<g>
</g>
<g>
</g>
<g>
</g>
<g>
</g>
<g>
</g>
<g>
</g>
<g>
</g>
</svg>
