<?xml version="1.0" encoding="iso-8859-1"?>
<!-- Generator: Adobe Illustrator 18.0.0, SVG Export Plug-In . SVG Version: 6.00 Build 0)  -->
<!DOCTYPE svg PUBLIC "-//W3C//DTD SVG 1.1//EN" "http://www.w3.org/Graphics/SVG/1.1/DTD/svg11.dtd">
<svg version="1.1" id="Capa_1" xmlns="http://www.w3.org/2000/svg" xmlns:xlink="http://www.w3.org/1999/xlink" x="0px" y="0px"
	 viewBox="0 0 57 57" style="enable-background:new 0 0 57 57;" xml:space="preserve">
<g>
	<path style="fill:#EFCE4A;" d="M40.5,7h-3c-0.552,0-1-0.447-1-1s0.448-1,1-1h3c0.552,0,1,0.447,1,1S41.052,7,40.5,7z"/>
	<rect x="19.5" style="fill:#3E465B;" width="10" height="12"/>
	<rect x="29.5" y="3" style="fill:#556080;" width="4" height="6"/>
	<rect x="33.5" y="4" style="fill:#7383BF;" width="4" height="4"/>
	<rect x="21.5" y="12" style="fill:#7383BF;" width="6" height="3"/>
	<rect x="18.5" y="15" style="fill:#3E465B;" width="12" height="4"/>
	<rect x="21.5" y="50" style="fill:#7383BF;" width="6" height="3"/>
	<rect x="18.5" y="53" style="fill:#3E465B;" width="12" height="4"/>
	<rect x="21.5" y="19" style="fill:#7383BF;" width="6" height="3"/>
	<rect x="18.5" y="22" style="fill:#556080;" width="12" height="28"/>
	<rect x="16.5" y="1" style="fill:#A1C8EC;" width="3" height="10"/>
	<path style="fill:#7FABDA;" d="M16.5,12c-0.552,0-1-0.447-1-1V1c0-0.553,0.448-1,1-1s1,0.447,1,1v10C17.5,11.553,17.052,12,16.5,12
		z"/>
</g>
<g>
</g>
<g>
</g>
<g>
</g>
<g>
</g>
<g>
</g>
<g>
</g>
<g>
</g>
<g>
</g>
<g>
</g>
<g>
</g>
<g>
</g>
<g>
</g>
<g>
</g>
<g>
</g>
<g>
</g>
</svg>
