<?xml version="1.0" encoding="iso-8859-1"?>
<!-- Generator: Adobe Illustrator 18.0.0, SVG Export Plug-In . SVG Version: 6.00 Build 0)  -->
<!DOCTYPE svg PUBLIC "-//W3C//DTD SVG 1.1//EN" "http://www.w3.org/Graphics/SVG/1.1/DTD/svg11.dtd">
<svg version="1.1" id="Capa_1" xmlns="http://www.w3.org/2000/svg" xmlns:xlink="http://www.w3.org/1999/xlink" x="0px" y="0px"
	 viewBox="0 0 60 60" style="enable-background:new 0 0 60 60;" xml:space="preserve">
<g>
	
		<ellipse transform="matrix(0.7634 0.6459 -0.6459 0.7634 21.9283 -14.52)" style="fill:#B02721;" cx="30.784" cy="22.672" rx="3" ry="6.5"/>
	
		<ellipse transform="matrix(0.4189 -0.908 0.908 0.4189 -8.1726 68.471)" style="fill:#B02721;" cx="49.409" cy="40.621" rx="3" ry="6.5"/>
	<g>
		<path style="fill:#F7B563;" d="M53,15c-0.87,0-1.686,0.202-2.397,0.556c-0.723,0.36-1.558,0.225-2.168-0.304
			C47.544,14.479,46.338,14,45,14c-0.87,0-1.686,0.202-2.397,0.556c-0.723,0.36-1.558,0.225-2.168-0.304
			C39.544,13.479,38.338,13,37,13c-2.315,0-4.242,1.423-4.808,3.346c0.596,0.3,1.727,1.004,1.724,1.004
			c0.419,0.01,0.784,0.122,1.066,0.359c1.265,1.07,0.41,4.159-1.908,6.9s-5.224,4.094-6.489,3.024
			c-0.009-0.007-0.012-0.019-0.021-0.027C25.022,26.096,22.881,25,20.5,25c-4.694,0-8.5,3.582-8.5,8c0,1.56,0.482,3.01,1.302,4.24
			C13.115,37.789,13,38.378,13,39c0,2.6,1.793,4.712,4.077,4.953C18.315,45.781,20.502,47,23,47c1.409,0,2.719-0.39,3.817-1.055
			C27.041,45.978,27.268,46,27.5,46c0.396,0,0.781-0.058,1.153-0.153c0,0,6.754-1.909,9.578-2.58
			c0.007-0.003,0.014-0.005,0.021-0.008c-0.006-0.018-0.01-0.036-0.015-0.053c0.292-0.101,0.583-0.215,0.869-0.349
			c2.142-0.999,3.612-2.878,4.376-4.883c0.01-0.025,0.014-0.051,0.025-0.076c0.694-1.505,3.899-1.505,7.159-0.001
			c0.24,0.111,0.471,0.228,0.698,0.348C56.055,32.437,59,26.002,59,22C59,14.891,55.29,15,53,15z"/>
	</g>
	<path style="fill:#D5354E;" d="M54.531,44.148c0.013-0.02-0.005-0.042-0.026-0.032c-1.312,0.655-3.813,0.4-6.353-0.772
		c-3.238-1.493-5.305-3.907-4.653-5.414c-0.437,1.162-1.118,2.276-2.021,3.21c0.079,0.044,0.161,0.084,0.229,0.152l2,2
		c0.391,0.391,0.391,1.023,0,1.414C43.512,44.902,43.256,45,43,45s-0.512-0.098-0.707-0.293l-2-2
		c-0.114-0.114-0.184-0.25-0.232-0.392c-0.304,0.198-0.619,0.384-0.956,0.541c-0.287,0.134-0.869,0.349-0.869,0.349l-9.583,2.641
		C28.281,45.942,27.896,46,27.5,46c-0.232,0-0.459-0.022-0.683-0.055C25.719,46.61,24.409,47,23,47
		c-2.119,0-4.006-0.882-5.289-2.264l-1.879,2.819C15.64,47.844,15.322,48,14.999,48c-0.19,0-0.383-0.055-0.554-0.168
		c-0.46-0.307-0.584-0.927-0.277-1.387l1.846-2.769C14.264,42.996,13,41.177,13,39c0-0.353,0.044-0.692,0.111-1.022
		C13.073,37.982,13.039,38,13,38h-3c-0.553,0-1-0.447-1-1s0.447-1,1-1h2.642C12.239,35.072,12,34.065,12,33
		c0-2.564,1.287-4.841,3.281-6.305l-1.988-1.988c-0.391-0.391-0.391-1.023,0-1.414s1.023-0.391,1.414,0l2,2
		c0.127,0.127,0.198,0.283,0.242,0.446C18.031,25.269,19.231,25,20.5,25c2.381,0,4.522,1.096,6.064,2.607
		c-1.228-1.09-0.374-4.151,1.929-6.873c1.807-2.135,3.966-3.423,5.432-3.384c0.023,0.001,0.03-0.028,0.01-0.04
		C30.628,15.257,26.652,14,22.5,14C10.287,14,0.452,24.183,1.024,36.522c0.503,10.872,9.334,19.798,20.198,20.44
		c0.216,0.013,0.443,0.024,0.678,0.034c5.401,0.23,10.793-0.62,15.897-2.399l2.979-1.039c1.619-0.332,3.226-0.849,4.789-1.578
		c0.226-0.105,0.441-0.226,0.661-0.339l-1.434-1.434c-0.391-0.391-0.391-1.023,0-1.414s1.023-0.391,1.414,0l1.5,1.5
		c0.109,0.109,0.181,0.24,0.229,0.376C50.626,48.959,52.869,46.691,54.531,44.148z"/>
	<path style="fill:#B02721;" d="M42.293,44.707C42.488,44.902,42.744,45,43,45s0.512-0.098,0.707-0.293
		c0.391-0.391,0.391-1.023,0-1.414l-2-2c-0.068-0.068-0.149-0.108-0.229-0.152c-0.423,0.437-0.894,0.833-1.417,1.174
		c0.048,0.143,0.118,0.279,0.232,0.392L42.293,44.707z"/>
	<path style="fill:#B02721;" d="M46.207,48.793c-0.391-0.391-1.023-0.391-1.414,0s-0.391,1.023,0,1.414l1.434,1.434
		c0.587-0.3,1.158-0.622,1.708-0.972c-0.048-0.137-0.119-0.267-0.229-0.376L46.207,48.793z"/>
	<path style="fill:#B02721;" d="M14.445,47.832C14.616,47.945,14.809,48,14.999,48c0.323,0,0.641-0.156,0.833-0.445l1.879-2.819
		c-0.23-0.247-0.446-0.505-0.635-0.783c-0.372-0.039-0.723-0.144-1.063-0.276l-1.846,2.769
		C13.861,46.905,13.985,47.525,14.445,47.832z"/>
	<path style="fill:#B02721;" d="M9,37c0,0.553,0.447,1,1,1h3c0.039,0,0.073-0.018,0.111-0.022c0.05-0.252,0.11-0.5,0.191-0.738
		c-0.26-0.39-0.472-0.809-0.659-1.24H10C9.447,36,9,36.447,9,37z"/>
	<path style="fill:#B02721;" d="M14.707,23.293c-0.391-0.391-1.023-0.391-1.414,0s-0.391,1.023,0,1.414l1.988,1.988
		c0.512-0.376,1.071-0.697,1.668-0.956c-0.044-0.162-0.115-0.318-0.242-0.446L14.707,23.293z"/>
	<g>
		<path style="fill:#FBCE9D;" d="M42.57,35.867c0.237-0.825,0.502-1.64,0.701-2.476c0.054-0.225,0.095-0.452,0.146-0.678
			c-0.216-0.91-0.897-1.69-2.395-2.463c-2.633-1.359-5.543-1.294-8.348-0.593c-1.355,0.338-2.612,0.376-3.758,0.181
			c-1.105,0.659-2.128,0.841-2.704,0.354c-0.007-0.006-0.009-0.015-0.016-0.021c-1.18-1.156-2.817-1.993-4.637-1.993
			c-3.59,0-6.5,2.739-6.5,6.118c0,1.193,0.368,2.302,0.995,3.242c-0.143,0.42-0.231,0.87-0.231,1.346
			c0,1.989,1.371,3.604,3.117,3.787c0.947,1.398,2.619,2.33,4.53,2.33c1.078,0,2.079-0.298,2.919-0.807
			c0.172,0.025,0.345,0.042,0.522,0.042c0.303,0,0.597-0.044,0.881-0.117c0,0,5.165-1.46,7.324-1.973
			c0.005-0.003,0.01-0.004,0.016-0.006c-0.004-0.013-0.007-0.027-0.012-0.041c0.223-0.077,0.445-0.165,0.665-0.267
			c1.638-0.764,2.762-2.2,3.347-3.734c0.007-0.019,0.011-0.039,0.019-0.058c0.315-0.683,1.315-0.949,2.593-0.82
			C41.979,36.747,42.25,36.292,42.57,35.867z"/>
	</g>
	<g>
		<path style="fill:#F7E6A1;" d="M25.258,56.99L25.955,60h10.676l-1.087-4.69C32.193,56.283,28.74,56.853,25.258,56.99z"/>
		<path style="fill:#F7E6A1;" d="M22.5,14c1.201,0,2.385,0.116,3.544,0.316L22.727,0H12.051l3.511,15.151
			C17.74,14.408,20.072,14,22.5,14z"/>
	</g>
	<g>
		<path style="fill:#B34B4D;" d="M34.579,55.574L35.373,59h-0.025c0.035,0.049,0.065,0.106,0.082,0.178
			c0.064,0.276,0.142,0.548,0.214,0.822h2.013l-1.155-4.984C35.865,55.217,35.224,55.403,34.579,55.574z"/>
		<path style="fill:#B34B4D;" d="M21.946,1.062l3.036,13.1c0.721,0.087,1.435,0.198,2.135,0.356L23.753,0h-2.152
			c0.006,0.017,0.01,0.036,0.016,0.053C21.754,0.399,21.896,0.705,21.946,1.062z"/>
	</g>
	<g>
		<path style="fill:#DC691D;" d="M16.519,14.85L13.309,1h0.008c-0.036-0.111-0.067-0.223-0.099-0.334
			c-0.1-0.21-0.175-0.439-0.25-0.666h-1.943l3.591,15.498C15.237,15.253,15.871,15.037,16.519,14.85z"/>
		<path style="fill:#DC691D;" d="M26.739,58.952l-0.466-2.01c-0.677,0.043-1.355,0.07-2.035,0.08L24.929,60h2.001
			c-0.069-0.308-0.131-0.618-0.192-0.928C26.73,59.028,26.738,58.991,26.739,58.952z"/>
	</g>
	<g>
		<path style="fill:#556080;" d="M29.56,56.602L30.115,59H30.09c0.035,0.049,0.065,0.106,0.082,0.178
			c0.064,0.276,0.142,0.548,0.214,0.822h2.013l-0.864-3.728C30.879,56.397,30.221,56.507,29.56,56.602z"/>
		<path style="fill:#556080;" d="M16.688,1.062l3.041,13.122c0.663-0.085,1.335-0.141,2.015-0.164L18.496,0h-2.152
			c0.006,0.017,0.01,0.036,0.016,0.053C16.496,0.399,16.639,0.705,16.688,1.062z"/>
	</g>
</g>
<g>
</g>
<g>
</g>
<g>
</g>
<g>
</g>
<g>
</g>
<g>
</g>
<g>
</g>
<g>
</g>
<g>
</g>
<g>
</g>
<g>
</g>
<g>
</g>
<g>
</g>
<g>
</g>
<g>
</g>
</svg>
