<?xml version="1.0" encoding="iso-8859-1"?>
<!-- Generator: Adobe Illustrator 18.0.0, SVG Export Plug-In . SVG Version: 6.00 Build 0)  -->
<!DOCTYPE svg PUBLIC "-//W3C//DTD SVG 1.1//EN" "http://www.w3.org/Graphics/SVG/1.1/DTD/svg11.dtd">
<svg version="1.1" id="Capa_1" xmlns="http://www.w3.org/2000/svg" xmlns:xlink="http://www.w3.org/1999/xlink" x="0px" y="0px"
	 viewBox="0 0 58 58" style="enable-background:new 0 0 58 58;" xml:space="preserve">
<g>
	<g>
		<path style="fill:#556080;" d="M29,0C12.984,0,0,12.984,0,29c0,5.179,1.364,10.036,3.742,14.245
			c1.075-1.811,2.261-2.811,2.334-2.883l19.788-19.788c0.536-0.536,0.868-1.238,0.953-1.991c0.016-0.141,0.047-0.278,0.07-0.417
			c0.002,0,0.005,0,0.007,0.001c-0.007,0.043-0.019,0.084-0.025,0.127c1.82,3.902,6.374,7.151,12.401,9.012
			c0,0,0.001-0.001,0.001-0.001c-0.619,0.396-1.197,0.856-1.719,1.379l-12.54,12.54c1.878,1.649,3.07,4.062,3.07,6.759
			c0,4.384-3.137,8.032-7.287,8.833C23.398,57.582,26.149,58,29,58c16.016,0,29-12.984,29-29C58,12.984,45.016,0,29,0z"/>
	</g>
	<path style="fill:#F7B563;" d="M25.012,41.224l-3.89,3.89c0.611,1.331,0.961,2.807,0.961,4.368c0,2.649-0.99,5.061-2.609,6.908
		c0.436,0.152,0.877,0.293,1.322,0.424c4.151-0.8,7.287-4.448,7.287-8.833C28.083,45.286,26.891,42.874,25.012,41.224z"/>
	<g>
		<path style="fill:#FBCE9D;" d="M39.272,27.305c0,0-0.001,0-0.001,0.001c-6.026-1.861-10.581-5.11-12.401-9.012
			c0.006-0.043,0.018-0.084,0.025-0.127c-0.002,0-0.005,0-0.007-0.001c-0.023,0.139-0.055,0.276-0.07,0.417
			c-0.086,0.753-0.418,1.455-0.953,1.991L6.076,40.361c-0.072,0.072-1.259,1.073-2.334,2.883
			c3.445,6.094,9.028,10.815,15.733,13.147c1.618-1.847,2.607-4.26,2.607-6.909c0-1.561-0.35-3.037-0.961-4.368l16.431-16.431
			C38.075,28.161,38.653,27.701,39.272,27.305z"/>
	</g>
	<g>
		<path style="fill:#EA7F5F;" d="M45.398,14.164c-2.11-3.662-6.704-5.083-10.648-3.562l-2.559,0.987
			c-2.907,1.121-4.825,3.696-5.298,6.577c0.001,0,0.001,0,0.002,0c-0.007,0.043-0.019,0.084-0.025,0.127
			c1.82,3.902,6.374,7.151,12.401,9.012l0,0c0.578-0.371,1.193-0.686,1.837-0.935h0C45.882,24.53,48.057,18.78,45.398,14.164z"/>
	</g>
	<path style="fill:#EA6248;" d="M45.398,14.164c-0.245-0.426-0.527-0.818-0.835-1.183c-1.615,0.002-3.104,0.049-3.962,0.775
		C40.207,14.088,40,14.518,40,15c0,0.553,0.529,1,1.18,1c0.596,0,1.089-0.374,1.169-0.86c0.472-0.165,1.843-0.157,2.608-0.158
		l0.409,0.001c0.145,0,0.281-0.029,0.409-0.07C45.661,14.661,45.54,14.41,45.398,14.164z"/>
</g>
<g>
</g>
<g>
</g>
<g>
</g>
<g>
</g>
<g>
</g>
<g>
</g>
<g>
</g>
<g>
</g>
<g>
</g>
<g>
</g>
<g>
</g>
<g>
</g>
<g>
</g>
<g>
</g>
<g>
</g>
</svg>
