<?xml version="1.0" encoding="iso-8859-1"?>
<!-- Generator: Adobe Illustrator 18.0.0, SVG Export Plug-In . SVG Version: 6.00 Build 0)  -->
<!DOCTYPE svg PUBLIC "-//W3C//DTD SVG 1.1//EN" "http://www.w3.org/Graphics/SVG/1.1/DTD/svg11.dtd">
<svg version="1.1" id="Capa_1" xmlns="http://www.w3.org/2000/svg" xmlns:xlink="http://www.w3.org/1999/xlink" x="0px" y="0px"
	 viewBox="0 0 60 60" style="enable-background:new 0 0 60 60;" xml:space="preserve">
<g>
	<g>
		<path style="fill:#E7ECED;" d="M35,4V1H25v3H14.852C13.829,4,13,4.829,13,5.852v39.297C13,46.171,13.829,47,14.852,47H27v-3h6v3
			h12.148C46.171,47,47,46.171,47,45.148V5.852C47,4.829,46.171,4,45.148,4H35z"/>
		<path style="fill:#E7ECED;" d="M45.148,48H32v-3h-4v3H14.852C13.279,48,12,46.721,12,45.148V5.852C12,4.279,13.279,3,14.852,3H24
			V0h12v3h9.148C46.721,3,48,4.279,48,5.852v39.297C48,46.721,46.721,48,45.148,48z M34,46h11.148C45.618,46,46,45.618,46,45.148
			V5.852C46,5.382,45.618,5,45.148,5H34V2h-8v3H14.852C14.382,5,14,5.382,14,5.852v39.297C14,45.618,14.382,46,14.852,46H26v-3h8V46
			z"/>
	</g>
	<rect x="16" y="7" style="fill:#FBCE9D;" width="28" height="37"/>
	<g>
		<circle style="fill:#ED8A19;" cx="31" cy="40" r="1"/>
		<circle style="fill:#ED8A19;" cx="37" cy="29" r="1"/>
		<circle style="fill:#ED8A19;" cx="28" cy="32" r="1"/>
		<circle style="fill:#ED8A19;" cx="30" cy="24" r="1"/>
		<circle style="fill:#ED8A19;" cx="36" cy="16" r="1"/>
		<circle style="fill:#ED8A19;" cx="29" cy="10" r="1"/>
	</g>
	<path style="fill:#FFFFFF;" d="M23,13h-2c-0.553,0-1-0.448-1-1s0.447-1,1-1h2c0.553,0,1,0.448,1,1S23.553,13,23,13z"/>
	<path style="fill:#FFFFFF;" d="M23,17h-2c-0.553,0-1-0.448-1-1s0.447-1,1-1h2c0.553,0,1,0.448,1,1S23.553,17,23,17z"/>
	<path style="fill:#FFFFFF;" d="M23,21h-2c-0.553,0-1-0.448-1-1s0.447-1,1-1h2c0.553,0,1,0.448,1,1S23.553,21,23,21z"/>
	<path style="fill:#FFFFFF;" d="M23,25h-2c-0.553,0-1-0.448-1-1s0.447-1,1-1h2c0.553,0,1,0.448,1,1S23.553,25,23,25z"/>
	<path style="fill:#FFFFFF;" d="M23,29h-2c-0.553,0-1-0.448-1-1s0.447-1,1-1h2c0.553,0,1,0.448,1,1S23.553,29,23,29z"/>
	<path style="fill:#FFFFFF;" d="M23,33h-2c-0.553,0-1-0.448-1-1s0.447-1,1-1h2c0.553,0,1,0.448,1,1S23.553,33,23,33z"/>
	<path style="fill:#FFFFFF;" d="M23,37h-2c-0.553,0-1-0.448-1-1s0.447-1,1-1h2c0.553,0,1,0.448,1,1S23.553,37,23,37z"/>
	<path style="fill:#FFFFFF;" d="M23,41h-2c-0.553,0-1-0.448-1-1s0.447-1,1-1h2c0.553,0,1,0.448,1,1S23.553,41,23,41z"/>
	<rect x="27" y="44" style="fill:#C7CAC7;" width="6" height="6"/>
	<path style="fill:#C7CAC7;" d="M13,60c-0.553,0-1-0.448-1-1v-4.734c0-1.46,0.602-2.875,1.65-3.883
		c0.979-0.942,2.233-1.44,3.563-1.379c2.639,0.106,4.649,2.232,4.779,4.996H22c0,2.173,1.7,3.93,3.87,3.998
		c0.813,0.024,1.538-0.277,2.128-0.85C28.635,56.531,29,55.675,29,54.799V50c0-0.552,0.447-1,1-1s1,0.448,1,1v4.799
		c0,1.415-0.587,2.794-1.61,3.786c-0.983,0.952-2.248,1.455-3.582,1.412c-3.161-0.1-5.657-2.584-5.801-5.711H20
		c0-1.835-1.205-3.216-2.866-3.283c-0.757-0.022-1.514,0.262-2.098,0.823C14.378,52.458,14,53.348,14,54.266V59
		C14,59.552,13.553,60,13,60z"/>
	<path style="fill:#556080;" d="M32,5h-4c-0.553,0-1-0.448-1-1s0.447-1,1-1h4c0.553,0,1,0.448,1,1S32.553,5,32,5z"/>
	<path style="fill:#556080;" d="M30,6c-0.553,0-1-0.448-1-1V3c0-0.552,0.447-1,1-1s1,0.448,1,1v2C31,5.552,30.553,6,30,6z"/>
</g>
<g>
</g>
<g>
</g>
<g>
</g>
<g>
</g>
<g>
</g>
<g>
</g>
<g>
</g>
<g>
</g>
<g>
</g>
<g>
</g>
<g>
</g>
<g>
</g>
<g>
</g>
<g>
</g>
<g>
</g>
</svg>
