<?xml version="1.0" encoding="iso-8859-1"?>
<!-- Generator: Adobe Illustrator 18.0.0, SVG Export Plug-In . SVG Version: 6.00 Build 0)  -->
<!DOCTYPE svg PUBLIC "-//W3C//DTD SVG 1.1//EN" "http://www.w3.org/Graphics/SVG/1.1/DTD/svg11.dtd">
<svg version="1.1" id="Capa_1" xmlns="http://www.w3.org/2000/svg" xmlns:xlink="http://www.w3.org/1999/xlink" x="0px" y="0px"
	 viewBox="0 0 55.173 55.173" style="enable-background:new 0 0 55.173 55.173;" xml:space="preserve">
<g>
	<path style="fill:#A485BE;" d="M2.181,48.919l30.853-30.853c0.547-0.547,1.337-0.773,2.09-0.599l4.942,1.14
		c0.986,0.228,1.337,1.451,0.621,2.167L7.361,54.1c-1.431,1.431-3.75,1.431-5.181,0l0,0C0.75,52.669,0.75,50.35,2.181,48.919z"/>
	<path style="fill:#556080;" d="M9.305,53.157c-0.381,0-0.744-0.218-0.911-0.586l-3.238-7.124c-0.229-0.503-0.007-1.096,0.496-1.324
		c0.508-0.23,1.097-0.005,1.324,0.496l3.238,7.124c0.229,0.503,0.007,1.096-0.496,1.324C9.584,53.128,9.443,53.157,9.305,53.157z"/>
	<path style="fill:#556080;" d="M13.19,49.271c-0.381,0-0.744-0.218-0.911-0.586l-3.237-7.123c-0.229-0.502-0.007-1.095,0.496-1.324
		c0.508-0.23,1.097-0.005,1.324,0.497l3.237,7.123c0.229,0.502,0.007,1.095-0.496,1.324C13.469,49.243,13.328,49.271,13.19,49.271z"
		/>
	<path style="fill:#556080;" d="M17.076,45.386c-0.381,0-0.744-0.218-0.911-0.586l-3.238-7.124
		c-0.229-0.503-0.007-1.096,0.496-1.324c0.507-0.23,1.098-0.005,1.324,0.496l3.238,7.124c0.229,0.503,0.007,1.096-0.496,1.324
		C17.354,45.357,17.214,45.386,17.076,45.386z"/>
	<path style="fill:#AFB6BB;" d="M38.065,19.173c-0.256,0-0.512-0.098-0.707-0.293c-0.391-0.391-0.391-1.023,0-1.414l7.849-7.849
		c-0.628-0.932-1.032-2.116-1.116-3.328c-0.129-1.852,0.494-3.565,1.753-4.824C46.775,0.534,48.22,0,49.808,0
		c1.588,0,3.032,0.534,3.964,1.466l0.293,0.293v5.414c0,0.552-0.447,1-1,1s-1-0.448-1-1V2.634c-1.285-0.915-3.728-0.833-4.808,0.246
		c-1.081,1.082-1.234,2.375-1.172,3.271c0.076,1.099,0.525,2.183,1.172,2.83l0.707,0.707l-9.192,9.192
		C38.577,19.075,38.321,19.173,38.065,19.173z"/>
</g>
<g>
</g>
<g>
</g>
<g>
</g>
<g>
</g>
<g>
</g>
<g>
</g>
<g>
</g>
<g>
</g>
<g>
</g>
<g>
</g>
<g>
</g>
<g>
</g>
<g>
</g>
<g>
</g>
<g>
</g>
</svg>
