<?xml version="1.0" encoding="iso-8859-1"?>
<!-- Generator: Adobe Illustrator 18.0.0, SVG Export Plug-In . SVG Version: 6.00 Build 0)  -->
<!DOCTYPE svg PUBLIC "-//W3C//DTD SVG 1.1//EN" "http://www.w3.org/Graphics/SVG/1.1/DTD/svg11.dtd">
<svg version="1.1" id="Capa_1" xmlns="http://www.w3.org/2000/svg" xmlns:xlink="http://www.w3.org/1999/xlink" x="0px" y="0px"
	 viewBox="0 0 59 59" style="enable-background:new 0 0 59 59;" xml:space="preserve">
<g>
	<path style="fill:#C7CAC7;" d="M37,23c-0.256,0-0.512-0.098-0.707-0.293c-0.391-0.391-0.391-1.023,0-1.414l13-13
		C49.481,8.106,49.735,8,50,8h7V3.414l-0.293,0.293c-0.391,0.391-1.023,0.391-1.414,0s-0.391-1.023,0-1.414l2-2
		c0.286-0.287,0.714-0.372,1.09-0.217C58.756,0.231,59,0.596,59,1v8c0,0.552-0.448,1-1,1h-7.586L37.707,22.707
		C37.512,22.902,37.256,23,37,23z"/>
	<path style="fill:#7383BF;" d="M1.073,52.746l30.853-30.853c0.547-0.547,1.337-0.773,2.09-0.599l4.942,1.14
		c0.986,0.228,1.337,1.451,0.621,2.167L6.254,57.927c-1.431,1.431-3.75,1.431-5.181,0l0,0C-0.358,56.497-0.358,54.177,1.073,52.746z
		"/>
	<path style="fill:#556080;" d="M8.197,56.985c-0.38,0-0.743-0.218-0.911-0.587l-3.238-7.124c-0.229-0.502-0.006-1.095,0.497-1.324
		c0.5-0.229,1.095-0.007,1.324,0.497l3.238,7.124c0.229,0.502,0.006,1.095-0.497,1.324C8.476,56.956,8.336,56.985,8.197,56.985z"/>
	<path style="fill:#556080;" d="M12.083,53.099c-0.38,0-0.743-0.218-0.911-0.586L7.934,45.39c-0.229-0.503-0.006-1.096,0.496-1.324
		c0.501-0.229,1.095-0.007,1.324,0.496l3.238,7.123c0.229,0.503,0.006,1.096-0.496,1.324C12.362,53.07,12.221,53.099,12.083,53.099z
		"/>
	<path style="fill:#556080;" d="M15.968,49.214c-0.38,0-0.743-0.218-0.911-0.587l-3.238-7.124c-0.229-0.502-0.006-1.095,0.497-1.324
		c0.5-0.229,1.095-0.007,1.324,0.497l3.238,7.124c0.229,0.502,0.006,1.095-0.497,1.324C16.247,49.185,16.107,49.214,15.968,49.214z"
		/>
</g>
<g>
</g>
<g>
</g>
<g>
</g>
<g>
</g>
<g>
</g>
<g>
</g>
<g>
</g>
<g>
</g>
<g>
</g>
<g>
</g>
<g>
</g>
<g>
</g>
<g>
</g>
<g>
</g>
<g>
</g>
</svg>
