<?xml version="1.0" encoding="iso-8859-1"?>
<!-- Generator: Adobe Illustrator 18.0.0, SVG Export Plug-In . SVG Version: 6.00 Build 0)  -->
<!DOCTYPE svg PUBLIC "-//W3C//DTD SVG 1.1//EN" "http://www.w3.org/Graphics/SVG/1.1/DTD/svg11.dtd">
<svg version="1.1" id="Capa_1" xmlns="http://www.w3.org/2000/svg" xmlns:xlink="http://www.w3.org/1999/xlink" x="0px" y="0px"
	 viewBox="0 0 58 58" style="enable-background:new 0 0 58 58;" xml:space="preserve">
<g>
	<polygon style="fill:#E95829;" points="48,14 45,14 13,14 10,14 10,18 13,18 13,58 45,58 45,18 48,18 	"/>
	<rect x="13" y="11" style="fill:#EF6B20;" width="32" height="3"/>
	<rect x="10" style="fill:#FF9801;" width="38" height="11"/>
	<rect x="29" y="22" style="fill:#E6E6E6;" width="16" height="30"/>
	<rect x="36" y="34" style="fill:#949493;" width="9" height="2"/>
	<rect x="36" y="38" style="fill:#949493;" width="9" height="2"/>
	<rect x="36" y="26" style="fill:#949493;" width="9" height="2"/>
	<rect x="36" y="30" style="fill:#949493;" width="9" height="2"/>
	<rect x="36" y="42" style="fill:#949493;" width="9" height="2"/>
	<rect x="36" y="46" style="fill:#949493;" width="9" height="2"/>
	<rect x="13" y="21.917" style="fill:#E6E6E6;" width="4" height="30.083"/>
	<g>
		<rect x="14" y="8" style="fill:#EFCE4A;" width="2" height="3"/>
		<rect x="18" y="8" style="fill:#EFCE4A;" width="2" height="3"/>
		<rect x="22" y="8" style="fill:#EFCE4A;" width="2" height="3"/>
		<rect x="26" y="8" style="fill:#EFCE4A;" width="2" height="3"/>
		<rect x="30" y="8" style="fill:#EFCE4A;" width="2" height="3"/>
		<rect x="34" y="8" style="fill:#EFCE4A;" width="2" height="3"/>
		<rect x="38" y="8" style="fill:#EFCE4A;" width="2" height="3"/>
		<rect x="42" y="8" style="fill:#EFCE4A;" width="2" height="3"/>
	</g>
	<g>
		<rect x="40" y="17" style="fill:#F46640;" width="2" height="2"/>
		<polygon style="fill:#F46640;" points="26,14 20,14 20,17 16,17 16,19 20,19 20,58 26,58 26,19 37,19 37,17 26,17 		"/>
	</g>
</g>
<g>
</g>
<g>
</g>
<g>
</g>
<g>
</g>
<g>
</g>
<g>
</g>
<g>
</g>
<g>
</g>
<g>
</g>
<g>
</g>
<g>
</g>
<g>
</g>
<g>
</g>
<g>
</g>
<g>
</g>
</svg>
