<?xml version="1.0" encoding="iso-8859-1"?>
<!-- Generator: Adobe Illustrator 18.0.0, SVG Export Plug-In . SVG Version: 6.00 Build 0)  -->
<!DOCTYPE svg PUBLIC "-//W3C//DTD SVG 1.1//EN" "http://www.w3.org/Graphics/SVG/1.1/DTD/svg11.dtd">
<svg version="1.1" id="Capa_1" xmlns="http://www.w3.org/2000/svg" xmlns:xlink="http://www.w3.org/1999/xlink" x="0px" y="0px"
	 viewBox="0 0 57.579 57.579" style="enable-background:new 0 0 57.579 57.579;" xml:space="preserve">
<g>
	
		<ellipse transform="matrix(0.7071 -0.7071 0.7071 0.7071 -11.925 28.7895)" style="fill:#556080;" cx="28.789" cy="28.789" rx="36" ry="19"/>
	
		<ellipse transform="matrix(0.7071 -0.7071 0.7071 0.7071 2.505 30.1264)" style="fill:#A188D8;" cx="37.618" cy="12.039" rx="6.302" ry="3.326"/>
	<path style="fill:#A188D8;" d="M5.283,41.895c-0.044,0-0.088-0.003-0.133-0.009c-0.547-0.072-0.933-0.575-0.86-1.123
		c0.977-7.375,5.141-14.647,12.732-22.231c0.391-0.39,1.024-0.39,1.415,0c0.39,0.391,0.39,1.024,0,1.415
		C11.168,27.209,7.19,34.104,6.273,41.026C6.206,41.529,5.777,41.895,5.283,41.895z"/>
	<path style="fill:#A188D8;" d="M7.834,52.256c-0.256,0-0.513-0.098-0.708-0.294c-1.338-1.341-2.276-3.114-2.712-5.126
		c-0.117-0.54,0.226-1.072,0.765-1.189c0.539-0.118,1.072,0.225,1.189,0.765c0.355,1.637,1.107,3.068,2.174,4.138
		c0.39,0.391,0.389,1.024-0.002,1.414C8.345,52.159,8.089,52.256,7.834,52.256z"/>
</g>
<g>
</g>
<g>
</g>
<g>
</g>
<g>
</g>
<g>
</g>
<g>
</g>
<g>
</g>
<g>
</g>
<g>
</g>
<g>
</g>
<g>
</g>
<g>
</g>
<g>
</g>
<g>
</g>
<g>
</g>
</svg>
