<?xml version="1.0" encoding="iso-8859-1"?>
<!-- Generator: Adobe Illustrator 18.0.0, SVG Export Plug-In . SVG Version: 6.00 Build 0)  -->
<!DOCTYPE svg PUBLIC "-//W3C//DTD SVG 1.1//EN" "http://www.w3.org/Graphics/SVG/1.1/DTD/svg11.dtd">
<svg version="1.1" id="Capa_1" xmlns="http://www.w3.org/2000/svg" xmlns:xlink="http://www.w3.org/1999/xlink" x="0px" y="0px"
	 viewBox="0 0 56.121 56.121" style="enable-background:new 0 0 56.121 56.121;" xml:space="preserve">
<g>
	<path style="fill:#E7ECED;" d="M55,40.551c-2-4.313-2-10-2-10V12.061H32v17.194c0,1.979-1.238,3.747-3.098,4.423L10,40.551v1.999
		v13.001c3.533,1.195,7.742,0.049,12.212-1c11.188-2.625,18.225-1.188,24.788-1s7.663-2.5,8-3S57.345,45.608,55,40.551z"/>
	<path style="fill:#FBCE9D;" d="M10,43.061H3.212c0,0-4.188-0.134-3,3.491c0.713,2.177,4.48,5.557,9.788,7.354V43.061z"/>
	<rect x="34" y="0.061" style="fill:#FBCE9D;" width="17" height="12"/>
	<circle style="fill:#AFB6BB;" cx="35" cy="30.551" r="1"/>
	<circle style="fill:#AFB6BB;" cx="39" cy="30.551" r="1"/>
	<circle style="fill:#F7B563;" cx="37" cy="2.551" r="1"/>
	<circle style="fill:#F7B563;" cx="40" cy="4.551" r="1"/>
	<circle style="fill:#F7B563;" cx="38" cy="7.551" r="1"/>
	<circle style="fill:#F7B563;" cx="35" cy="5.551" r="1"/>
	<circle style="fill:#AFB6BB;" cx="35" cy="34.551" r="1"/>
	<circle style="fill:#AFB6BB;" cx="37" cy="32.551" r="1"/>
	<circle style="fill:#AFB6BB;" cx="39" cy="34.551" r="1"/>
	<circle style="fill:#AFB6BB;" cx="41" cy="36.551" r="1"/>
</g>
<g>
</g>
<g>
</g>
<g>
</g>
<g>
</g>
<g>
</g>
<g>
</g>
<g>
</g>
<g>
</g>
<g>
</g>
<g>
</g>
<g>
</g>
<g>
</g>
<g>
</g>
<g>
</g>
<g>
</g>
</svg>
