<?xml version="1.0" encoding="iso-8859-1"?>
<!-- Generator: Adobe Illustrator 18.0.0, SVG Export Plug-In . SVG Version: 6.00 Build 0)  -->
<!DOCTYPE svg PUBLIC "-//W3C//DTD SVG 1.1//EN" "http://www.w3.org/Graphics/SVG/1.1/DTD/svg11.dtd">
<svg version="1.1" id="Capa_1" xmlns="http://www.w3.org/2000/svg" xmlns:xlink="http://www.w3.org/1999/xlink" x="0px" y="0px"
	 viewBox="0 0 58 58" style="enable-background:new 0 0 58 58;" xml:space="preserve">
<g>
	<path style="fill:#E7ECED;" d="M53.457,19H41.32h-24H4.39c-0.133,1.689-0.076,1.802,0.17,3.437
		c1.514,10.062,2.719,20.789,6.639,30.255C11.918,54.427,13.275,58,15.231,58c1.843-0.78,2.592-2.524,3.271-4.266
		c1.325-3.4,3.776-9.026,3.934-8.756c1.46,2.486,4.21,8.478,7.935,7.373c1.884-0.559,2.876-2.698,3.661-4.311
		c0.61-1.253,1.713-3.338,2.287-5.04c-0.042-0.146,1.254,4.149,2.404,7.691c1.047,3.226,3.703,10.852,7.036,5.012
		c2.106-3.691,2.873-7.882,3.791-11.976C51.369,35.615,54.293,27.62,53.457,19z"/>
	<polygon style="fill:#AFB6BB;" points="39.32,19 19.32,19 19.32,37 21.32,37 21.32,38.333 26.32,45 32.32,45 37.32,38.333 
		37.32,37 39.32,37 	"/>
	<path style="fill:#E7ECED;" d="M46.653,2.412c-4.314-2.774-10.221-3.161-15.122-1.134c-0.18,0.074-0.352,0.157-0.529,0.218
		c-2.29,0.794-1.867,1.015-4.165,0.338c-4-1.179-9.474-2.082-13.47-0.666C7.712,3.172,5.058,7.375,4.613,13H23.32h12h18.36
		c-0.135-1.392-0.358-1.524-0.71-2.855C52.128,6.962,49.564,4.284,46.653,2.412z"/>
	<g>
		<path style="fill:#F0F6F7;" d="M52.56,10.01c-0.842-3.183-3.406-5.861-6.317-7.733c-4.314-2.774-10.221-2.758-15.122-0.731
			c-0.18,0.074-0.352,0.157-0.529,0.218c-2.29,0.794-1.867,1.015-4.165,0.338c-4-1.179-9.474-2.485-13.469-1.069
			c-7.354,2.605-4.972,9.752,0.3,7.884c3.996-1.416,9.469-0.11,13.469,1.069c2.299,0.678,1.875,0.457,4.165-0.338
			c0.176-0.061,0.349-0.143,0.529-0.218c4.901-2.027,10.809-2.043,15.122,0.731C49.454,12.033,53.402,13.194,52.56,10.01z"/>
	</g>
	<path style="fill:#FFFFFF;" d="M21.674,4.715c-0.556-0.653-1.339-0.796-2.165-0.677c-1.72,0.247-3.429,0.627-5.137,0.947
		c-2.084,0.39-3.621,1.806-2.357,3.986c1.128,1.945,4.197,1.817,6.158,1.238c0.237,0.014,0.484-0.047,0.711-0.224
		C20.06,9.069,23.167,6.467,21.674,4.715z"/>
	<path style="fill:#FFFFFF;" d="M42.039,3c0.292,0,0.583,0,0.875,0c1.29,0,1.29-2,0-2c-0.292,0-0.583,0-0.875,0
		C40.749,1,40.749,3,42.039,3L42.039,3z"/>
	<path style="fill:#FFFFFF;" d="M30.617,9.657c0.194,0.979,1.138,1.607,2.117,1.414c0.01-0.002,0.02-0.004,0.03-0.006
		c0.034-0.007,0.065-0.01,0.098-0.017c-0.343-2.695-1.121-5.318-2.341-7.848c-0.559-1.161-2.28-0.139-1.723,1.016
		C29.65,5.985,30.25,7.801,30.617,9.657z"/>
	<polygon style="fill:#CEB984;" points="23.32,33 25.32,33 25.32,37 28.32,41 30.32,41 33.32,37 33.32,33 35.32,33 35.32,13 
		23.32,13 	"/>
	<g>
		<path style="fill:#FBD490;" d="M28.017,27.824l-7,2.223c-0.526,0.167-0.817,0.729-0.65,1.256C20.502,31.729,20.896,32,21.32,32
			c0.101,0,0.203-0.015,0.303-0.047l7-2.223c0.526-0.167,0.817-0.729,0.65-1.256C29.106,27.947,28.541,27.655,28.017,27.824z"/>
		<path style="fill:#FBD490;" d="M37.004,25.052l-5,1.667c-0.524,0.174-0.807,0.74-0.632,1.265c0.14,0.419,0.53,0.684,0.949,0.684
			c0.104,0,0.211-0.017,0.316-0.052l5-1.667c0.524-0.174,0.807-0.74,0.632-1.265C38.095,25.16,37.53,24.876,37.004,25.052z"/>
		<path style="fill:#FBD490;" d="M28.017,21.824l-7,2.223c-0.526,0.167-0.817,0.729-0.65,1.256C20.502,25.729,20.896,26,21.32,26
			c0.101,0,0.203-0.015,0.303-0.047l7-2.223c0.526-0.167,0.817-0.729,0.65-1.256C29.106,21.947,28.541,21.655,28.017,21.824z"/>
		<path style="fill:#FBD490;" d="M28.017,15.824l-7,2.223c-0.526,0.167-0.817,0.729-0.65,1.256C20.502,19.729,20.896,20,21.32,20
			c0.101,0,0.203-0.015,0.303-0.047l7-2.223c0.526-0.167,0.817-0.729,0.65-1.256C29.106,15.947,28.541,15.655,28.017,15.824z"/>
		<path style="fill:#FBD490;" d="M32.32,16.667c0.104,0,0.211-0.017,0.316-0.052l5-1.667c0.524-0.174,0.807-0.74,0.632-1.265
			c-0.174-0.523-0.739-0.808-1.265-0.632l-5,1.667c-0.524,0.174-0.807,0.74-0.632,1.265C31.511,16.402,31.901,16.667,32.32,16.667z"
			/>
		<path style="fill:#FBD490;" d="M37.004,19.052l-5,1.667c-0.524,0.174-0.807,0.74-0.632,1.265c0.14,0.419,0.53,0.684,0.949,0.684
			c0.104,0,0.211-0.017,0.316-0.052l5-1.667c0.524-0.174,0.807-0.74,0.632-1.265C38.095,19.16,37.53,18.876,37.004,19.052z"/>
	</g>
</g>
<g>
</g>
<g>
</g>
<g>
</g>
<g>
</g>
<g>
</g>
<g>
</g>
<g>
</g>
<g>
</g>
<g>
</g>
<g>
</g>
<g>
</g>
<g>
</g>
<g>
</g>
<g>
</g>
<g>
</g>
</svg>
