<?xml version="1.0" encoding="iso-8859-1"?>
<!-- Generator: Adobe Illustrator 18.0.0, SVG Export Plug-In . SVG Version: 6.00 Build 0)  -->
<!DOCTYPE svg PUBLIC "-//W3C//DTD SVG 1.1//EN" "http://www.w3.org/Graphics/SVG/1.1/DTD/svg11.dtd">
<svg version="1.1" id="Capa_1" xmlns="http://www.w3.org/2000/svg" xmlns:xlink="http://www.w3.org/1999/xlink" x="0px" y="0px"
	 viewBox="0 0 58 58" style="enable-background:new 0 0 58 58;" xml:space="preserve">
<g>
	<rect y="3" style="fill:#3E465B;" width="58" height="52"/>
	<g>
		<path style="fill:#9EF5FC;" d="M29.684,22.63c0.925,3.507-0.396,7.69-1.167,11.141c-0.335,1.5-0.615,3.035-1.384,4.387
			c-1.217,2.14-2.187-0.654-2.569-1.836c-0.47-1.453-0.623-3.329-2.069-4.193c-1.441-0.861-2.777,0.019-3.612,1.244
			c-0.846,1.241-1.166,2.684-1.702,4.064c-0.248,0.638-0.521,1.277-1.194,1.563c-0.714,0-1.21-1.309-1.472-1.945
			c-1.431-3.468-1.871-7.398-2.424-11.084c-0.389-2.593,0.449-5.676,3.134-6.63c1.459-0.519,3.457-0.04,4.918,0.392
			c0.839,0.248,0.685,0.167,1.521-0.124c0.064-0.022,0.127-0.052,0.193-0.08c1.79-0.743,3.946-0.749,5.521,0.268
			C28.44,20.483,29.376,21.464,29.684,22.63z"/>
		<path style="fill:#6ED0FF;" d="M16.19,40h-0.204c-1.346,0-1.977-1.537-2.353-2.456l-0.044-0.105
			c-1.304-3.159-1.805-6.616-2.29-9.959l-0.199-1.359c-0.451-3.013,0.545-6.568,3.789-7.722c1.716-0.611,3.86-0.122,5.535,0.375
			c0.194,0.058,0.312,0.097,0.405,0.108c-0.05-0.006,0.004-0.029,0.076-0.058c0.112-0.044,0.249-0.097,0.428-0.159l0.136-0.059
			c2.218-0.919,4.688-0.784,6.449,0.35c1.422,0.917,2.392,2.131,2.731,3.419l0,0c0.849,3.218-0.018,6.826-0.781,10.009
			c-0.132,0.549-0.261,1.085-0.377,1.604l-0.104,0.474c-0.307,1.401-0.624,2.85-1.387,4.19c-0.656,1.154-1.408,1.327-1.926,1.281
			c-1.267-0.129-1.933-1.664-2.464-3.303c-0.107-0.331-0.199-0.683-0.292-1.04c-0.286-1.099-0.556-2.136-1.339-2.604
			c-1.005-0.602-1.854,0.337-2.272,0.949c-0.527,0.774-0.834,1.677-1.158,2.633c-0.14,0.411-0.28,0.823-0.438,1.23
			c-0.257,0.66-0.645,1.656-1.735,2.12L16.19,40z M16.706,20.113c-0.416,0-0.808,0.049-1.146,0.17c-2.16,0.768-2.8,3.41-2.48,5.54
			l0.2,1.369c0.468,3.222,0.951,6.554,2.159,9.481l0.045,0.111c0.078,0.19,0.269,0.653,0.454,0.969
			c0.101-0.163,0.197-0.385,0.312-0.679c0.147-0.38,0.277-0.765,0.408-1.148c0.353-1.041,0.718-2.117,1.399-3.117
			c1.324-1.94,3.268-2.544,4.951-1.539c1.486,0.889,1.908,2.513,2.248,3.817c0.083,0.318,0.164,0.632,0.259,0.927
			c0.312,0.959,0.55,1.458,0.709,1.717c0.013-0.021,0.026-0.044,0.04-0.067c0.612-1.076,0.884-2.316,1.171-3.63l0.106-0.481
			c0.118-0.53,0.249-1.076,0.383-1.636c0.709-2.953,1.513-6.301,0.793-9.032l0,0c-0.212-0.804-0.881-1.602-1.882-2.247
			c-1.196-0.771-3.001-0.845-4.597-0.185c-0.111,0.049-0.179,0.077-0.246,0.101c-0.15,0.053-0.266,0.098-0.359,0.134
			c-0.694,0.271-0.976,0.24-1.775,0.004C18.945,20.422,17.748,20.113,16.706,20.113z"/>
	</g>
	<path style="fill:#556080;" d="M35,27h-8c-0.553,0-1-0.447-1-1s0.447-1,1-1h8c0.553,0,1,0.447,1,1S35.553,27,35,27z"/>
	<path style="fill:#556080;" d="M39,31c-2.757,0-5-2.243-5-5s2.243-5,5-5s5,2.243,5,5S41.757,31,39,31z M39,23c-1.654,0-3,1.346-3,3
		s1.346,3,3,3s3-1.346,3-3S40.654,23,39,23z"/>
	<path style="fill:#556080;" d="M14,9H5C4.447,9,4,8.553,4,8s0.447-1,1-1h9c0.553,0,1,0.447,1,1S14.553,9,14,9z"/>
	<path style="fill:#556080;" d="M22,13H5c-0.553,0-1-0.447-1-1s0.447-1,1-1h17c0.553,0,1,0.447,1,1S22.553,13,22,13z"/>
	<path style="fill:#556080;" d="M53,43h-4c-0.553,0-1-0.447-1-1s0.447-1,1-1h4c0.553,0,1,0.447,1,1S53.553,43,53,43z"/>
	<path style="fill:#556080;" d="M53,47h-8c-0.553,0-1-0.447-1-1s0.447-1,1-1h8c0.553,0,1,0.447,1,1S53.553,47,53,47z"/>
	<path style="fill:#556080;" d="M53,51h-4c-0.553,0-1-0.447-1-1s0.447-1,1-1h4c0.553,0,1,0.447,1,1S53.553,51,53,51z"/>
	<path style="fill:#556080;" d="M6,47H5c-0.553,0-1-0.447-1-1s0.447-1,1-1h1c0.553,0,1,0.447,1,1S6.553,47,6,47z"/>
	<path style="fill:#556080;" d="M10,47H9c-0.553,0-1-0.447-1-1s0.447-1,1-1h1c0.553,0,1,0.447,1,1S10.553,47,10,47z"/>
	<path style="fill:#556080;" d="M14,47h-1c-0.553,0-1-0.447-1-1s0.447-1,1-1h1c0.553,0,1,0.447,1,1S14.553,47,14,47z"/>
	<path style="fill:#556080;" d="M9,51H5c-0.553,0-1-0.447-1-1s0.447-1,1-1h4c0.553,0,1,0.447,1,1S9.553,51,9,51z"/>
	<path style="fill:#556080;" d="M14,51c-0.26,0-0.521-0.101-0.71-0.29C13.109,50.52,13,50.26,13,50s0.109-0.521,0.29-0.71
		c0.37-0.37,1.05-0.37,1.42,0C14.89,49.479,15,49.74,15,50s-0.11,0.52-0.29,0.71C14.52,50.899,14.26,51,14,51z"/>
	<polygon style="fill:#6ED0FF;" points="20.707,28.707 19.293,27.293 20.586,26 17.713,23.127 20.168,19.445 21.832,20.555 
		20.287,22.873 23.414,26 	"/>
	<path style="fill:#556080;" d="M53,13h-1c-0.553,0-1-0.447-1-1s0.447-1,1-1h1c0.553,0,1,0.447,1,1S53.553,13,53,13z"/>
	<path style="fill:#556080;" d="M49,13h-1c-0.553,0-1-0.447-1-1s0.447-1,1-1h1c0.553,0,1,0.447,1,1S49.553,13,49,13z"/>
	<path style="fill:#556080;" d="M45,13h-1c-0.553,0-1-0.447-1-1s0.447-1,1-1h1c0.553,0,1,0.447,1,1S45.553,13,45,13z"/>
	<path style="fill:#556080;" d="M41,35h-1c-0.553,0-1-0.447-1-1s0.447-1,1-1h1c0.553,0,1,0.447,1,1S41.553,35,41,35z"/>
	<path style="fill:#556080;" d="M37,35h-1c-0.553,0-1-0.447-1-1s0.447-1,1-1h1c0.553,0,1,0.447,1,1S37.553,35,37,35z"/>
	<path style="fill:#556080;" d="M53,9h-1c-0.553,0-1-0.447-1-1s0.447-1,1-1h1c0.553,0,1,0.447,1,1S53.553,9,53,9z"/>
	<path style="fill:#556080;" d="M49,9h-1c-0.553,0-1-0.447-1-1s0.447-1,1-1h1c0.553,0,1,0.447,1,1S49.553,9,49,9z"/>
	<path style="fill:#556080;" d="M45,9h-1c-0.553,0-1-0.447-1-1s0.447-1,1-1h1c0.553,0,1,0.447,1,1S45.553,9,45,9z"/>
</g>
<g>
</g>
<g>
</g>
<g>
</g>
<g>
</g>
<g>
</g>
<g>
</g>
<g>
</g>
<g>
</g>
<g>
</g>
<g>
</g>
<g>
</g>
<g>
</g>
<g>
</g>
<g>
</g>
<g>
</g>
</svg>
