<?xml version="1.0" encoding="iso-8859-1"?>
<!-- Generator: Adobe Illustrator 18.0.0, SVG Export Plug-In . SVG Version: 6.00 Build 0)  -->
<!DOCTYPE svg PUBLIC "-//W3C//DTD SVG 1.1//EN" "http://www.w3.org/Graphics/SVG/1.1/DTD/svg11.dtd">
<svg version="1.1" id="Capa_1" xmlns="http://www.w3.org/2000/svg" xmlns:xlink="http://www.w3.org/1999/xlink" x="0px" y="0px"
	 viewBox="0 0 60 60" style="enable-background:new 0 0 60 60;" xml:space="preserve">
<g>
	<g>
		<rect x="1" y="4" style="fill:#556080;" width="58" height="52"/>
		<path style="fill:#3E465B;" d="M60,57H0V3h60V57z M2,55h56V5H2V55z"/>
	</g>
	<path style="fill:#7383BF;" d="M15,13H6c-0.553,0-1-0.447-1-1s0.447-1,1-1h9c0.553,0,1,0.447,1,1S15.553,13,15,13z"/>
	<path style="fill:#7383BF;" d="M23,17H6c-0.553,0-1-0.447-1-1s0.447-1,1-1h17c0.553,0,1,0.447,1,1S23.553,17,23,17z"/>
	<path style="fill:#7383BF;" d="M11,37c-2.757,0-5-2.243-5-5s2.243-5,5-5s5,2.243,5,5S13.757,37,11,37z M11,29c-1.654,0-3,1.346-3,3
		s1.346,3,3,3s3-1.346,3-3S12.654,29,11,29z"/>
	<path style="fill:#7383BF;" d="M54,42h-4c-0.553,0-1-0.447-1-1s0.447-1,1-1h4c0.553,0,1,0.447,1,1S54.553,42,54,42z"/>
	<path style="fill:#7383BF;" d="M54,46h-8c-0.553,0-1-0.447-1-1s0.447-1,1-1h8c0.553,0,1,0.447,1,1S54.553,46,54,46z"/>
	<path style="fill:#7383BF;" d="M54,50h-4c-0.553,0-1-0.447-1-1s0.447-1,1-1h4c0.553,0,1,0.447,1,1S54.553,50,54,50z"/>
	<path style="fill:#9CEFFF;" d="M25.189,44h-0.203c-1.346,0-1.977-1.535-2.354-2.452l-0.043-0.104
		c-1.304-3.148-1.805-6.594-2.289-9.925l-0.2-1.355c-0.451-3.004,0.545-6.55,3.79-7.699c0.529-0.188,1.14-0.282,1.816-0.282
		c1.322,0,2.682,0.351,3.718,0.656c0.193,0.057,0.311,0.096,0.403,0.106c-0.047-0.006,0.007-0.029,0.08-0.058
		c0.111-0.043,0.248-0.097,0.426-0.158l0.136-0.058c0.791-0.326,1.657-0.528,2.51-0.585l1.18-0.078l-0.118,1.177
		C34.014,23.453,34,23.726,34,24c0,3.308,1.994,6.229,5.08,7.441l0.755,0.296l-0.134,0.8c-0.223,1.33-0.535,2.63-0.837,3.887
		c-0.13,0.541-0.257,1.07-0.372,1.584l-0.104,0.472c-0.307,1.396-0.624,2.84-1.386,4.177c-0.487,0.854-1.083,1.286-1.771,1.286l0,0
		c-1.358-0.001-2.062-1.588-2.619-3.302c-0.107-0.331-0.199-0.681-0.292-1.037c-0.285-1.094-0.555-2.126-1.337-2.592
		c-0.2-0.12-0.398-0.178-0.604-0.178c-0.55,0-1.206,0.44-1.671,1.122c-0.528,0.772-0.835,1.671-1.159,2.623
		c-0.139,0.41-0.279,0.82-0.438,1.227c-0.257,0.658-0.645,1.652-1.735,2.115L25.189,44z M25.707,24.183
		c-0.448,0-0.835,0.056-1.148,0.167c-2.159,0.765-2.799,3.396-2.479,5.518l0.2,1.364c0.468,3.21,0.95,6.53,2.158,9.447l0.045,0.109
		c0.078,0.19,0.269,0.654,0.455,0.969c0.101-0.163,0.197-0.385,0.312-0.678c0.147-0.379,0.277-0.762,0.408-1.145
		c0.354-1.037,0.719-2.109,1.4-3.106c1.247-1.825,3.331-2.498,4.949-1.535c1.487,0.886,1.909,2.505,2.249,3.806
		c0.082,0.317,0.163,0.63,0.259,0.924c0.312,0.957,0.55,1.454,0.709,1.712c0.014-0.021,0.026-0.044,0.041-0.068
		c0.611-1.073,0.883-2.308,1.17-3.615l0.106-0.48c0.117-0.522,0.246-1.063,0.379-1.613c0.234-0.978,0.476-1.981,0.671-2.988
		c-3.344-1.636-5.491-4.955-5.588-8.705c-0.262,0.068-0.52,0.153-0.766,0.256c-0.113,0.049-0.185,0.079-0.258,0.103
		c-0.138,0.049-0.253,0.093-0.347,0.13c-0.255,0.1-0.496,0.192-0.826,0.192c-0.289,0-0.551-0.07-0.947-0.188
		C28.022,24.51,26.785,24.183,25.707,24.183z"/>
	<path style="fill:#7383BF;" d="M8,44H7c-0.553,0-1-0.447-1-1s0.447-1,1-1h1c0.553,0,1,0.447,1,1S8.553,44,8,44z"/>
	<path style="fill:#7383BF;" d="M12,44h-1c-0.553,0-1-0.447-1-1s0.447-1,1-1h1c0.553,0,1,0.447,1,1S12.553,44,12,44z"/>
	<path style="fill:#7383BF;" d="M16,44h-1c-0.553,0-1-0.447-1-1s0.447-1,1-1h1c0.553,0,1,0.447,1,1S16.553,44,16,44z"/>
	<path style="fill:#7383BF;" d="M11,48H7c-0.553,0-1-0.447-1-1s0.447-1,1-1h4c0.553,0,1,0.447,1,1S11.553,48,11,48z"/>
	<path style="fill:#7383BF;" d="M16,48c-0.26,0-0.521-0.11-0.71-0.29C15.109,47.52,15,47.27,15,47c0-0.271,0.109-0.521,0.29-0.71
		c0.38-0.37,1.04-0.37,1.42,0C16.89,46.479,17,46.74,17,47c0,0.27-0.11,0.52-0.29,0.71C16.52,47.89,16.26,48,16,48z"/>
	<path style="fill:#7383BF;" d="M26,33H15c-0.553,0-1-0.447-1-1s0.447-1,1-1h11c0.553,0,1,0.447,1,1S26.553,33,26,33z"/>
	<g>
		<path style="fill:#9EFCFE;" d="M42,15c-2.039,0-3.914,0.686-5.423,1.83c0.585,1.824,0.979,3.747,1.534,5.455
			c1.047,3.226,3.703,10.852,7.036,5.012c1.701-2.98,2.527-6.288,3.266-9.607C46.78,16.031,44.511,15,42,15z"/>
		<path style="fill:#9EFCFE;" d="M42.679,30.436C42.679,30.436,42.679,30.436,42.679,30.436c-2.619-0.001-4.26-3.965-5.52-7.842
			c-0.285-0.88-0.531-1.822-0.77-2.732c-0.235-0.903-0.479-1.838-0.765-2.726l-0.217-0.675l0.564-0.428
			C37.728,14.703,39.812,14,42,14c2.698,0,5.229,1.062,7.126,2.988l0.382,0.388l-0.118,0.531c-0.735,3.297-1.601,6.776-3.375,9.886
			C45,29.57,43.909,30.436,42.679,30.436z M37.747,17.234c0.209,0.71,0.396,1.425,0.578,2.121c0.241,0.924,0.47,1.797,0.736,2.621
			c1.946,5.992,3.261,6.459,3.617,6.459l0,0c0.156,0,0.734-0.118,1.6-1.634c1.545-2.709,2.337-5.695,3.035-8.779
			C45.847,16.715,43.979,16,42,16C40.481,16,39.024,16.425,37.747,17.234z"/>
	</g>
	<path style="fill:#6CCEFF;" d="M42,34c-5.514,0-10-4.486-10-10s4.486-10,10-10s10,4.486,10,10S47.514,34,42,34z M42,16
		c-4.411,0-8,3.589-8,8s3.589,8,8,8s8-3.589,8-8S46.411,16,42,16z"/>
</g>
<g>
</g>
<g>
</g>
<g>
</g>
<g>
</g>
<g>
</g>
<g>
</g>
<g>
</g>
<g>
</g>
<g>
</g>
<g>
</g>
<g>
</g>
<g>
</g>
<g>
</g>
<g>
</g>
<g>
</g>
</svg>
