<?xml version="1.0" encoding="iso-8859-1"?>
<!-- Generator: Adobe Illustrator 18.0.0, SVG Export Plug-In . SVG Version: 6.00 Build 0)  -->
<!DOCTYPE svg PUBLIC "-//W3C//DTD SVG 1.1//EN" "http://www.w3.org/Graphics/SVG/1.1/DTD/svg11.dtd">
<svg version="1.1" id="Capa_1" xmlns="http://www.w3.org/2000/svg" xmlns:xlink="http://www.w3.org/1999/xlink" x="0px" y="0px"
	 viewBox="0 0 58 58" style="enable-background:new 0 0 58 58;" xml:space="preserve">
<g>
	<rect y="3" style="fill:#3E465B;" width="58" height="52"/>
	<g>
		<path style="fill:#9EF5FC;" d="M17.388,25.187c-0.025-0.164-0.042-0.331-0.059-0.497h-0.509c-1.005,0-1.819,0.815-1.819,1.819
			v9.586C15,40.461,18.539,44,22.905,44h12.189C39.461,44,43,40.461,43,36.095v-9.586c0-1.005-0.815-1.819-1.819-1.819h-0.121"/>
		<path style="fill:#6ED0FF;" d="M35.095,45H22.905C17.995,45,14,41.005,14,36.095v-9.586c0-1.555,1.265-2.819,2.819-2.819h1.415
			l0.09,0.901c0.015,0.15,0.03,0.302,0.053,0.449l-1.048,0.156v0.493h-0.51c-0.452,0-0.819,0.367-0.819,0.819v9.586
			C16,39.902,19.098,43,22.905,43h12.189C38.902,43,42,39.902,42,36.095v-9.586c0-0.452-0.367-0.819-0.819-0.819H41.06v-2h0.121
			c1.555,0,2.819,1.265,2.819,2.819v9.586C44,41.005,40.005,45,35.095,45z"/>
	</g>
	<path style="fill:#7383BF;" d="M9,9H5C4.447,9,4,8.553,4,8s0.447-1,1-1h4c0.553,0,1,0.447,1,1S9.553,9,9,9z"/>
	<path style="fill:#7383BF;" d="M13,13H5c-0.553,0-1-0.447-1-1s0.447-1,1-1h8c0.553,0,1,0.447,1,1S13.553,13,13,13z"/>
	<path style="fill:#7383BF;" d="M54,9h-4c-0.553,0-1-0.447-1-1s0.447-1,1-1h4c0.553,0,1,0.447,1,1S54.553,9,54,9z"/>
	<path style="fill:#7383BF;" d="M54,13h-8c-0.553,0-1-0.447-1-1s0.447-1,1-1h8c0.553,0,1,0.447,1,1S54.553,13,54,13z"/>
	<path style="fill:#7383BF;" d="M54,17h-4c-0.553,0-1-0.447-1-1s0.447-1,1-1h4c0.553,0,1,0.447,1,1S54.553,17,54,17z"/>
	<path style="fill:#7383BF;" d="M45,47h-1c-0.553,0-1-0.447-1-1s0.447-1,1-1h1c0.553,0,1,0.447,1,1S45.553,47,45,47z"/>
	<path style="fill:#7383BF;" d="M49,47h-1c-0.553,0-1-0.447-1-1s0.447-1,1-1h1c0.553,0,1,0.447,1,1S49.553,47,49,47z"/>
	<path style="fill:#7383BF;" d="M53,47h-1c-0.553,0-1-0.447-1-1s0.447-1,1-1h1c0.553,0,1,0.447,1,1S53.553,47,53,47z"/>
	<path style="fill:#7383BF;" d="M48,51h-4c-0.553,0-1-0.447-1-1s0.447-1,1-1h4c0.553,0,1,0.447,1,1S48.553,51,48,51z"/>
	<path style="fill:#7383BF;" d="M53,51c-0.26,0-0.521-0.101-0.71-0.29C52.109,50.52,52,50.27,52,50c0-0.271,0.109-0.521,0.29-0.71
		c0.37-0.37,1.05-0.37,1.42,0C53.89,49.479,54,49.74,54,50s-0.11,0.52-0.29,0.71C53.52,50.899,53.26,51,53,51z"/>
	<path style="fill:#7383BF;" d="M13,52h-1c-0.553,0-1-0.447-1-1s0.447-1,1-1h1c0.553,0,1,0.447,1,1S13.553,52,13,52z"/>
	<path style="fill:#7383BF;" d="M9,52H8c-0.553,0-1-0.447-1-1s0.447-1,1-1h1c0.553,0,1,0.447,1,1S9.553,52,9,52z"/>
	<path style="fill:#7383BF;" d="M5,52H4c-0.553,0-1-0.447-1-1s0.447-1,1-1h1c0.553,0,1,0.447,1,1S5.553,52,5,52z"/>
	<path style="fill:#7383BF;" d="M13,48h-1c-0.553,0-1-0.447-1-1s0.447-1,1-1h1c0.553,0,1,0.447,1,1S13.553,48,13,48z"/>
	<path style="fill:#7383BF;" d="M9,48H8c-0.553,0-1-0.447-1-1s0.447-1,1-1h1c0.553,0,1,0.447,1,1S9.553,48,9,48z"/>
	<path style="fill:#7383BF;" d="M5,48H4c-0.553,0-1-0.447-1-1s0.447-1,1-1h1c0.553,0,1,0.447,1,1S5.553,48,5,48z"/>
	<g>
		<path style="fill:#9EF5FC;" d="M40.651,17.783c1.223,4.622-0.523,10.134-1.543,14.681c-0.443,1.977-0.814,4-1.83,5.782
			c-1.609,2.82-2.891-0.862-3.397-2.419c-0.621-1.914-0.824-4.387-2.736-5.526c-1.905-1.135-3.672,0.025-4.776,1.639
			c-1.118,1.636-1.542,3.536-2.251,5.355c-0.328,0.841-0.689,1.683-1.579,2.06c-0.944,0-1.6-1.725-1.947-2.563
			c-1.893-4.57-2.474-9.748-3.205-14.606c-0.514-3.417,0.594-7.48,4.144-8.737c1.929-0.683,4.571-0.053,6.503,0.516
			c1.11,0.327,0.905,0.22,2.011-0.163c0.085-0.03,0.168-0.069,0.255-0.105c2.366-0.979,5.218-0.986,7.3,0.353
			C39.006,14.954,40.244,16.247,40.651,17.783z"/>
		<path style="fill:#6ED0FF;" d="M22.743,40.355H22.54c-1.563,0-2.346-1.902-2.813-3.039l-0.058-0.141
			c-1.707-4.122-2.366-8.652-3.004-13.033l-0.267-1.807c-0.577-3.841,0.684-8.37,4.8-9.828c2.185-0.776,4.951-0.142,7.119,0.499
			c0.151,0.045,0.509,0.149,0.598,0.153c0.052-0.014,0.131-0.051,0.247-0.097c0.145-0.056,0.323-0.125,0.555-0.205l0.2-0.085
			c2.836-1.174,5.985-1.005,8.225,0.437c1.813,1.165,3.048,2.698,3.476,4.317c1.102,4.163-0.033,8.876-1.034,13.034
			c-0.175,0.726-0.346,1.435-0.5,2.122l-0.136,0.617c-0.401,1.825-0.815,3.714-1.802,5.441c-0.627,1.1-1.365,1.61-2.233,1.528
			c-1.49-0.153-2.314-2.077-2.982-4.135c-0.14-0.43-0.26-0.887-0.381-1.352c-0.395-1.512-0.767-2.939-1.915-3.623
			c-1.557-0.931-2.824,0.444-3.439,1.344c-0.722,1.056-1.133,2.265-1.568,3.544c-0.184,0.538-0.367,1.077-0.575,1.61
			c-0.319,0.819-0.803,2.059-2.12,2.617L22.743,40.355z M23.491,14.151c-0.586,0-1.141,0.069-1.625,0.241
			c-3.042,1.078-3.945,4.617-3.489,7.646l0.267,1.815c0.62,4.26,1.262,8.665,2.873,12.556l0.061,0.146
			c0.359,0.874,0.653,1.439,0.877,1.687c0.311-0.276,0.509-0.732,0.733-1.31c0.197-0.506,0.371-1.018,0.545-1.528
			c0.46-1.351,0.936-2.747,1.812-4.028c1.67-2.443,4.013-3.184,6.113-1.934c1.853,1.104,2.37,3.087,2.827,4.837
			c0.111,0.426,0.22,0.845,0.348,1.239c0.618,1.902,1.052,2.509,1.247,2.699c0.073-0.075,0.187-0.216,0.329-0.467
			c0.835-1.463,1.199-3.122,1.585-4.879l0.139-0.626c0.156-0.697,0.329-1.417,0.507-2.152c0.945-3.928,2.017-8.381,1.045-12.055l0,0
			c-0.3-1.135-1.231-2.252-2.624-3.147c-1.696-1.092-4.141-1.194-6.377-0.271c-0.147,0.064-0.23,0.1-0.315,0.128
			c-0.198,0.069-0.354,0.13-0.481,0.179c-0.796,0.309-1.077,0.308-2.134-0.003C26.525,14.563,24.916,14.151,23.491,14.151z"/>
	</g>
</g>
<g>
</g>
<g>
</g>
<g>
</g>
<g>
</g>
<g>
</g>
<g>
</g>
<g>
</g>
<g>
</g>
<g>
</g>
<g>
</g>
<g>
</g>
<g>
</g>
<g>
</g>
<g>
</g>
<g>
</g>
</svg>
