<?xml version="1.0" encoding="iso-8859-1"?>
<!-- Generator: Adobe Illustrator 18.0.0, SVG Export Plug-In . SVG Version: 6.00 Build 0)  -->
<!DOCTYPE svg PUBLIC "-//W3C//DTD SVG 1.1//EN" "http://www.w3.org/Graphics/SVG/1.1/DTD/svg11.dtd">
<svg version="1.1" id="Capa_1" xmlns="http://www.w3.org/2000/svg" xmlns:xlink="http://www.w3.org/1999/xlink" x="0px" y="0px"
	 viewBox="0 0 57.413 57.413" style="enable-background:new 0 0 57.413 57.413;" xml:space="preserve">
<g>
	<path style="fill:#E7ECED;" d="M18.455,38.138c-0.392-0.09-0.678-0.34-0.842-0.651L0,55.1c0,0,7.366,2.833,12.952-2.59l7.123-7.123
		l-0.648-3.238l3.076-3.076L18.455,38.138z"/>
	<path style="fill:#25AE88;" d="M56.34,7.827L25.487,38.679c-0.547,0.547-1.337,0.773-2.09,0.599l-4.942-1.14
		c-0.986-0.228-1.337-1.451-0.621-2.167L51.159,2.646c1.431-1.431,3.75-1.431,5.181,0l0,0C57.77,4.076,57.77,6.396,56.34,7.827z"/>
	<path style="fill:#AFB6BB;" d="M10.465,50.573c-0.256,0-0.512-0.098-0.707-0.293c-0.391-0.391-0.391-1.023,0-1.414l2-2
		c0.391-0.391,1.023-0.391,1.414,0s0.391,1.023,0,1.414l-2,2C10.977,50.475,10.721,50.573,10.465,50.573z"/>
	<path style="fill:#AFB6BB;" d="M8.462,52.573c-0.26,0-0.52-0.11-0.71-0.29c-0.18-0.19-0.29-0.45-0.29-0.71
		c0-0.26,0.11-0.52,0.29-0.71c0.38-0.37,1.05-0.37,1.42,0c0.19,0.19,0.29,0.45,0.29,0.71c0,0.26-0.1,0.52-0.29,0.71
		C8.982,52.463,8.732,52.573,8.462,52.573z"/>
	<path style="fill:#556080;" d="M52.456,12.712c-0.381,0-0.744-0.218-0.911-0.586l-3.238-7.124
		c-0.229-0.503-0.007-1.096,0.496-1.324c0.508-0.23,1.097-0.005,1.324,0.496l3.238,7.124c0.229,0.503,0.007,1.096-0.496,1.324
		C52.734,12.683,52.593,12.712,52.456,12.712z"/>
	<path style="fill:#556080;" d="M48.57,16.597c-0.381,0-0.744-0.218-0.911-0.586L44.42,8.888c-0.229-0.503-0.007-1.096,0.496-1.324
		c0.508-0.231,1.097-0.006,1.324,0.496l3.238,7.123c0.229,0.503,0.007,1.096-0.496,1.324C48.848,16.569,48.708,16.597,48.57,16.597z
		"/>
	<path style="fill:#556080;" d="M44.684,20.483c-0.381,0-0.744-0.218-0.911-0.586l-3.238-7.124
		c-0.229-0.503-0.007-1.096,0.496-1.324c0.508-0.23,1.097-0.005,1.324,0.496l3.238,7.124c0.229,0.503,0.007,1.096-0.496,1.324
		C44.962,20.454,44.822,20.483,44.684,20.483z"/>
</g>
<g>
</g>
<g>
</g>
<g>
</g>
<g>
</g>
<g>
</g>
<g>
</g>
<g>
</g>
<g>
</g>
<g>
</g>
<g>
</g>
<g>
</g>
<g>
</g>
<g>
</g>
<g>
</g>
<g>
</g>
</svg>
