<?xml version="1.0" encoding="iso-8859-1"?>
<!-- Generator: Adobe Illustrator 18.0.0, SVG Export Plug-In . SVG Version: 6.00 Build 0)  -->
<!DOCTYPE svg PUBLIC "-//W3C//DTD SVG 1.1//EN" "http://www.w3.org/Graphics/SVG/1.1/DTD/svg11.dtd">
<svg version="1.1" id="Capa_1" xmlns="http://www.w3.org/2000/svg" xmlns:xlink="http://www.w3.org/1999/xlink" x="0px" y="0px"
	 viewBox="0 0 56 56" style="enable-background:new 0 0 56 56;" xml:space="preserve">
<g>
	<path style="fill:#E7ECED;" d="M48,16.5c-4.61,0-8.31,3.9-7.979,8.581c0.008,0.114-0.069,0.189-0.181,0.162
		C37.999,24.806,24.083,21.5,24.083,21.5l-6.054-1.514c-0.074-0.43-0.233-0.852-0.503-1.229L5.437,4.167
		c-0.96-1.342-2.844-1.654-4.185-0.694s-1.654,2.844-0.694,4.185L8,17.5l2.208,5.888c0.493,1.313,1.57,2.321,2.914,2.724
		l5.104,1.531L31.503,40.92c0.221,0.221,0.203,0.574-0.024,0.79c-1.761,1.679-2.756,4.153-2.411,6.847
		c0.46,3.588,3.407,6.485,7.001,6.89C40.904,55.993,45,52.225,45,47.5c0-4.418-3.582-8-8-8c-0.028,0-14.698-13.845-14.698-13.845
		l0.335-0.782l19.096,4.59l0,0c1.653,2.085,4.318,3.331,7.257,2.978c3.619-0.435,6.556-3.4,6.96-7.023
		C56.486,20.589,52.721,16.5,48,16.5z M42,47.5c0,2.761-2.239,5-5,5c-2.761,0-5-2.239-5-5c0-2.761,2.239-5,5-5
		C39.761,42.5,42,44.739,42,47.5z M53,24.5c0,2.761-2.239,5-5,5c-2.761,0-5-2.239-5-5s2.239-5,5-5C50.761,19.5,53,21.739,53,24.5z"
		/>
	<path style="fill:#AFB6BB;" d="M17,18.123L17,3.5c-0.028-1.65-1.35-3.028-3-3c-1.65,0.028-3.028,1.35-3,3l0,7.382L17,18.123z"/>
	<circle style="fill:#AFB6BB;" cx="16.5" cy="23" r="1.5"/>
</g>
<g>
</g>
<g>
</g>
<g>
</g>
<g>
</g>
<g>
</g>
<g>
</g>
<g>
</g>
<g>
</g>
<g>
</g>
<g>
</g>
<g>
</g>
<g>
</g>
<g>
</g>
<g>
</g>
<g>
</g>
</svg>
