<?xml version="1.0" encoding="iso-8859-1"?>
<!-- Generator: Adobe Illustrator 18.0.0, SVG Export Plug-In . SVG Version: 6.00 Build 0)  -->
<!DOCTYPE svg PUBLIC "-//W3C//DTD SVG 1.1//EN" "http://www.w3.org/Graphics/SVG/1.1/DTD/svg11.dtd">
<svg version="1.1" id="Capa_1" xmlns="http://www.w3.org/2000/svg" xmlns:xlink="http://www.w3.org/1999/xlink" x="0px" y="0px"
	 viewBox="0 0 59 59" style="enable-background:new 0 0 59 59;" xml:space="preserve">
<g>
	<g>
		<path style="fill:#F2ECBF;" d="M38.5,25h-8v-2h12c0.552,0,1-0.447,1-1s-0.448-1-1-1h-12v-2h12c0.552,0,1-0.447,1-1s-0.448-1-1-1
			h-12v-2h8c0.552,0,1-0.447,1-1s-0.448-1-1-1h-8v-2h6c0.552,0,1-0.447,1-1s-0.448-1-1-1h-6V5h6c0.552,0,1-0.447,1-1s-0.448-1-1-1
			h-6c0-0.553-0.448-1-1-1s-1,0.447-1,1h-6c-0.552,0-1,0.447-1,1s0.448,1,1,1h6v4h-6c-0.552,0-1,0.447-1,1s0.448,1,1,1h6v2h-8
			c-0.552,0-1,0.447-1,1s0.448,1,1,1h8v2h-12c-0.552,0-1,0.447-1,1s0.448,1,1,1h12v2h-12c-0.552,0-1,0.447-1,1s0.448,1,1,1h12v2h-8
			c-0.552,0-1,0.447-1,1s0.448,1,1,1h8v2h-6c-0.552,0-1,0.447-1,1s0.448,1,1,1h6v6c0,0.553,0.448,1,1,1s1-0.447,1-1v-6h6
			c0.552,0,1-0.447,1-1s-0.448-1-1-1h-6v-2h8c0.552,0,1-0.447,1-1S39.052,25,38.5,25z"/>
		<path style="fill:#F2ECBF;" d="M46.5,46c-0.552,0-1,0.447-1,1v11c0,0.553,0.448,1,1,1s1-0.447,1-1V47
			C47.5,46.447,47.052,46,46.5,46z"/>
		<path style="fill:#F2ECBF;" d="M8.251,20.365C7.9,19.939,7.27,19.876,6.844,20.228c-0.427,0.351-0.488,0.98-0.138,1.407
			l9.021,10.979c0.198,0.24,0.484,0.365,0.773,0.365c0.224,0,0.448-0.074,0.634-0.228c0.427-0.351,0.488-0.98,0.138-1.407
			L8.251,20.365z"/>
		<path style="fill:#F2ECBF;" d="M7.5,16c0.256,0,0.512-0.098,0.707-0.293l8.879-8.879c0.391-0.391,0.391-1.023,0-1.414
			s-1.023-0.391-1.414,0l-8.879,8.879c-0.391,0.391-0.391,1.023,0,1.414C6.988,15.902,7.244,16,7.5,16z"/>
		<path style="fill:#F2ECBF;" d="M52.156,20.228c-0.427-0.352-1.056-0.289-1.407,0.138l-9.021,10.979
			c-0.351,0.427-0.289,1.057,0.138,1.407c0.186,0.153,0.411,0.228,0.634,0.228c0.289,0,0.575-0.125,0.773-0.365l9.021-10.979
			C52.644,21.208,52.583,20.578,52.156,20.228z"/>
		<path style="fill:#F2ECBF;" d="M50.793,15.707C50.988,15.902,51.244,16,51.5,16s0.512-0.098,0.707-0.293
			c0.391-0.391,0.391-1.023,0-1.414l-8.879-8.879c-0.391-0.391-1.023-0.391-1.414,0s-0.391,1.023,0,1.414L50.793,15.707z"/>
		<path style="fill:#F2ECBF;" d="M12.5,46c-0.552,0-1,0.447-1,1v11c0,0.553,0.448,1,1,1s1-0.447,1-1V47
			C13.5,46.447,13.052,46,12.5,46z"/>
	</g>
	<path style="fill:#F7E6A1;" d="M43.5,44c0-1.426,0.998-2.615,2.331-2.919c-1.128-1.186-3.597-1.776-4.95-1.562
		c-1.628,0.258-3.281-0.229-4.317-1.51l-0.559-0.691C35.527,37.113,35.001,37,34.449,37H25.5c-0.797,0-1.539,0.242-2.164,0.648
		l-0.81,0.803c-1.049,1.041-2.568,1.531-3.997,1.153c-1.513-0.401-4.171,0.105-5.295,1.498C14.534,41.431,15.5,42.598,15.5,44
		c0,1.127-0.628,2.096-1.547,2.609l7.672,6.643c1.325,1.325,3.407,1.679,5.009,0.707c0.795-0.483,1.327-1.162,1.624-1.917
		c0.212-0.539,0.691-0.901,1.247-0.999c0.556,0.098,1.035,0.46,1.247,0.999c0.297,0.755,0.829,1.434,1.625,1.917
		c1.602,0.972,3.683,0.618,5.008-0.707l7.865-6.532C44.219,46.245,43.5,45.209,43.5,44z M22.5,49c-1.657,0-3-1.343-3-3s1.343-3,3-3
		s3,1.343,3,3S24.157,49,22.5,49z M35.5,49c-1.657,0-3-1.343-3-3s1.343-3,3-3s3,1.343,3,3S37.157,49,35.5,49z"/>
	<g>
		<circle style="fill:#F7B563;" cx="6.5" cy="18" r="3"/>
		<path style="fill:#F7B563;" d="M6.5,22c-2.206,0-4-1.794-4-4s1.794-4,4-4s4,1.794,4,4S8.706,22,6.5,22z M6.5,16
			c-1.103,0-2,0.897-2,2s0.897,2,2,2s2-0.897,2-2S7.603,16,6.5,16z"/>
	</g>
	<g>
		<circle style="fill:#F7B563;" cx="40.5" cy="4" r="3"/>
		<path style="fill:#F7B563;" d="M40.5,8c-2.206,0-4-1.794-4-4s1.794-4,4-4s4,1.794,4,4S42.706,8,40.5,8z M40.5,2
			c-1.103,0-2,0.897-2,2s0.897,2,2,2s2-0.897,2-2S41.603,2,40.5,2z"/>
	</g>
	<g>
		<circle style="fill:#F7B563;" cx="18.5" cy="4" r="3"/>
		<path style="fill:#F7B563;" d="M18.5,8c-2.206,0-4-1.794-4-4s1.794-4,4-4s4,1.794,4,4S20.706,8,18.5,8z M18.5,2
			c-1.103,0-2,0.897-2,2s0.897,2,2,2s2-0.897,2-2S19.603,2,18.5,2z"/>
	</g>
	<g>
		<circle style="fill:#F7B563;" cx="52.5" cy="18" r="3"/>
		<path style="fill:#F7B563;" d="M52.5,22c-2.206,0-4-1.794-4-4s1.794-4,4-4s4,1.794,4,4S54.706,22,52.5,22z M52.5,16
			c-1.103,0-2,0.897-2,2s0.897,2,2,2s2-0.897,2-2S53.603,16,52.5,16z"/>
	</g>
	<g>
		<circle style="fill:#F7B563;" cx="46.5" cy="44" r="3"/>
		<path style="fill:#F7B563;" d="M46.5,48c-2.206,0-4-1.794-4-4s1.794-4,4-4s4,1.794,4,4S48.706,48,46.5,48z M46.5,42
			c-1.103,0-2,0.897-2,2s0.897,2,2,2s2-0.897,2-2S47.603,42,46.5,42z"/>
	</g>
	<g>
		<circle style="fill:#F7B563;" cx="12.5" cy="44" r="3"/>
		<path style="fill:#F7B563;" d="M12.5,48c-2.206,0-4-1.794-4-4s1.794-4,4-4s4,1.794,4,4S14.706,48,12.5,48z M12.5,42
			c-1.103,0-2,0.897-2,2s0.897,2,2,2s2-0.897,2-2S13.603,42,12.5,42z"/>
	</g>
</g>
<g>
</g>
<g>
</g>
<g>
</g>
<g>
</g>
<g>
</g>
<g>
</g>
<g>
</g>
<g>
</g>
<g>
</g>
<g>
</g>
<g>
</g>
<g>
</g>
<g>
</g>
<g>
</g>
<g>
</g>
</svg>
