<?xml version="1.0" encoding="iso-8859-1"?>
<!-- Generator: Adobe Illustrator 18.0.0, SVG Export Plug-In . SVG Version: 6.00 Build 0)  -->
<!DOCTYPE svg PUBLIC "-//W3C//DTD SVG 1.1//EN" "http://www.w3.org/Graphics/SVG/1.1/DTD/svg11.dtd">
<svg version="1.1" id="Capa_1" xmlns="http://www.w3.org/2000/svg" xmlns:xlink="http://www.w3.org/1999/xlink" x="0px" y="0px"
	 viewBox="0 0 44.065 44.065" style="enable-background:new 0 0 44.065 44.065;" xml:space="preserve">
<g>
	<path style="fill:#D2C9B8;" d="M40.342,25.864c-0.021-0.004-0.044-0.01-0.065-0.014l0.591-1.652c7-26.656-19-24.134-19-24.134
		s-26-2.522-19,24.134L3.4,25.972c0.126-0.041,0.251-0.081,0.386-0.108c-2.859,0.568-3.703,4.345-1.384,6.11
		c0.039,0.03,0.08,0.06,0.12,0.09c0,0-0.75,4.75,3,5s5.541,0.167,5.541,4v2.09c0,0.502,0.407,0.91,0.91,0.91h20.18
		c0.502,0,0.91-0.407,0.91-0.91v-2.09c0-3.833,1.791-3.75,5.541-4s3-5,3-5c0.041-0.03,0.081-0.06,0.12-0.09
		C44.045,30.209,43.201,26.432,40.342,25.864z"/>
	<path style="fill:#C6BDAF;" d="M40.278,25.852c0-0.001-0.001-0.001-0.001-0.002l0.591-1.652C47.525-1.154,24.35-0.113,22.064,0.049
		v0.04c-0.166-0.01-0.331-0.025-0.5-0.025c-4.698,0-8.505,3.811-8.5,8.51c0.004,3.477,2.608,6.32,5.978,7.173
		c4.022,1.018,4.178,4.235,3.155,7.46c-2.089,6.588-2.362,13.616-0.33,20.221l0.196,0.637h10.09c0.502,0,0.91-0.407,0.91-0.91v-2.09
		c0-3.833,1.791-3.75,5.541-4s3-5,3-5c0.041-0.03,0.081-0.06,0.12-0.09C44.063,30.196,43.188,26.376,40.278,25.852z"/>
	<path style="fill:#B2A89A;" d="M33.154,43.065c-0.553,0-1-0.447-1-1c0-0.464,0.315-0.854,0.743-0.967v-1.608
		c0-4.063,2.326-4.22,5.02-4.401l0.436-0.029c0.477-0.034,0.812-0.191,1.057-0.497c0.601-0.748,0.542-2.199,0.475-2.648
		l-0.086-0.572l0.453-0.359l0.721,0.705l-0.625-0.781c0.712-0.568,0.806-1.44,0.656-2.067c-0.179-0.745-0.689-1.275-1.366-1.417
		c-3.462-0.724-3.611-2.59-3.473-3.47v-2.487c0-0.553,0.447-1,1-1s1,0.447,1,1l-0.02,2.771c-0.144,0.72,1.281,1.099,1.901,1.229
		c1.433,0.299,2.545,1.414,2.902,2.91c0.338,1.414-0.057,2.836-1.032,3.809c0.045,0.857-0.018,2.473-0.946,3.63
		c-0.594,0.74-1.45,1.169-2.478,1.241l-0.441,0.029c-2.794,0.188-3.153,0.213-3.153,2.406v1.794
		C34.897,42.266,34.115,43.065,33.154,43.065z"/>
	<path style="fill:#ECE3D2;" d="M10.91,43.068c-0.961,0-1.743-0.799-1.743-1.78v-1.795c0-2.193-0.359-2.218-3.154-2.405l-0.44-0.029
		c-1.027-0.072-1.885-0.502-2.478-1.241c-0.93-1.16-0.991-2.776-0.945-3.634c-0.981-0.985-1.369-2.399-1.033-3.807
		c0.358-1.496,1.47-2.61,2.903-2.909c0.619-0.13,2.044-0.508,1.9-1.229L5.9,24.042v-2.574c0-0.553,0.447-1,1-1s1,0.447,1,1v2.486
		c0.139,0.881-0.011,2.749-3.473,3.47c-0.677,0.142-1.187,0.671-1.366,1.417c-0.149,0.627-0.056,1.499,0.656,2.069l0.469,0.358
		l-0.006,0.647c-0.07,0.484-0.121,1.91,0.477,2.652c0.245,0.304,0.58,0.46,1.055,0.494l0.435,0.029
		c2.694,0.181,5.021,0.336,5.021,4.4v1.608c0.428,0.113,0.743,0.503,0.743,0.967C11.91,42.62,11.463,43.068,10.91,43.068z"/>
	<path style="fill:#C6BDAF;" d="M14.859,27.065c-0.224,0-0.449-0.014-0.677-0.04c-1.537-0.184-2.888-1.044-3.801-2.425
		c-1.085-1.64-1.504-3.946-1.019-5.608c0.693-2.375,3.012-3.009,4.272-3.009c1.63,0.041,6.829,0.449,7.458,4.003
		c0.276,1.569-0.259,3.339-1.431,4.736C18.413,26.21,16.662,27.065,14.859,27.065L14.859,27.065z"/>
	<path style="fill:#8E826E;" d="M13.636,17.982c0,0-1.895,0-2.352,1.568c-0.457,1.568,0.392,5.161,3.136,5.488
		s5.096-2.483,4.704-4.704C18.732,18.113,13.636,17.982,13.636,17.982z"/>
	<path style="fill:#C6BDAF;" d="M29.372,27.065c-1.804,0-3.555-0.854-4.804-2.343c-1.172-1.397-1.707-3.167-1.431-4.735
		c0.627-3.554,5.828-3.963,7.406-4.003c0.001,0,0.002,0,0.003,0c1.313,0,3.629,0.634,4.32,3.008c0.485,1.663,0.066,3.97-1.019,5.608
		c-0.913,1.381-2.263,2.241-3.801,2.425C29.821,27.051,29.595,27.065,29.372,27.065z"/>
	<path style="fill:#8E826E;" d="M30.595,17.982c0,0,1.895,0,2.352,1.568c0.457,1.568-0.392,5.161-3.136,5.488
		s-5.096-2.483-4.704-4.704C25.499,18.113,30.595,17.982,30.595,17.982z"/>
	<path style="fill:#8E826E;" d="M24.8,34.103l-2.403-4.206c-0.082-0.144-0.301-0.977-0.301-0.812c0-0.166-0.219,0.668-0.302,0.812
		l-2.403,4.206c-0.277,0.485-0.4,1.056-0.279,1.601c0.113,0.51,0.423,1.01,1.202,1.002c0.397-0.004,0.759-0.146,1.051-0.378
		c0.418-0.333,1.043-0.333,1.461,0c0.292,0.232,0.654,0.374,1.051,0.378c0.78,0.008,1.089-0.491,1.202-1.002
		C25.2,35.159,25.077,34.588,24.8,34.103z"/>
	<path style="fill:#C6BDAF;" d="M7.063,18.065c-0.181,0-0.362-0.049-0.527-0.15c-1.594-0.991-2.472-2.358-2.472-3.85
		s0.878-2.858,2.472-3.85c0.471-0.289,1.086-0.148,1.378,0.321c0.291,0.47,0.147,1.086-0.321,1.378
		c-0.985,0.612-1.528,1.376-1.528,2.15s0.543,1.538,1.528,2.15c0.469,0.292,0.612,0.908,0.321,1.378
		C7.725,17.898,7.397,18.065,7.063,18.065z"/>
	<path style="fill:#C6BDAF;" d="M37.065,18.065c-0.334,0-0.661-0.167-0.851-0.472c-0.291-0.47-0.147-1.086,0.321-1.378
		c0.985-0.612,1.528-1.376,1.528-2.15s-0.543-1.538-1.528-2.15c-0.469-0.292-0.612-0.908-0.321-1.378
		c0.292-0.47,0.907-0.61,1.378-0.321c1.594,0.991,2.472,2.358,2.472,3.85s-0.878,2.858-2.472,3.85
		C37.428,18.016,37.246,18.065,37.065,18.065z"/>
	<path style="fill:#F0E8DA;" d="M17.064,41.065c0-0.553-0.447-1-1-1s-1,0.447-1,1v3h2V41.065z"/>
	<path style="fill:#F0E8DA;" d="M21.064,41.065c0-0.553-0.447-1-1-1s-1,0.447-1,1v3h2V41.065z"/>
	<path style="fill:#F0E8DA;" d="M25.064,41.065c0-0.553-0.447-1-1-1s-1,0.447-1,1v3h2V41.065z"/>
	<path style="fill:#F0E8DA;" d="M29.064,41.065c0-0.553-0.447-1-1-1s-1,0.447-1,1v3h2V41.065z"/>
</g>
<g>
</g>
<g>
</g>
<g>
</g>
<g>
</g>
<g>
</g>
<g>
</g>
<g>
</g>
<g>
</g>
<g>
</g>
<g>
</g>
<g>
</g>
<g>
</g>
<g>
</g>
<g>
</g>
<g>
</g>
</svg>
