<?xml version="1.0" encoding="iso-8859-1"?>
<!-- Generator: Adobe Illustrator 18.0.0, SVG Export Plug-In . SVG Version: 6.00 Build 0)  -->
<!DOCTYPE svg PUBLIC "-//W3C//DTD SVG 1.1//EN" "http://www.w3.org/Graphics/SVG/1.1/DTD/svg11.dtd">
<svg version="1.1" id="Capa_1" xmlns="http://www.w3.org/2000/svg" xmlns:xlink="http://www.w3.org/1999/xlink" x="0px" y="0px"
	 viewBox="0 0 56.069 56.069" style="enable-background:new 0 0 56.069 56.069;" xml:space="preserve">
<g>
	<path style="fill:#D2C9B8;" d="M46.312,25.864c-0.021-0.004-0.044-0.01-0.065-0.014l0.591-1.652c7-26.656-19-24.134-19-24.134
		s-26-2.522-19,24.134l0.533,1.773c-2.541,0.818-3.208,4.321-0.998,6.003c0.039,0.03,0.08,0.06,0.12,0.09c0,0-0.75,4.75,3,5
		c0.186,0.012,0.364,0.024,0.541,0.035v6.427c0,0,0.795,7.006,11.568,11.643c2.697,1.161,5.76,1.239,8.47,0
		c10.667-4.876,10.961-11.643,10.961-11.643v-6.358c0.472-0.036,0.982-0.067,1.541-0.104c3.75-0.25,3-5,3-5
		c0.041-0.03,0.081-0.06,0.12-0.09C50.016,30.209,49.171,26.432,46.312,25.864z"/>
	<path style="fill:#BFB099;" d="M46.312,25.864c-0.021-0.004-0.044-0.01-0.065-0.014l0.591-1.652
		C51.61,6.026,41.056,1.415,33.853,0.32c0.75,1.893,1.182,4.005,1.182,6.244c0,5.849-2.872,10.876-7,13.169v36.327
		c1.374-0.017,2.747-0.3,4.039-0.891c10.667-4.876,10.961-11.643,10.961-11.643v-6.358c0.472-0.036,0.982-0.067,1.541-0.104
		c3.75-0.25,3-5,3-5c0.041-0.03,0.081-0.06,0.12-0.09C50.016,30.209,49.171,26.432,46.312,25.864z"/>
	<g>
		<path style="fill:#A3927B;" d="M21.035,40.064c0-0.553-0.448-1-1-1s-1,0.447-1,1v4h2V40.064z"/>
		<path style="fill:#A3927B;" d="M25.035,40.064c0-0.553-0.448-1-1-1s-1,0.447-1,1v4h2V40.064z"/>
		<path style="fill:#A3927B;" d="M29.035,40.064c0-0.553-0.448-1-1-1s-1,0.447-1,1v4h2V40.064z"/>
		<path style="fill:#A3927B;" d="M33.035,40.064c0-0.553-0.448-1-1-1s-1,0.447-1,1v4h2V40.064z"/>
		<path style="fill:#A3927B;" d="M37.035,40.064c0-0.553-0.448-1-1-1s-1,0.447-1,1v4h2V40.064z"/>
	</g>
	<path style="fill:#8E826E;" d="M19.606,17.982c0,0-1.895,0-2.352,1.568c-0.457,1.568,0.392,5.161,3.136,5.488
		c2.744,0.327,5.096-2.483,4.704-4.704C24.702,18.112,19.606,17.982,19.606,17.982z"/>
	<path style="fill:#8E826E;" d="M36.566,17.982c0,0,1.895,0,2.352,1.568c0.457,1.568-0.392,5.161-3.136,5.488
		c-2.744,0.327-5.096-2.483-4.704-4.704C31.47,18.112,36.566,17.982,36.566,17.982z"/>
	<path style="fill:#8E826E;" d="M30.77,34.103l-2.403-4.206c-0.082-0.144-0.301-0.977-0.301-0.812c0-0.166-0.219,0.668-0.302,0.812
		l-2.403,4.206c-0.277,0.485-0.4,1.056-0.279,1.601c0.113,0.51,0.423,1.01,1.202,1.002c0.397-0.004,0.759-0.146,1.051-0.378
		c0.418-0.333,1.043-0.333,1.461,0c0.292,0.232,0.654,0.374,1.051,0.378c0.78,0.008,1.089-0.491,1.202-1.002
		C31.17,35.158,31.047,34.587,30.77,34.103z"/>
	<path style="fill:#ECE3D2;" d="M13.034,18.064c-0.18,0-0.363-0.049-0.527-0.15c-1.594-0.991-2.472-2.358-2.472-3.85
		s0.878-2.858,2.472-3.85c0.469-0.29,1.085-0.148,1.377,0.321c0.292,0.469,0.148,1.086-0.321,1.378
		c-0.985,0.612-1.528,1.376-1.528,2.15s0.543,1.538,1.528,2.15c0.469,0.292,0.612,0.909,0.321,1.378
		C13.694,17.897,13.368,18.064,13.034,18.064z"/>
	<path style="fill:#ECE3D2;" d="M43.036,18.064c-0.334,0-0.661-0.167-0.85-0.472c-0.292-0.469-0.148-1.086,0.321-1.378
		c0.985-0.612,1.528-1.376,1.528-2.15s-0.543-1.538-1.528-2.15c-0.469-0.292-0.612-0.909-0.321-1.378
		c0.292-0.47,0.907-0.611,1.377-0.321c1.594,0.991,2.472,2.358,2.472,3.85s-0.878,2.858-2.472,3.85
		C43.398,18.015,43.216,18.064,43.036,18.064z"/>
	<path style="fill:#BFB099;" d="M37.707,45.064c-0.46,0.713-1.402,1.347-2.672,1.848v-2.848h-2v3.46
		c-0.627,0.146-1.296,0.264-2,0.353v-3.813h-2v3.978c-0.329,0.013-0.662,0.022-1,0.022s-0.671-0.009-1-0.022v-3.978h-2v3.813
		c-0.704-0.089-1.373-0.207-2-0.353v-3.46h-2v2.848c-1.27-0.501-2.213-1.135-2.672-1.848c-0.206,0.32-0.328,0.654-0.328,1
		c0,2.209,4.477,4,10,4s10-1.791,10-4C38.035,45.718,37.913,45.384,37.707,45.064z"/>
	<g>
		<path style="fill:#ECE3D2;" d="M18.035,43.064v-2c0-4.583-2.621-4.751-5.94-4.963l-0.535-0.035
			c-0.666-0.044-1.154-0.271-1.493-0.693c-0.735-0.914-0.671-2.588-0.585-3.152l-0.027-0.68l-0.475-0.362
			c-0.913-0.694-1.052-1.749-0.877-2.504c0.222-0.96,0.914-1.644,1.85-1.83c1.837-0.365,3.08-1.021,3.694-1.952
			c0.375-0.567,0.508-1.229,0.389-1.922v-2.906c0-0.553-0.448-1-1-1s-1,0.447-1,1v3l0.021,0.206c0.056,0.267-0.009,0.413-0.08,0.521
			c-0.14,0.212-0.655,0.742-2.414,1.093c-1.704,0.338-3.01,1.618-3.409,3.341c-0.37,1.6,0.123,3.2,1.291,4.275
			c-0.059,0.946-0.009,2.782,1.056,4.117c0.69,0.863,1.702,1.363,2.927,1.445l0.54,0.035c3.446,0.22,4.067,0.26,4.067,2.967v2.09
			c0,1.054,0.856,1.91,1.91,1.91h0.09V43.064z"/>
		<path style="fill:#ECE3D2;" d="M49.915,28.223c-0.398-1.722-1.705-3.002-3.408-3.34c-1.759-0.351-2.274-0.881-2.414-1.093
			c-0.071-0.107-0.136-0.254-0.08-0.521l0.021-3.206c0-0.553-0.448-1-1-1s-1,0.447-1,1v2.906c-0.119,0.692,0.015,1.354,0.389,1.922
			c0.614,0.931,1.857,1.587,3.694,1.952c0.936,0.187,1.627,0.87,1.85,1.83c0.175,0.755,0.036,1.81-0.876,2.504l-0.109,0.081
			l-0.485,0.361l0.091,0.597c0.086,0.567,0.15,2.241-0.585,3.155c-0.339,0.423-0.828,0.649-1.493,0.693l-0.535,0.035
			c-3.319,0.212-5.94,0.38-5.94,4.963v2v2h0.09c1.053,0,1.91-0.856,1.91-1.91v-2.09c0-2.707,0.621-2.747,4.067-2.967l0.54-0.035
			c1.225-0.082,2.237-0.582,2.927-1.445c1.065-1.334,1.115-3.171,1.056-4.117C49.793,31.425,50.286,29.823,49.915,28.223z"/>
	</g>
	<path style="fill:#AF9C82;" d="M17.428,22.244c0.437,1.34,1.386,2.606,2.962,2.794c1.836,0.219,3.493-0.969,4.273-2.443
		c-1.313-1.43-5.057-1.531-5.057-1.531S18.06,21.077,17.428,22.244z"/>
	<path style="fill:#AF9C82;" d="M36.566,21.064c0,0-3.744,0.1-5.057,1.531c0.78,1.474,2.436,2.662,4.273,2.443
		c1.576-0.188,2.525-1.453,2.962-2.794C38.111,21.077,36.566,21.064,36.566,21.064z"/>
	<path style="fill:#A3927B;" d="M38.035,46.064c0-0.346-0.121-0.68-0.328-1c-0.46,0.713-1.402,1.347-2.672,1.848v-2.848h-2v3.46
		c-0.627,0.146-1.296,0.264-2,0.353v-3.813h-2v3.978c-0.329,0.013-0.662,0.022-1,0.022v2C33.557,50.064,38.035,48.273,38.035,46.064
		z"/>
</g>
<g>
</g>
<g>
</g>
<g>
</g>
<g>
</g>
<g>
</g>
<g>
</g>
<g>
</g>
<g>
</g>
<g>
</g>
<g>
</g>
<g>
</g>
<g>
</g>
<g>
</g>
<g>
</g>
<g>
</g>
</svg>
