<?xml version="1.0" encoding="iso-8859-1"?>
<!-- Generator: Adobe Illustrator 18.0.0, SVG Export Plug-In . SVG Version: 6.00 Build 0)  -->
<!DOCTYPE svg PUBLIC "-//W3C//DTD SVG 1.1//EN" "http://www.w3.org/Graphics/SVG/1.1/DTD/svg11.dtd">
<svg version="1.1" id="Capa_1" xmlns="http://www.w3.org/2000/svg" xmlns:xlink="http://www.w3.org/1999/xlink" x="0px" y="0px"
	 viewBox="0 0 58 58" style="enable-background:new 0 0 58 58;" xml:space="preserve">
<g>
	<circle style="fill:#FBCE9D;" cx="29" cy="29" r="29"/>
	<path style="fill:#E2B588;" d="M14.297,4.006c-0.086,0.287-0.177,0.565-0.26,0.857C14.34,11.877,17,19.684,17,27.92
		c0,9.352-2.419,18.151-3.067,25.862C18.324,56.458,23.482,58,29,58c5.452,0,10.55-1.507,14.907-4.123
		C43.288,46.143,41,37.311,41,27.92c0-8.229,2.491-16.029,2.794-23.039c-0.097-0.34-0.202-0.664-0.303-0.997
		C39.226,1.418,34.28,0,29,0C23.633,0,18.609,1.464,14.297,4.006z"/>
	<path style="fill:#F2ECBF;" d="M34.347,36H23.653c-0.342,0-0.602-0.307-0.546-0.645l0.815-4.893C23.967,30.196,24.198,30,24.469,30
		h9.062c0.271,0,0.502,0.196,0.546,0.463l0.815,4.893C34.949,35.693,34.689,36,34.347,36z"/>
	<path style="fill:#F2ECBF;" d="M32.347,18h-6.693c-0.342,0-0.602-0.307-0.546-0.645l0.815-4.893C25.967,12.196,26.198,12,26.469,12
		h5.062c0.271,0,0.502,0.196,0.546,0.463l0.815,4.893C32.949,17.693,32.689,18,32.347,18z"/>
	<path style="fill:#F2ECBF;" d="M31.446,9h-4.893C26.248,9,26,8.752,26,8.446V3.554C26,3.248,26.248,3,26.554,3h4.893
		C31.752,3,32,3.248,32,3.554v4.893C32,8.752,31.752,9,31.446,9z"/>
	<path style="fill:#F2ECBF;" d="M34.446,45H23.554C23.248,45,23,44.752,23,44.446v-4.893C23,39.248,23.248,39,23.554,39h10.893
		C34.752,39,35,39.248,35,39.554v4.893C35,44.752,34.752,45,34.446,45z"/>
	<path style="fill:#F2ECBF;" d="M32.531,54h-7.062c-0.271,0-0.502-0.196-0.546-0.463l-0.815-4.893
		C24.051,48.307,24.311,48,24.653,48h8.693c0.342,0,0.602,0.307,0.546,0.645l-0.815,4.893C33.033,53.804,32.802,54,32.531,54z"/>
	<path style="fill:#F2ECBF;" d="M32.347,27h-6.693c-0.342,0-0.602-0.307-0.546-0.645l0.815-4.893C25.967,21.196,26.198,21,26.469,21
		h5.062c0.271,0,0.502,0.196,0.546,0.463l0.815,4.893C32.949,26.693,32.689,27,32.347,27z"/>
	<g>
		<path style="fill:#F2ECBF;" d="M36.628,31.071l-2.5,1c-0.513,0.205-0.762,0.787-0.557,1.3C33.728,33.763,34.104,34,34.5,34
			c0.124,0,0.249-0.022,0.371-0.071l2.5-1c0.513-0.205,0.762-0.787,0.557-1.3C37.723,31.115,37.143,30.865,36.628,31.071z"/>
		<path style="fill:#F2ECBF;" d="M32.757,14.03c-0.536,0.134-0.861,0.677-0.728,1.212C32.144,15.697,32.551,16,32.999,16
			c0.081,0,0.162-0.01,0.244-0.03l4-1c0.536-0.134,0.861-0.677,0.728-1.212c-0.134-0.537-0.678-0.86-1.213-0.728L32.757,14.03z"/>
		<path style="fill:#F2ECBF;" d="M36.243,5.97c0.536-0.134,0.861-0.677,0.728-1.212c-0.134-0.537-0.677-0.861-1.213-0.728l-4,1
			c-0.536,0.134-0.861,0.677-0.728,1.212C31.144,6.697,31.551,7,31.999,7c0.081,0,0.162-0.01,0.244-0.03L36.243,5.97z"/>
		<path style="fill:#F2ECBF;" d="M39.97,40.758c-0.134-0.537-0.677-0.861-1.213-0.728l-4,1c-0.536,0.134-0.861,0.677-0.728,1.212
			C34.144,42.697,34.551,43,34.999,43c0.081,0,0.162-0.01,0.244-0.03l4-1C39.778,41.836,40.104,41.293,39.97,40.758z"/>
		<path style="fill:#F2ECBF;" d="M37.783,49.023l-4.5,1c-0.539,0.12-0.879,0.654-0.759,1.193C32.627,51.683,33.041,52,33.499,52
			c0.072,0,0.145-0.008,0.218-0.023l4.5-1c0.539-0.12,0.879-0.654,0.759-1.193C38.856,49.244,38.319,48.908,37.783,49.023z"/>
		<path style="fill:#F2ECBF;" d="M23.128,33.929C23.25,33.978,23.376,34,23.5,34c0.397,0,0.772-0.237,0.929-0.629
			c0.205-0.513-0.044-1.095-0.557-1.3l-2.5-1c-0.516-0.207-1.095,0.044-1.3,0.558c-0.205,0.513,0.044,1.095,0.557,1.3L23.128,33.929
			z"/>
		<path style="fill:#F2ECBF;" d="M25.243,14.03l-4-1c-0.533-0.133-1.079,0.19-1.213,0.728c-0.134,0.535,0.192,1.078,0.728,1.212l4,1
			C24.839,15.99,24.92,16,25.001,16c0.448,0,0.855-0.303,0.969-0.758C26.104,14.707,25.778,14.164,25.243,14.03z"/>
		<path style="fill:#F2ECBF;" d="M26.243,5.03l-4-1c-0.534-0.134-1.079,0.19-1.213,0.728c-0.134,0.535,0.192,1.078,0.728,1.212l4,1
			C25.839,6.99,25.92,7,26.001,7c0.448,0,0.855-0.303,0.969-0.758C27.104,5.707,26.778,5.164,26.243,5.03z"/>
		<path style="fill:#F2ECBF;" d="M23.001,43c0.448,0,0.855-0.303,0.969-0.758c0.134-0.535-0.192-1.078-0.728-1.212l-4-1
			c-0.534-0.134-1.079,0.19-1.213,0.728c-0.134,0.535,0.192,1.078,0.728,1.212l4,1C22.839,42.99,22.92,43,23.001,43z"/>
		<path style="fill:#F2ECBF;" d="M24.717,50.023l-4.5-1c-0.537-0.116-1.073,0.221-1.193,0.76c-0.12,0.539,0.22,1.073,0.759,1.193
			l4.5,1C24.356,51.992,24.429,52,24.501,52c0.458,0,0.872-0.317,0.975-0.783C25.596,50.678,25.256,50.144,24.717,50.023z"/>
		<path style="fill:#F2ECBF;" d="M25.243,23.03l-4-1c-0.533-0.135-1.079,0.19-1.213,0.728c-0.134,0.535,0.192,1.078,0.728,1.212l4,1
			C24.839,24.99,24.92,25,25.001,25c0.448,0,0.855-0.303,0.969-0.758C26.104,23.707,25.778,23.164,25.243,23.03z"/>
		<path style="fill:#F2ECBF;" d="M33.243,24.97l4-1c0.536-0.134,0.861-0.677,0.728-1.212c-0.134-0.537-0.678-0.862-1.213-0.728l-4,1
			c-0.536,0.134-0.861,0.677-0.728,1.212C32.144,24.697,32.551,25,32.999,25C33.08,25,33.161,24.99,33.243,24.97z"/>
	</g>
	<g>
		<rect x="27" y="9" style="fill:#FBD490;" width="4" height="3"/>
		<rect x="27" y="18" style="fill:#FBD490;" width="4" height="3"/>
		<rect x="27" y="27" style="fill:#FBD490;" width="4" height="3"/>
		<rect x="27" y="36" style="fill:#FBD490;" width="4" height="3"/>
		<rect x="27" y="45" style="fill:#FBD490;" width="4" height="3"/>
		<path style="fill:#FBD490;" d="M29,0c-0.673,0-1.338,0.031-2,0.076V3h4V0.076C30.338,0.031,29.673,0,29,0z"/>
		<path style="fill:#FBD490;" d="M27,57.924C27.662,57.969,28.327,58,29,58s1.338-0.031,2-0.076V54h-4V57.924z"/>
	</g>
	<path style="fill:#23A24D;" d="M53.086,45.154C56.188,40.538,58,34.981,58,29c0-6.187-1.943-11.916-5.244-16.624
		C52.272,16.939,49,22.017,49,27.375C49,33.849,52.396,39.915,53.086,45.154z"/>
	<path style="fill:#23A24D;" d="M4.914,45.154C5.604,39.915,9,33.849,9,27.375c0-5.358-3.272-10.436-3.756-14.999
		C1.943,17.084,0,22.813,0,29C0,34.981,1.812,40.538,4.914,45.154z"/>
</g>
<g>
</g>
<g>
</g>
<g>
</g>
<g>
</g>
<g>
</g>
<g>
</g>
<g>
</g>
<g>
</g>
<g>
</g>
<g>
</g>
<g>
</g>
<g>
</g>
<g>
</g>
<g>
</g>
<g>
</g>
</svg>
