<?xml version="1.0" encoding="iso-8859-1"?>
<!-- Generator: Adobe Illustrator 18.0.0, SVG Export Plug-In . SVG Version: 6.00 Build 0)  -->
<!DOCTYPE svg PUBLIC "-//W3C//DTD SVG 1.1//EN" "http://www.w3.org/Graphics/SVG/1.1/DTD/svg11.dtd">
<svg version="1.1" id="Capa_1" xmlns="http://www.w3.org/2000/svg" xmlns:xlink="http://www.w3.org/1999/xlink" x="0px" y="0px"
	 viewBox="0 0 59.012 59.012" style="enable-background:new 0 0 59.012 59.012;" xml:space="preserve">
<g>
	<path style="fill:#FBCE9D;" d="M50.833,12.425c-13.423-12.869-21.961,1.167-21.961,1.167c-6.294-1.083-7.456-6.5-7.456-6.5
		L14.25,9.925c0,0,1.667,9.167,14.25,11.5c0,0,0.131,4.25,3.5,5.917v5.5c0,0-4.5,1.667-4.917,5.083c0,0-5.25-1.75-8.667,2.25
		c0,0-17.417-9.486-17.417,11.84h5c0-6.022,3.315-7.276,5.083-5.507c4.81,4.81,7.583,1.167,7.583,1.167
		c8.917,5.333,16.5,4.25,16.5,4.25C54.574,52.509,66.388,27.338,50.833,12.425z"/>
	<g>
		<circle style="fill:#FFFFFF;" cx="45" cy="36.993" r="1"/>
		<circle style="fill:#FFFFFF;" cx="51" cy="36.993" r="1"/>
		<circle style="fill:#FFFFFF;" cx="54" cy="33.993" r="1"/>
		<circle style="fill:#FFFFFF;" cx="24" cy="39.993" r="1"/>
		<circle style="fill:#FFFFFF;" cx="30" cy="39.993" r="1"/>
		<circle style="fill:#FFFFFF;" cx="36" cy="39.993" r="1"/>
		<circle style="fill:#FFFFFF;" cx="42" cy="39.993" r="1"/>
		<circle style="fill:#FFFFFF;" cx="48" cy="39.993" r="1"/>
		<circle style="fill:#FFFFFF;" cx="15" cy="42.993" r="1"/>
		<circle style="fill:#FFFFFF;" cx="21" cy="42.993" r="1"/>
		<circle style="fill:#FFFFFF;" cx="24" cy="45.993" r="1"/>
		<circle style="fill:#FFFFFF;" cx="27" cy="42.993" r="1"/>
		<circle style="fill:#FFFFFF;" cx="33" cy="42.993" r="1"/>
		<circle style="fill:#FFFFFF;" cx="27" cy="48.993" r="1"/>
		<circle style="fill:#FFFFFF;" cx="33" cy="48.993" r="1"/>
		<circle style="fill:#FFFFFF;" cx="30" cy="45.993" r="1"/>
		<circle style="fill:#FFFFFF;" cx="36" cy="45.993" r="1"/>
		<circle style="fill:#FFFFFF;" cx="39" cy="42.993" r="1"/>
		<circle style="fill:#FFFFFF;" cx="45" cy="42.993" r="1"/>
		<circle style="fill:#FFFFFF;" cx="39" cy="48.993" r="1"/>
		<circle style="fill:#FFFFFF;" cx="42" cy="45.993" r="1"/>
		<circle style="fill:#FFFFFF;" cx="48" cy="45.993" r="1"/>
		<circle style="fill:#FFFFFF;" cx="51" cy="42.993" r="1"/>
	</g>
	<path style="fill:#CF8C6D;" d="M33.376,53.02c-2.795,0-8.307-0.545-14.561-4.102c-0.555,0.45-1.459,0.984-2.681,1.067
		c-1.869,0.12-3.794-0.807-5.758-2.771c-0.426-0.426-0.958-0.555-1.459-0.345C7.99,47.255,7,48.808,7,52.016c0,0.553-0.448,1-1,1
		s-1-0.447-1-1c0-5.133,2.204-6.6,3.152-6.993c1.249-0.514,2.642-0.218,3.639,0.779c1.503,1.503,2.956,2.274,4.177,2.19
		c1.208-0.067,1.881-0.896,1.91-0.932l0.545-0.684l0.757,0.439c8.475,5.07,15.774,4.13,15.847,4.118l0.083-0.012l0.086,0.002
		c8.658,0.291,16.504-5.01,20.035-13.427c2.816-6.713,2.958-16.635-5.09-24.352c-4.011-3.846-7.923-5.557-11.63-5.075
		c-5.458,0.705-8.752,5.988-8.785,6.042l-0.354,0.577l-0.669-0.113c-6.881-1.184-8.211-7.027-8.265-7.275
		c-0.116-0.54,0.228-1.072,0.768-1.188c0.54-0.122,1.069,0.226,1.187,0.764c0.044,0.196,1.054,4.43,6.023,5.601
		c1.118-1.565,4.53-5.696,9.821-6.389c4.337-0.567,8.812,1.321,13.288,5.613c7.345,7.042,9.472,17.223,5.551,26.568
		c-3.843,9.16-12.433,14.867-21.859,14.655C34.98,52.955,34.34,53.02,33.376,53.02z"/>
	<path style="fill:#CF8C6D;" d="M1,53.016c-0.552,0-1-0.447-1-1c0-6.935,1.813-11.528,5.388-13.652
		c4.666-2.771,10.752-0.375,12.806,0.585c2.81-2.762,6.394-2.552,8.149-2.229c0.865-2.485,3.435-3.957,4.657-4.534v-4.256
		c-2.49-1.544-3.21-4.301-3.417-5.667c-12.447-2.641-14.245-11.764-14.317-12.158c-0.099-0.543,0.262-1.063,0.805-1.162
		c0.544-0.105,1.062,0.261,1.162,0.801l0,0c0.065,0.348,1.748,8.53,13.449,10.699l0.792,0.147l0.025,0.806
		c0.001,0.033,0.167,3.678,2.944,5.051L33,26.721v6.814l-0.651,0.244c-0.04,0.015-3.936,1.505-4.273,4.267l-0.148,1.215
		l-1.161-0.388c-0.186-0.059-4.665-1.471-7.59,1.951l-0.525,0.615l-0.712-0.386c-0.069-0.038-6.942-3.702-11.534-0.968
		C3.482,41.826,2,45.84,2,52.016C2,52.568,1.552,53.016,1,53.016z"/>
</g>
<g>
</g>
<g>
</g>
<g>
</g>
<g>
</g>
<g>
</g>
<g>
</g>
<g>
</g>
<g>
</g>
<g>
</g>
<g>
</g>
<g>
</g>
<g>
</g>
<g>
</g>
<g>
</g>
<g>
</g>
</svg>
