<?xml version="1.0" encoding="iso-8859-1"?>
<!-- Generator: Adobe Illustrator 18.0.0, SVG Export Plug-In . SVG Version: 6.00 Build 0)  -->
<!DOCTYPE svg PUBLIC "-//W3C//DTD SVG 1.1//EN" "http://www.w3.org/Graphics/SVG/1.1/DTD/svg11.dtd">
<svg version="1.1" id="Capa_1" xmlns="http://www.w3.org/2000/svg" xmlns:xlink="http://www.w3.org/1999/xlink" x="0px" y="0px"
	 viewBox="0 0 58.529 58.529" style="enable-background:new 0 0 58.529 58.529;" xml:space="preserve">
<g>
	<path style="fill:#AFB6BB;" d="M57.528,58.529c-0.256,0-0.512-0.098-0.707-0.293l-6.011-6.01c-0.391-0.391-0.391-1.023,0-1.414
		s1.023-0.391,1.414,0l6.011,6.01c0.391,0.391,0.391,1.023,0,1.414C58.04,58.432,57.784,58.529,57.528,58.529z"/>
	<path style="fill:#AFB6BB;" d="M10.388,10.389c-0.637,0.637-1.393,1.081-2.196,1.34l3.963,3.963l3.536-3.536l-3.963-3.963
		C11.468,8.996,11.025,9.752,10.388,10.389z"/>
	<path style="fill:#EBBA16;" d="M51.4,51.401L51.4,51.401c-0.633,0.633-1.601,0.79-2.402,0.39l-4.315-2.158l4.95-4.95l2.158,4.315
		C52.19,49.8,52.033,50.768,51.4,51.401z"/>
	<path style="fill:#DFF2F8;" d="M18.336,11.974c-0.68-0.68-1.783-0.68-2.463,0l-3.901,3.901c-0.68,0.68-0.68,1.783,0,2.463
		l3.011,3.011l6.364-6.364L18.336,11.974z"/>
	<path style="fill:#DFF2F8;" d="M49.092,42.729l-3.804-3.804c-0.005,0.005-0.007,0.013-0.012,0.018l-3,3
		c-0.195,0.195-0.451,0.293-0.707,0.293s-0.512-0.098-0.707-0.293c-0.391-0.391-0.391-1.023,0-1.414l3-3
		c0.005-0.005,0.013-0.007,0.018-0.012l-1.592-1.592c-0.005,0.005-0.007,0.013-0.012,0.018l-2,2
		c-0.195,0.195-0.451,0.293-0.707,0.293s-0.512-0.098-0.707-0.293c-0.391-0.391-0.391-1.023,0-1.414l2-2
		c0.005-0.005,0.013-0.007,0.018-0.012l-1.592-1.592c-0.005,0.005-0.007,0.013-0.012,0.018l-3,3
		c-0.195,0.195-0.451,0.293-0.707,0.293s-0.512-0.098-0.707-0.293c-0.391-0.391-0.391-1.023,0-1.414l3-3
		c0.005-0.005,0.013-0.007,0.018-0.012l-1.592-1.592c-0.005,0.005-0.007,0.013-0.012,0.018l-2,2
		c-0.195,0.195-0.451,0.293-0.707,0.293s-0.512-0.098-0.707-0.293c-0.391-0.391-0.391-1.023,0-1.414l2-2
		c0.005-0.005,0.013-0.007,0.018-0.012l-8.583-8.583l-6.364,6.364l22.795,22.795c0.689,0.689,1.805,0.689,2.494,0l3.87-3.87
		C49.781,44.535,49.781,43.418,49.092,42.729z"/>
	<path style="fill:#7FABDA;" d="M40.862,40.53c-0.391,0.391-0.391,1.023,0,1.414c0.195,0.195,0.451,0.293,0.707,0.293
		s0.512-0.098,0.707-0.293l3-3c0.005-0.005,0.007-0.013,0.012-0.018l-1.408-1.408c-0.005,0.005-0.013,0.007-0.018,0.012
		L40.862,40.53z"/>
	<path style="fill:#7FABDA;" d="M38.862,36.53c-0.391,0.391-0.391,1.023,0,1.414c0.195,0.195,0.451,0.293,0.707,0.293
		s0.512-0.098,0.707-0.293l2-2c0.005-0.005,0.007-0.013,0.012-0.018l-1.408-1.408c-0.005,0.005-0.013,0.007-0.018,0.012
		L38.862,36.53z"/>
	<path style="fill:#7FABDA;" d="M34.862,34.53c-0.391,0.391-0.391,1.023,0,1.414c0.195,0.195,0.451,0.293,0.707,0.293
		s0.512-0.098,0.707-0.293l3-3c0.005-0.005,0.007-0.013,0.012-0.018l-1.408-1.408c-0.005,0.005-0.013,0.007-0.018,0.012
		L34.862,34.53z"/>
	<path style="fill:#7FABDA;" d="M32.862,30.53c-0.391,0.391-0.391,1.023,0,1.414c0.195,0.195,0.451,0.293,0.707,0.293
		s0.512-0.098,0.707-0.293l2-2c0.005-0.005,0.007-0.013,0.012-0.018l-1.408-1.408c-0.005,0.005-0.013,0.007-0.018,0.012
		L32.862,30.53z"/>
	<path style="fill:#AFB6BB;" d="M25.59,14.985c-0.8-0.8-1.254-1.804-1.398-2.844L12.139,24.193c1.04,0.145,2.045,0.599,2.844,1.398
		c1.162,1.162,1.616,2.752,1.395,4.262L29.852,16.38C28.342,16.601,26.752,16.147,25.59,14.985z"/>
	<path style="fill:#839594;" d="M11.448,35.127c-1.603,0-3.109-0.624-4.242-1.757c-1.134-1.133-1.758-2.64-1.758-4.243
		c0-1.603,0.624-3.109,1.758-4.242c1.133-1.133,2.64-1.757,4.242-1.757s3.109,0.624,4.243,1.757l0,0
		c2.339,2.339,2.339,6.146,0,8.485C14.557,34.503,13.05,35.127,11.448,35.127z M11.448,25.127c-1.068,0-2.072,0.416-2.828,1.171
		c-0.756,0.756-1.172,1.76-1.172,2.828c0,1.068,0.416,2.073,1.172,2.829c1.512,1.511,4.146,1.511,5.657,0
		c1.559-1.56,1.559-4.097,0-5.657l0,0C13.521,25.543,12.516,25.127,11.448,25.127z"/>
	<path style="fill:#839594;" d="M29.126,17.449c-1.603,0-3.109-0.624-4.242-1.757c-1.134-1.133-1.758-2.64-1.758-4.243
		c0-1.603,0.624-3.109,1.758-4.242c1.133-1.133,2.64-1.757,4.242-1.757s3.109,0.624,4.243,1.757l0,0
		c2.339,2.339,2.339,6.146,0,8.485C32.235,16.825,30.728,17.449,29.126,17.449z M29.126,7.45c-1.068,0-2.072,0.416-2.828,1.171
		c-0.756,0.756-1.172,1.76-1.172,2.828c0,1.068,0.416,2.073,1.172,2.829c1.512,1.511,4.146,1.511,5.657,0
		c1.559-1.56,1.559-4.097,0-5.657l0,0C31.199,7.866,30.194,7.45,29.126,7.45z"/>
	<path style="fill:#839594;" d="M6.499,13c-1.736,0-3.369-0.676-4.597-1.904c-2.534-2.534-2.534-6.658,0-9.192
		C3.13,0.676,4.762,0,6.499,0s3.368,0.676,4.596,1.904l0,0l0,0c1.228,1.228,1.904,2.86,1.904,4.596c0,1.736-0.677,3.368-1.904,4.596
		S8.235,13,6.499,13z M6.499,2C5.297,2,4.167,2.468,3.316,3.318c-1.754,1.754-1.754,4.609,0,6.364C4.167,10.532,5.297,11,6.499,11
		s2.332-0.468,3.182-1.318c0.851-0.85,1.318-1.98,1.318-3.182c0-1.202-0.468-2.332-1.318-3.182l0,0C8.831,2.468,7.701,2,6.499,2z"/>
	
		<rect x="22.016" y="23.271" transform="matrix(0.7071 0.7071 -0.7071 0.7071 25.7702 -10.6736)" style="fill:#7383BF;" width="7.506" height="5"/>
	
		<rect x="13.022" y="13.546" transform="matrix(0.7071 0.7071 -0.7071 0.7071 16.0453 -6.6454)" style="fill:#7383BF;" width="6.045" height="5"/>
	
		<rect x="28.122" y="24.623" transform="matrix(-0.7071 -0.7071 0.7071 -0.7071 29.1198 70.3078)" style="fill:#556080;" width="2" height="9"/>
</g>
<g>
</g>
<g>
</g>
<g>
</g>
<g>
</g>
<g>
</g>
<g>
</g>
<g>
</g>
<g>
</g>
<g>
</g>
<g>
</g>
<g>
</g>
<g>
</g>
<g>
</g>
<g>
</g>
<g>
</g>
</svg>
