<?xml version="1.0" encoding="iso-8859-1"?>
<!-- Generator: Adobe Illustrator 18.0.0, SVG Export Plug-In . SVG Version: 6.00 Build 0)  -->
<!DOCTYPE svg PUBLIC "-//W3C//DTD SVG 1.1//EN" "http://www.w3.org/Graphics/SVG/1.1/DTD/svg11.dtd">
<svg version="1.1" id="Capa_1" xmlns="http://www.w3.org/2000/svg" xmlns:xlink="http://www.w3.org/1999/xlink" x="0px" y="0px"
	 viewBox="0 0 60 60" style="enable-background:new 0 0 60 60;" xml:space="preserve">
<g>
	<path style="fill:#AFB6BB;" d="M1,60c-0.256,0-0.512-0.098-0.707-0.293c-0.391-0.391-0.391-1.023,0-1.414l11.5-11.5
		c0.391-0.391,1.023-0.391,1.414,0s0.391,1.023,0,1.414l-11.5,11.5C1.512,59.902,1.256,60,1,60z"/>
	
		<rect x="12.555" y="42.661" transform="matrix(0.7071 0.7071 -0.7071 0.7071 36.3977 3.019)" style="fill:#EBBA16;" width="4" height="5.569"/>
	<path style="fill:#DFF2F8;" d="M47.637,12.365l-0.002-0.002c-0.953-0.953-2.038-1.774-3.221-2.434L29.958,24.385l0,0l1.414,1.414
		c0.391,0.391,0.391,1.023,0,1.414c-0.195,0.195-0.451,0.293-0.707,0.293s-0.512-0.098-0.707-0.293l-1.414-1.414l0,0l-1.415,1.415
		l0,0l1.414,1.414c0.391,0.391,0.391,1.023,0,1.414c-0.195,0.195-0.451,0.293-0.707,0.293s-0.512-0.098-0.707-0.293l-1.414-1.414
		l0,0l-1.414,1.414l1.414,1.414c0.391,0.391,0.391,1.023,0,1.414c-0.195,0.195-0.451,0.293-0.707,0.293s-0.512-0.098-0.707-0.293
		l-1.414-1.414l-1.414,1.414l0,0l1.414,1.414c0.391,0.391,0.391,1.023,0,1.414c-0.195,0.195-0.451,0.293-0.707,0.293
		s-0.512-0.098-0.707-0.293l-1.414-1.414l0,0l-6.364,6.364l5.657,5.657l30.719-30.719C49.411,14.402,48.59,13.318,47.637,12.365z"/>
	<path style="fill:#7FABDA;" d="M21.473,35.698c0.195,0.195,0.451,0.293,0.707,0.293s0.512-0.098,0.707-0.293
		c0.391-0.391,0.391-1.023,0-1.414l-1.414-1.414l0,0l-1.414,1.414l0,0L21.473,35.698z"/>
	<path style="fill:#7FABDA;" d="M25.009,33.163c0.256,0,0.512-0.098,0.707-0.293c0.391-0.391,0.391-1.023,0-1.414l-1.414-1.414
		l-1.414,1.414l1.414,1.414C24.497,33.065,24.753,33.163,25.009,33.163z"/>
	<path style="fill:#7FABDA;" d="M27.13,30.042c0.195,0.195,0.451,0.293,0.707,0.293s0.512-0.098,0.707-0.293
		c0.391-0.391,0.391-1.023,0-1.414l-1.414-1.414l0,0l-1.414,1.414l0,0L27.13,30.042z"/>
	<path style="fill:#7FABDA;" d="M29.958,27.213c0.195,0.195,0.451,0.293,0.707,0.293s0.512-0.098,0.707-0.293
		c0.391-0.391,0.391-1.023,0-1.414l-1.414-1.414l0,0l-1.414,1.414l0,0L29.958,27.213z"/>
	
		<rect x="13.938" y="40.062" transform="matrix(0.7071 0.7071 -0.7071 0.7071 34.9964 -0.364)" style="fill:#26B99A;" width="8" height="4"/>
	<path style="fill:#7FABDA;" d="M37.736,23.264c-0.256,0-0.512-0.098-0.707-0.293c-0.391-0.391-0.391-1.023,0-1.414L49.757,8.829
		c0.391-0.391,1.023-0.391,1.414,0s0.391,1.023,0,1.414L38.443,22.971C38.248,23.166,37.992,23.264,37.736,23.264z"/>
	
		<rect x="33.737" y="21.264" transform="matrix(0.7071 0.7071 -0.7071 0.7071 26.7954 -20.163)" style="fill:#556080;" width="8" height="2"/>
	<path style="fill:#7FABDA;" d="M54,12c-1.603,0-3.109-0.624-4.243-1.757S48,7.603,48,6s0.624-3.109,1.757-4.243S52.397,0,54,0
		s3.109,0.624,4.243,1.757S60,4.397,60,6s-0.624,3.109-1.757,4.243S55.603,12,54,12z M54,2c-1.068,0-2.073,0.416-2.829,1.171
		S50,4.932,50,6s0.416,2.073,1.171,2.829c1.511,1.511,4.146,1.511,5.657,0C57.584,8.073,58,7.068,58,6s-0.416-2.073-1.171-2.829
		S55.068,2,54,2z"/>
	<path style="fill:#D8EAEF;" d="M51.878,23.264c-0.544,0-0.99-0.436-1-0.982c-0.127-7.129-6.031-13.033-13.161-13.161
		c-0.552-0.01-0.992-0.466-0.982-1.018s0.46-0.987,1.018-0.982c8.193,0.146,14.978,6.931,15.125,15.125
		c0.01,0.552-0.43,1.008-0.982,1.018C51.891,23.264,51.885,23.264,51.878,23.264z"/>
</g>
<g>
</g>
<g>
</g>
<g>
</g>
<g>
</g>
<g>
</g>
<g>
</g>
<g>
</g>
<g>
</g>
<g>
</g>
<g>
</g>
<g>
</g>
<g>
</g>
<g>
</g>
<g>
</g>
<g>
</g>
</svg>
