<?xml version="1.0" encoding="iso-8859-1"?>
<!-- Generator: Adobe Illustrator 18.0.0, SVG Export Plug-In . SVG Version: 6.00 Build 0)  -->
<!DOCTYPE svg PUBLIC "-//W3C//DTD SVG 1.1//EN" "http://www.w3.org/Graphics/SVG/1.1/DTD/svg11.dtd">
<svg version="1.1" id="Capa_1" xmlns="http://www.w3.org/2000/svg" xmlns:xlink="http://www.w3.org/1999/xlink" x="0px" y="0px"
	 viewBox="0 0 59.003 59.003" style="enable-background:new 0 0 59.003 59.003;" xml:space="preserve">
<g>
	<path style="fill:#AFB6BB;" d="M44.607,14.292c-0.257,0-0.515-0.099-0.71-0.296c-0.389-0.393-0.386-1.026,0.006-1.415L55.197,1.389
		c0.394-0.388,1.026-0.386,1.415,0.006C57,1.788,56.998,2.421,56.605,2.81L45.312,14.002C45.116,14.195,44.862,14.292,44.607,14.292
		z"/>
	<path style="fill:#DFF2F8;" d="M41.073,9.757l7.069,7.069c0.782,0.782,0.782,2.049,0,2.83l-24.04,24.04
		c-0.782,0.782-2.049,0.782-2.83,0l-7.069-7.069c-0.782-0.782-0.782-2.049,0-2.83l24.04-24.04
		C39.024,8.976,40.291,8.976,41.073,9.757z"/>
	<path style="fill:#B02721;" d="M41.073,9.757c-0.782-0.782-2.049-0.782-2.83,0L21.986,26.014l0.115,0.127l9.657,9.657
		c0,0,0.057,0.033,0.154,0.089l16.23-16.23c0.782-0.782,0.782-2.049,0-2.83L41.073,9.757z"/>
	<path style="fill:#7FABDA;" d="M19.858,42.283l-4.243-4.243l-4.646,4.646c-0.956-0.401-1.991-0.612-3.059-0.612
		c-2.114,0-4.102,0.823-5.596,2.318c-3.086,3.086-3.086,8.106,0,11.192c1.495,1.495,3.482,2.318,5.596,2.318
		s4.102-0.823,5.596-2.318c2.335-2.335,2.9-5.777,1.701-8.651L19.858,42.283z M12.093,54.171c-1.117,1.117-2.603,1.732-4.182,1.732
		s-3.065-0.615-4.182-1.732s-1.732-2.603-1.732-4.182s0.615-3.065,1.732-4.182s2.603-1.732,4.182-1.732s3.065,0.615,4.182,1.732
		s1.732,2.603,1.732,4.182S13.21,53.054,12.093,54.171z"/>
	
		<rect x="19.333" y="29.066" transform="matrix(-0.7071 -0.7071 0.7071 -0.7071 12.9766 76.5065)" style="fill:#7383BF;" width="6" height="13"/>
	<circle style="fill:#DD352E;" cx="36.829" cy="26.02" r="1.5"/>
	<circle style="fill:#DD352E;" cx="41.779" cy="21.07" r="1.5"/>
	<circle style="fill:#DD352E;" cx="30.465" cy="22.484" r="1.5"/>
	<circle style="fill:#DD352E;" cx="36.122" cy="19.656" r="1.5"/>
	<circle style="fill:#DD352E;" cx="39.657" cy="14.706" r="1.5"/>
	<path style="fill:#A1C8EC;" d="M25.515,48.94c-0.256,0-0.512-0.098-0.707-0.293L9.252,33.091c-0.391-0.391-0.391-1.023,0-1.414
		s1.023-0.391,1.414,0l15.556,15.557c0.391,0.391,0.391,1.023,0,1.414C26.027,48.843,25.771,48.94,25.515,48.94z"/>
	<path style="fill:#DD352E;" d="M57.971,20.878L57.971,20.878c-1.367,1.367-3.583,1.367-4.95,0l0,0c-1.367-1.367-1.353-3.35,0-5.975
		l2.475-4l2.475,4C59.356,17.137,59.338,19.511,57.971,20.878z"/>
	
		<rect x="25.382" y="24.517" transform="matrix(-0.7071 0.7071 -0.7071 -0.7071 67.323 35.1475)" style="fill:#556080;" width="2" height="14"/>
</g>
<g>
</g>
<g>
</g>
<g>
</g>
<g>
</g>
<g>
</g>
<g>
</g>
<g>
</g>
<g>
</g>
<g>
</g>
<g>
</g>
<g>
</g>
<g>
</g>
<g>
</g>
<g>
</g>
<g>
</g>
</svg>
