<?xml version="1.0" encoding="iso-8859-1"?>
<!-- Generator: Adobe Illustrator 18.0.0, SVG Export Plug-In . SVG Version: 6.00 Build 0)  -->
<!DOCTYPE svg PUBLIC "-//W3C//DTD SVG 1.1//EN" "http://www.w3.org/Graphics/SVG/1.1/DTD/svg11.dtd">
<svg version="1.1" id="Capa_1" xmlns="http://www.w3.org/2000/svg" xmlns:xlink="http://www.w3.org/1999/xlink" x="0px" y="0px"
	 viewBox="0 0 55.583 55.583" style="enable-background:new 0 0 55.583 55.583;" xml:space="preserve">
<g>
	<path style="fill:#C7CAC7;" d="M54.582,55.583c-0.256,0-0.512-0.098-0.707-0.293l-9.192-9.192c-0.391-0.391-0.391-1.023,0-1.414
		s1.023-0.391,1.414,0l9.192,9.192c0.391,0.391,0.391,1.023,0,1.414C55.093,55.485,54.837,55.583,54.582,55.583z"/>
	<path style="fill:#DFF2F8;" d="M48.924,41.856l-7.069,7.069c-0.782,0.782-2.049,0.782-2.83,0l-24.04-24.04
		c-0.782-0.782-0.782-2.049,0-2.83l7.069-7.069c0.782-0.782,2.049-0.782,2.83,0l24.04,24.04
		C49.705,39.807,49.705,41.074,48.924,41.856z"/>
	
		<rect x="20.115" y="16.617" transform="matrix(0.7071 -0.7071 0.7071 0.7071 -9.5757 23.1158)" style="fill:#7383BF;" width="6" height="13"/>
	<path style="fill:#F2ECBF;" d="M48.924,39.026L32.784,22.886l-9.899,9.899l16.139,16.139c0.782,0.782,2.049,0.782,2.83,0
		l7.069-7.069C49.705,41.074,49.705,39.807,48.924,39.026z"/>
	<path style="fill:#7FABDA;" d="M18.873,11.096c1.228-1.228,1.904-2.86,1.904-4.596S20.1,3.131,18.873,1.904
		C17.645,0.676,16.013,0,14.276,0S10.908,0.676,9.68,1.904C8.453,3.131,7.776,4.763,7.776,6.5c0,0.493,0.06,0.975,0.166,1.445
		C7.474,7.838,6.991,7.778,6.498,7.778c-1.736,0-3.368,0.676-4.596,1.904c-2.535,2.534-2.535,6.658,0,9.192
		c1.228,1.228,2.859,1.904,4.596,1.904s3.369-0.676,4.596-1.904c0.626-0.626,1.097-1.35,1.413-2.122l3.89,3.89l4.243-4.243
		l-3.887-3.887C17.537,12.19,18.256,11.713,18.873,11.096z M9.776,6.5c0-1.202,0.468-2.332,1.318-3.182S13.074,2,14.276,2
		s2.332,0.468,3.182,1.318s1.318,1.98,1.318,3.182c0,1.202-0.468,2.332-1.318,3.182S15.479,11,14.276,11s-2.332-0.468-3.182-1.318
		S9.776,7.702,9.776,6.5z M9.68,17.46c-0.85,0.85-1.98,1.318-3.182,1.318c-1.202,0-2.332-0.468-3.182-1.318
		c-1.754-1.755-1.754-4.609,0-6.364c0.85-0.85,1.98-1.318,3.182-1.318c1.202,0,2.332,0.468,3.182,1.318
		C11.435,12.851,11.435,15.705,9.68,17.46z"/>
	<circle style="fill:#F7B563;" cx="32.661" cy="37.612" r="1.5"/>
	<circle style="fill:#F7B563;" cx="37.611" cy="42.562" r="1.5"/>
	<circle style="fill:#F7B563;" cx="36.197" cy="31.248" r="1.5"/>
	<circle style="fill:#F7B563;" cx="39.025" cy="36.905" r="1.5"/>
	<circle style="fill:#F7B563;" cx="43.975" cy="40.441" r="1.5"/>
	<path style="fill:#A1C8EC;" d="M10.741,27.299c-0.256,0-0.512-0.098-0.707-0.293c-0.391-0.391-0.391-1.023,0-1.414L25.59,10.035
		c0.391-0.391,1.023-0.391,1.414,0s0.391,1.023,0,1.414L11.448,27.006C11.253,27.201,10.997,27.299,10.741,27.299z"/>
	
		<rect x="20.563" y="26.564" transform="matrix(-0.7071 0.7071 -0.7071 -0.7071 66.543 27.5648)" style="fill:#556080;" width="14" height="2"/>
</g>
<g>
</g>
<g>
</g>
<g>
</g>
<g>
</g>
<g>
</g>
<g>
</g>
<g>
</g>
<g>
</g>
<g>
</g>
<g>
</g>
<g>
</g>
<g>
</g>
<g>
</g>
<g>
</g>
<g>
</g>
</svg>
