<?xml version="1.0" encoding="iso-8859-1"?>
<!-- Generator: Adobe Illustrator 18.0.0, SVG Export Plug-In . SVG Version: 6.00 Build 0)  -->
<!DOCTYPE svg PUBLIC "-//W3C//DTD SVG 1.1//EN" "http://www.w3.org/Graphics/SVG/1.1/DTD/svg11.dtd">
<svg version="1.1" id="Capa_1" xmlns="http://www.w3.org/2000/svg" xmlns:xlink="http://www.w3.org/1999/xlink" x="0px" y="0px"
	 viewBox="0 0 58 58" style="enable-background:new 0 0 58 58;" xml:space="preserve">
<g>
	<path style="fill:#E7ECED;" d="M27.595,41.578c2.442,3.623,7.881,5.037,11.915,3.64c0.925-0.32,1.384-0.83,2.408-0.708
		c0.917,0.11,2.165,0.55,3.083,0.682c1.855,0.266,3.552,0.227,5.395-0.102c9.489-1.691,8.247-13.145,6.053-20.055
		c-0.55-1.732-1.218-3.571-2.359-5.01c-1.337-1.688-3.656-3.399-5.612-3.515c-3.04-0.18-6.087,1.977-9.133,2
		c-2.583,0.02-6.066-0.78-8.543,0c-2.88,0.907-4.049,6.616-4.58,9.127C25.342,31.792,25.105,37.883,27.595,41.578z"/>
	<path style="fill:#E7ECED;" d="M25.995,38.006c0.001,0.101,0.004,0.207,0.005,0.308c0.02,2.434-1.962,7.276-4.621,9.182
		c-4.405,3.156-10.422,2.083-15.432,0.209c-3.211-1.202-6.202-4.6-5.93-9.391c0.302-5.301,1.486-11.951,2.858-17.064
		c1.346-5.014,5.886-5.75,10.133-5.75c7.415,0,9.272,0.314,11.215,6.912c0.833,2.828,1.28,6.075,1.52,9.302
		C25.523,33.863,25.553,36.04,25.995,38.006z"/>
	<path style="fill:#ED9893;" d="M48.939,8.5H9.061C4.057,8.5,0,12.557,0,17.561v9.745c0,0.826,0.46,1.536,1.135,1.909
		c0.491-2.794,1.092-5.552,1.74-7.965c1.346-5.014,5.886-5.75,10.133-5.75c7.415,0,9.272,0.314,11.215,6.912
		c0.642,2.18,1.051,4.61,1.317,7.088h0.355c0.093-0.65,0.202-1.277,0.326-1.862c0.532-2.511,1.701-8.22,4.58-9.127
		c2.477-0.781,5.959,0.019,8.543,0c3.046-0.023,6.092-2.18,9.133-2c1.956,0.115,4.275,1.827,5.612,3.515
		c1.141,1.44,1.809,3.279,2.359,5.01c0.363,1.142,0.698,2.41,0.964,3.735C57.77,28.383,58,27.876,58,27.306v-9.745
		C58,12.557,53.943,8.5,48.939,8.5z"/>
	<path style="fill:#F0F6F7;" d="M14.217,48.5c-2.165,0-4.733-0.511-7.633-1.519c-0.332-0.115-3.229-1.215-3.037-4.363
		c0.283-4.612,1.418-10.885,2.892-15.979c0.23-0.8,0.617-2.139,6.108-2.139c1.918,0,5.128,0,5.966,0.43
		c0.005,0.003,0.483,0.275,1.347,2.994c1.073,3.386,1.623,8.106,1.679,14.434c-0.051,1.118-1.483,4.135-2.746,4.975
		C17.611,48.118,16.114,48.5,14.217,48.5z"/>
	<path style="fill:#FFFFFF;" d="M5.199,44.708c-2.476-2.728-3.259-6.362-2.206-9.88c0.371-1.239-1.56-1.764-1.929-0.532
		c-1.26,4.21-0.225,8.581,2.72,11.826C4.653,47.079,6.064,45.661,5.199,44.708L5.199,44.708z"/>
	<path style="fill:#FFFFFF;" d="M23.076,39.626c-0.004-0.01-0.007-0.021-0.011-0.032c-1.766,2.378-4.383,3.96-7.343,4.206
		c-0.607,1.229-1.079,2.406-1.237,3.44c-0.116,0.758,0.429,1.408,1.23,1.23c3.946-0.878,9.564-3.063,8.024-8.196
		C23.627,39.901,23.367,39.705,23.076,39.626z"/>
	<path style="fill:#FFFFFF;" d="M44.883,43.774c0.556,0.653,1.339,0.796,2.165,0.677c1.72-0.247,3.429-0.627,5.137-0.947
		c2.084-0.39,3.621-1.806,2.357-3.986c-1.128-1.945-4.197-1.817-6.158-1.238c-0.237-0.014-0.484,0.047-0.711,0.224
		C46.498,39.42,43.391,42.022,44.883,43.774z"/>
	<path style="fill:#FFFFFF;" d="M37.852,42.5c-0.292,0-0.583,0-0.875,0c-1.29,0-1.29,2,0,2c0.292,0,0.583,0,0.875,0
		C39.142,44.5,39.142,42.5,37.852,42.5L37.852,42.5z"/>
	<path style="fill:#FFFFFF;" d="M37.8,28.45c-0.565,4.832,0.27,9.475,2.378,13.85c0.559,1.161,2.28,0.139,1.723-1.016
		c-1.954-4.056-2.622-8.361-2.101-12.823C39.95,27.178,37.947,27.185,37.8,28.45L37.8,28.45z"/>
</g>
<g>
</g>
<g>
</g>
<g>
</g>
<g>
</g>
<g>
</g>
<g>
</g>
<g>
</g>
<g>
</g>
<g>
</g>
<g>
</g>
<g>
</g>
<g>
</g>
<g>
</g>
<g>
</g>
<g>
</g>
</svg>
