<?xml version="1.0" encoding="iso-8859-1"?>
<!-- Generator: Adobe Illustrator 18.0.0, SVG Export Plug-In . SVG Version: 6.00 Build 0)  -->
<!DOCTYPE svg PUBLIC "-//W3C//DTD SVG 1.1//EN" "http://www.w3.org/Graphics/SVG/1.1/DTD/svg11.dtd">
<svg version="1.1" id="Capa_1" xmlns="http://www.w3.org/2000/svg" xmlns:xlink="http://www.w3.org/1999/xlink" x="0px" y="0px"
	 viewBox="0 0 58 58" style="enable-background:new 0 0 58 58;" xml:space="preserve">
<g>
	<g>
		<path style="fill:#E7ECED;" d="M42.991,42c-7.986,0-9.985-0.314-12.078-6.912C29.388,30.279,29.044,24.255,29,19.186
			c-0.021-2.434,2.113-7.276,4.976-9.181C38.721,6.848,45.2,7.921,50.595,9.795c3.459,1.201,6.68,4.6,6.386,9.391
			c-0.325,5.301-1.6,11.951-3.078,17.064C52.454,41.264,47.565,42,42.991,42z"/>
	</g>
	<g>
		<path style="fill:#E7ECED;" d="M15.009,42c7.986,0,9.985-0.314,12.078-6.912c1.525-4.808,1.868-10.832,1.913-15.901
			c0.021-2.434-2.113-7.276-4.976-9.181C19.279,6.848,12.8,7.921,7.405,9.795c-3.459,1.201-6.68,4.6-6.386,9.391
			c0.325,5.301,1.6,11.951,3.078,17.064C5.546,41.264,10.435,42,15.009,42z"/>
	</g>
	<path style="fill:#ED9893;" d="M9.061,50h39.878C53.943,50,58,45.943,58,40.939v-9.745C58,29.982,57.018,29,55.806,29h-0.168
		c-0.502,2.547-1.096,5.043-1.734,7.25C52.454,41.264,47.565,42,42.991,42c-7.986,0-9.985-0.314-12.078-6.912
		c-0.598-1.885-1.01-3.959-1.298-6.088h-1.23c-0.288,2.128-0.7,4.202-1.298,6.088C24.994,41.686,22.995,42,15.009,42
		c-4.574,0-9.464-0.736-10.913-5.75C3.458,34.043,2.865,31.547,2.362,29H2.194C0.982,29,0,29.982,0,31.194l0,9.745
		C0,45.943,4.057,50,9.061,50z"/>
	<path style="fill:#F0F6F7;" d="M25.467,14.461c-3.797-7.262-11.341-3.698-17.584-2.833c-1.115,0.154-1.533,0.98-1.439,1.83
		c-0.775,1.345-0.859,3.063,0.568,4.055c4.481,3.115,7.696,5.644,9.036,11.213c0.628,2.612-0.524,6.425,2.149,8.25
		c1.698,1.159,4.464,1.564,5.688-0.645c1.7-3.066,1.854-6.799,2.239-10.233C26.514,22.62,27.184,17.745,25.467,14.461z
		 M9.973,15.311c0.037-0.007,0.075-0.015,0.112-0.023c-0.069,0.049-0.136,0.1-0.185,0.185C9.931,15.418,9.947,15.365,9.973,15.311z"
		/>
	<path style="fill:#FFFFFF;" d="M22.182,14.683c2.476,2.728,3.259,6.362,2.206,9.88c-0.371,1.239,1.56,1.764,1.929,0.532
		c1.26-4.21,0.225-8.581-2.72-11.826C22.727,12.312,21.317,13.731,22.182,14.683L22.182,14.683z"/>
	<path style="fill:#FFFFFF;" d="M5.924,19.874c0.004,0.01,0.007,0.021,0.011,0.032c1.766-2.378,4.383-3.96,7.343-4.206
		c0.607-1.229,1.079-2.406,1.237-3.44c0.116-0.758-0.429-1.408-1.23-1.23c-3.946,0.878-9.564,3.063-8.024,8.196
		C5.373,19.599,5.633,19.795,5.924,19.874z"/>
	<path style="fill:#F0F6F7;" d="M31.767,26.099c0.385,3.434,0.539,7.167,2.239,10.233c1.224,2.208,3.99,1.803,5.688,0.645
		c2.674-1.824,1.521-5.637,2.149-8.25c1.34-5.569,4.555-8.099,9.036-11.213c1.427-0.992,1.343-2.71,0.568-4.055
		c0.094-0.85-0.324-1.676-1.439-1.83c-6.244-0.865-13.787-4.429-17.584,2.833C30.708,17.745,31.377,22.62,31.767,26.099z
		 M47.992,15.473c-0.049-0.084-0.116-0.136-0.185-0.185c0.037,0.007,0.075,0.015,0.112,0.023
		C47.945,15.365,47.961,15.418,47.992,15.473z"/>
	<path style="fill:#FFFFFF;" d="M50.27,14.683c2.476,2.728,3.259,6.362,2.206,9.88c-0.371,1.239,1.56,1.764,1.929,0.532
		c1.26-4.21,0.225-8.581-2.72-11.826C50.816,12.312,49.406,13.731,50.27,14.683L50.27,14.683z"/>
</g>
<g>
</g>
<g>
</g>
<g>
</g>
<g>
</g>
<g>
</g>
<g>
</g>
<g>
</g>
<g>
</g>
<g>
</g>
<g>
</g>
<g>
</g>
<g>
</g>
<g>
</g>
<g>
</g>
<g>
</g>
</svg>
