<?xml version="1.0" encoding="iso-8859-1"?>
<!-- Generator: Adobe Illustrator 18.0.0, SVG Export Plug-In . SVG Version: 6.00 Build 0)  -->
<!DOCTYPE svg PUBLIC "-//W3C//DTD SVG 1.1//EN" "http://www.w3.org/Graphics/SVG/1.1/DTD/svg11.dtd">
<svg version="1.1" id="Capa_1" xmlns="http://www.w3.org/2000/svg" xmlns:xlink="http://www.w3.org/1999/xlink" x="0px" y="0px"
	 viewBox="0 0 58 58" style="enable-background:new 0 0 58 58;" xml:space="preserve">
<g>
	<path style="fill:#E7ECED;" d="M25.995,18.994c0.001-0.101,0.004-0.207,0.005-0.308c0.02-2.434-1.962-7.276-4.621-9.182
		C16.974,6.348,10.957,7.421,5.947,9.295c-3.211,1.202-6.202,4.6-5.93,9.391c0.302,5.301,1.486,11.951,2.858,17.064
		c1.346,5.014,5.886,5.75,10.133,5.75c7.415,0,9.272-0.314,11.215-6.912c0.833-2.828,1.28-6.075,1.52-9.302
		C25.523,23.137,25.553,20.96,25.995,18.994z"/>
	<path style="fill:#F0F6F7;" d="M22.575,12.961c-3.797-7.262-11.341-3.698-17.584-2.833c-1.115,0.154-1.533,0.98-1.439,1.83
		c-0.775,1.345-0.859,3.063,0.568,4.055c4.481,3.115,7.696,5.644,9.036,11.213c0.628,2.612-0.524,6.425,2.149,8.25
		c1.698,1.159,4.464,1.564,5.688-0.645c1.7-3.066,1.854-6.799,2.239-10.233C23.623,21.12,24.292,16.245,22.575,12.961z
		 M7.081,13.811c0.037-0.007,0.075-0.015,0.112-0.023c-0.069,0.049-0.136,0.1-0.185,0.185C7.039,13.918,7.055,13.865,7.081,13.811z"
		/>
	<path style="fill:#E7ECED;" d="M56.012,15.422c-2.442-3.623-7.881-5.037-11.915-3.64c-0.925,0.32-1.384,0.83-2.408,0.708
		c-0.917-0.11-2.165-0.55-3.083-0.682c-1.855-0.266-3.552-0.227-5.395,0.102c-9.489,1.691-8.247,13.145-6.053,20.055
		c0.55,1.732,1.218,3.571,2.359,5.01c1.337,1.688,3.656,3.399,5.612,3.515c3.04,0.18,6.087-1.977,9.133-2
		c2.583-0.02,6.066,0.78,8.543,0c2.88-0.907,4.049-6.616,4.58-9.127C58.265,25.208,58.503,19.117,56.012,15.422z"/>
	<path style="fill:#ED9893;" d="M57.24,30.046c-0.59,2.737-1.791,7.611-4.434,8.444c-2.477,0.781-5.959-0.019-8.543,0
		c-3.046,0.023-6.092,2.18-9.133,2c-1.956-0.115-4.275-1.827-5.612-3.515c-1.141-1.44-1.809-3.279-2.359-5.01
		c-0.245-0.771-0.476-1.6-0.684-2.464h-1.188c-0.258,1.774-0.597,3.5-1.064,5.088c-1.943,6.598-3.8,6.912-11.215,6.912
		c-4.247,0-8.788-0.736-10.133-5.75c-0.504-1.88-0.982-3.968-1.401-6.12C0.618,29.93,0,30.736,0,31.694v9.745
		C0,46.443,4.057,50.5,9.061,50.5h39.878c5.004,0,9.061-4.057,9.061-9.061v-9.745C58,31.033,57.702,30.448,57.24,30.046z"/>
	<path style="fill:#FFFFFF;" d="M19.651,13.183c2.476,2.728,3.259,6.362,2.206,9.88c-0.371,1.239,1.56,1.764,1.929,0.532
		c1.26-4.21,0.225-8.581-2.72-11.826C20.197,10.812,18.787,12.231,19.651,13.183L19.651,13.183z"/>
	<path style="fill:#FFFFFF;" d="M3.394,18.374c0.004,0.01,0.007,0.021,0.011,0.032c1.766-2.378,4.383-3.96,7.343-4.206
		c0.607-1.229,1.079-2.406,1.237-3.44c0.116-0.758-0.429-1.408-1.23-1.23c-3.946,0.878-9.564,3.063-8.024,8.196
		C2.842,18.099,3.102,18.295,3.394,18.374z"/>
	<path style="fill:#FFFFFF;" d="M39.127,13.226c-0.556-0.653-1.339-0.796-2.165-0.677c-1.72,0.247-3.429,0.627-5.137,0.947
		c-2.084,0.39-3.621,1.806-2.357,3.986c1.128,1.945,4.197,1.817,6.158,1.238c0.237,0.014,0.484-0.047,0.711-0.224
		C37.513,17.58,40.62,14.978,39.127,13.226z"/>
	<path style="fill:#FFFFFF;" d="M46.158,14.5c0.292,0,0.583,0,0.875,0c1.29,0,1.29-2,0-2c-0.292,0-0.583,0-0.875,0
		C44.868,12.5,44.868,14.5,46.158,14.5L46.158,14.5z"/>
	<path style="fill:#FFFFFF;" d="M46.211,28.55c0.565-4.832-0.27-9.475-2.378-13.85c-0.559-1.161-2.28-0.139-1.723,1.016
		c1.954,4.056,2.622,8.361,2.101,12.823C44.06,29.822,46.063,29.815,46.211,28.55L46.211,28.55z"/>
</g>
<g>
</g>
<g>
</g>
<g>
</g>
<g>
</g>
<g>
</g>
<g>
</g>
<g>
</g>
<g>
</g>
<g>
</g>
<g>
</g>
<g>
</g>
<g>
</g>
<g>
</g>
<g>
</g>
<g>
</g>
</svg>
