<?xml version="1.0" encoding="iso-8859-1"?>
<!-- Generator: Adobe Illustrator 18.0.0, SVG Export Plug-In . SVG Version: 6.00 Build 0)  -->
<!DOCTYPE svg PUBLIC "-//W3C//DTD SVG 1.1//EN" "http://www.w3.org/Graphics/SVG/1.1/DTD/svg11.dtd">
<svg version="1.1" id="Capa_1" xmlns="http://www.w3.org/2000/svg" xmlns:xlink="http://www.w3.org/1999/xlink" x="0px" y="0px"
	 viewBox="0 0 59 59" style="enable-background:new 0 0 59 59;" xml:space="preserve">
<g>
	<path style="fill:#ECE3D2;" d="M53.283,14.315c2.533,9.574-1.084,20.991-3.195,30.411c-0.918,4.094-1.685,8.286-3.791,11.976
		c-3.333,5.841-5.989-1.786-7.036-5.012c-1.287-3.965-1.706-9.087-5.667-11.446c-3.946-2.35-7.607,0.052-9.893,3.396
		c-2.316,3.388-3.194,7.325-4.663,11.093C18.36,56.476,17.611,58.22,15.768,59c-1.956,0-3.314-3.573-4.032-5.308
		c-3.92-9.466-5.125-20.193-6.639-30.255C4.032,16.358,6.327,7.943,13.68,5.338c3.996-1.416,9.469-0.11,13.47,1.069
		c2.299,0.678,1.875,0.457,4.165-0.338c0.176-0.061,0.349-0.143,0.529-0.218c4.901-2.027,10.809-2.043,15.122,0.731
		C49.877,8.454,52.441,11.132,53.283,14.315z"/>
	<path style="fill:#DDD3C3;" d="M33.594,40.245c-3.946-2.35-7.607,0.052-9.893,3.395c-0.373,0.545-0.698,1.109-1.005,1.679
		c0.09,0.215,0.177,0.423,0.276,0.658c1.122,2.655,4.21,8.478,7.935,7.373c1.884-0.559,2.876-2.698,3.661-4.311
		c0.61-1.253,1.773-3.18,2.347-4.882C36.183,42.582,35.178,41.188,33.594,40.245z"/>
	<path style="fill:#C1B6A7;" d="M17.744,7.721c-0.38,0-0.737,0.021-1.083,0.051L11.892,44.56c0.715,2.742,1.555,5.424,2.615,7.983
		l0.124,0.301c0.179,0.436,0.582,1.417,1.004,2.216c0.19-0.376,0.386-0.843,0.608-1.416c0.396-1.014,0.745-2.04,1.115-3.126
		c0.973-2.856,1.979-5.811,3.866-8.569c0.199-0.292,0.411-0.555,0.62-0.825l4.322-31.878C23.893,8.579,20.605,7.721,17.744,7.721z"
		/>
	<path style="fill:#7383BF;" d="M15.685,54c-0.038,0-0.077-0.002-0.116-0.007c-0.549-0.063-0.941-0.561-0.878-1.108l5.466-47
		c0.064-0.548,0.562-0.944,1.108-0.878c0.549,0.063,0.941,0.561,0.878,1.108l-5.466,47C16.618,53.625,16.186,54,15.685,54z"/>
	<rect x="14.15" y="35" style="fill:#7383BF;" width="6" height="2"/>
	<rect x="13.94" y="38" style="fill:#7383BF;" width="6" height="2"/>
	<rect x="13.731" y="41" style="fill:#7383BF;" width="6" height="2"/>
	<rect x="13.521" y="44" style="fill:#7383BF;" width="6" height="2"/>
	<rect x="13.312" y="47" style="fill:#7383BF;" width="6" height="2"/>
	<rect x="18.15" y="1" style="fill:#556080;" width="6" height="5"/>
	<rect x="16.15" style="fill:#3E465B;" width="10" height="2"/>
	<path style="fill:#FFFFFF;" d="M29.266,6.97c-0.993,0.903-0.592,2.397,0.445,3.075c1.264,0.826,2.808,0.973,4.274,1.109
		c1.285,0.119,1.273-1.882,0-2c-0.687-0.064-1.362-0.142-2.034-0.305c-0.291-0.07-0.571-0.173-0.842-0.299
		c-0.128-0.06-0.248-0.133-0.361-0.219c-0.083-0.134-0.106-0.116-0.069,0.052C31.636,7.515,30.217,6.104,29.266,6.97L29.266,6.97z"
		/>
	<path style="fill:#FFFFFF;" d="M40.885,9.18c2.027,0.294,3.743,1.055,5.262,2.442c0.735,0.671,1.256,1.519,1.725,2.384
		c0.211,0.389,1.65,3.955,0.235,3.828c-1.285-0.115-1.274,1.886,0,2c3.503,0.312,2.657-4.308,1.761-6.254
		c-1.597-3.468-4.667-5.78-8.45-6.329C40.156,7.068,39.613,8.995,40.885,9.18L40.885,9.18z"/>
</g>
<g>
</g>
<g>
</g>
<g>
</g>
<g>
</g>
<g>
</g>
<g>
</g>
<g>
</g>
<g>
</g>
<g>
</g>
<g>
</g>
<g>
</g>
<g>
</g>
<g>
</g>
<g>
</g>
<g>
</g>
</svg>
