<?xml version="1.0" encoding="iso-8859-1"?>
<!-- Generator: Adobe Illustrator 18.0.0, SVG Export Plug-In . SVG Version: 6.00 Build 0)  -->
<!DOCTYPE svg PUBLIC "-//W3C//DTD SVG 1.1//EN" "http://www.w3.org/Graphics/SVG/1.1/DTD/svg11.dtd">
<svg version="1.1" id="Capa_1" xmlns="http://www.w3.org/2000/svg" xmlns:xlink="http://www.w3.org/1999/xlink" x="0px" y="0px"
	 viewBox="0 0 58 58" style="enable-background:new 0 0 58 58;" xml:space="preserve">
<g>
	<g>
		<path style="fill:#E7ECED;" d="M43.001,17c7.99,0,9.991,0.302,12.085,6.649c1.526,4.625,1.869,10.419,1.914,15.294
			c0.04,4.394-7.808,11.167-12.486,11.968c-0.493,0.084-1.024,0.125-1.513,0.047c-4.492-0.712-14.163-7.764-13.999-12.016
			c0.197-5.105,1.601-11.495,3.08-16.413C33.532,17.708,38.424,17,43.001,17z"/>
	</g>
	<g>
		<path style="fill:#E7ECED;" d="M14.009,18c7.986,0,9.985,0.314,12.078,6.912c1.525,4.808,1.868,10.832,1.913,15.901
			c0.021,2.434-2.113,7.276-4.976,9.181c-4.744,3.156-11.224,2.083-16.619,0.209c-3.459-1.201-6.68-4.6-6.386-9.391
			c0.325-5.301,1.6-11.951,3.078-17.064C4.546,18.736,9.435,18,14.009,18z"/>
	</g>
	<path style="fill:#ED9893;" d="M48.939,6H9.061C4.057,6,0,10.057,0,15.061v9.745C0,26.018,0.982,27,2.194,27h0.047
		c0.274-1.126,0.559-2.225,0.855-3.25C4.546,18.736,9.435,18,14.009,18c7.986,0,9.985,0.314,12.078,6.912
		c0.213,0.673,0.399,1.373,0.568,2.088h4.219c0.381-1.564,0.789-3.079,1.207-4.47c1.45-4.822,6.343-5.53,10.919-5.53
		c7.99,0,9.991,0.302,12.085,6.649c0.349,1.058,0.63,2.182,0.865,3.337C57.094,26.909,58,25.968,58,24.806v-9.745
		C58,10.057,53.943,6,48.939,6z"/>
	<path style="fill:#F0F6F7;" d="M43.618,24.001c4.736,0.051,5.743,2.002,6.314,3.826c0.696,2.222,1.261,4.599,1.781,6.843
		c0.73,3.157,0.032,6.479-1.87,8.885c-1.786,2.259-3.918,4.41-5.84,5.922c-3.358-2.41-7.892-8.047-8.003-9.86l0.105-1.352
		c0.287-3.846,0.558-7.478,1.547-10.797C38.189,25.667,39.264,24,43.463,24L43.618,24.001z"/>
	<path style="fill:#FFFFFF;" d="M6.73,46.114c-2.476-2.728-3.259-6.362-2.206-9.88c0.371-1.239-1.56-1.764-1.929-0.532
		c-1.26,4.21-0.225,8.581,2.72,11.826C6.184,48.485,7.594,47.067,6.73,46.114L6.73,46.114z"/>
	<path style="fill:#FFFFFF;" d="M49.27,44.114c2.476-2.728,3.259-6.362,2.206-9.88c-0.371-1.239,1.56-1.764,1.929-0.532
		c1.26,4.21,0.225,8.581-2.72,11.826C49.816,46.485,48.406,45.067,49.27,44.114L49.27,44.114z"/>
	<path style="fill:#FFFFFF;" d="M24.606,41.032C24.602,41.021,24.6,41.01,24.596,41c-1.766,2.378-4.383,3.96-7.343,4.206
		c-0.607,1.229-1.079,2.406-1.237,3.44c-0.116,0.758,0.429,1.408,1.23,1.23c3.946-0.878,9.564-3.063,8.024-8.196
		C25.158,41.307,24.898,41.111,24.606,41.032z"/>
</g>
<g>
</g>
<g>
</g>
<g>
</g>
<g>
</g>
<g>
</g>
<g>
</g>
<g>
</g>
<g>
</g>
<g>
</g>
<g>
</g>
<g>
</g>
<g>
</g>
<g>
</g>
<g>
</g>
<g>
</g>
</svg>
