<?xml version="1.0" encoding="iso-8859-1"?>
<!-- Generator: Adobe Illustrator 18.0.0, SVG Export Plug-In . SVG Version: 6.00 Build 0)  -->
<!DOCTYPE svg PUBLIC "-//W3C//DTD SVG 1.1//EN" "http://www.w3.org/Graphics/SVG/1.1/DTD/svg11.dtd">
<svg version="1.1" id="Capa_1" xmlns="http://www.w3.org/2000/svg" xmlns:xlink="http://www.w3.org/1999/xlink" x="0px" y="0px"
	 viewBox="0 0 58 58" style="enable-background:new 0 0 58 58;" xml:space="preserve">
<g>
	<path style="fill:#E7ECED;" d="M17.001,16.867c6.849,0,8.564,0.327,10.359,7.191c1.308,5.002,1.602,15.535,1.64,20.809
		c0.029,4.041-4.829,3.756-8.749,4.113c-2.354,0.214-3.605,0.189-5.947,0.014c-4.095-0.306-9.415-0.435-9.302-4.127
		c0.169-5.522,1.372-16.699,2.64-22.018C8.884,17.633,13.078,16.867,17.001,16.867z"/>
	<path style="fill:#E7ECED;" d="M40.999,16.867c-6.849,0-8.564,0.327-10.359,7.191c-1.308,5.002-1.602,15.535-1.64,20.809
		c-0.029,4.041,4.829,3.756,8.749,4.113c2.354,0.214,3.605,0.189,5.947,0.014c4.095-0.306,9.415-0.435,9.302-4.127
		c-0.169-5.522-1.372-16.699-2.64-22.018C49.116,17.633,44.922,16.867,40.999,16.867z"/>
	<path style="fill:#ED9893;" d="M48.939,8.867H9.061C4.057,8.867,0,12.924,0,17.928v7.559c0,2.419,1.961,4.38,4.38,4.38h1.827
		c0.427-2.467,0.923-4.873,1.434-7.018c1.243-5.216,5.436-5.982,9.359-5.982c6.849,0,8.564,0.327,10.359,7.191
		c0.472,1.806,0.809,3.779,1.052,5.809h1.176c0.244-2.029,0.58-4.003,1.052-5.809c1.795-6.865,3.51-7.191,10.359-7.191
		c3.923,0,8.117,0.765,9.359,5.982c0.511,2.145,1.008,4.551,1.434,7.018h1.827c2.419,0,4.38-1.961,4.38-4.38v-7.559
		C58,12.924,53.943,8.867,48.939,8.867z"/>
	<path style="fill:#F0F6F7;" d="M24.832,45.358c-0.288,0.031-0.576,0.053-0.865,0.081c-0.122-6.423-0.549-13.688-1.446-17.115
		c-0.586-2.243-0.99-2.984-1.141-3.204c-0.752-0.252-3.276-0.252-4.38-0.252c-3.985,0-4.21,0.944-4.496,2.141
		c-0.988,4.148-2.004,12.66-2.376,18.415c-0.545-0.054-1.09-0.109-1.635-0.175c-1.279-0.155-1.264,1.847,0,2
		c5.453,0.66,10.877,0.696,16.339,0.11C26.101,47.222,26.114,45.22,24.832,45.358z"/>
	<path style="fill:#F0F6F7;" d="M45.495,27.008c-0.285-1.196-0.51-2.141-4.496-2.141c-1.104,0-3.627,0-4.38,0.252
		c-0.151,0.22-0.555,0.961-1.141,3.204c-0.876,3.351-1.304,10.368-1.436,16.682c-0.431-0.002-0.861-0.004-1.292-0.006
		c-1.29-0.006-1.289,1.994,0,2c1.924,0.01,3.849,0.019,5.773,0.029c0.853,0.072,1.522,0.105,2.164,0.105h0
		c0.692,0,1.431-0.035,2.636-0.125l0.807-0.058c1.023-0.073,2.687-0.19,3.808-0.404C47.635,40.834,46.549,31.436,45.495,27.008z"/>
	<path style="fill:#FFFFFF;" d="M19.36,47.592c1.865,0.339,3.901,0.465,5.727-0.142c1.338-0.445,2.259-1.856,1.752-3.235
		c-0.441-1.2-2.374-0.682-1.929,0.532c0.569,1.55-4.315,1.044-5.019,0.917C18.631,45.434,18.092,47.362,19.36,47.592L19.36,47.592z"
		/>
	<path style="fill:#FFFFFF;" d="M50.082,43.333c-2.465,3.96-8.467,2.013-12.348,2.57c-1.273,0.183-0.729,2.109,0.532,1.929
		c4.742-0.68,10.487,1.421,13.543-3.489C52.493,43.244,50.762,42.241,50.082,43.333L50.082,43.333z"/>
</g>
<g>
</g>
<g>
</g>
<g>
</g>
<g>
</g>
<g>
</g>
<g>
</g>
<g>
</g>
<g>
</g>
<g>
</g>
<g>
</g>
<g>
</g>
<g>
</g>
<g>
</g>
<g>
</g>
<g>
</g>
</svg>
