<?xml version="1.0" encoding="iso-8859-1"?>
<!-- Generator: Adobe Illustrator 18.0.0, SVG Export Plug-In . SVG Version: 6.00 Build 0)  -->
<!DOCTYPE svg PUBLIC "-//W3C//DTD SVG 1.1//EN" "http://www.w3.org/Graphics/SVG/1.1/DTD/svg11.dtd">
<svg version="1.1" id="Capa_1" xmlns="http://www.w3.org/2000/svg" xmlns:xlink="http://www.w3.org/1999/xlink" x="0px" y="0px"
	 viewBox="0 0 58 58" style="enable-background:new 0 0 58 58;" xml:space="preserve">
<g>
	<g>
		<path style="fill:#E7ECED;" d="M43,39.5c-7.986,0-9.985-0.314-12.078-6.912c-1.525-4.808-1.868-10.832-1.913-15.901
			c-0.021-2.434,2.113-7.276,4.976-9.181C38.73,4.348,45.21,5.421,50.605,7.295c3.459,1.201,6.68,4.6,6.386,9.391
			c-0.325,5.301-1.6,11.951-3.078,17.064C52.464,38.764,47.574,39.5,43,39.5z"/>
	</g>
	<path style="fill:#E7ECED;" d="M1.416,25.958c-1.059-4.575-0.086-9.439,2.819-13.113C6.662,9.774,9.84,6.666,12.65,4.836
		c0.585-0.381,1.491-0.446,2.124-0.151c3.578,1.668,12.608,10.439,12.214,15.512c-0.347,4.465-0.57,8.976-1.848,13.264
		c-1.533,5.144-5.683,7.094-10.811,7.039c-5.222-0.056-9.364-2.004-11.033-7.332C2.555,30.801,1.976,28.382,1.416,25.958z"/>
	<path style="fill:#F0F6F7;" d="M14.382,30.976c-4.736-0.051-5.743-2.002-6.314-3.826c-0.696-2.222-1.261-4.599-1.781-6.843
		c-0.73-3.157-0.032-6.479,1.87-8.885c1.786-2.259,3.918-4.41,5.84-5.922c3.358,2.41,7.892,8.047,8.003,9.86l-0.105,1.352
		c-0.287,3.846-0.558,7.478-1.547,10.797c-0.537,1.801-1.612,3.468-5.811,3.468L14.382,30.976z"/>
	<path style="fill:#ED9893;" d="M55.806,32.5h-1.341h-0.21c-0.114,0.421-0.226,0.848-0.342,1.25C52.464,38.764,47.574,39.5,43,39.5
		c-7.986,0-9.985-0.314-12.078-6.912c-0.009-0.028-0.016-0.059-0.024-0.088h-5.502c-0.084,0.32-0.162,0.642-0.256,0.96
		c-1.533,5.144-5.683,7.094-10.811,7.039c-5.221-0.056-9.364-2.004-11.033-7.332c-0.069-0.221-0.131-0.445-0.197-0.667H2.73H2.194
		C0.982,32.5,0,33.482,0,34.694v9.745C0,49.443,4.057,53.5,9.061,53.5h39.878c5.004,0,9.061-4.057,9.061-9.061v-9.745
		C58,33.482,57.018,32.5,55.806,32.5z"/>
	<path style="fill:#FFFFFF;" d="M50.339,12.232c2.476,2.728,3.259,6.362,2.206,9.88c-0.371,1.239,1.56,1.764,1.929,0.532
		c1.26-4.21,0.225-8.581-2.72-11.826C50.884,9.861,49.474,11.28,50.339,12.232L50.339,12.232z"/>
	<path style="fill:#FFFFFF;" d="M7.73,15.232c-2.476,2.728-3.259,6.362-2.206,9.88c0.371,1.239-1.56,1.764-1.929,0.532
		c-1.26-4.21-0.225-8.581,2.72-11.826C7.184,12.861,8.594,14.28,7.73,15.232L7.73,15.232z"/>
	<path style="fill:#FFFFFF;" d="M32.924,16.374c0.004,0.01,0.007,0.021,0.011,0.032c1.766-2.378,4.383-3.96,7.343-4.206
		c0.607-1.229,1.079-2.406,1.237-3.44c0.116-0.758-0.429-1.408-1.23-1.23c-3.946,0.878-9.564,3.063-8.024,8.196
		C32.373,16.099,32.633,16.295,32.924,16.374z"/>
</g>
<g>
</g>
<g>
</g>
<g>
</g>
<g>
</g>
<g>
</g>
<g>
</g>
<g>
</g>
<g>
</g>
<g>
</g>
<g>
</g>
<g>
</g>
<g>
</g>
<g>
</g>
<g>
</g>
<g>
</g>
</svg>
