<?xml version="1.0" encoding="iso-8859-1"?>
<!-- Generator: Adobe Illustrator 18.0.0, SVG Export Plug-In . SVG Version: 6.00 Build 0)  -->
<!DOCTYPE svg PUBLIC "-//W3C//DTD SVG 1.1//EN" "http://www.w3.org/Graphics/SVG/1.1/DTD/svg11.dtd">
<svg version="1.1" id="Capa_1" xmlns="http://www.w3.org/2000/svg" xmlns:xlink="http://www.w3.org/1999/xlink" x="0px" y="0px"
	 viewBox="0 0 58 58" style="enable-background:new 0 0 58 58;" xml:space="preserve">
<g>
	<g>
		<path style="fill:#3E465B;" d="M54,22.691v0.043H4.38c-1.328,0-2.502-0.604-3.305-1.536C0.38,23.681,0,26.295,0,29
			c0,16.016,12.984,29,29,29s29-12.984,29-29c0-2.704-0.382-5.316-1.079-7.797C56.197,22.041,55.165,22.587,54,22.691z"/>
	</g>
	<path style="fill:#ED9893;" d="M56.929,21.195c-0.678-2.433-1.677-4.729-2.929-6.859v-0.029c-0.317-0.538-0.651-1.066-1.002-1.581
		h0c-0.396-0.583-0.819-1.147-1.255-1.699c-0.14-0.177-0.287-0.347-0.431-0.52c-0.311-0.375-0.629-0.743-0.958-1.102
		c-0.171-0.187-0.344-0.371-0.52-0.553c-0.336-0.347-0.681-0.683-1.033-1.013c-0.169-0.158-0.333-0.319-0.506-0.473
		c-0.508-0.454-1.029-0.894-1.569-1.312c-0.048-0.037-0.096-0.072-0.144-0.109c-0.525-0.401-1.067-0.783-1.619-1.148
		c-0.197-0.13-0.399-0.251-0.599-0.376c-0.407-0.255-0.819-0.502-1.239-0.737c-0.226-0.127-0.454-0.25-0.684-0.371
		c-0.43-0.226-0.866-0.438-1.308-0.642c-0.212-0.098-0.422-0.201-0.637-0.294c-0.645-0.279-1.299-0.541-1.967-0.774
		c-0.027-0.01-0.055-0.018-0.083-0.028c-0.661-0.228-1.334-0.427-2.015-0.607c-0.224-0.059-0.451-0.108-0.676-0.162
		c-0.492-0.118-0.988-0.225-1.489-0.317c-0.255-0.047-0.51-0.09-0.767-0.13c-0.509-0.079-1.022-0.142-1.54-0.195
		c-0.233-0.024-0.464-0.053-0.698-0.071C30.514,0.037,29.761,0,29,0c-0.75,0-1.49,0.038-2.226,0.094
		c-0.217,0.017-0.432,0.04-0.648,0.062c-0.542,0.053-1.079,0.121-1.612,0.204c-0.211,0.033-0.422,0.063-0.631,0.1
		c-1.428,0.254-2.818,0.613-4.165,1.068c-0.192,0.065-0.38,0.135-0.57,0.204C18.642,1.914,18.143,2.11,17.65,2.32
		c-0.179,0.076-0.358,0.15-0.535,0.229c-1.298,0.584-2.544,1.261-3.732,2.022c-0.147,0.094-0.29,0.193-0.435,0.289
		c-0.468,0.312-0.926,0.636-1.374,0.974c-0.131,0.099-0.263,0.195-0.392,0.296c-1.128,0.88-2.189,1.842-3.174,2.877
		C7.914,9.107,7.823,9.209,7.73,9.309c-0.413,0.446-0.811,0.904-1.196,1.375c-0.079,0.097-0.16,0.192-0.238,0.29
		C5.846,11.541,5.408,12.119,5,12.719v0.01c-1.737,2.56-3.077,5.411-3.929,8.466c0.803,0.935,1.979,1.539,3.308,1.539H5h1.207
		h22.205h1.176h22.205h1.827H54v-0.043C55.169,22.587,56.205,22.038,56.929,21.195z"/>
	<g>
		<path style="fill:#E7ECED;" d="M16.251,9.734c6.849,0,8.564,0.327,10.359,7.191c1.308,5.002,1.602,15.535,1.64,20.809
			c0.029,4.041-4.829,3.756-8.749,4.113c-2.354,0.214-3.605,0.189-5.947,0.014c-4.095-0.306-9.415-0.435-9.302-4.127
			c0.169-5.522,1.372-16.699,2.64-22.018C8.134,10.5,12.328,9.734,16.251,9.734z"/>
	</g>
	<g>
		<path style="fill:#E7ECED;" d="M41.81,9.734c-6.849,0-8.564,0.327-10.359,7.191c-1.308,5.002-1.602,15.535-1.64,20.809
			c-0.029,4.041,4.829,3.756,8.749,4.113c2.354,0.214,3.605,0.189,5.947,0.014c4.095-0.306,9.415-0.435,9.302-4.127
			c-0.169-5.522-1.372-16.699-2.64-22.018C49.927,10.5,45.733,9.734,41.81,9.734z"/>
	</g>
	<path style="fill:#F0F6F7;" d="M25.292,38.491c-0.288,0.031-0.576,0.053-0.865,0.081c-0.122-6.423-0.549-13.688-1.446-17.115
		c-0.586-2.243-0.99-2.984-1.141-3.204C21.088,18,18.564,18,17.461,18c-3.985,0-4.21,0.944-4.496,2.141
		c-0.988,4.148-2.004,12.66-2.376,18.415c-0.545-0.054-1.09-0.109-1.635-0.175c-1.279-0.155-1.264,1.847,0,2
		c5.453,0.66,10.877,0.696,16.339,0.11C26.56,40.355,26.574,38.353,25.292,38.491z"/>
	<path style="fill:#F0F6F7;" d="M45.954,20.141C45.669,18.944,45.444,18,41.459,18c-1.104,0-3.627,0-4.38,0.252
		c-0.151,0.22-0.555,0.961-1.141,3.204c-0.876,3.351-1.304,10.368-1.436,16.682c-0.431-0.002-0.861-0.004-1.292-0.006
		c-1.29-0.006-1.289,1.994,0,2c1.924,0.01,3.849,0.019,5.773,0.029c0.853,0.072,1.522,0.105,2.164,0.105c0,0,0,0,0,0
		c0.692,0,1.431-0.035,2.636-0.125l0.807-0.058c1.023-0.073,2.687-0.19,3.808-0.404C48.095,33.967,47.009,24.568,45.954,20.141z"/>
	<path style="fill:#FFFFFF;" d="M19.819,40.725c1.865,0.339,3.901,0.465,5.727-0.142c1.338-0.445,2.259-1.856,1.752-3.235
		c-0.441-1.2-2.374-0.682-1.929,0.532c0.569,1.55-4.315,1.044-5.019,0.917C19.09,38.567,18.551,40.495,19.819,40.725L19.819,40.725z
		"/>
	<path style="fill:#FFFFFF;" d="M50.542,36.466c-2.465,3.96-8.467,2.013-12.348,2.57c-1.273,0.183-0.729,2.109,0.532,1.929
		c4.742-0.68,10.487,1.421,13.543-3.489C52.952,36.377,51.221,35.374,50.542,36.466L50.542,36.466z"/>
</g>
<g>
</g>
<g>
</g>
<g>
</g>
<g>
</g>
<g>
</g>
<g>
</g>
<g>
</g>
<g>
</g>
<g>
</g>
<g>
</g>
<g>
</g>
<g>
</g>
<g>
</g>
<g>
</g>
<g>
</g>
</svg>
