<?xml version="1.0" encoding="iso-8859-1"?>
<!-- Generator: Adobe Illustrator 18.0.0, SVG Export Plug-In . SVG Version: 6.00 Build 0)  -->
<!DOCTYPE svg PUBLIC "-//W3C//DTD SVG 1.1//EN" "http://www.w3.org/Graphics/SVG/1.1/DTD/svg11.dtd">
<svg version="1.1" id="Capa_1" xmlns="http://www.w3.org/2000/svg" xmlns:xlink="http://www.w3.org/1999/xlink" x="0px" y="0px"
	 viewBox="0 0 56.611 56.611" style="enable-background:new 0 0 56.611 56.611;" xml:space="preserve">
<g>
	<path style="fill:#E6E2E3;" d="M45.063,55.67L14.808,25.414l10.607-10.607L55.67,45.063c1.255,1.255,1.255,3.289,0,4.543
		l-6.063,6.063C48.352,56.924,46.318,56.924,45.063,55.67z"/>
	<path style="fill:#839098;" d="M35.05,39.999l-7.957-7.957c-0.536-0.536-0.513-1.43,0.053-1.995l2.902-2.902
		c0.565-0.565,1.459-0.589,1.995-0.053l7.957,7.957c0.536,0.536,0.513,1.43-0.053,1.995l-2.902,2.902
		C36.479,40.512,35.586,40.536,35.05,39.999z"/>
	<path style="fill:#3E465B;" d="M40.617,45.567L40.617,45.567c-0.583-0.583-0.583-1.538,0-2.121l2.828-2.828
		c0.583-0.583,1.538-0.583,2.121,0h0c0.583,0.583,0.583,1.538,0,2.121l-2.828,2.828C42.155,46.15,41.201,46.15,40.617,45.567z"/>
	<path style="fill:#97C3F4;" d="M55.67,45.063l-1.971-1.971L43.092,53.699l1.971,1.971c1.255,1.255,3.289,1.255,4.543,0l6.063-6.063
		C56.924,48.352,56.924,46.318,55.67,45.063z"/>
	<path style="fill:#97C3F4;" d="M17.134,12.141c-0.451-0.145-0.944-0.114-1.413,0.044L4.268,0.732c-0.976-0.976-2.559-0.976-3.536,0
		c-0.976,0.976-0.976,2.559,0,3.536l11.453,11.453c-0.159,0.469-0.189,0.962-0.044,1.413l2.667,8.281l10.607-10.607L17.134,12.141z"
		/>
	
		<rect x="3.975" y="2.475" transform="matrix(0.7071 0.7071 -0.7071 0.7071 4.9749 -2.0605)" style="fill:#C6E2F7;" width="2" height="5"/>
</g>
<g>
</g>
<g>
</g>
<g>
</g>
<g>
</g>
<g>
</g>
<g>
</g>
<g>
</g>
<g>
</g>
<g>
</g>
<g>
</g>
<g>
</g>
<g>
</g>
<g>
</g>
<g>
</g>
<g>
</g>
</svg>
