<?xml version="1.0" encoding="iso-8859-1"?>
<!-- Generator: Adobe Illustrator 18.0.0, SVG Export Plug-In . SVG Version: 6.00 Build 0)  -->
<!DOCTYPE svg PUBLIC "-//W3C//DTD SVG 1.1//EN" "http://www.w3.org/Graphics/SVG/1.1/DTD/svg11.dtd">
<svg version="1.1" id="Capa_1" xmlns="http://www.w3.org/2000/svg" xmlns:xlink="http://www.w3.org/1999/xlink" x="0px" y="0px"
	 viewBox="0 0 56.687 56.687" style="enable-background:new 0 0 56.687 56.687;" xml:space="preserve">
<g>
	<path style="fill:#A1C8EC;" d="M55.647,50.623l-5.644-5.644c-0.697-0.697-0.697-1.827,0-2.524c0.697-0.697,0.697-1.827,0-2.524
		l-3.487-3.487l0,0l-2.523,2.523c-0.195,0.195-0.451,0.293-0.707,0.293s-0.512-0.098-0.707-0.293c-0.391-0.391-0.391-1.023,0-1.414
		l2.523-2.523l0,0l-4.475-4.475l0,0l-2.524,2.523c-0.195,0.195-0.451,0.293-0.707,0.293s-0.512-0.098-0.707-0.293
		c-0.391-0.391-0.391-1.023,0-1.414l2.524-2.523l0,0l-5.316-5.316l-2.524,2.524c-0.195,0.195-0.451,0.293-0.707,0.293
		s-0.512-0.098-0.707-0.293c-0.391-0.391-0.391-1.023,0-1.414l2.524-2.524l-5.316-5.316l0,0l-2.524,2.523
		c-0.195,0.195-0.451,0.293-0.707,0.293s-0.512-0.098-0.707-0.293c-0.391-0.391-0.391-1.023,0-1.414l2.524-2.523l0,0l-5.316-5.316
		l-2.524,2.523c-0.195,0.195-0.451,0.293-0.707,0.293s-0.512-0.098-0.707-0.293c-0.391-0.391-0.391-1.023,0-1.414l2.524-2.523
		L11.281,1.21c-1.613-1.613-4.228-1.613-5.841,0L1.21,5.44c-1.613,1.613-1.613,4.228,0,5.841l7.742,7.742l2.499-2.5
		c0.39-0.391,1.023-0.391,1.414,0s0.391,1.023,0,1.414l-2.499,2.5l5.316,5.316l2.5-2.5c0.391-0.391,1.023-0.391,1.414,0
		s0.391,1.023,0,1.414l-2.5,2.5l5.316,5.316l2.5-2.5c0.391-0.391,1.023-0.391,1.414,0s0.391,1.023,0,1.414l-2.5,2.5l5.316,5.316
		l2.5-2.5c0.391-0.391,1.023-0.391,1.414,0s0.391,1.023,0,1.414l-2.5,2.5l4.475,4.475l2.5-2.5c0.391-0.391,1.023-0.391,1.414,0
		s0.391,1.023,0,1.414l-2.5,2.5l3.487,3.487c0.697,0.697,1.827,0.697,2.524,0c0.697-0.697,1.827-0.697,2.524,0l5.644,5.644
		c1.387,1.387,3.636,1.387,5.024,0v0C57.034,54.26,57.034,52.01,55.647,50.623z"/>
	<path style="fill:#E7ECED;" d="M36.689,31.666c-0.391,0.391-0.391,1.023,0,1.414c0.195,0.195,0.451,0.293,0.707,0.293
		s0.512-0.098,0.707-0.293l2.524-2.523l0,0l-1.414-1.414l0,0L36.689,31.666z"/>
	<path style="fill:#E7ECED;" d="M29.959,26.35c0.195,0.195,0.451,0.293,0.707,0.293s0.512-0.098,0.707-0.293l2.524-2.524
		l-1.414-1.414l-2.524,2.524C29.569,25.327,29.569,25.96,29.959,26.35z"/>
	<path style="fill:#E7ECED;" d="M23.229,18.206c-0.391,0.391-0.391,1.023,0,1.414c0.195,0.195,0.451,0.293,0.707,0.293
		s0.512-0.098,0.707-0.293l2.524-2.523l0,0l-1.414-1.414l0,0L23.229,18.206z"/>
	<path style="fill:#E7ECED;" d="M16.499,12.889c0.195,0.195,0.451,0.293,0.707,0.293s0.512-0.098,0.707-0.293l2.524-2.523
		l-1.414-1.414l-2.524,2.523C16.109,11.866,16.109,12.499,16.499,12.889z"/>
	<path style="fill:#E7ECED;" d="M33.056,36.713c-0.391-0.391-1.023-0.391-1.414,0l-2.5,2.5l1.414,1.414l2.5-2.5
		C33.447,37.737,33.447,37.104,33.056,36.713z"/>
	<path style="fill:#E7ECED;" d="M26.326,29.983c-0.391-0.391-1.023-0.391-1.414,0l-2.5,2.5l1.414,1.414l2.5-2.5
		C26.717,31.006,26.717,30.374,26.326,29.983z"/>
	<path style="fill:#E7ECED;" d="M42.579,37.554c-0.391,0.391-0.391,1.023,0,1.414c0.195,0.195,0.451,0.293,0.707,0.293
		s0.512-0.098,0.707-0.293l2.523-2.523l0,0l-1.414-1.414l0,0L42.579,37.554z"/>
	<path style="fill:#E7ECED;" d="M38.945,42.602c-0.391-0.391-1.023-0.391-1.414,0l-2.5,2.5l1.414,1.414l2.5-2.5
		C39.335,43.626,39.335,42.993,38.945,42.602z"/>
	<path style="fill:#E7ECED;" d="M19.596,23.253c-0.391-0.391-1.023-0.391-1.414,0l-2.5,2.5l1.414,1.414l2.5-2.5
		C19.987,24.277,19.987,23.644,19.596,23.253z"/>
	<path style="fill:#E7ECED;" d="M12.866,16.523c-0.391-0.391-1.024-0.391-1.414,0l-2.499,2.5l1.414,1.414l2.499-2.5
		C13.256,17.546,13.256,16.914,12.866,16.523z"/>
	<path style="fill:#7383BF;" d="M5.837,4.861c0.256,0,0.512,0.098,0.707,0.293L27.431,26.04c0.391,0.391,0.391,1.023,0,1.414
		s-1.023,0.391-1.414,0L5.13,6.568c-0.391-0.391-0.391-1.023,0-1.414C5.325,4.959,5.581,4.861,5.837,4.861z"/>
	<path style="fill:#DD352E;" d="M34.007,32.617L34.007,32.617l-10.33-10.33c-0.195-0.195-0.451-0.293-0.707-0.293
		s-0.512,0.098-0.707,0.293c-0.39,0.39-0.391,1.023,0,1.413L32.563,34c-0.39-0.391-0.39-1.023,0.001-1.413
		c0.195-0.195,0.451-0.293,0.707-0.293s0.512,0.098,0.707,0.293L34.007,32.617z"/>
	<path style="fill:#3E465B;" d="M32.87,31.894c-0.256,0-0.512,0.098-0.707,0.293c-0.39,0.39-0.39,1.022-0.001,1.413l8.3,8.3
		c0.391,0.391,1.023,0.391,1.414,0c0.39-0.39,0.39-1.022,0.001-1.413l-8.3-8.3C33.382,31.992,33.126,31.894,32.87,31.894z"/>
	<path style="fill:#7383BF;" d="M55.647,50.623l-3.117-3.117l-5.024,5.024l3.117,3.117c1.387,1.387,3.636,1.387,5.024,0v0
		C57.034,54.26,57.034,52.01,55.647,50.623z"/>
	<path style="fill:#CADAEA;" d="M48.344,51.692l4.978,4.978c0.819-0.043,1.624-0.362,2.26-0.97l-5.623-5.623L48.344,51.692z"/>
</g>
<g>
</g>
<g>
</g>
<g>
</g>
<g>
</g>
<g>
</g>
<g>
</g>
<g>
</g>
<g>
</g>
<g>
</g>
<g>
</g>
<g>
</g>
<g>
</g>
<g>
</g>
<g>
</g>
<g>
</g>
</svg>
