<?xml version="1.0" encoding="iso-8859-1"?>
<!-- Generator: Adobe Illustrator 18.0.0, SVG Export Plug-In . SVG Version: 6.00 Build 0)  -->
<!DOCTYPE svg PUBLIC "-//W3C//DTD SVG 1.1//EN" "http://www.w3.org/Graphics/SVG/1.1/DTD/svg11.dtd">
<svg version="1.1" id="Capa_1" xmlns="http://www.w3.org/2000/svg" xmlns:xlink="http://www.w3.org/1999/xlink" x="0px" y="0px"
	 viewBox="0 0 58 58" style="enable-background:new 0 0 58 58;" xml:space="preserve">
<g>
	<g>
		<path style="fill:#DC691D;" d="M39.024,1.8l1.026,4.345c0.215,2.58,2.64,4.389,5.174,3.861l4.761-0.992
			C46.958,5.837,43.222,3.348,39.024,1.8z"/>
		<path style="fill:#DC691D;" d="M58,29c0-2.284-0.272-4.504-0.772-6.635c-4.16,1.193-8.135,3.427-8.737,7.637
			c-0.496,3.475-1.576,14.637-2.404,22.408C53.303,47.135,58,38.622,58,29z"/>
		<path style="fill:#DC691D;" d="M8.013,9.014l4.763,0.992c2.534,0.528,4.959-1.281,5.174-3.861c0,0,0.323-1.814,0.758-4.259
			C14.615,3.441,10.976,5.902,8.013,9.014z"/>
		<path style="fill:#DC691D;" d="M0.772,22.365C0.272,24.496,0,26.716,0,29c0,9.622,4.697,18.135,11.912,23.409
			c-0.828-7.771-1.907-18.933-2.404-22.408C8.907,25.792,4.932,23.558,0.772,22.365z"/>
	</g>
	<path style="fill:#FBCE9D;" d="M57.228,22.365C56.033,17.262,53.493,12.681,50,9.011l-4.776,0.995
		c-2.534,0.528-4.959-1.281-5.174-3.861l-1.031-4.367C35.896,0.629,32.521,0,29,0c-3.626,0-7.093,0.671-10.292,1.886
		c-0.435,2.445-0.758,4.259-0.758,4.259c-0.215,2.58-2.64,4.389-5.174,3.861L8,9.011c-3.494,3.669-6.034,8.251-7.229,13.353
		c4.16,1.193,8.135,3.427,8.737,7.637c0.497,3.478,1.577,14.655,2.406,22.426C16.707,55.929,22.61,58,29,58
		s12.293-2.071,17.086-5.573c0.828-7.771,1.909-18.948,2.406-22.426C49.093,25.792,53.068,23.558,57.228,22.365z"/>
	<circle style="fill:#F7B563;" cx="18" cy="32" r="1"/>
	<circle style="fill:#F7B563;" cx="41" cy="32" r="1"/>
	<path style="fill:#F7B563;" d="M24,15.02c-0.256,0-0.512-0.098-0.707-0.293c-1.263-1.262-3.02-1.838-5.235-1.709
		c-0.554,0.025-1.024-0.389-1.057-0.94c-0.032-0.551,0.389-1.023,0.94-1.056c2.805-0.171,5.082,0.607,6.765,2.291
		c0.391,0.391,0.391,1.023,0,1.414C24.512,14.922,24.256,15.02,24,15.02z"/>
	<path style="fill:#F7B563;" d="M13.829,29.825c-0.552,0-1-0.447-1-1c0-1.785-0.839-3.437-2.493-4.909
		c-0.413-0.367-0.45-0.999-0.083-1.412c0.367-0.411,0.999-0.45,1.412-0.082c2.1,1.868,3.164,4.022,3.164,6.403
		C14.829,29.378,14.381,29.825,13.829,29.825z"/>
	<path style="fill:#F7B563;" d="M45.019,29.99c-0.526,0-0.966-0.41-0.998-0.942c-0.163-2.806,0.608-5.082,2.291-6.765
		c0.391-0.391,1.023-0.391,1.414,0s0.391,1.023,0,1.414c-1.262,1.262-1.837,3.023-1.708,5.235c0.032,0.551-0.389,1.023-0.94,1.056
		C45.058,29.989,45.038,29.99,45.019,29.99z"/>
	<path style="fill:#F7B563;" d="M33.472,15.02c-0.256,0-0.512-0.098-0.707-0.293c-0.391-0.391-0.391-1.023,0-1.414
		c1.606-1.607,4.334-2.467,7.293-2.291c0.551,0.032,0.972,0.505,0.94,1.056c-0.032,0.552-0.495,0.963-1.057,0.94
		c-2.401-0.142-4.554,0.499-5.763,1.709C33.984,14.922,33.728,15.02,33.472,15.02z"/>
	<path style="fill:#F7B563;" d="M29,31c-0.552,0-1-0.447-1-1v-2c0-0.553,0.448-1,1-1s1,0.447,1,1v2C30,30.553,29.552,31,29,31z"/>
	<path style="fill:#F7B563;" d="M41,51c-4.262,0-8-3.756-8-8.038c0-0.553,0.448-1,1-1s1,0.447,1,1C35,46.179,37.804,49,41,49
		c0.552,0,1,0.447,1,1S41.552,51,41,51z"/>
	<path style="fill:#F7B563;" d="M17,51c-0.552,0-1-0.447-1-1s0.448-1,1-1c3.196,0,6-2.821,6-6.038c0-0.553,0.448-1,1-1s1,0.447,1,1
		C25,47.244,21.262,51,17,51z"/>
	<path style="fill:#F7B563;" d="M22,10c-0.552,0-1-0.447-1-1V7c0-0.553,0.448-1,1-1s1,0.447,1,1v2C23,9.553,22.552,10,22,10z"/>
	<path style="fill:#F7B563;" d="M36,10c-0.552,0-1-0.447-1-1V7c0-0.553,0.448-1,1-1s1,0.447,1,1v2C37,9.553,36.552,10,36,10z"/>
</g>
<g>
</g>
<g>
</g>
<g>
</g>
<g>
</g>
<g>
</g>
<g>
</g>
<g>
</g>
<g>
</g>
<g>
</g>
<g>
</g>
<g>
</g>
<g>
</g>
<g>
</g>
<g>
</g>
<g>
</g>
</svg>
