<?xml version="1.0" encoding="iso-8859-1"?>
<!-- Generator: Adobe Illustrator 18.0.0, SVG Export Plug-In . SVG Version: 6.00 Build 0)  -->
<!DOCTYPE svg PUBLIC "-//W3C//DTD SVG 1.1//EN" "http://www.w3.org/Graphics/SVG/1.1/DTD/svg11.dtd">
<svg version="1.1" id="Capa_1" xmlns="http://www.w3.org/2000/svg" xmlns:xlink="http://www.w3.org/1999/xlink" x="0px" y="0px"
	 viewBox="0 0 54.594 54.594" style="enable-background:new 0 0 54.594 54.594;" xml:space="preserve">
<g>
	<path style="fill:#ECE3D2;" d="M51.08,9.909c2.533,9.574-1.084,20.991-3.195,30.411c-0.918,4.094-1.685,8.286-3.791,11.976
		c-3.333,5.841-5.989-1.786-7.036-5.012c-1.287-3.965-1.706-9.087-5.667-11.446c-3.946-2.35-7.607,0.052-9.893,3.396
		c-2.316,3.388-3.194,7.325-4.663,11.093c-0.679,1.743-1.428,3.486-3.271,4.266c-1.956,0-3.314-3.573-4.032-5.308
		c-3.92-9.466-5.125-20.193-6.639-30.255c-1.065-7.079,1.23-15.493,8.584-18.099c3.996-1.416,9.469-0.11,13.47,1.069
		c2.299,0.678,1.875,0.457,4.165-0.338c0.176-0.061,0.349-0.143,0.529-0.218c4.901-2.027,10.809-2.043,15.122,0.731
		C47.674,4.048,50.238,6.726,51.08,9.909z"/>
	<path style="fill:#F7EDDF;" d="M46.947,4.996c-0.582-0.476-1.188-0.925-1.817-1.329C40.816,0.893,34.909,0.91,30.008,2.937
		c-0.18,0.074-0.352,0.157-0.529,0.218c-2.29,0.794-1.867,1.015-4.165,0.338c-4-1.179-9.474-2.485-13.47-1.069
		c-1.472,0.522-2.733,1.284-3.813,2.214C12.393,9.091,19.561,12,27.675,12C35.567,12,42.557,9.244,46.947,4.996z"/>
	<path style="fill:#FFFFFF;" d="M7.837,19.287c-0.486,0-0.913-0.355-0.987-0.852C6.05,13.122,7.575,6.558,12.814,4.702
		c0.519-0.186,1.092,0.087,1.276,0.608c0.185,0.521-0.088,1.092-0.608,1.276c-4.17,1.478-5.336,7.023-4.655,11.552
		c0.082,0.546-0.294,1.055-0.84,1.138C7.936,19.283,7.886,19.287,7.837,19.287z"/>
	<path style="fill:#DDD3C3;" d="M31.391,35.839c-3.946-2.35-7.607,0.052-9.893,3.395c-0.373,0.545-0.698,1.109-1.005,1.679
		c0.09,0.215,0.177,0.423,0.276,0.658c1.122,2.655,4.21,8.478,7.935,7.373c1.884-0.559,2.876-2.698,3.661-4.311
		c0.61-1.253,1.773-3.18,2.347-4.882C33.98,38.175,32.975,36.782,31.391,35.839z"/>
	<path style="fill:#FFFFFF;" d="M46.947,10h-1.586l-2.414-2.414V6c0-0.553-0.448-1-1-1s-1,0.447-1,1v1.586L38.533,10h-1.586
		c-0.552,0-1,0.447-1,1s0.448,1,1,1h1.586l2.414,2.414V16c0,0.553,0.448,1,1,1s1-0.447,1-1v-1.586L45.361,12h1.586
		c0.552,0,1-0.447,1-1S47.499,10,46.947,10z"/>
	<path style="fill:#FFFFFF;" d="M19.947,28h-1.586l-2.414-2.414V24c0-0.553-0.448-1-1-1s-1,0.447-1,1v1.586L11.533,28H9.947
		c-0.552,0-1,0.447-1,1s0.448,1,1,1h1.586l2.414,2.414V34c0,0.553,0.448,1,1,1s1-0.447,1-1v-1.586L18.361,30h1.586
		c0.552,0,1-0.447,1-1S20.499,28,19.947,28z"/>
	<path style="fill:#FFF6EB;" d="M32.95,14.689c0.023-6.103,0.014-8.762-5.582-12.384C26.747,2.493,26.363,2.418,24.947,2
		c-1.481-0.437-3.163-0.889-4.898-1.216l4.406,2.086c6.526,3.691,6.521,5.25,6.496,11.812L30.947,16c0,0.553,0.448,1,1,1
		s1-0.447,1-1L32.95,14.689z"/>
</g>
<g>
</g>
<g>
</g>
<g>
</g>
<g>
</g>
<g>
</g>
<g>
</g>
<g>
</g>
<g>
</g>
<g>
</g>
<g>
</g>
<g>
</g>
<g>
</g>
<g>
</g>
<g>
</g>
<g>
</g>
</svg>
