<?xml version="1.0" encoding="iso-8859-1"?>
<!-- Generator: Adobe Illustrator 18.0.0, SVG Export Plug-In . SVG Version: 6.00 Build 0)  -->
<!DOCTYPE svg PUBLIC "-//W3C//DTD SVG 1.1//EN" "http://www.w3.org/Graphics/SVG/1.1/DTD/svg11.dtd">
<svg version="1.1" id="Capa_1" xmlns="http://www.w3.org/2000/svg" xmlns:xlink="http://www.w3.org/1999/xlink" x="0px" y="0px"
	 viewBox="0 0 54.83 54.83" style="enable-background:new 0 0 54.83 54.83;" xml:space="preserve">
<g>
	<path style="fill:#C6BDAF;" d="M31.509,36.075c-3.946-2.35-7.607,0.052-9.893,3.395c-0.373,0.545-0.698,1.109-1.005,1.679
		c0.09,0.215,0.177,0.423,0.276,0.658c1.122,2.655,4.21,8.478,7.935,7.373c1.884-0.559,2.876-2.698,3.661-4.311
		c0.61-1.253,1.773-3.18,2.347-4.882C34.098,38.412,33.093,37.018,31.509,36.075z"/>
	<path style="fill:#DDD3C3;" d="M44.881,2.412C40.568-0.362,34.66-0.748,29.759,1.279c-0.18,0.074-0.352,0.157-0.529,0.218
		c-0.932,0.323-1.414,0.55-1.813,0.661l-3.908,6.079l6,5l-6,7l6,5l-6,6l3.969,3.969c1.276-0.189,2.635,0.038,4.031,0.87
		c3.961,2.359,4.38,7.481,5.667,11.446c1.047,3.226,3.703,10.852,7.036,5.012c2.106-3.691,2.873-7.882,3.791-11.976
		c2.111-9.421,5.728-20.837,3.195-30.411C50.356,6.962,47.793,4.284,44.881,2.412z"/>
	<g>
		<path style="fill:#ECE3D2;" d="M27.478,35.206l-3.969-3.969l6-6l-6-5l6-7l-6-5l3.908-6.079c-0.582,0.162-0.989,0.078-2.352-0.323
			c-4-1.179-9.474-2.082-13.47-0.666c-7.354,2.605-9.649,11.02-8.584,18.099c1.514,10.062,2.719,20.789,6.639,30.255
			c0.719,1.735,2.076,5.308,4.032,5.308c1.843-0.78,2.592-2.524,3.271-4.266c1.469-3.768,2.346-7.705,4.663-11.094
			C23.094,37.31,25.147,35.551,27.478,35.206L27.478,35.206z"/>
	</g>
	<path style="fill:#FFFFFF;" d="M7.955,19.523c-0.486,0-0.913-0.355-0.987-0.852C6.168,13.358,7.694,6.795,12.932,4.938
		c0.52-0.186,1.092,0.087,1.276,0.608c0.185,0.521-0.088,1.092-0.608,1.276C9.43,8.3,8.264,13.846,8.945,18.375
		c0.082,0.546-0.294,1.055-0.84,1.138C8.055,19.519,8.005,19.523,7.955,19.523z"/>
</g>
<g>
</g>
<g>
</g>
<g>
</g>
<g>
</g>
<g>
</g>
<g>
</g>
<g>
</g>
<g>
</g>
<g>
</g>
<g>
</g>
<g>
</g>
<g>
</g>
<g>
</g>
<g>
</g>
<g>
</g>
</svg>
