<?xml version="1.0" encoding="iso-8859-1"?>
<!-- Generator: Adobe Illustrator 18.0.0, SVG Export Plug-In . SVG Version: 6.00 Build 0)  -->
<!DOCTYPE svg PUBLIC "-//W3C//DTD SVG 1.1//EN" "http://www.w3.org/Graphics/SVG/1.1/DTD/svg11.dtd">
<svg version="1.1" id="Capa_1" xmlns="http://www.w3.org/2000/svg" xmlns:xlink="http://www.w3.org/1999/xlink" x="0px" y="0px"
	 viewBox="0 0 58 58" style="enable-background:new 0 0 58 58;" xml:space="preserve">
<g>
	<g>
		<path style="fill:#E7ECED;" d="M25.312,7.324c1.438,0,2.967,0.2,4.811,0.629c0.274,0.064,0.556,0.096,0.835,0.096
			c1.683,0,3.142-1.142,3.551-2.786c0.239-0.964,0.086-1.961-0.433-2.808c-0.512-0.837-1.318-1.419-2.269-1.64
			C29.41,0.259,27.348,0,25.318,0c-4.739,0-9.03,1.437-13.116,4.393c-0.85,0.615-1.402,1.564-1.514,2.605
			c-0.111,1.029,0.221,2.061,0.91,2.831c0.701,0.783,1.703,1.232,2.748,1.232c0.759,0,1.48-0.234,2.087-0.677
			C19.251,8.325,22.155,7.324,25.312,7.324z"/>
		<path style="fill:#E7ECED;" d="M40.312,18.299l-1.292-1.81l-0.497,2.167c-0.362,1.581-1.464,2.914-2.947,3.567l-0.96,0.423
			l0.469,0.939c2.113,4.226,4.669,14.851,4.918,30.888C40.034,56.418,41.646,58,43.596,58h0.14c0.976,0,1.889-0.382,2.572-1.077
			c0.678-0.691,1.042-1.604,1.025-2.572C47.22,48.044,46.382,26.806,40.312,18.299z"/>
		<path style="fill:#E7ECED;" d="M30.142,18.656l-0.173-0.754c1.331-0.91,2.659-1.958,3.959-3.138
			c0.73-0.663,1.157-1.611,1.172-2.603c0.015-1-0.389-1.971-1.108-2.664l-0.087-0.083c-1.319-1.272-3.563-1.292-4.935-0.055
			c-4.38,3.953-8.549,5.603-10.441,5.336c-1.087-0.155-2.149,0.17-2.847,0.894l-0.24,0.25c-0.955,0.991-1.264,2.419-0.807,3.727
			c0.443,1.271,1.538,2.168,2.856,2.344C17.936,21.97,18.403,22,18.877,22c2.686,0,5.725-0.947,8.817-2.685
			c-5.47,9.069-6.253,28.966-6.361,35.036c-0.017,0.968,0.347,1.882,1.025,2.572C23.042,57.618,23.955,58,24.93,58h0.14
			c1.951,0,3.563-1.582,3.593-3.526c0.25-16.039,2.805-26.663,4.918-30.888l0.47-0.939l-0.961-0.423
			C31.607,21.57,30.505,20.237,30.142,18.656z"/>
	</g>
	<path style="fill:#AFB6BB;" d="M32.196,0.492l-0.909-0.26c-0.428-0.122-0.888,0.054-1.123,0.432
		c-0.236,0.378-0.193,0.867,0.105,1.199c0.087,0.097,0.167,0.213,0.237,0.348c0.135,0.26,0.378,0.448,0.664,0.513l0.185,0.041
		c0.425,0.099,0.786,0.36,1.016,0.736c0.236,0.386,0.306,0.841,0.194,1.289c-0.172,0.695-0.775,1.195-1.5,1.244
		c-0.293,0.02-0.562,0.167-0.737,0.403c-0.174,0.236-0.236,0.537-0.169,0.823c0.163,0.696,0.292,1.461,0.382,2.274
		c0.054,0.49,0.458,0.867,0.95,0.888c0.193,0.008,0.375,0.048,0.495,0.096c0.021,0.012,0.089,0.047,0.11,0.057
		c0.063,0.03,0.128,0.057,0.188,0.096c0.082,0.053,0.16,0.114,0.233,0.185l0.087,0.083c0.242,0.233,0.403,0.532,0.466,0.862
		c0.061,0.319,0.023,0.656-0.104,0.95c-0.088,0.203-0.217,0.382-0.383,0.533c-2.577,2.337-3.701,4.649-3.34,6.869
		c0.292,1.804,1.512,3.059,2.617,3.688c0.1,0.175,0.247,0.362,0.457,0.558c0.185,0.173,0.429,0.269,0.682,0.269
		c4.084,0,7.667-3.349,7.667-7.167v-5.777C40.666,6.536,37.183,1.917,32.196,0.492z"/>
</g>
<g>
</g>
<g>
</g>
<g>
</g>
<g>
</g>
<g>
</g>
<g>
</g>
<g>
</g>
<g>
</g>
<g>
</g>
<g>
</g>
<g>
</g>
<g>
</g>
<g>
</g>
<g>
</g>
<g>
</g>
</svg>
