<?xml version="1.0" encoding="iso-8859-1"?>
<!-- Generator: Adobe Illustrator 18.0.0, SVG Export Plug-In . SVG Version: 6.00 Build 0)  -->
<!DOCTYPE svg PUBLIC "-//W3C//DTD SVG 1.1//EN" "http://www.w3.org/Graphics/SVG/1.1/DTD/svg11.dtd">
<svg version="1.1" id="Capa_1" xmlns="http://www.w3.org/2000/svg" xmlns:xlink="http://www.w3.org/1999/xlink" x="0px" y="0px"
	 viewBox="0 0 58 58" style="enable-background:new 0 0 58 58;" xml:space="preserve">
<g>
	<path style="fill:#ED9893;" d="M4.947,19.031C4.896,18.691,4.859,18.345,4.824,18H3.769C1.687,18,0,19.687,0,21.769v32.462
		C0,56.313,1.687,58,3.769,58h50.462C56.313,58,58,56.313,58,54.231V21.769C58,19.687,56.313,18,54.231,18H53.98"/>
	<g>
		<path style="fill:#E7ECED;" d="M53.133,9.909c-0.842-3.183-3.406-5.861-6.317-7.733c-4.314-2.774-10.221-2.758-15.122-0.731
			c-0.18,0.074-0.352,0.157-0.529,0.218C28.875,2.457,29.299,2.678,27,2c-4-1.179-9.474-2.485-13.47-1.069
			c-7.354,2.605-9.649,11.02-8.584,18.099c1.514,10.062,2.719,20.789,6.639,30.255c0.666,1.607,1.881,4.786,3.61,5.247
			c-2.267-6.844-3.383-14.395-4.452-21.741c-0.184-1.263-0.366-2.518-0.554-3.763c-0.74-4.92,0.605-10.975,5.309-12.642
			c0.618-0.219,1.423-0.33,2.393-0.33c2.658,0,5.835,0.846,7.994,1.481c1.205,0.355,2.143,0.607,3.234,0.607
			c1.325,0,2.294-0.377,3.074-0.679c0.237-0.093,0.528-0.206,0.908-0.338c0.239-0.083,0.467-0.177,0.697-0.276l0.098-0.042
			C35.59,16.11,37.416,16,39.184,16c2.015,0,3.822,0.22,5.228,1.123C46.645,18.56,47.572,21.383,48,23
			c1.351,5.108-1.553,16.452-3,22.464c-0.371,1.539-0.673,3.046-1,4.505l-0.479,2.41c-0.096,0.484-0.298,0.941-0.594,1.336
			c-0.096,0.129-0.212,0.164-0.338,0.141c0.002,0.046,0.005,0.092,0.006,0.138c0,0.01,0.001,0.021,0.001,0.031
			c1.042,0.776,2.244,0.563,3.551-1.727c2.106-3.691,2.873-7.882,3.791-11.976C52.049,30.899,55.666,19.483,53.133,9.909z"/>
	</g>
	<g>
		<path style="fill:#E0D7B1;" d="M48,23c-0.428-1.617-1.355-4.44-3.589-5.877C43.006,16.22,41.199,16,39.184,16
			c-1.768,0-3.594,0.11-5.286,0.811L33.8,16.853c-0.23,0.1-0.458,0.193-0.697,0.276c-0.38,0.132-0.671,0.245-0.908,0.338
			c-0.779,0.302-1.749,0.679-3.074,0.679c-1.092,0-2.03-0.252-3.234-0.607c-2.159-0.636-5.336-1.481-7.994-1.481
			c-0.97,0-1.775,0.111-2.393,0.33c-4.704,1.667-6.049,7.722-5.309,12.642c0.188,1.245,0.37,2.5,0.554,3.763
			c1.069,7.347,2.185,14.897,4.452,21.742c0.103,0.049,0.16,0.076,0.263,0.125c1.959-0.745,2.731-2.538,3.429-4.33
			c0.019-0.049,0.036-0.099,0.055-0.149c-1.159-3.77-1.812-7.809-2.439-11.755c-0.124-0.784-0.248-1.563-0.375-2.336
			c-0.502-3.054,0.411-6.813,3.599-7.848c0.419-0.136,0.965-0.205,1.622-0.205c1.802,0,3.956,0.525,5.419,0.92
			c0.817,0.221,1.453,0.377,2.193,0.377c0.898,0,1.556-0.234,2.084-0.421c0.161-0.058,0.358-0.128,0.616-0.21
			c0.162-0.052,0.317-0.11,0.473-0.172l0.066-0.026C33.349,28.068,34.587,28,35.786,28c1.366,0,2.591,0.136,3.544,0.697
			c1.514,0.892,2.143,2.645,2.433,3.649c0.916,3.171-1.053,10.214-2.034,13.946c-0.145,0.55-0.274,1.091-0.4,1.626
			c0.84,2.344,2.797,6.866,3.597,5.796c0.296-0.395,0.498-0.852,0.594-1.336L44,49.969c0.327-1.459,0.629-2.966,1-4.505
			C46.447,39.452,49.351,28.108,48,23z"/>
	</g>
	<path style="fill:#BCB28A;" d="M39.33,28.697C38.377,28.136,37.152,28,35.786,28c-1.199,0-2.437,0.068-3.584,0.503l-0.066,0.026
		c-0.156,0.062-0.311,0.12-0.473,0.172c-0.258,0.082-0.455,0.152-0.616,0.21c-0.528,0.187-1.185,0.421-2.084,0.421
		c-0.74,0-1.376-0.156-2.193-0.377c-1.464-0.395-3.618-0.92-5.419-0.92c-0.658,0-1.203,0.069-1.622,0.205
		c-3.189,1.035-4.101,4.794-3.599,7.848c0.127,0.773,0.251,1.552,0.375,2.336c0.627,3.946,1.28,7.985,2.439,11.755
		c1.435-3.723,2.321-7.601,4.607-10.945c2.286-3.343,5.946-5.746,9.893-3.396c3.961,2.359,4.38,7.481,5.667,11.446
		c0.059,0.182,0.135,0.401,0.219,0.634c0.126-0.535,0.255-1.076,0.4-1.626c0.981-3.733,2.95-10.775,2.034-13.946
		C41.473,31.342,40.844,29.589,39.33,28.697z"/>
	<circle style="fill:#FFFFFF;" cx="20" cy="36" r="1"/>
	<circle style="fill:#FFFFFF;" cx="24" cy="32" r="1"/>
	<circle style="fill:#FFFFFF;" cx="37" cy="32" r="1"/>
	<g>
		<circle style="fill:#AF6868;" cx="52" cy="49" r="1"/>
		<circle style="fill:#AF6868;" cx="55" cy="39" r="1"/>
		<circle style="fill:#AF6868;" cx="34" cy="43" r="1"/>
		<circle style="fill:#AF6868;" cx="37" cy="54" r="1"/>
		<circle style="fill:#AF6868;" cx="5" cy="51" r="1"/>
		<circle style="fill:#AF6868;" cx="3" cy="35" r="1"/>
		<circle style="fill:#AF6868;" cx="26.5" cy="51.5" r="3.5"/>
	</g>
</g>
<g>
</g>
<g>
</g>
<g>
</g>
<g>
</g>
<g>
</g>
<g>
</g>
<g>
</g>
<g>
</g>
<g>
</g>
<g>
</g>
<g>
</g>
<g>
</g>
<g>
</g>
<g>
</g>
<g>
</g>
</svg>
