<?xml version="1.0" encoding="iso-8859-1"?>
<!-- Generator: Adobe Illustrator 18.0.0, SVG Export Plug-In . SVG Version: 6.00 Build 0)  -->
<!DOCTYPE svg PUBLIC "-//W3C//DTD SVG 1.1//EN" "http://www.w3.org/Graphics/SVG/1.1/DTD/svg11.dtd">
<svg version="1.1" id="Capa_1" xmlns="http://www.w3.org/2000/svg" xmlns:xlink="http://www.w3.org/1999/xlink" x="0px" y="0px"
	 viewBox="0 0 58.541 58.541" style="enable-background:new 0 0 58.541 58.541;" xml:space="preserve">
<g>
	
		<rect x="41.061" y="5.985" transform="matrix(0.7071 -0.7071 0.7071 0.7071 7.5159 37.1158)" style="fill:#FFFFFF;" width="15" height="7"/>
	<path style="fill:#E7ECED;" d="M57.263,7.037c0.1-0.243,0.1-0.516,0-0.76c-0.05-0.121-0.123-0.233-0.217-0.327L52.096,1
		l-0.707-0.707c-0.391-0.391-1.023-0.391-1.414,0s-0.391,1.023,0,1.414l0,0l-0.707,0.707c-0.391-0.39-1.023-0.39-1.414,0
		s-0.391,1.023,0,1.414l-0.707,0.707l0,0c-0.391-0.391-1.023-0.391-1.414,0s-0.391,1.023,0,1.414l0,0l-0.707,0.707
		c-0.391-0.39-1.023-0.391-1.414,0c-0.391,0.391-0.391,1.023,0,1.414l-0.707,0.707l0,0c-0.391-0.391-1.023-0.391-1.414,0
		s-0.391,1.023,0,1.414l0,0L40.782,10.9c-0.391-0.391-1.023-0.391-1.414,0s-0.391,1.023,0,1.414l0.707,0.707l4.95,4.95
		c0.195,0.195,0.451,0.293,0.707,0.293s0.512-0.098,0.707-0.293l6.364-6.363c0,0,0,0,0.001,0l0-0.001l4.242-4.242
		C57.141,7.27,57.214,7.158,57.263,7.037z M54.925,6.657l-0.707,0.707l-3.536-3.536l0.707-0.707L54.925,6.657z M49.268,5.242
		l3.536,3.536l-0.707,0.707L48.56,5.95L49.268,5.242z M50.682,10.9l-0.707,0.707l-3.536-3.536l0.707-0.707L50.682,10.9z
		 M45.025,9.485l3.536,3.536l-0.707,0.707l-3.536-3.536L45.025,9.485z M42.197,12.314l0.707-0.707l3.536,3.536l-0.708,0.707
		L42.197,12.314z"/>
	<path style="fill:#A485BE;" d="M36.047,27.949c-0.256,0-0.512-0.098-0.707-0.293c-0.391-0.391-0.391-1.023,0-1.414L56.009,5.573
		c0.391-0.391,1.023-0.391,1.414,0s0.391,1.023,0,1.414L36.754,27.656C36.558,27.852,36.302,27.949,36.047,27.949z"/>
	<path style="fill:#A485BE;" d="M1.898,52.287l30.853-30.853c0.547-0.547,1.337-0.773,2.09-0.599l4.942,1.14
		c0.986,0.228,1.337,1.451,0.621,2.167L7.079,57.468c-1.431,1.431-3.75,1.431-5.181,0l0,0C0.467,56.037,0.467,53.718,1.898,52.287z"
		/>
	<path style="fill:#3E465B;" d="M9.022,56.525c-0.38,0-0.743-0.218-0.911-0.587l-3.238-7.124c-0.229-0.502-0.006-1.095,0.497-1.324
		c0.5-0.229,1.095-0.007,1.324,0.497l3.238,7.124c0.229,0.502,0.006,1.095-0.497,1.324C9.301,56.496,9.16,56.525,9.022,56.525z"/>
	<path style="fill:#3E465B;" d="M12.907,52.639c-0.38,0-0.743-0.218-0.911-0.586L8.759,44.93c-0.229-0.503-0.006-1.096,0.496-1.324
		c0.501-0.229,1.095-0.007,1.324,0.496l3.238,7.123c0.229,0.503,0.006,1.096-0.496,1.324C13.187,52.61,13.046,52.639,12.907,52.639z
		"/>
	<path style="fill:#3E465B;" d="M16.793,48.754c-0.38,0-0.743-0.218-0.911-0.587l-3.238-7.124c-0.229-0.502-0.006-1.095,0.497-1.324
		c0.5-0.229,1.095-0.007,1.324,0.497l3.238,7.124c0.229,0.502,0.006,1.095-0.497,1.324C17.072,48.725,16.931,48.754,16.793,48.754z"
		/>
</g>
<g>
</g>
<g>
</g>
<g>
</g>
<g>
</g>
<g>
</g>
<g>
</g>
<g>
</g>
<g>
</g>
<g>
</g>
<g>
</g>
<g>
</g>
<g>
</g>
<g>
</g>
<g>
</g>
<g>
</g>
</svg>
