<?xml version="1.0" encoding="iso-8859-1"?>
<!-- Generator: Adobe Illustrator 18.0.0, SVG Export Plug-In . SVG Version: 6.00 Build 0)  -->
<!DOCTYPE svg PUBLIC "-//W3C//DTD SVG 1.1//EN" "http://www.w3.org/Graphics/SVG/1.1/DTD/svg11.dtd">
<svg version="1.1" id="Capa_1" xmlns="http://www.w3.org/2000/svg" xmlns:xlink="http://www.w3.org/1999/xlink" x="0px" y="0px"
	 viewBox="0 0 58.004 58.004" style="enable-background:new 0 0 58.004 58.004;" xml:space="preserve">
<g>
	<path style="fill:#E7ECED;" d="M1.466,3.291C0.955,3.223,0.778,3.952,1.263,4.127l13.908,3.516
		c7.524,10.162,13.102,20.502,24.321,32.647c1.248,1.351,11.992,12.151,13.39,13.549l0,0c1.172,1.172,3.071,1.172,4.243,0
		s1.172-3.071,0-4.243l0,0c-0.936-0.936-11.267-11.295-12.14-12.222C33.491,25.175,27.185,13.786,19.414,3.291H1.466z"/>
	<path style="fill:#AFB6BB;" d="M37.633,38.221c-0.26-0.293-0.522-0.586-0.776-0.877c-0.38-0.436-0.752-0.869-1.119-1.3
		c-0.249-0.293-0.494-0.584-0.738-0.875c-0.356-0.426-0.711-0.851-1.056-1.272c-0.231-0.282-0.453-0.561-0.679-0.842
		c-0.611-0.76-1.205-1.513-1.783-2.26c-0.221-0.287-0.447-0.575-0.664-0.859c-0.291-0.383-0.574-0.762-0.858-1.141
		c-0.245-0.327-0.489-0.654-0.729-0.98c-0.259-0.352-0.516-0.703-0.77-1.052c-0.274-0.378-0.544-0.754-0.812-1.129
		c-0.207-0.289-0.415-0.579-0.619-0.867c-0.468-0.661-0.929-1.319-1.382-1.973c-0.028-0.04-0.055-0.08-0.083-0.12
		c-0.489-0.706-0.969-1.407-1.445-2.105c-0.008-0.012-0.017-0.025-0.025-0.037c-1.843-2.703-3.61-5.352-5.42-7.971l0,0
		c-0.525-0.758-1.054-1.515-1.59-2.27H0.488c-0.511-0.068-0.688,0.848-0.202,1.022l13.472,3.401l26.87,26.87l0.042-0.042
		C39.606,40.419,38.603,39.315,37.633,38.221z"/>
</g>
<g>
</g>
<g>
</g>
<g>
</g>
<g>
</g>
<g>
</g>
<g>
</g>
<g>
</g>
<g>
</g>
<g>
</g>
<g>
</g>
<g>
</g>
<g>
</g>
<g>
</g>
<g>
</g>
<g>
</g>
</svg>
