<?xml version="1.0" encoding="iso-8859-1"?>
<!-- Generator: Adobe Illustrator 18.0.0, SVG Export Plug-In . SVG Version: 6.00 Build 0)  -->
<!DOCTYPE svg PUBLIC "-//W3C//DTD SVG 1.1//EN" "http://www.w3.org/Graphics/SVG/1.1/DTD/svg11.dtd">
<svg version="1.1" id="Capa_1" xmlns="http://www.w3.org/2000/svg" xmlns:xlink="http://www.w3.org/1999/xlink" x="0px" y="0px"
	 viewBox="0 0 55.649 55.649" style="enable-background:new 0 0 55.649 55.649;" xml:space="preserve">
<g>
	<path style="fill:#E7ECED;" d="M47.214,2.417c0.235-1.695,2.201-2.593,3.854-2.151l0,0c1.734,0.464,2.815,2.301,2.223,3.996
		C40.482,40.931,7.855,55.557,7.759,55.627C6.351,56.668,44.618,21.152,47.214,2.417z"/>
	<g>
		<path style="fill:#AFB6BB;" d="M52.763,1.392c0.038,0.048,0.071,0.101,0.106,0.151C52.837,1.49,52.798,1.442,52.763,1.392z"/>
		<path style="fill:#AFB6BB;" d="M45.406,8.543c0.909-2.174,1.547-4.238,1.808-6.126c0.235-1.695,2.201-2.593,3.854-2.151
			c0.635,0.17,1.179,0.527,1.589,0.99c-0.861-1.109-2.379-1.603-3.706-0.99C13.687,16.551,2.275,50.436,2.214,50.537
			C1.405,51.887,26.881,18.517,45.406,8.543z"/>
	</g>
</g>
<g>
</g>
<g>
</g>
<g>
</g>
<g>
</g>
<g>
</g>
<g>
</g>
<g>
</g>
<g>
</g>
<g>
</g>
<g>
</g>
<g>
</g>
<g>
</g>
<g>
</g>
<g>
</g>
<g>
</g>
</svg>
