<?xml version="1.0" encoding="iso-8859-1"?>
<!-- Generator: Adobe Illustrator 18.0.0, SVG Export Plug-In . SVG Version: 6.00 Build 0)  -->
<!DOCTYPE svg PUBLIC "-//W3C//DTD SVG 1.1//EN" "http://www.w3.org/Graphics/SVG/1.1/DTD/svg11.dtd">
<svg version="1.1" id="Capa_1" xmlns="http://www.w3.org/2000/svg" xmlns:xlink="http://www.w3.org/1999/xlink" x="0px" y="0px"
	 viewBox="0 0 58 58" style="enable-background:new 0 0 58 58;" xml:space="preserve">
<g>
	<path style="fill:#ED9893;" d="M57.384,6.165c-1.663-3.2-5.595-4.05-8.372-2.199l-6.594,4.396c-0.823,0.55-1.791,0.773-2.737,0.67
		L40,8.012c0-0.506-0.235-0.977-0.619-1.306c-8.88-7.61-12.005-7.606-20.762,0C18.237,7.038,18,7.506,18,8.012l0.319,1.021
		c-0.946,0.103-1.914-0.12-2.738-0.67l-6.374-4.25c-2.28-1.52-5.821-1.266-7.679,0.748C0.541,5.931,0,7.313,0,8.777v2.912
		c0,1.494,0.579,2.931,1.615,4.008c0.446,0.464,0.923,0.89,1.419,1.289c-0.293,1.906,1.925,4.1,5.141,5.006
		c2.758,0.776,5.386,0.362,6.549-0.893c0.512,0.067,1.027,0.111,1.541,0.111c1.82,0,3.633-0.416,5.28-1.227l0.176-0.073l0.989,3.162
		C22.26,24.26,22,25.59,22,27c0,2.331,0.373,4.572,1.409,6.207c0.293-0.217,0.689-0.275,1.038-0.101l2,1
		c0.494,0.247,0.694,0.848,0.447,1.342C26.719,35.798,26.367,36,26,36c-0.15,0-0.303-0.034-0.446-0.105l-1.662-0.831
		C23.92,35.509,24,35.97,24,36.5c0,1.222,0.261,2.363,0.713,3.339c0.198,0.426,0.139,0.915-0.124,1.305
		C24.217,41.698,24,42.327,24,43c0,0.498,0.122,0.97,0.335,1.406c0.184,0.377,0.184,0.81,0,1.187C24.122,46.031,24,46.503,24,47
		s0.122,0.97,0.335,1.406c0.184,0.377,0.184,0.81,0,1.187C24.122,50.031,24,50.503,24,51v6h10v-6c0-0.498-0.122-0.97-0.335-1.406
		c-0.184-0.377-0.184-0.81,0-1.187C33.879,47.97,34,47.498,34,47s-0.122-0.97-0.335-1.406c-0.184-0.377-0.184-0.81,0-1.187
		C33.879,43.97,34,43.498,34,43c0-0.674-0.217-1.302-0.589-1.856c-0.262-0.39-0.321-0.878-0.124-1.305
		C33.739,38.864,34,37.722,34,36.5c0-0.531,0.08-0.991,0.109-1.437l-1.662,0.831C32.304,35.966,32.152,36,32.001,36
		c-0.367,0-0.72-0.202-0.896-0.553c-0.247-0.494-0.047-1.095,0.447-1.342l2-1c0.348-0.174,0.745-0.116,1.038,0.101
		C35.627,31.572,36,29.331,36,27c0-1.411-0.26-2.74-0.709-3.929l0.989-3.162l0.176,0.073c1.647,0.811,3.46,1.227,5.28,1.227
		c0.42,0,0.842-0.024,1.261-0.069c0.044,0.135,0.098,0.267,0.168,0.392c0.997,1.778,4.277,1.834,7.325,0.125
		c2-1.121,3.397-2.723,3.845-4.195c0.775-0.558,1.506-1.183,2.169-1.891C57.485,14.526,58,13.124,58,11.689V8.884
		C58,7.944,57.817,7,57.384,6.165z M19.947,16.315c-0.043,0.018-0.085,0.037-0.126,0.058c-1.625,0.813-3.497,1.044-5.268,0.649
		l-0.633-0.141c-0.917-0.844-2.217-1.566-3.745-1.997c-1.294-0.364-2.558-0.464-3.658-0.341c-0.727-0.463-1.415-0.99-2.021-1.622
		C4.177,12.589,4,12.151,4,11.689V8.777c0-0.476,0.186-0.923,0.521-1.26C5.12,6.92,6.066,6.825,6.77,7.295l6.594,4.396
		c1.845,1.23,4.061,1.628,6.16,1.192l0.999,3.193L19.947,16.315z M54,11.689c0,0.462-0.177,0.9-0.496,1.233
		c-0.403,0.42-0.842,0.797-1.301,1.144c-1.468-0.283-3.438,0.095-5.324,1.152c-0.78,0.437-1.467,0.948-2.044,1.495l-1.389,0.309
		c-1.771,0.395-3.643,0.163-5.268-0.649c-0.041-0.021-0.083-0.04-0.126-0.058l-0.574-0.239l0.999-3.193
		c2.099,0.436,4.315,0.038,6.16-1.192l6.594-4.396c0.703-0.47,1.649-0.375,2.248,0.223C53.815,7.854,54,8.301,54,8.777V11.689z"/>
	<path style="fill:#F76363;" d="M37.889,8.062C33.619,4.423,31.103,3,28.956,3c-2.171,0-4.58,1.375-8.845,5.061l2.864,9.16
		l-0.02,0.008c0,0.001,0,0.002,0.001,0.004l0.021-0.009l1.847,5.909l-0.243,0.646C24.196,24.796,24,25.88,24,27
		c0,2.631,0.513,4.587,1.482,5.657l0.797,0.88l-0.391,1.12c-0.035,0.102-0.002,0.4,0.031,0.688C25.961,35.707,26,36.087,26,36.5
		c0,0.89,0.183,1.753,0.528,2.5c0.488,1.057,0.384,2.275-0.279,3.259C26.082,42.508,26,42.751,26,43c0,0.174,0.043,0.347,0.133,0.53
		c0.455,0.935,0.455,2.005,0,2.94C26.043,46.654,26,46.827,26,47s0.043,0.347,0.133,0.53c0.455,0.935,0.455,2.005,0,2.94
		C26.043,50.654,26,50.827,26,51v4h6v-4c0-0.174-0.043-0.347-0.133-0.53c-0.455-0.935-0.455-2.005,0-2.94
		C31.958,47.347,32,47.174,32,47s-0.043-0.347-0.133-0.53c-0.455-0.935-0.455-2.005,0-2.94C31.958,43.347,32,43.174,32,43
		c0-0.249-0.081-0.492-0.247-0.738c-0.665-0.986-0.77-2.205-0.28-3.264C31.818,38.253,32,37.39,32,36.5
		c0-0.413,0.039-0.793,0.08-1.154c0.033-0.288,0.066-0.587,0.031-0.688l-0.391-1.12l0.797-0.88C33.488,31.587,34,29.631,34,27
		c0-1.12-0.195-2.204-0.58-3.221l-0.245-0.646l1.851-5.914L37.889,8.062z"/>
	<path style="fill:#B34B4D;" d="M27.706,30.644C27.677,30.612,27,29.832,27,27c0-0.756,0.13-1.483,0.386-2.161
		c0.396-1.045,0.429-2.192,0.096-3.259l-0.988-3.162c-0.209-0.668-0.552-1.275-1.001-1.792c0.074-0.669,0.014-1.362-0.198-2.043
		l-0.998-3.192c-0.214-0.683-0.563-1.29-1.008-1.8c0.012-0.104,0.021-0.207,0.025-0.312C25.38,7.574,27.592,6,28.956,6
		c1.378,0,3.627,1.581,5.732,3.296c0.005,0.099,0.014,0.197,0.024,0.295c-0.445,0.51-0.794,1.116-1.008,1.8l-0.998,3.192
		c-0.212,0.681-0.272,1.374-0.198,2.043c-0.449,0.517-0.792,1.124-1.001,1.792l-0.988,3.162c-0.333,1.066-0.3,2.214,0.096,3.259
		C30.871,25.517,31,26.244,31,27c0,2.832-0.677,3.611-0.705,3.644H27.706z"/>
	<path style="fill:#B34B4D;" d="M26,36c0.367,0,0.72-0.202,0.896-0.553c0.247-0.494,0.047-1.095-0.447-1.342l-2-1
		c-0.349-0.174-0.745-0.116-1.038,0.101C23.588,33.489,23.781,33.758,24,34c-0.126,0.362-0.133,0.708-0.109,1.063l1.662,0.831
		C25.697,35.966,25.849,36,26,36z"/>
	<path style="fill:#B34B4D;" d="M33.553,33.106l-2,1c-0.494,0.247-0.694,0.848-0.447,1.342C31.282,35.798,31.634,36,32.001,36
		c0.15,0,0.303-0.034,0.446-0.105l1.662-0.831C34.133,34.709,34.126,34.362,34,34c0.22-0.243,0.412-0.512,0.591-0.793
		C34.298,32.99,33.901,32.932,33.553,33.106z"/>
</g>
<g>
</g>
<g>
</g>
<g>
</g>
<g>
</g>
<g>
</g>
<g>
</g>
<g>
</g>
<g>
</g>
<g>
</g>
<g>
</g>
<g>
</g>
<g>
</g>
<g>
</g>
<g>
</g>
<g>
</g>
</svg>
