<?xml version="1.0" encoding="iso-8859-1"?>
<!-- Generator: Adobe Illustrator 18.0.0, SVG Export Plug-In . SVG Version: 6.00 Build 0)  -->
<!DOCTYPE svg PUBLIC "-//W3C//DTD SVG 1.1//EN" "http://www.w3.org/Graphics/SVG/1.1/DTD/svg11.dtd">
<svg version="1.1" id="Capa_1" xmlns="http://www.w3.org/2000/svg" xmlns:xlink="http://www.w3.org/1999/xlink" x="0px" y="0px"
	 viewBox="0 0 58 58" style="enable-background:new 0 0 58 58;" xml:space="preserve">
<g>
	<circle style="fill:#F4C795;" cx="29" cy="29" r="29"/>
	<circle style="fill:#4C4C4F;" cx="30" cy="20" r="1"/>
	<circle style="fill:#4C4C4F;" cx="27" cy="18" r="1"/>
	<circle style="fill:#4C4C4F;" cx="33" cy="18" r="1"/>
	<circle style="fill:#4C4C4F;" cx="33" cy="15" r="1"/>
	<circle style="fill:#4C4C4F;" cx="30" cy="17" r="1"/>
	<circle style="fill:#4C4C4F;" cx="33" cy="21" r="1"/>
	<circle style="fill:#4C4C4F;" cx="27" cy="21" r="1"/>
	<circle style="fill:#4C4C4F;" cx="30" cy="14" r="1"/>
	<circle style="fill:#4C4C4F;" cx="27" cy="15" r="1"/>
	<path style="fill:#556080;" d="M26,30l2,5v22.975C28.333,57.986,28.665,58,29,58c1.013,0,2.014-0.053,3-0.154V52V36l2-6h-5H26z"/>
	<path style="fill:#FBCE9D;" d="M8.294,8.704c0.004,0.004,0.005,0.009,0.009,0.013c2.129,2.108,4.41,4.762,6.777,7.886
		c0.196,0.259,0.495,0.396,0.798,0.396c0.21,0,0.423-0.066,0.604-0.203c0.439-0.334,0.526-0.961,0.192-1.401
		C14.26,12.21,11.928,9.498,9.74,7.327C9.242,7.769,8.76,8.228,8.294,8.704z"/>
	<path style="fill:#F7B563;" d="M8.295,8.702C8.301,8.709,8.303,8.717,8.31,8.724c2.127,2.108,4.406,4.76,6.772,7.881
		C15.278,16.863,15.577,17,15.88,17c0.21,0,0.423-0.066,0.604-0.203c0.439-0.334,0.526-0.961,0.192-1.401
		c-2.416-3.185-4.749-5.898-6.936-8.069C9.243,7.769,8.761,8.227,8.295,8.702z"/>
	<path style="fill:#F7B563;" d="M51.341,10.511c-0.426-0.514-0.873-1.007-1.333-1.49c-0.002,0.001-0.004,0.002-0.005,0.003
		c-2.623,2.448-5.437,5.598-8.364,9.361c-0.339,0.437-0.261,1.064,0.175,1.403c0.183,0.143,0.399,0.211,0.613,0.211
		c0.298,0,0.593-0.133,0.79-0.386C46.07,15.946,48.803,12.884,51.341,10.511z"/>
	<path style="fill:#F9DBBD;" d="M37.979,22.362c-0.636,0.917-1.233,1.797-1.793,2.635c-0.043,0.064-0.086,0.129-0.129,0.193
		c-0.638,0.957-1.22,1.848-1.735,2.65c-2.844,0.807-5.681,1.01-8.68,0.538c-0.021-0.036-0.046-0.076-0.067-0.113
		c-0.137-0.23-0.284-0.476-0.429-0.718c-0.085-0.142-0.164-0.276-0.252-0.421c-0.259-0.43-0.528-0.874-0.809-1.333
		c-0.324-0.528-1.015-0.695-1.547-0.371c-0.397,0.243-0.59,0.694-0.525,1.127c0.022,0.145,0.072,0.288,0.154,0.42
		c0.322,0.526,0.629,1.033,0.922,1.52c0.035,0.059,0.068,0.114,0.103,0.172c0.237,0.395,0.462,0.774,0.677,1.139
		c0.351,0.595,0.681,1.158,0.97,1.661c1.085,1.884,1.66,3.982,1.66,6.067v20.357c0.743,0.063,1.492,0.102,2.25,0.108V37.529
		c0-2.313-0.613-4.625-1.735-6.733c0.584,0.047,1.166,0.081,1.735,0.081c1.303,0,2.61-0.131,3.912-0.363
		c-1.086,1.939-1.662,4.064-1.662,6.187v21.223c0.758-0.052,1.509-0.128,2.25-0.237V36.701c0-1.904,0.567-3.823,1.64-5.548
		c0.257-0.412,0.552-0.883,0.879-1.397l0.002-0.001l0.223-0.35c0.608-0.951,1.225-1.897,1.847-2.833
		c0.029-0.043,0.058-0.087,0.087-0.131c0.62-0.93,1.244-1.85,1.87-2.751l0-0.001c0.01-0.015,0.02-0.029,0.03-0.044
		c0.355-0.511,0.228-1.212-0.282-1.565C39.033,21.724,38.334,21.852,37.979,22.362z"/>
	<path style="fill:#EA7F5F;" d="M30,31c-0.553,0-1-0.447-1-1v-5c0-0.553,0.447-1,1-1s1,0.447,1,1v5C31,30.553,30.553,31,30,31z"/>
</g>
<g>
</g>
<g>
</g>
<g>
</g>
<g>
</g>
<g>
</g>
<g>
</g>
<g>
</g>
<g>
</g>
<g>
</g>
<g>
</g>
<g>
</g>
<g>
</g>
<g>
</g>
<g>
</g>
<g>
</g>
</svg>
