<?xml version="1.0" encoding="iso-8859-1"?>
<!-- Generator: Adobe Illustrator 18.0.0, SVG Export Plug-In . SVG Version: 6.00 Build 0)  -->
<!DOCTYPE svg PUBLIC "-//W3C//DTD SVG 1.1//EN" "http://www.w3.org/Graphics/SVG/1.1/DTD/svg11.dtd">
<svg version="1.1" id="Capa_1" xmlns="http://www.w3.org/2000/svg" xmlns:xlink="http://www.w3.org/1999/xlink" x="0px" y="0px"
	 viewBox="0 0 53.944 53.944" style="enable-background:new 0 0 53.944 53.944;" xml:space="preserve">
<g>
	<path style="fill:#3E465B;" d="M12.999,22.25c-0.48,0-0.904-0.347-0.985-0.836L9.121,4.062L1.758,2.22
		C1.222,2.086,0.896,1.543,1.03,1.008c0.133-0.537,0.677-0.863,1.212-0.728l8,2c0.387,0.096,0.679,0.413,0.744,0.806l3,18
		c0.091,0.544-0.277,1.06-0.822,1.15C13.108,22.246,13.054,22.25,12.999,22.25z"/>
	<path style="fill:#3E465B;" d="M47,47.25c-0.553,0-1-0.447-1-1v-15c0-0.553,0.447-1,1-1s1,0.447,1,1v15
		C48,46.803,47.553,47.25,47,47.25z"/>
	<g>
		<circle style="fill:#7383BF;" cx="46.944" cy="46.25" r="6"/>
		<path style="fill:#3E465B;" d="M46.944,53.25c-3.859,0-7-3.141-7-7s3.141-7,7-7s7,3.141,7,7S50.804,53.25,46.944,53.25z
			 M46.944,41.25c-2.757,0-5,2.243-5,5s2.243,5,5,5s5-2.243,5-5S49.701,41.25,46.944,41.25z"/>
	</g>
	<path style="fill:#87A09A;" d="M41.288,25.25H27.163c2.828,2.521,4.748,6.036,5.182,10H47v-4.288
		C47,27.807,44.443,25.25,41.288,25.25z"/>
	<path style="fill:#3E465B;" d="M47,36.25H32.346c-0.51,0-0.938-0.384-0.994-0.891c-0.138-1.261-0.453-2.52-0.936-3.742
		c-0.121-0.309-0.082-0.656,0.104-0.93c0.187-0.273,0.496-0.438,0.827-0.438H47c0.553,0,1,0.447,1,1v4
		C48,35.803,47.553,36.25,47,36.25z M33.217,34.25H46v-2H32.751C32.948,32.911,33.104,33.579,33.217,34.25z"/>
	<g>
		<path style="fill:#87A09A;" d="M16.851,7.25h-5.279l1.833,11H26v-1.851C26,11.346,21.904,7.25,16.851,7.25z"/>
	</g>
	<g>
		<path style="fill:#7383BF;" d="M16.722,52.695C8.053,52.695,1,45.642,1,36.972S8.053,21.25,16.722,21.25
			s15.722,7.052,15.722,15.722S25.391,52.695,16.722,52.695z"/>
		<path style="fill:#3E465B;" d="M16.723,53.695C7.502,53.695,0,46.194,0,36.973S7.502,20.25,16.723,20.25
			s16.722,7.502,16.722,16.723S25.943,53.695,16.723,53.695z M16.723,22.25C8.604,22.25,2,28.855,2,36.973
			c0,8.117,6.604,14.722,14.723,14.722c8.117,0,14.722-6.604,14.722-14.722C31.444,28.855,24.84,22.25,16.723,22.25z"/>
	</g>
	<path style="fill:#3E465B;" d="M31.444,36.25H28.09c-0.165-2.599-1.201-4.961-2.823-6.802l2.491-2.491
		c0.391-0.391,0.391-1.023,0-1.414s-1.023-0.391-1.414,0l-2.522,2.522c-1.635-1.306-3.634-2.174-5.821-2.419V22.25
		c0-0.553-0.447-1-1-1s-1,0.447-1,1v3.357c-2.64,0.167-5.034,1.232-6.886,2.898l-2.569-2.569c-0.391-0.391-1.023-0.391-1.414,0
		s-0.391,1.023,0,1.414l2.615,2.615c-1.375,1.757-2.24,3.923-2.389,6.284H1.444c-0.553,0-1,0.447-1,1s0.447,1,1,1h3.952
		c0.245,2.187,1.112,4.186,2.419,5.821l-2.685,2.685c-0.391,0.391-0.391,1.023,0,1.414c0.195,0.195,0.451,0.293,0.707,0.293
		s0.512-0.098,0.707-0.293l2.653-2.653c1.84,1.622,4.202,2.657,6.802,2.821v3.913c0,0.553,0.447,1,1,1s1-0.447,1-1v-3.952
		c2.147-0.241,4.11-1.083,5.729-2.349l2.615,2.615c0.195,0.195,0.451,0.293,0.707,0.293s0.512-0.098,0.707-0.293
		c0.391-0.391,0.391-1.023,0-1.414l-2.568-2.568c1.549-1.722,2.581-3.912,2.855-6.331h3.4c0.553,0,1-0.447,1-1
		S31.997,36.25,31.444,36.25z M16.723,46.374c-5.185,0-9.402-4.218-9.402-9.401c0-5.185,4.218-9.402,9.402-9.402
		c5.184,0,9.401,4.218,9.401,9.402C26.124,42.156,21.906,46.374,16.723,46.374z"/>
</g>
<g>
</g>
<g>
</g>
<g>
</g>
<g>
</g>
<g>
</g>
<g>
</g>
<g>
</g>
<g>
</g>
<g>
</g>
<g>
</g>
<g>
</g>
<g>
</g>
<g>
</g>
<g>
</g>
<g>
</g>
</svg>
