<?xml version="1.0" encoding="iso-8859-1"?>
<!-- Generator: Adobe Illustrator 18.0.0, SVG Export Plug-In . SVG Version: 6.00 Build 0)  -->
<!DOCTYPE svg PUBLIC "-//W3C//DTD SVG 1.1//EN" "http://www.w3.org/Graphics/SVG/1.1/DTD/svg11.dtd">
<svg version="1.1" id="Capa_1" xmlns="http://www.w3.org/2000/svg" xmlns:xlink="http://www.w3.org/1999/xlink" x="0px" y="0px"
	 viewBox="0 0 60 60" style="enable-background:new 0 0 60 60;" xml:space="preserve">
<g>
	<g>
		<rect x="1" y="4" style="fill:#556080;" width="58" height="52"/>
		<path style="fill:#3E465B;" d="M60,57H0V3h60V57z M2,55h56V5H2V55z"/>
	</g>
	<path style="fill:#7383BF;" d="M23.54,47.355c-3.573,0-5.037-3.559-5.588-4.898l-0.054-0.131c-1.852-4.47-2.538-9.188-3.202-13.752
		l-0.264-1.791c-0.9-5.986,1.882-11.374,6.764-13.104c0.988-0.35,2.098-0.527,3.298-0.527c1.908,0,3.774,0.436,5.258,0.857
		l0.013-0.006C31.355,13.346,33.085,13,34.771,13c2.206,0,4.278,0.583,5.994,1.688c2.443,1.57,4.132,3.728,4.752,6.073
		c1.295,4.895,0.066,9.999-1.019,14.503c-0.171,0.71-0.338,1.403-0.488,2.076l-0.134,0.604c-0.428,1.95-0.913,4.161-2.126,6.285
		c-1.513,2.654-3.572,3.051-4.665,3.051c-3.99,0-5.405-4.356-6.01-6.217c-0.157-0.484-0.294-0.998-0.43-1.521
		c-0.066-0.256-0.152-0.584-0.245-0.897c-0.352,0.655-0.627,1.463-0.936,2.371c-0.197,0.579-0.396,1.159-0.62,1.732
		c-0.409,1.052-1.262,3.238-3.745,4.29l-0.748,0.317H23.54z"/>
	<g>
		<path style="fill:#9EF5FC;" d="M41.651,21.783c1.223,4.622-0.523,10.134-1.543,14.681c-0.443,1.977-0.814,4-1.83,5.782
			c-1.609,2.82-2.891-0.862-3.397-2.419c-0.621-1.914-0.824-4.387-2.736-5.526c-1.905-1.135-3.672,0.025-4.776,1.639
			c-1.118,1.636-1.542,3.536-2.251,5.355c-0.328,0.841-0.689,1.683-1.579,2.06c-0.944,0-1.6-1.725-1.947-2.563
			c-1.893-4.57-2.474-9.748-3.205-14.606c-0.514-3.417,0.594-7.48,4.144-8.737c1.929-0.683,4.571-0.053,6.503,0.516
			c1.11,0.327,0.905,0.22,2.011-0.163c0.085-0.03,0.168-0.069,0.255-0.105c2.366-0.979,5.218-0.986,7.3,0.353
			C40.006,18.954,41.244,20.247,41.651,21.783z"/>
		<path style="fill:#6ED0FF;" d="M23.743,44.355H23.54c-1.563,0-2.346-1.902-2.813-3.039l-0.058-0.141
			c-1.707-4.122-2.366-8.652-3.004-13.033l-0.267-1.807c-0.577-3.841,0.684-8.37,4.8-9.828c2.184-0.775,4.951-0.141,7.119,0.499
			c0.151,0.045,0.509,0.149,0.598,0.153c0.052-0.014,0.131-0.051,0.247-0.097c0.145-0.056,0.323-0.125,0.555-0.205l0.2-0.085
			c2.836-1.174,5.985-1.005,8.225,0.437c1.813,1.165,3.048,2.698,3.476,4.317c1.102,4.163-0.033,8.876-1.034,13.034
			c-0.175,0.726-0.346,1.435-0.5,2.122l-0.136,0.617c-0.401,1.825-0.815,3.714-1.802,5.441c-0.627,1.1-1.366,1.614-2.233,1.528
			c-1.49-0.153-2.314-2.077-2.982-4.135c-0.14-0.43-0.26-0.887-0.381-1.352c-0.395-1.512-0.767-2.939-1.915-3.623
			c-1.558-0.931-2.824,0.444-3.439,1.344c-0.722,1.056-1.133,2.265-1.568,3.544c-0.184,0.538-0.367,1.077-0.575,1.61
			c-0.319,0.819-0.803,2.059-2.12,2.617L23.743,44.355z M24.491,18.151c-0.586,0-1.141,0.069-1.625,0.241
			c-3.042,1.078-3.945,4.617-3.489,7.646l0.267,1.815c0.62,4.26,1.262,8.665,2.873,12.556l0.061,0.146
			c0.359,0.874,0.653,1.439,0.877,1.687c0.311-0.276,0.509-0.732,0.733-1.31c0.197-0.506,0.371-1.018,0.545-1.528
			c0.46-1.351,0.936-2.747,1.812-4.028c1.671-2.443,4.014-3.184,6.113-1.934c1.853,1.104,2.37,3.087,2.827,4.837
			c0.111,0.426,0.22,0.845,0.348,1.239c0.618,1.902,1.052,2.509,1.247,2.699c0.073-0.075,0.187-0.216,0.329-0.467
			c0.835-1.463,1.199-3.122,1.585-4.879l0.139-0.626c0.156-0.697,0.329-1.417,0.507-2.152c0.945-3.928,2.017-8.381,1.045-12.055l0,0
			c-0.3-1.135-1.231-2.252-2.624-3.147c-1.696-1.092-4.141-1.193-6.377-0.271c-0.147,0.064-0.23,0.1-0.315,0.128
			c-0.198,0.069-0.354,0.13-0.481,0.179c-0.796,0.309-1.077,0.308-2.134-0.003C27.525,18.563,25.916,18.151,24.491,18.151z"/>
	</g>
	<path style="fill:#7383BF;" d="M10,18H6c-0.553,0-1-0.447-1-1s0.447-1,1-1h4c0.553,0,1,0.447,1,1S10.553,18,10,18z"/>
	<path style="fill:#7383BF;" d="M14,14H6c-0.553,0-1-0.447-1-1s0.447-1,1-1h8c0.553,0,1,0.447,1,1S14.553,14,14,14z"/>
	<path style="fill:#7383BF;" d="M10,10H6c-0.553,0-1-0.447-1-1s0.447-1,1-1h4c0.553,0,1,0.447,1,1S10.553,10,10,10z"/>
	<g>
		<circle style="fill:#7383BF;" cx="20" cy="8" r="1"/>
		<circle style="fill:#7383BF;" cx="26" cy="8" r="1"/>
		<circle style="fill:#7383BF;" cx="32" cy="8" r="1"/>
		<circle style="fill:#7383BF;" cx="38" cy="8" r="1"/>
		<circle style="fill:#7383BF;" cx="44" cy="8" r="1"/>
		<circle style="fill:#7383BF;" cx="50" cy="8" r="1"/>
		<circle style="fill:#7383BF;" cx="56" cy="8" r="1"/>
		<circle style="fill:#7383BF;" cx="23" cy="11" r="1"/>
		<circle style="fill:#7383BF;" cx="29" cy="11" r="1"/>
		<circle style="fill:#7383BF;" cx="35" cy="11" r="1"/>
		<circle style="fill:#7383BF;" cx="41" cy="11" r="1"/>
		<circle style="fill:#7383BF;" cx="47" cy="11" r="1"/>
		<circle style="fill:#7383BF;" cx="53" cy="11" r="1"/>
		<circle style="fill:#7383BF;" cx="44" cy="14" r="1"/>
		<circle style="fill:#7383BF;" cx="47" cy="17" r="1"/>
		<circle style="fill:#7383BF;" cx="50" cy="14" r="1"/>
		<circle style="fill:#7383BF;" cx="50" cy="20" r="1"/>
		<circle style="fill:#7383BF;" cx="53" cy="17" r="1"/>
		<circle style="fill:#7383BF;" cx="56" cy="14" r="1"/>
		<circle style="fill:#7383BF;" cx="56" cy="20" r="1"/>
		<circle style="fill:#7383BF;" cx="5" cy="23" r="1"/>
		<circle style="fill:#7383BF;" cx="11" cy="23" r="1"/>
		<circle style="fill:#7383BF;" cx="53" cy="23" r="1"/>
		<circle style="fill:#7383BF;" cx="8" cy="26" r="1"/>
		<circle style="fill:#7383BF;" cx="8" cy="32" r="1"/>
		<circle style="fill:#7383BF;" cx="5" cy="29" r="1"/>
		<circle style="fill:#7383BF;" cx="11" cy="29" r="1"/>
		<circle style="fill:#7383BF;" cx="50" cy="26" r="1"/>
		<circle style="fill:#7383BF;" cx="50" cy="32" r="1"/>
		<circle style="fill:#7383BF;" cx="53" cy="29" r="1"/>
		<circle style="fill:#7383BF;" cx="56" cy="26" r="1"/>
		<circle style="fill:#7383BF;" cx="56" cy="32" r="1"/>
		<circle style="fill:#7383BF;" cx="5" cy="35" r="1"/>
		<circle style="fill:#7383BF;" cx="11" cy="35" r="1"/>
		<circle style="fill:#7383BF;" cx="47" cy="35" r="1"/>
		<circle style="fill:#7383BF;" cx="53" cy="35" r="1"/>
		<circle style="fill:#7383BF;" cx="8" cy="38" r="1"/>
		<circle style="fill:#7383BF;" cx="8" cy="44" r="1"/>
		<circle style="fill:#7383BF;" cx="5" cy="41" r="1"/>
		<circle style="fill:#7383BF;" cx="11" cy="41" r="1"/>
		<circle style="fill:#7383BF;" cx="14" cy="38" r="1"/>
		<circle style="fill:#7383BF;" cx="14" cy="44" r="1"/>
		<circle style="fill:#7383BF;" cx="47" cy="41" r="1"/>
		<circle style="fill:#7383BF;" cx="50" cy="38" r="1"/>
		<circle style="fill:#7383BF;" cx="50" cy="44" r="1"/>
		<circle style="fill:#7383BF;" cx="53" cy="41" r="1"/>
		<circle style="fill:#7383BF;" cx="56" cy="38" r="1"/>
		<circle style="fill:#7383BF;" cx="56" cy="44" r="1"/>
		<circle style="fill:#7383BF;" cx="5" cy="47" r="1"/>
		<circle style="fill:#7383BF;" cx="11" cy="47" r="1"/>
		<circle style="fill:#7383BF;" cx="17" cy="47" r="1"/>
		<circle style="fill:#7383BF;" cx="29" cy="47" r="1"/>
		<circle style="fill:#7383BF;" cx="47" cy="47" r="1"/>
		<circle style="fill:#7383BF;" cx="53" cy="47" r="1"/>
		<circle style="fill:#7383BF;" cx="8" cy="50" r="1"/>
		<circle style="fill:#7383BF;" cx="5" cy="53" r="1"/>
		<circle style="fill:#7383BF;" cx="11" cy="53" r="1"/>
		<circle style="fill:#7383BF;" cx="14" cy="50" r="1"/>
		<circle style="fill:#7383BF;" cx="20" cy="50" r="1"/>
		<circle style="fill:#7383BF;" cx="17" cy="53" r="1"/>
		<circle style="fill:#7383BF;" cx="23" cy="53" r="1"/>
		<circle style="fill:#7383BF;" cx="26" cy="50" r="1"/>
		<circle style="fill:#7383BF;" cx="32" cy="50" r="1"/>
		<circle style="fill:#7383BF;" cx="29" cy="53" r="1"/>
		<circle style="fill:#7383BF;" cx="35" cy="53" r="1"/>
		<circle style="fill:#7383BF;" cx="38" cy="50" r="1"/>
		<circle style="fill:#7383BF;" cx="44" cy="50" r="1"/>
		<circle style="fill:#7383BF;" cx="41" cy="53" r="1"/>
		<circle style="fill:#7383BF;" cx="47" cy="53" r="1"/>
		<circle style="fill:#7383BF;" cx="50" cy="50" r="1"/>
		<circle style="fill:#7383BF;" cx="53" cy="53" r="1"/>
		<circle style="fill:#7383BF;" cx="56" cy="50" r="1"/>
	</g>
</g>
<g>
</g>
<g>
</g>
<g>
</g>
<g>
</g>
<g>
</g>
<g>
</g>
<g>
</g>
<g>
</g>
<g>
</g>
<g>
</g>
<g>
</g>
<g>
</g>
<g>
</g>
<g>
</g>
<g>
</g>
</svg>
