<?xml version="1.0" encoding="iso-8859-1"?>
<!-- Generator: Adobe Illustrator 18.0.0, SVG Export Plug-In . SVG Version: 6.00 Build 0)  -->
<!DOCTYPE svg PUBLIC "-//W3C//DTD SVG 1.1//EN" "http://www.w3.org/Graphics/SVG/1.1/DTD/svg11.dtd">
<svg version="1.1" id="Capa_1" xmlns="http://www.w3.org/2000/svg" xmlns:xlink="http://www.w3.org/1999/xlink" x="0px" y="0px"
	 viewBox="0 0 58 58" style="enable-background:new 0 0 58 58;" xml:space="preserve">
<g>
	<path style="fill:#556080;" d="M48.56,58H9.44C8.092,58,7,56.908,7,55.56V2.44C7,1.092,8.092,0,9.44,0h39.12
		C49.908,0,51,1.092,51,2.44v53.12C51,56.908,49.908,58,48.56,58z"/>
	<path style="fill:#7383BF;" d="M49.565,38.688c-1.904-2.909-5.804-4.211-8.824-4.211c-0.414,0-0.816,0.025-1.229,0.079
		C40.43,33.648,41,32.39,41,31c0-0.001,0-0.002,0-0.002c0.981-0.738,1.683-1.829,1.916-3.082C45.237,27.484,47,25.444,47,23
		c0-0.711-0.149-1.388-0.417-2C46.851,20.388,47,19.711,47,19c0-2.444-1.763-4.484-4.084-4.916
		c-0.233-1.253-0.935-2.344-1.916-3.082c0,0,0-0.001,0-0.002c0-2.444-1.763-4.484-4.084-4.916c-0.326-1.754-1.571-3.189-3.214-3.786
		C33.366,1.373,32.76,0.58,31.985,0h-5.97c-0.774,0.58-1.381,1.373-1.716,2.298c-1.644,0.597-2.888,2.032-3.214,3.786
		C18.763,6.516,17,8.556,17,11c0,0.001,0,0.002,0,0.002c-0.981,0.738-1.683,1.829-1.916,3.082C12.763,14.516,11,16.556,11,19
		c0,0.711,0.149,1.388,0.417,2C11.149,21.612,11,22.289,11,23c0,2.444,1.763,4.484,4.084,4.916c0.233,1.253,0.935,2.344,1.916,3.082
		c0,0,0,0.001,0,0.002c0,1.422,0.596,2.706,1.552,3.618l-0.03,0.028c-0.605-0.118-1.249-0.178-1.921-0.178
		c-2.8,0-6.496,1.075-8.469,4.094C7.596,39.381,7.225,40.28,7,41.214v4.279c0.387,1.658,1.213,3.23,2.467,4.48l0.1,0.1l7.893,6.831
		c0.426,0.411,0.893,0.778,1.391,1.097h19.833c0.453-0.297,0.881-0.631,1.273-1.006l8.2-6.817l0.13-0.13
		C51.337,46.997,51.875,42.221,49.565,38.688z"/>
	<path style="fill:#9EF5FC;" d="M46.218,40.878c-1.171-1.79-4.432-2.635-6.241-2.346c-1.349,0.214-2.627-0.216-3.383-1.152
		l-0.715-0.885l-0.229-0.098C35.031,36.134,34.375,36,33.701,36H30v-4h6c0.552,0,1-0.447,1-1s-0.448-1-1-1h-6v-2h8
		c0.552,0,1-0.447,1-1s-0.448-1-1-1h-8v-2h12c0.552,0,1-0.447,1-1s-0.448-1-1-1H30v-2h12c0.552,0,1-0.447,1-1s-0.448-1-1-1H30v-2h8
		c0.552,0,1-0.447,1-1s-0.448-1-1-1h-8v-2h6c0.552,0,1-0.447,1-1s-0.448-1-1-1h-6V8h2c0.552,0,1-0.447,1-1s-0.448-1-1-1h-2V4
		c0-0.553-0.448-1-1-1s-1,0.447-1,1v2h-2c-0.552,0-1,0.447-1,1s0.448,1,1,1h2v2h-6c-0.552,0-1,0.447-1,1s0.448,1,1,1h6v2h-8
		c-0.552,0-1,0.447-1,1s0.448,1,1,1h8v2H16c-0.552,0-1,0.447-1,1s0.448,1,1,1h12v2H16c-0.552,0-1,0.447-1,1s0.448,1,1,1h12v2h-8
		c-0.552,0-1,0.447-1,1s0.448,1,1,1h8v2h-6c-0.552,0-1,0.447-1,1s0.448,1,1,1h6v4h-3.248c-0.957,0-1.893,0.28-2.709,0.81
		l-0.969,0.932c-0.821,0.813-2.001,1.169-3.037,0.896c-1.894-0.5-5.232,0.088-6.558,2.115c-1.217,1.86-0.876,4.705,0.812,6.389
		l7.879,6.818c1.629,1.63,4.324,2.012,6.235,0.854c0.937-0.569,1.641-1.401,2.035-2.405c0.057-0.145,0.17-0.26,0.316-0.327
		c0.146,0.067,0.259,0.183,0.316,0.327c0.395,1.004,1.099,1.836,2.037,2.405c0.753,0.457,1.624,0.698,2.52,0.698
		c1.374,0,2.728-0.565,3.646-1.49l8.183-6.803C47.178,45.5,47.497,42.834,46.218,40.878z M38.701,45c0,1.103-0.897,2-2,2
		s-2-0.897-2-2s0.897-2,2-2S38.701,43.897,38.701,45z M22.752,45c0,1.103-0.897,2-2,2s-2-0.897-2-2s0.897-2,2-2
		S22.752,43.897,22.752,45z"/>
</g>
<g>
</g>
<g>
</g>
<g>
</g>
<g>
</g>
<g>
</g>
<g>
</g>
<g>
</g>
<g>
</g>
<g>
</g>
<g>
</g>
<g>
</g>
<g>
</g>
<g>
</g>
<g>
</g>
<g>
</g>
</svg>
